<svg xmlns="http://www.w3.org/2000/svg" width="375" viewBox="0 0 375 375" height="375" version="1.0"><defs><clipPath id="a"><path d="M 138 93.714844 L 227 93.714844 L 227 160 L 138 160 Z M 138 93.714844"/></clipPath><clipPath id="b"><path d="M 238 147 L 240.480469 147 L 240.480469 151 L 238 151 Z M 238 147"/></clipPath><clipPath id="c"><path d="M 238 153 L 240.480469 153 L 240.480469 171 L 238 171 Z M 238 153"/></clipPath><clipPath id="d"><path d="M 169 204 L 173 204 L 173 206.214844 L 169 206.214844 Z M 169 204"/></clipPath><clipPath id="e"><path d="M 150 204 L 168 204 L 168 206.214844 L 150 206.214844 Z M 150 204"/></clipPath></defs><path fill="#FFF" d="M-37.5 -37.5H412.5V412.5H-37.5z"/><path fill="#FFF" d="M-37.5 -37.5H412.5V412.5H-37.5z"/><path fill="#F0ECE3" d="M-37.5 -37.5H412.5V412.5H-37.5z"/><path fill="#77838D" d="M 111.589844 77.515625 L 266.59375 77.515625 L 266.59375 232.519531 L 111.589844 232.519531 L 111.589844 77.515625"/><path fill="#9AA7B2" d="M 267.21875 233.019531 L 110.964844 233.019531 L 110.964844 76.765625 L 267.21875 76.765625 L 267.21875 233.019531 M 112.214844 231.769531 L 265.96875 231.769531 L 265.96875 78.015625 L 112.214844 78.015625 L 112.214844 231.769531"/><path fill="#C7D0D8" d="M 107.46875 73.269531 L 262.472656 73.269531 L 262.472656 228.273438 L 107.46875 228.273438 L 107.46875 73.269531"/><path fill="#764B36" d="M 234.992188 131 L 212.101562 131 C 211.058594 131 211.058594 129.441406 212.101562 129.441406 L 234.992188 129.441406 C 236.03125 129.441406 236.03125 131 234.992188 131 Z M 234.992188 131"/><path fill="#764B36" d="M 215.914062 145.101562 L 193.023438 145.101562 C 191.980469 145.101562 191.980469 143.539062 193.023438 143.539062 L 215.914062 143.539062 C 216.957031 143.539062 216.957031 145.101562 215.914062 145.101562 Z M 215.914062 145.101562"/><path fill="#764B36" d="M 196.835938 159.199219 L 173.945312 159.199219 C 172.90625 159.199219 172.90625 157.636719 173.945312 157.636719 L 196.835938 157.636719 C 197.878906 157.636719 197.878906 159.199219 196.835938 159.199219 Z M 196.835938 159.199219"/><path fill="#764B36" d="M 177.761719 173.300781 L 154.871094 173.300781 C 153.828125 173.300781 153.828125 171.738281 154.871094 171.738281 L 177.761719 171.738281 C 178.804688 171.738281 178.804688 173.300781 177.761719 173.300781 Z M 177.761719 173.300781"/><path fill="#EFE7DD" d="M 139.605469 200.75 L 139.605469 186.648438 L 158.683594 186.648438 L 158.683594 172.519531 L 177.761719 172.519531 L 177.761719 158.421875 L 196.835938 158.421875 L 196.835938 144.320312 L 215.914062 144.320312 L 215.914062 130.222656 L 234.992188 130.222656 L 234.992188 200.75 Z M 139.605469 200.75"/><path fill="#D1774C" d="M 230.039062 200.75 L 234.992188 200.75 L 234.992188 130.222656 L 230.039062 130.222656 Z M 230.039062 200.75"/><path fill="#764B36" d="M 158.683594 187.429688 L 135.792969 187.429688 C 134.75 187.429688 134.75 185.867188 135.792969 185.867188 L 158.683594 185.867188 C 159.726562 185.867188 159.726562 187.429688 158.683594 187.429688 Z M 158.683594 187.429688"/><path fill="#764B36" d="M 144.28125 187.425781 C 143.847656 187.425781 143.5 187.074219 143.5 186.644531 L 143.5 154.9375 C 143.5 153.894531 145.0625 153.894531 145.0625 154.9375 L 145.0625 186.644531 C 145.0625 187.074219 144.710938 187.425781 144.28125 187.425781 Z M 144.28125 187.425781"/><path fill="#764B36" d="M 219.621094 131.007812 C 219.1875 131.007812 218.839844 130.65625 218.839844 130.226562 L 218.839844 98.910156 C 218.839844 97.867188 220.402344 97.867188 220.402344 98.910156 L 220.402344 130.226562 C 220.402344 130.65625 220.050781 131.007812 219.621094 131.007812 Z M 219.621094 131.007812"/><g clip-path="url(#a)"><path fill="#764B36" d="M 139.605469 159.199219 C 138.855469 159.199219 138.535156 158.246094 139.136719 157.792969 L 224.941406 93.980469 C 225.285156 93.722656 225.773438 93.792969 226.035156 94.136719 C 226.292969 94.480469 226.222656 94.96875 225.878906 95.226562 L 140.074219 159.046875 C 139.9375 159.144531 139.773438 159.199219 139.605469 159.199219 Z M 139.605469 159.199219"/></g><path fill="#764B36" d="M 234.992188 201.527344 L 139.605469 201.527344 C 139.175781 201.527344 138.824219 201.179688 138.824219 200.75 L 138.824219 186.648438 C 138.824219 186.21875 139.175781 185.867188 139.605469 185.867188 L 157.902344 185.867188 L 157.902344 172.519531 C 157.902344 172.085938 158.25 171.738281 158.683594 171.738281 L 176.980469 171.738281 L 176.980469 158.417969 C 176.980469 157.988281 177.328125 157.636719 177.761719 157.636719 L 196.058594 157.636719 L 196.058594 144.320312 C 196.058594 143.890625 196.40625 143.539062 196.835938 143.539062 L 215.132812 143.539062 L 215.132812 130.222656 C 215.132812 129.789062 215.484375 129.441406 215.914062 129.441406 L 234.992188 129.441406 C 235.421875 129.441406 235.773438 129.789062 235.773438 130.222656 L 235.773438 200.75 C 235.773438 201.179688 235.421875 201.527344 234.992188 201.527344 Z M 140.386719 199.96875 L 234.210938 199.96875 L 234.210938 131 L 216.695312 131 L 216.695312 144.320312 C 216.695312 144.753906 216.347656 145.101562 215.914062 145.101562 L 197.617188 145.101562 L 197.617188 158.417969 C 197.617188 158.851562 197.269531 159.199219 196.835938 159.199219 L 178.542969 159.199219 L 178.542969 172.519531 C 178.542969 172.949219 178.191406 173.300781 177.761719 173.300781 L 159.464844 173.300781 L 159.464844 186.617188 C 159.464844 187.054688 159.121094 187.414062 158.683594 187.429688 L 140.386719 187.429688 Z M 140.386719 199.96875"/><g clip-path="url(#b)"><path fill="#764B36" d="M 239.679688 150.941406 C 239.25 150.941406 238.898438 150.589844 238.898438 150.160156 L 238.898438 148.730469 C 238.898438 147.6875 240.460938 147.6875 240.460938 148.730469 L 240.460938 150.160156 C 240.460938 150.589844 240.113281 150.941406 239.679688 150.941406 Z M 239.679688 150.941406"/></g><g clip-path="url(#c)"><path fill="#764B36" d="M 239.679688 170.582031 C 239.25 170.582031 238.898438 170.230469 238.898438 169.800781 L 238.898438 153.800781 C 238.898438 152.761719 240.460938 152.761719 240.460938 153.800781 L 240.460938 169.800781 C 240.460938 170.230469 240.113281 170.582031 239.679688 170.582031 Z M 239.679688 170.582031"/></g><g clip-path="url(#d)"><path fill="#764B36" d="M 171.429688 206.210938 L 170.621094 206.210938 C 169.578125 206.210938 169.578125 204.652344 170.621094 204.652344 L 171.4375 204.652344 C 172.476562 204.652344 172.476562 206.210938 171.4375 206.210938 Z M 171.429688 206.210938"/></g><g clip-path="url(#e)"><path fill="#764B36" d="M 167.027344 206.210938 L 151.011719 206.210938 C 149.972656 206.210938 149.972656 204.652344 151.011719 204.652344 L 167.027344 204.652344 C 168.070312 204.652344 168.070312 206.210938 167.027344 206.210938 Z M 167.027344 206.210938"/></g><path fill="#F5C2AB" d="M 221.117188 195.984375 L 220.113281 195.984375 C 218.757812 195.984375 218.757812 193.957031 220.113281 193.957031 L 221.117188 193.957031 C 221.675781 193.957031 222.132812 194.410156 222.132812 194.972656 C 222.132812 195.53125 221.675781 195.984375 221.117188 195.984375 Z M 221.117188 195.984375"/><path fill="#F5C2AB" d="M 216.246094 195.984375 L 199.207031 195.984375 C 197.851562 195.984375 197.851562 193.957031 199.207031 193.957031 L 216.242188 193.957031 C 216.804688 193.957031 217.257812 194.410156 217.257812 194.972656 C 217.257812 195.53125 216.804688 195.984375 216.242188 195.984375 Z M 216.246094 195.984375"/><g fill="#808080"><g><g><path d="M 2.074219 0 L 20.621094 0 L 21.324219 -7.925781 L 20.910156 -7.925781 C 20.621094 -3.609375 16.058594 -0.414062 11.242188 -0.414062 L 8.339844 -0.414062 L 8.339844 -23.234375 L 2.074219 -23.234375 Z M 2.074219 0" transform="translate(61.338 288.54)"/></g></g></g><g fill="#808080"><g><g><path d="M 2.074219 0 L 20.621094 0 L 21.324219 -7.925781 L 20.910156 -7.925781 C 20.621094 -3.609375 16.058594 -0.414062 11.242188 -0.414062 L 8.339844 -0.414062 L 8.339844 -11.617188 L 8.921875 -11.617188 C 12.363281 -11.535156 14.605469 -9.707031 14.605469 -6.554688 L 15.101562 -6.554688 L 15.101562 -17.09375 L 14.605469 -17.09375 C 14.605469 -13.898438 12.363281 -12.074219 8.835938 -12.03125 L 8.339844 -12.03125 L 8.339844 -22.820312 L 11.242188 -22.820312 C 16.058594 -22.820312 19.417969 -19.832031 19.417969 -15.515625 L 19.832031 -15.515625 L 19.832031 -23.234375 L 2.074219 -23.234375 Z M 2.074219 0" transform="translate(88.887 288.54)"/></g></g></g><g fill="#808080"><g><g><path d="M 12.53125 0.414062 L 23.191406 -23.234375 L 22.738281 -23.234375 L 15.101562 -6.472656 L 7.507812 -23.234375 L 0.621094 -23.234375 Z M 12.53125 0.414062" transform="translate(116.436 288.54)"/></g></g></g><g fill="#808080"><g><g><path d="M 2.074219 0 L 20.621094 0 L 21.324219 -7.925781 L 20.910156 -7.925781 C 20.621094 -3.609375 16.058594 -0.414062 11.242188 -0.414062 L 8.339844 -0.414062 L 8.339844 -11.617188 L 8.921875 -11.617188 C 12.363281 -11.535156 14.605469 -9.707031 14.605469 -6.554688 L 15.101562 -6.554688 L 15.101562 -17.09375 L 14.605469 -17.09375 C 14.605469 -13.898438 12.363281 -12.074219 8.835938 -12.03125 L 8.339844 -12.03125 L 8.339844 -22.820312 L 11.242188 -22.820312 C 16.058594 -22.820312 19.417969 -19.832031 19.417969 -15.515625 L 19.832031 -15.515625 L 19.832031 -23.234375 L 2.074219 -23.234375 Z M 2.074219 0" transform="translate(144.4 288.54)"/></g></g></g><g fill="#808080"><g><g><path d="M 2.074219 0 L 20.621094 0 L 21.324219 -7.925781 L 20.910156 -7.925781 C 20.621094 -3.609375 16.058594 -0.414062 11.242188 -0.414062 L 8.339844 -0.414062 L 8.339844 -23.234375 L 2.074219 -23.234375 Z M 2.074219 0" transform="translate(171.948 288.54)"/></g></g></g><g fill="#808080"><g><g><path d="M 11.867188 1.578125 L 18.835938 -13.816406 L 25.808594 1.578125 L 37.050781 -23.234375 L 36.59375 -23.234375 L 29 -6.554688 L 21.449219 -23.234375 L 14.5625 -23.234375 L 18.585938 -14.355469 L 15.0625 -6.554688 L 7.507812 -23.234375 L 0.621094 -23.234375 Z M 11.867188 1.578125" transform="translate(212.069 288.54)"/></g></g></g><g fill="#808080"><g><g><path d="M 2.074219 0 L 7.59375 0 L 7.59375 -23.234375 L 2.074219 -23.234375 Z M 2.074219 0" transform="translate(253.89 288.54)"/></g></g></g><g fill="#808080"><g><g><path d="M 11.203125 0.414062 C 16.636719 0.414062 21.367188 -2.449219 20.703125 -7.632812 C 20.121094 -13.773438 6.722656 -14.230469 6.722656 -19.875 C 6.722656 -22.113281 8.628906 -22.984375 10.828125 -22.984375 C 13.277344 -22.984375 14.894531 -21.949219 14.894531 -20.289062 C 14.894531 -18.214844 13.484375 -18.046875 13.484375 -18.046875 C 13.484375 -16.597656 14.644531 -15.269531 16.429688 -15.269531 C 17.839844 -15.269531 18.917969 -16.179688 18.917969 -17.632812 C 18.917969 -21.367188 14.9375 -23.566406 10.746094 -23.566406 C 5.601562 -23.566406 1.246094 -21.242188 1.824219 -16.058594 C 2.574219 -9.292969 15.808594 -8.464844 15.808594 -3.234375 C 15.808594 -0.707031 12.695312 -0.125 10.953125 -0.125 C 8.671875 -0.125 5.972656 -1.121094 5.972656 -3.527344 C 5.972656 -3.734375 5.972656 -3.941406 6.015625 -4.191406 C 6.222656 -5.476562 7.46875 -5.644531 7.46875 -5.644531 C 7.46875 -7.34375 6.140625 -8.835938 4.109375 -8.835938 C 2.488281 -8.835938 1.246094 -7.757812 1.246094 -6.097656 C 1.246094 -2.03125 6.097656 0.414062 11.203125 0.414062 Z M 11.203125 0.414062" transform="translate(267.706 288.54)"/></g></g></g><g fill="#808080"><g><g><path d="M 2.074219 0 L 20.621094 0 L 21.324219 -7.925781 L 20.910156 -7.925781 C 20.621094 -3.609375 16.058594 -0.414062 11.242188 -0.414062 L 8.339844 -0.414062 L 8.339844 -11.617188 L 8.921875 -11.617188 C 12.363281 -11.535156 14.605469 -9.707031 14.605469 -6.554688 L 15.101562 -6.554688 L 15.101562 -17.09375 L 14.605469 -17.09375 C 14.605469 -13.898438 12.363281 -12.074219 8.835938 -12.03125 L 8.339844 -12.03125 L 8.339844 -22.820312 L 11.242188 -22.820312 C 16.058594 -22.820312 19.417969 -19.832031 19.417969 -15.515625 L 19.832031 -15.515625 L 19.832031 -23.234375 L 2.074219 -23.234375 Z M 2.074219 0" transform="translate(293.886 288.54)"/></g></g></g><path transform="matrix(.9153 0 0 .9153 56.857 254.806)" fill="none" d="M 5.175201 34.997897 L 25.438479 34.997897 L 26.202406 26.347167 L 25.750024 26.347167 C 25.438479 31.058763 20.445211 34.545515 15.19161 34.545515 L 12.016404 34.545515 L 12.016404 9.613319 L 5.175201 9.613319 Z M 35.271375 34.997897 L 55.538921 34.997897 L 56.29858 26.347167 L 55.846199 26.347167 C 55.538921 31.058763 50.545653 34.545515 45.287785 34.545515 L 42.112579 34.545515 L 42.112579 22.305608 L 42.752741 22.305608 C 46.516897 22.39523 48.962318 24.396805 48.962318 27.84088 L 49.504322 27.84088 L 49.504322 16.317954 L 48.962318 16.317954 C 48.962318 19.817509 46.516897 21.806281 42.654583 21.853226 L 42.112579 21.853226 L 42.112579 10.0657 L 45.287785 10.0657 C 50.545653 10.0657 54.220186 13.330529 54.220186 18.046393 L 54.672568 18.046393 L 54.672568 9.613319 L 35.271375 9.613319 Z M 76.792317 35.454546 L 88.447543 9.613319 L 87.948216 9.613319 L 79.604764 27.926235 L 71.30399 9.613319 L 63.779947 9.613319 Z M 95.924641 34.997897 L 116.187919 34.997897 L 116.951846 26.347167 L 116.495197 26.347167 C 116.187919 31.058763 111.194651 34.545515 105.941051 34.545515 L 102.761577 34.545515 L 102.761577 22.305608 L 103.406007 22.305608 C 107.165895 22.39523 109.611316 24.396805 109.611316 27.84088 L 110.157588 27.84088 L 110.157588 16.317954 L 109.611316 16.317954 C 109.611316 19.817509 107.165895 21.806281 103.303581 21.853226 L 102.761577 21.853226 L 102.761577 10.0657 L 105.941051 10.0657 C 111.194651 10.0657 114.869184 13.330529 114.869184 18.046393 L 115.325834 18.046393 L 115.325834 9.613319 L 95.924641 9.613319 Z M 126.020816 34.997897 L 146.284094 34.997897 L 147.048021 26.347167 L 146.595639 26.347167 C 146.284094 31.058763 141.295094 34.545515 136.037225 34.545515 L 132.862019 34.545515 L 132.862019 9.613319 L 126.020816 9.613319 Z M 180.545592 36.726336 L 188.172062 19.902864 L 195.785728 36.726336 L 208.068313 9.613319 L 207.573254 9.613319 L 199.27248 27.84088 L 191.027187 9.613319 L 183.498875 9.613319 L 187.894658 19.318183 L 184.04088 27.84088 L 175.787051 9.613319 L 168.263007 9.613319 Z M 215.545412 34.997897 L 221.580011 34.997897 L 221.580011 9.613319 L 215.545412 9.613319 Z M 240.614176 35.454546 C 246.546349 35.454546 251.714595 32.322017 250.993345 26.654445 C 250.361718 19.94981 235.719067 19.450483 235.719067 13.287852 C 235.719067 10.842431 237.801729 9.890722 240.204472 9.890722 C 242.880352 9.890722 244.642933 11.017408 244.642933 12.831202 C 244.642933 15.101645 243.102275 15.280891 243.102275 15.280891 C 243.102275 16.872762 244.374064 18.323797 246.324426 18.323797 C 247.860816 18.323797 249.047251 17.325143 249.047251 15.733272 C 249.047251 11.661839 244.694146 9.246292 240.11485 9.246292 C 234.494223 9.246292 229.735681 11.794139 230.36304 17.457443 C 231.182449 24.840651 245.645854 25.749682 245.645854 31.468467 C 245.645854 34.225434 242.240189 34.865597 240.336773 34.865597 C 237.844407 34.865597 234.903927 33.773053 234.903927 31.148386 C 234.903927 30.917928 234.903927 30.696005 234.946604 30.418601 C 235.168527 29.014511 236.52994 28.835266 236.52994 28.835266 C 236.52994 26.974526 235.078904 25.348514 232.863942 25.348514 C 231.097094 25.348514 229.735681 26.522145 229.735681 28.335939 C 229.735681 32.774399 235.036227 35.454546 240.614176 35.454546 Z M 259.242906 34.997897 L 279.506184 34.997897 L 280.270111 26.347167 L 279.81773 26.347167 C 279.506184 31.058763 274.517184 34.545515 269.259316 34.545515 L 266.08411 34.545515 L 266.08411 22.305608 L 266.724272 22.305608 C 270.488428 22.39523 272.933849 24.396805 272.933849 27.84088 L 273.475853 27.84088 L 273.475853 16.317954 L 272.933849 16.317954 C 272.933849 19.817509 270.488428 21.806281 266.626114 21.853226 L 266.08411 21.853226 L 266.08411 10.0657 L 269.259316 10.0657 C 274.517184 10.0657 278.191717 13.330529 278.191717 18.046393 L 278.644099 18.046393 L 278.644099 9.613319 L 259.242906 9.613319 Z M 259.242906 34.997897" stroke="#000" stroke-width="2.465"/></svg>