<svg xmlns="http://www.w3.org/2000/svg" width="375" viewBox="0 0 375 375" height="375" version="1.0"><defs><clipPath id="a"><path d="M 131.40625 104.847656 L 243.90625 104.847656 L 243.90625 217.347656 L 131.40625 217.347656 Z M 131.40625 104.847656"/></clipPath><clipPath id="b"><path d="M 167 147 L 248 147 L 248 199 L 167 199 Z M 167 147"/></clipPath><clipPath id="c"><path d="M 258.511719 164.898438 L 171.335938 206.867188 L 161.25 185.921875 L 248.425781 143.949219 Z M 258.511719 164.898438"/></clipPath><clipPath id="d"><path d="M 248.324219 143.738281 L 161.148438 185.710938 L 171.234375 206.65625 L 258.410156 164.6875 Z M 248.324219 143.738281"/></clipPath><clipPath id="e"><path d="M 248.324219 143.738281 L 161.148438 185.710938 L 171.234375 206.65625 L 258.410156 164.6875 Z M 248.324219 143.738281"/></clipPath><clipPath id="f"><path d="M 234 143 L 250 143 L 250 159 L 234 159 Z M 234 143"/></clipPath><clipPath id="g"><path d="M 258.511719 164.898438 L 171.335938 206.867188 L 161.25 185.921875 L 248.425781 143.949219 Z M 258.511719 164.898438"/></clipPath><clipPath id="h"><path d="M 248.324219 143.738281 L 161.148438 185.710938 L 171.234375 206.65625 L 258.410156 164.6875 Z M 248.324219 143.738281"/></clipPath><clipPath id="i"><path d="M 248.324219 143.738281 L 161.148438 185.710938 L 171.234375 206.65625 L 258.410156 164.6875 Z M 248.324219 143.738281"/></clipPath></defs><path fill="#FFF" d="M-37.5 -37.5H412.5V412.5H-37.5z"/><path fill="#F0ECE3" d="M-37.5 -37.5H412.5V412.5H-37.5z"/><path fill="#77838D" d="M 115.582031 89.136719 L 262.578125 89.136719 L 262.578125 236.136719 L 115.582031 236.136719 L 115.582031 89.136719"/><path fill="#9AA7B2" d="M 263.171875 236.609375 L 114.988281 236.609375 L 114.988281 88.425781 L 263.171875 88.425781 L 263.171875 236.609375 M 116.171875 235.425781 L 261.988281 235.425781 L 261.988281 89.609375 L 116.171875 89.609375 L 116.171875 235.425781"/><path fill="#C7D0D8" d="M 111.671875 85.109375 L 258.671875 85.109375 L 258.671875 232.109375 L 111.671875 232.109375 L 111.671875 85.109375"/><g clip-path="url(#a)"><path d="M 140.78125 213.597656 L 140.78125 104.847656 L 137.03125 104.847656 L 137.03125 108.597656 L 131.40625 108.597656 L 131.40625 112.347656 L 137.03125 112.347656 L 137.03125 134.847656 L 131.40625 134.847656 L 131.40625 138.597656 L 137.03125 138.597656 L 137.03125 161.097656 L 131.40625 161.097656 L 131.40625 164.847656 L 137.03125 164.847656 L 137.03125 187.347656 L 131.40625 187.347656 L 131.40625 191.097656 L 137.03125 191.097656 L 137.03125 215.472656 C 137.03125 215.71875 137.082031 215.957031 137.175781 216.1875 C 137.269531 216.417969 137.40625 216.621094 137.582031 216.796875 C 137.757812 216.972656 137.960938 217.109375 138.191406 217.203125 C 138.417969 217.296875 138.660156 217.347656 138.90625 217.347656 L 243.90625 217.347656 L 243.90625 213.597656 Z M 140.78125 213.597656"/></g><path d="M 153.90625 185.472656 C 154.277344 185.472656 154.644531 185.433594 155.003906 185.363281 C 155.367188 185.289062 155.71875 185.183594 156.058594 185.042969 C 156.402344 184.902344 156.726562 184.726562 157.03125 184.523438 C 157.339844 184.316406 157.625 184.085938 157.886719 183.824219 C 158.144531 183.5625 158.378906 183.277344 158.585938 182.972656 C 158.789062 182.664062 158.964844 182.339844 159.105469 182 C 159.246094 181.65625 159.351562 181.304688 159.425781 180.945312 C 159.496094 180.582031 159.53125 180.214844 159.53125 179.847656 C 159.53125 179 159.34375 178.195312 158.96875 177.4375 L 170.25 166.160156 C 171.007812 166.53125 171.8125 166.71875 172.65625 166.722656 C 173.238281 166.71875 173.804688 166.628906 174.355469 166.453125 C 174.90625 166.273438 175.417969 166.019531 175.890625 165.683594 C 176.363281 165.347656 176.773438 164.949219 177.125 164.484375 C 177.472656 164.023438 177.746094 163.519531 177.9375 162.972656 L 193.628906 162.972656 C 193.847656 163.597656 194.167969 164.164062 194.589844 164.675781 C 195.011719 165.1875 195.507812 165.609375 196.078125 165.945312 C 196.652344 166.28125 197.261719 166.507812 197.914062 166.628906 C 198.566406 166.746094 199.21875 166.75 199.871094 166.636719 C 200.523438 166.523438 201.140625 166.304688 201.714844 165.972656 C 202.289062 165.644531 202.789062 165.226562 203.214844 164.71875 C 203.640625 164.210938 203.96875 163.648438 204.195312 163.023438 C 204.421875 162.402344 204.535156 161.757812 204.53125 161.097656 C 204.53125 160.25 204.34375 159.445312 203.96875 158.6875 L 228.375 134.285156 C 229.132812 134.65625 229.9375 134.84375 230.78125 134.847656 C 231.152344 134.847656 231.519531 134.808594 231.878906 134.738281 C 232.242188 134.664062 232.59375 134.558594 232.933594 134.417969 C 233.277344 134.277344 233.601562 134.101562 233.90625 133.898438 C 234.214844 133.691406 234.5 133.460938 234.761719 133.199219 C 235.019531 132.9375 235.253906 132.652344 235.460938 132.347656 C 235.664062 132.039062 235.839844 131.714844 235.980469 131.375 C 236.121094 131.03125 236.226562 130.679688 236.300781 130.320312 C 236.371094 129.957031 236.40625 129.589844 236.40625 129.222656 C 236.40625 128.851562 236.371094 128.484375 236.300781 128.125 C 236.226562 127.761719 236.121094 127.410156 235.980469 127.070312 C 235.839844 126.726562 235.664062 126.402344 235.460938 126.097656 C 235.253906 125.789062 235.019531 125.503906 234.761719 125.242188 C 234.5 124.984375 234.214844 124.75 233.90625 124.542969 C 233.601562 124.339844 233.277344 124.164062 232.933594 124.023438 C 232.59375 123.882812 232.242188 123.777344 231.878906 123.703125 C 231.519531 123.632812 231.152344 123.597656 230.78125 123.597656 C 230.414062 123.597656 230.046875 123.632812 229.683594 123.703125 C 229.324219 123.777344 228.972656 123.882812 228.628906 124.023438 C 228.289062 124.164062 227.964844 124.339844 227.65625 124.542969 C 227.351562 124.75 227.066406 124.984375 226.804688 125.242188 C 226.542969 125.503906 226.3125 125.789062 226.105469 126.097656 C 225.902344 126.402344 225.726562 126.726562 225.585938 127.070312 C 225.445312 127.410156 225.335938 127.761719 225.265625 128.125 C 225.195312 128.484375 225.15625 128.851562 225.15625 129.222656 C 225.160156 130.066406 225.347656 130.871094 225.71875 131.628906 L 201.316406 156.035156 C 200.558594 155.660156 199.753906 155.472656 198.90625 155.472656 C 198.328125 155.472656 197.761719 155.5625 197.210938 155.742188 C 196.660156 155.917969 196.144531 156.175781 195.675781 156.511719 C 195.203125 156.84375 194.789062 157.246094 194.441406 157.707031 C 194.09375 158.171875 193.820312 158.675781 193.628906 159.222656 L 177.9375 159.222656 C 177.71875 158.597656 177.398438 158.027344 176.976562 157.515625 C 176.554688 157.003906 176.058594 156.582031 175.484375 156.246094 C 174.914062 155.910156 174.304688 155.683594 173.652344 155.566406 C 173 155.445312 172.347656 155.441406 171.695312 155.554688 C 171.039062 155.667969 170.425781 155.886719 169.851562 156.21875 C 169.277344 156.546875 168.777344 156.964844 168.351562 157.472656 C 167.921875 157.980469 167.597656 158.546875 167.371094 159.167969 C 167.144531 159.789062 167.03125 160.433594 167.03125 161.097656 C 167.035156 161.941406 167.222656 162.746094 167.59375 163.503906 L 156.316406 174.785156 C 155.558594 174.410156 154.753906 174.222656 153.90625 174.222656 C 153.539062 174.222656 153.171875 174.257812 152.808594 174.328125 C 152.449219 174.402344 152.097656 174.507812 151.753906 174.648438 C 151.414062 174.789062 151.089844 174.964844 150.78125 175.167969 C 150.476562 175.375 150.191406 175.609375 149.929688 175.867188 C 149.667969 176.128906 149.4375 176.414062 149.230469 176.722656 C 149.027344 177.027344 148.851562 177.351562 148.710938 177.695312 C 148.570312 178.035156 148.460938 178.386719 148.390625 178.75 C 148.320312 179.109375 148.28125 179.476562 148.28125 179.847656 C 148.28125 180.214844 148.320312 180.582031 148.390625 180.945312 C 148.460938 181.304688 148.570312 181.65625 148.710938 182 C 148.851562 182.339844 149.027344 182.664062 149.230469 182.972656 C 149.4375 183.277344 149.667969 183.5625 149.929688 183.824219 C 150.191406 184.085938 150.476562 184.316406 150.78125 184.523438 C 151.089844 184.726562 151.414062 184.902344 151.753906 185.042969 C 152.097656 185.183594 152.449219 185.289062 152.808594 185.363281 C 153.171875 185.433594 153.539062 185.472656 153.90625 185.472656 Z M 230.78125 127.347656 C 231.03125 127.347656 231.269531 127.394531 231.5 127.488281 C 231.730469 127.585938 231.933594 127.71875 232.109375 127.894531 C 232.285156 128.070312 232.417969 128.273438 232.515625 128.503906 C 232.609375 128.734375 232.65625 128.972656 232.65625 129.222656 C 232.65625 129.46875 232.609375 129.707031 232.515625 129.9375 C 232.417969 130.167969 232.285156 130.371094 232.109375 130.546875 C 231.933594 130.722656 231.730469 130.859375 231.5 130.953125 C 231.269531 131.046875 231.03125 131.097656 230.78125 131.097656 C 230.535156 131.097656 230.292969 131.046875 230.066406 130.953125 C 229.835938 130.859375 229.632812 130.722656 229.457031 130.546875 C 229.28125 130.371094 229.144531 130.167969 229.050781 129.9375 C 228.957031 129.707031 228.90625 129.46875 228.90625 129.222656 C 228.90625 128.972656 228.957031 128.734375 229.050781 128.503906 C 229.144531 128.273438 229.28125 128.070312 229.457031 127.894531 C 229.632812 127.71875 229.835938 127.585938 230.066406 127.488281 C 230.292969 127.394531 230.535156 127.347656 230.78125 127.347656 Z M 198.90625 159.222656 C 199.15625 159.222656 199.394531 159.269531 199.625 159.363281 C 199.855469 159.460938 200.058594 159.59375 200.234375 159.769531 C 200.410156 159.945312 200.542969 160.148438 200.640625 160.378906 C 200.734375 160.609375 200.78125 160.847656 200.78125 161.097656 C 200.78125 161.34375 200.734375 161.582031 200.640625 161.8125 C 200.542969 162.042969 200.410156 162.246094 200.234375 162.421875 C 200.058594 162.597656 199.855469 162.734375 199.625 162.828125 C 199.394531 162.921875 199.15625 162.972656 198.90625 162.972656 C 198.660156 162.972656 198.417969 162.921875 198.191406 162.828125 C 197.960938 162.734375 197.757812 162.597656 197.582031 162.421875 C 197.40625 162.246094 197.269531 162.042969 197.175781 161.8125 C 197.082031 161.582031 197.03125 161.34375 197.03125 161.097656 C 197.03125 160.847656 197.082031 160.609375 197.175781 160.378906 C 197.269531 160.148438 197.40625 159.945312 197.582031 159.769531 C 197.757812 159.59375 197.960938 159.460938 198.191406 159.363281 C 198.417969 159.269531 198.660156 159.222656 198.90625 159.222656 Z M 172.65625 159.222656 C 172.90625 159.222656 173.144531 159.269531 173.375 159.363281 C 173.605469 159.460938 173.808594 159.59375 173.984375 159.769531 C 174.160156 159.945312 174.292969 160.148438 174.390625 160.378906 C 174.484375 160.609375 174.53125 160.847656 174.53125 161.097656 C 174.53125 161.34375 174.484375 161.582031 174.390625 161.8125 C 174.292969 162.042969 174.160156 162.246094 173.984375 162.421875 C 173.808594 162.597656 173.605469 162.734375 173.375 162.828125 C 173.144531 162.921875 172.90625 162.972656 172.65625 162.972656 C 172.410156 162.972656 172.167969 162.921875 171.941406 162.828125 C 171.710938 162.734375 171.507812 162.597656 171.332031 162.421875 C 171.15625 162.246094 171.019531 162.042969 170.925781 161.8125 C 170.832031 161.582031 170.78125 161.34375 170.78125 161.097656 C 170.78125 160.847656 170.832031 160.609375 170.925781 160.378906 C 171.019531 160.148438 171.15625 159.945312 171.332031 159.769531 C 171.507812 159.59375 171.710938 159.460938 171.941406 159.363281 C 172.167969 159.269531 172.410156 159.222656 172.65625 159.222656 Z M 153.90625 177.972656 C 154.15625 177.972656 154.394531 178.019531 154.625 178.113281 C 154.855469 178.210938 155.058594 178.34375 155.234375 178.519531 C 155.410156 178.695312 155.542969 178.898438 155.640625 179.128906 C 155.734375 179.359375 155.78125 179.597656 155.78125 179.847656 C 155.78125 180.09375 155.734375 180.332031 155.640625 180.5625 C 155.542969 180.792969 155.410156 180.996094 155.234375 181.171875 C 155.058594 181.347656 154.855469 181.484375 154.625 181.578125 C 154.394531 181.671875 154.15625 181.722656 153.90625 181.722656 C 153.660156 181.722656 153.417969 181.671875 153.191406 181.578125 C 152.960938 181.484375 152.757812 181.347656 152.582031 181.171875 C 152.40625 180.996094 152.269531 180.792969 152.175781 180.5625 C 152.082031 180.332031 152.03125 180.09375 152.03125 179.847656 C 152.03125 179.597656 152.082031 179.359375 152.175781 179.128906 C 152.269531 178.898438 152.40625 178.695312 152.582031 178.519531 C 152.757812 178.34375 152.960938 178.210938 153.191406 178.113281 C 153.417969 178.019531 153.660156 177.972656 153.90625 177.972656 Z M 153.90625 177.972656"/><path d="M 152.03125 112.347656 L 155.78125 112.347656 L 155.78125 116.097656 L 152.03125 116.097656 Z M 152.03125 112.347656"/><path d="M 159.53125 112.347656 L 182.03125 112.347656 L 182.03125 116.097656 L 159.53125 116.097656 Z M 159.53125 112.347656"/><path d="M 152.03125 119.847656 L 182.03125 119.847656 L 182.03125 123.597656 L 152.03125 123.597656 Z M 152.03125 119.847656"/><path d="M 152.03125 127.347656 L 182.03125 127.347656 L 182.03125 131.097656 L 152.03125 131.097656 Z M 152.03125 127.347656"/><g clip-path="url(#b)"><g clip-path="url(#c)"><g clip-path="url(#d)"><g clip-path="url(#e)"><path fill="#100F0D" d="M 167.304688 198.347656 C 171.449219 198.550781 175.609375 198.253906 179.746094 197.714844 C 183.882812 197.148438 187.980469 196.234375 192.003906 195.042969 C 200.046875 192.636719 207.773438 189.070312 214.867188 184.527344 C 221.960938 179.992188 228.4375 174.484375 233.988281 168.203125 C 236.757812 165.054688 239.304688 161.722656 241.550781 158.210938 C 243.773438 154.6875 245.785156 151.042969 247.332031 147.203125 L 247.070312 147.058594 C 245.019531 150.59375 242.738281 154 240.253906 157.246094 C 237.785156 160.507812 235.113281 163.613281 232.261719 166.550781 C 226.5625 172.425781 220.160156 177.621094 213.253906 182.015625 C 206.359375 186.4375 198.953125 190.070312 191.222656 192.777344 C 187.355469 194.132812 183.410156 195.253906 179.410156 196.132812 C 175.414062 197.023438 171.359375 197.667969 167.28125 198.046875 L 167.304688 198.347656"/></g></g></g></g><g clip-path="url(#f)"><g clip-path="url(#g)"><g clip-path="url(#h)"><g clip-path="url(#i)"><path fill="#100F0D" d="M 249.441406 158.027344 C 249.664062 157 249.765625 155.964844 249.820312 154.925781 C 249.871094 153.890625 249.863281 152.851562 249.792969 151.816406 C 249.726562 150.78125 249.605469 149.75 249.4375 148.730469 C 249.265625 147.707031 249.042969 146.691406 248.777344 145.691406 L 248.261719 143.761719 L 246.523438 144.886719 C 244.34375 146.292969 242.226562 147.792969 240.199219 149.417969 C 239.1875 150.230469 238.195312 151.078125 237.230469 151.964844 C 236.269531 152.855469 235.324219 153.773438 234.453125 154.796875 C 235.734375 154.375 236.9375 153.84375 238.125 153.285156 C 239.3125 152.726562 240.46875 152.121094 241.601562 151.488281 C 243.871094 150.21875 246.058594 148.820312 248.175781 147.332031 L 245.921875 146.527344 C 246.214844 147.464844 246.503906 148.40625 246.789062 149.351562 L 247.640625 152.203125 C 247.921875 153.160156 248.207031 154.121094 248.5 155.09375 C 248.796875 156.0625 249.085938 157.042969 249.441406 158.027344"/></g></g></g></g><g fill="#808080"><g><g><path d="M 1.964844 0 L 7.902344 0 L 7.902344 -11.871094 C 16.078125 -11.871094 11.714844 -0.984375 19.066406 0 C 22.054688 0.394531 23.507812 0 23.507812 0 C 23.507812 0 22.054688 -0.824219 20.675781 -4.441406 C 18.910156 -9.121094 18.199219 -11.949219 13.011719 -11.949219 C 15.960938 -11.949219 19.300781 -14.308594 19.300781 -16.941406 C 19.300781 -20.597656 15.960938 -22.015625 11.28125 -22.015625 L 1.964844 -22.015625 Z M 7.902344 -12.1875 L 7.902344 -21.738281 L 9.828125 -21.738281 C 12.1875 -21.738281 13.011719 -19.617188 13.011719 -16.824219 C 13.011719 -14.113281 12.34375 -12.1875 9.984375 -12.1875 Z M 7.902344 -12.1875" transform="translate(59.445 277.392)"/></g></g></g><g fill="#808080"><g><g><path d="M 0.589844 0 L 1.023438 0 L 4.007812 -6.605469 L 12.382812 -6.605469 L 15.371094 0 L 21.894531 0 L 10.652344 -22.328125 Z M 4.207031 -6.996094 L 8.214844 -15.804688 L 12.226562 -6.996094 Z M 4.207031 -6.996094" transform="translate(87.473 277.392)"/></g></g></g><g fill="#808080"><g><g><path d="M 8.726562 0 L 14.664062 0 L 14.664062 -21.621094 C 19.222656 -21.621094 22.40625 -18.789062 22.40625 -14.703125 L 22.800781 -14.703125 L 22.800781 -22.015625 L 0.589844 -22.015625 L 0.589844 -14.703125 L 0.984375 -14.703125 C 0.984375 -18.789062 4.167969 -21.621094 8.726562 -21.621094 Z M 8.726562 0" transform="translate(113.89 277.392)"/></g></g></g><g fill="#808080"><g><g><path d="M 1.964844 0 L 7.195312 0 L 7.195312 -22.015625 L 1.964844 -22.015625 Z M 1.964844 0" transform="translate(141.21 277.392)"/></g></g></g><g fill="#808080"><g><g><path d="M 20.71875 0.628906 L 20.71875 -22.015625 L 20.324219 -22.015625 L 20.324219 -8.726562 L 8.253906 -22.015625 L 1.964844 -22.015625 L 1.964844 0 L 2.359375 0 L 2.359375 -18.871094 Z M 20.71875 0.628906" transform="translate(154.3 277.392)"/></g></g></g><g fill="#808080"><g><g><path d="M 12.738281 0.394531 C 14.308594 0.394531 15.804688 0.078125 17.21875 -0.433594 L 20.441406 -0.433594 L 20.441406 -9.550781 L 13.289062 -9.550781 L 13.289062 -9.121094 L 15.882812 -9.121094 L 15.882812 -0.667969 C 14.664062 -0.15625 13.523438 0 12.738281 -0.117188 C 8.726562 -0.472656 7.351562 -4.875 7.351562 -10.96875 C 7.351562 -17.335938 8.726562 -21.425781 13.128906 -21.738281 C 14.386719 -21.816406 15.566406 -21.503906 16.472656 -20.835938 C 18.003906 -19.578125 17.414062 -17.808594 16.941406 -16.863281 C 16.195312 -15.449219 15.449219 -15.132812 15.449219 -15.132812 C 15.449219 -13.679688 16.746094 -12.539062 17.886719 -12.539062 C 19.695312 -12.539062 20.597656 -14.386719 20.597656 -16.078125 C 20.597656 -19.144531 17.769531 -22.289062 12.738281 -22.289062 C 6.25 -22.25 0.984375 -17.179688 0.984375 -10.929688 C 0.984375 -4.679688 6.25 0.394531 12.738281 0.394531 Z M 12.738281 0.394531" transform="translate(180.913 277.392)"/></g></g></g><g fill="#808080"><g><g><path d="M 11.242188 1.492188 L 17.847656 -13.089844 L 24.453125 1.492188 L 35.105469 -22.015625 L 34.671875 -22.015625 L 27.476562 -6.210938 L 20.324219 -22.015625 L 13.796875 -22.015625 L 17.613281 -13.601562 L 14.269531 -6.210938 L 7.117188 -22.015625 L 0.589844 -22.015625 Z M 11.242188 1.492188" transform="translate(219.32 277.392)"/></g></g></g><g fill="#808080"><g><g><path d="M 1.964844 0 L 7.195312 0 L 7.195312 -22.015625 L 1.964844 -22.015625 Z M 1.964844 0" transform="translate(258.944 277.392)"/></g></g></g><g fill="#808080"><g><g><path d="M 10.613281 0.394531 C 15.765625 0.394531 20.246094 -2.320312 19.617188 -7.234375 C 19.066406 -13.050781 6.367188 -13.484375 6.367188 -18.828125 C 6.367188 -20.953125 8.175781 -21.777344 10.261719 -21.777344 C 12.578125 -21.777344 14.113281 -20.796875 14.113281 -19.222656 C 14.113281 -17.257812 12.777344 -17.101562 12.777344 -17.101562 C 12.777344 -15.722656 13.875 -14.464844 15.566406 -14.464844 C 16.902344 -14.464844 17.925781 -15.332031 17.925781 -16.707031 C 17.925781 -20.246094 14.152344 -22.328125 10.179688 -22.328125 C 5.308594 -22.328125 1.179688 -20.128906 1.730469 -15.214844 C 2.4375 -8.804688 14.976562 -8.019531 14.976562 -3.066406 C 14.976562 -0.667969 12.027344 -0.117188 10.378906 -0.117188 C 8.214844 -0.117188 5.660156 -1.0625 5.660156 -3.339844 C 5.660156 -3.539062 5.660156 -3.734375 5.699219 -3.96875 C 5.898438 -5.1875 7.074219 -5.347656 7.074219 -5.347656 C 7.074219 -6.957031 5.816406 -8.375 3.890625 -8.375 C 2.359375 -8.375 1.179688 -7.351562 1.179688 -5.777344 C 1.179688 -1.925781 5.777344 0.394531 10.613281 0.394531 Z M 10.613281 0.394531" transform="translate(272.034 277.392)"/></g></g></g><g fill="#808080"><g><g><path d="M 1.964844 0 L 19.539062 0 L 20.207031 -7.507812 L 19.8125 -7.507812 C 19.539062 -3.421875 15.214844 -0.394531 10.652344 -0.394531 L 7.902344 -0.394531 L 7.902344 -11.007812 L 8.453125 -11.007812 C 11.714844 -10.929688 13.835938 -9.199219 13.835938 -6.210938 L 14.308594 -6.210938 L 14.308594 -16.195312 L 13.835938 -16.195312 C 13.835938 -13.167969 11.714844 -11.441406 8.375 -11.398438 L 7.902344 -11.398438 L 7.902344 -21.621094 L 10.652344 -21.621094 C 15.214844 -21.621094 18.398438 -18.789062 18.398438 -14.703125 L 18.789062 -14.703125 L 18.789062 -22.015625 L 1.964844 -22.015625 Z M 1.964844 0" transform="translate(296.839 277.392)"/></g></g></g><path transform="translate(57.327 245.43) scale(.86722)" fill="none" d="M 2.722406 34.997754 L 9.559991 34.997754 L 9.559991 21.309072 C 18.992074 21.309072 13.965233 33.87167 22.442397 34.997754 C 25.883711 35.452692 27.554821 34.997754 27.554821 34.997754 C 27.554821 34.997754 25.883711 34.047339 24.289176 29.876322 C 22.253215 24.48463 21.43793 21.223489 15.460674 21.223489 C 18.856944 21.223489 22.708153 18.498365 22.708153 15.466945 C 22.708153 11.250885 18.856944 9.611306 13.469756 9.611306 L 2.722406 9.611306 Z M 9.559991 20.94422 L 9.559991 9.935619 L 11.785134 9.935619 C 14.510258 9.935619 15.460674 12.381474 15.460674 15.597571 C 15.460674 18.73259 14.685928 20.94422 11.960803 20.94422 Z M 33.446495 34.997754 L 33.946476 34.997754 L 37.396799 27.385423 L 47.049595 27.385423 L 50.499918 34.997754 L 58.017657 34.997754 L 45.058677 9.246455 Z M 37.622016 26.930485 L 42.247971 16.773203 L 46.873926 26.930485 Z M 73.291867 34.997754 L 80.142965 34.997754 L 80.142965 10.066244 C 85.399527 10.066244 89.075067 13.331889 89.075067 18.043427 L 89.530005 18.043427 L 89.530005 9.611306 L 63.909331 9.611306 L 63.909331 18.043427 L 64.364269 18.043427 C 64.364269 13.331889 68.035305 10.066244 73.291867 10.066244 Z M 97.007205 34.997754 L 103.038514 34.997754 L 103.038514 9.611306 L 97.007205 9.611306 Z M 133.726567 35.731961 L 133.726567 9.611306 L 133.271629 9.611306 L 133.271629 24.939568 L 119.348721 9.611306 L 112.101242 9.611306 L 112.101242 34.997754 L 112.55618 34.997754 L 112.55618 13.241803 Z M 155.20325 35.452692 C 157.018498 35.452692 158.748164 35.087841 160.37423 34.502277 L 164.090309 34.502277 L 164.090309 23.989153 L 155.838362 23.989153 L 155.838362 24.48463 L 158.833746 24.48463 L 158.833746 34.227512 C 157.428393 34.822085 156.113126 34.997754 155.20325 34.867128 C 150.577295 34.457234 148.996273 29.376341 148.996273 22.349574 C 148.996273 15.012007 150.577295 10.30047 155.658188 9.935619 C 157.108585 9.845532 158.468895 10.19687 159.509397 10.971616 C 161.279602 12.422013 160.603951 14.471487 160.054422 15.557032 C 159.198598 17.183098 158.338269 17.54795 158.338269 17.54795 C 158.338269 19.228068 159.829205 20.534326 161.148976 20.534326 C 163.22998 20.534326 164.270482 18.412782 164.270482 16.462404 C 164.270482 12.921995 161.004837 9.300507 155.20325 9.300507 C 147.726049 9.34555 141.649698 15.192181 141.649698 22.394617 C 141.649698 29.610566 147.726049 35.452692 155.20325 35.452692 Z M 197.764738 36.72742 L 205.390582 19.903718 L 213.002913 36.72742 L 225.290747 9.611306 L 224.790765 9.611306 L 216.48927 27.840361 L 208.246332 9.611306 L 200.719584 9.611306 L 205.115817 19.318154 L 201.264609 27.840361 L 193.008157 9.611306 L 185.481409 9.611306 Z M 232.767947 34.997754 L 238.799256 34.997754 L 238.799256 9.611306 L 232.767947 9.611306 Z M 257.830083 35.452692 C 263.762296 35.452692 268.933276 32.322178 268.212582 26.655721 C 267.581974 19.948762 252.942876 19.44878 252.942876 13.286846 C 252.942876 10.840991 255.019376 9.890575 257.424693 9.890575 C 260.100269 9.890575 261.861465 11.01666 261.861465 12.831908 C 261.861465 15.102094 260.320982 15.277763 260.320982 15.277763 C 260.320982 16.872299 261.595709 18.322696 263.541583 18.322696 C 265.082067 18.322696 266.266708 17.327237 266.266708 15.732701 C 266.266708 11.66078 261.915517 9.246455 257.334606 9.246455 C 251.713192 9.246455 246.952107 11.791406 247.582714 17.457863 C 248.402504 24.840472 262.865933 25.745844 262.865933 31.470858 C 262.865933 34.227512 259.460653 34.867128 257.555318 34.867128 C 255.064419 34.867128 252.123087 33.772574 252.123087 31.146545 C 252.123087 30.916824 252.123087 30.696112 252.16813 30.416843 C 252.388843 29.011489 253.749153 28.83582 253.749153 28.83582 C 253.749153 26.975529 252.298756 25.349463 250.087126 25.349463 C 248.316921 25.349463 246.952107 26.52059 246.952107 28.335839 C 246.952107 32.777116 252.253713 35.452692 257.830083 35.452692 Z M 276.464528 34.997754 L 296.72504 34.997754 L 297.490777 26.344921 L 297.035839 26.344921 C 296.72504 31.060963 291.734234 34.54732 286.477671 34.54732 L 283.302113 34.54732 L 283.302113 22.30453 L 283.946234 22.30453 C 287.707356 22.394617 290.153211 24.399047 290.153211 27.840361 L 290.693732 27.840361 L 290.693732 16.318265 L 290.153211 16.318265 C 290.153211 19.818136 287.707356 21.809053 283.847138 21.854096 L 283.302113 21.854096 L 283.302113 10.066244 L 286.477671 10.066244 C 291.734234 10.066244 295.409773 13.331889 295.409773 18.043427 L 295.864711 18.043427 L 295.864711 9.611306 L 276.464528 9.611306 Z M 276.464528 34.997754" stroke="#000" stroke-width="2.465"/></svg>