<svg xmlns="http://www.w3.org/2000/svg" width="375" viewBox="0 0 375 375" height="375" version="1.0"><defs><clipPath id="a"><path d="M 173 140 L 200 140 L 200 175 L 173 175 Z M 173 140"/></clipPath><clipPath id="b"><path d="M 162.972656 163.5 L 186.839844 139.636719 L 210.703125 163.5 L 186.839844 187.363281 Z M 162.972656 163.5"/></clipPath><clipPath id="c"><path d="M 162.972656 163.5 L 186.839844 139.636719 L 210.703125 163.5 L 186.839844 187.363281 Z M 162.972656 163.5"/></clipPath><clipPath id="d"><path d="M 162.972656 163.5 L 186.839844 139.636719 L 210.703125 163.5 L 186.839844 187.363281 Z M 162.972656 163.5"/></clipPath></defs><path fill="#FFF" d="M-37.5 -37.5H412.5V412.5H-37.5z"/><path fill="#F0ECE3" d="M-37.5 -37.5H412.5V412.5H-37.5z"/><path fill="#77838D" d="M 113.507812 80.515625 L 264.875 80.515625 L 264.875 231.882812 L 113.507812 231.882812 L 113.507812 80.515625"/><path fill="#9AA7B2" d="M 265.484375 232.367188 L 112.898438 232.367188 L 112.898438 79.785156 L 265.484375 79.785156 L 265.484375 232.367188 M 114.117188 231.148438 L 264.265625 231.148438 L 264.265625 81.003906 L 114.117188 81.003906 L 114.117188 231.148438"/><path fill="#C7D0D8" d="M 109.484375 76.367188 L 260.847656 76.367188 L 260.847656 227.734375 L 109.484375 227.734375 L 109.484375 76.367188"/><g clip-path="url(#a)"><g clip-path="url(#b)"><g clip-path="url(#c)"><g clip-path="url(#d)"><path d="M 185.964844 141.003906 L 173.792969 173.164062 C 173.484375 173.972656 174.351562 174.730469 175.113281 174.3125 L 186.390625 168.125 C 186.671875 167.96875 187.007812 167.96875 187.285156 168.125 L 198.566406 174.3125 C 199.324219 174.730469 200.195312 173.972656 199.886719 173.164062 L 187.710938 141.003906 C 187.40625 140.203125 186.269531 140.203125 185.964844 141.003906"/></g></g></g></g><g fill="#FFF" fill-opacity=".4"><g><g><path d="M 5.160156 0 L 6.644531 0 L 4.40625 -7.59375 L 4.40625 -7.613281 L 2.914062 -7.613281 L 0.667969 0 L 2.160156 0 L 2.722656 -1.894531 L 4.597656 -1.894531 Z M 3.140625 -3.3125 L 3.664062 -5.082031 L 4.179688 -3.3125 Z M 3.140625 -3.3125" transform="translate(168.03 92.5)"/></g></g></g><g fill="#FFF" fill-opacity=".4"><g><g><path d="M 6.613281 -4.757812 C 6.613281 -6.339844 5.890625 -7.613281 3.949219 -7.613281 L 0.667969 -7.613281 L 0.667969 0 L 2.09375 0 L 2.09375 -1.894531 L 3.949219 -1.894531 C 4.121094 -1.894531 4.28125 -1.902344 4.433594 -1.921875 L 5.121094 0 L 6.613281 0 L 5.75 -2.4375 C 6.375 -2.960938 6.613281 -3.808594 6.613281 -4.757812 Z M 2.09375 -3.320312 L 2.09375 -6.195312 L 3.949219 -6.195312 C 4.652344 -6.195312 4.84375 -5.957031 4.910156 -5.882812 C 5.089844 -5.652344 5.1875 -5.253906 5.1875 -4.757812 C 5.1875 -4.234375 5.089844 -3.835938 4.921875 -3.625 C 4.757812 -3.417969 4.433594 -3.320312 3.949219 -3.320312 Z M 2.09375 -3.320312" transform="translate(175.339 92.5)"/></g></g></g><g fill="#FFF" fill-opacity=".4"><g><g><path d="M 6.613281 -4.757812 C 6.613281 -6.339844 5.890625 -7.613281 3.949219 -7.613281 L 0.667969 -7.613281 L 0.667969 0 L 2.09375 0 L 2.09375 -1.894531 L 3.949219 -1.894531 C 4.121094 -1.894531 4.28125 -1.902344 4.433594 -1.921875 L 5.121094 0 L 6.613281 0 L 5.75 -2.4375 C 6.375 -2.960938 6.613281 -3.808594 6.613281 -4.757812 Z M 2.09375 -3.320312 L 2.09375 -6.195312 L 3.949219 -6.195312 C 4.652344 -6.195312 4.84375 -5.957031 4.910156 -5.882812 C 5.089844 -5.652344 5.1875 -5.253906 5.1875 -4.757812 C 5.1875 -4.234375 5.089844 -3.835938 4.921875 -3.625 C 4.757812 -3.417969 4.433594 -3.320312 3.949219 -3.320312 Z M 2.09375 -3.320312" transform="translate(182.62 92.5)"/></g></g></g><g fill="#FFF" fill-opacity=".4"><g><g><path d="M 5.160156 0 L 6.644531 0 L 4.40625 -7.59375 L 4.40625 -7.613281 L 2.914062 -7.613281 L 0.667969 0 L 2.160156 0 L 2.722656 -1.894531 L 4.597656 -1.894531 Z M 3.140625 -3.3125 L 3.664062 -5.082031 L 4.179688 -3.3125 Z M 3.140625 -3.3125" transform="translate(189.9 92.5)"/></g></g></g><g fill="#FFF" fill-opacity=".4"><g><g><path d="M 4.902344 -7.625 L 3.503906 -4.3125 L 2.09375 -7.625 L 0.667969 -7.625 L 2.789062 -2.636719 L 2.789062 0 L 4.207031 0 L 4.207031 -2.636719 L 6.320312 -7.625 Z M 4.902344 -7.625" transform="translate(197.21 92.5)"/></g></g></g><g><g><g><path d="M 5.160156 0 L 6.644531 0 L 4.40625 -7.59375 L 4.40625 -7.613281 L 2.914062 -7.613281 L 0.667969 0 L 2.160156 0 L 2.722656 -1.894531 L 4.597656 -1.894531 Z M 3.140625 -3.3125 L 3.664062 -5.082031 L 4.179688 -3.3125 Z M 3.140625 -3.3125" transform="translate(168.585 92.286)"/></g></g></g><g><g><g><path d="M 6.613281 -4.757812 C 6.613281 -6.339844 5.890625 -7.613281 3.949219 -7.613281 L 0.667969 -7.613281 L 0.667969 0 L 2.09375 0 L 2.09375 -1.894531 L 3.949219 -1.894531 C 4.121094 -1.894531 4.28125 -1.902344 4.433594 -1.921875 L 5.121094 0 L 6.613281 0 L 5.75 -2.4375 C 6.375 -2.960938 6.613281 -3.808594 6.613281 -4.757812 Z M 2.09375 -3.320312 L 2.09375 -6.195312 L 3.949219 -6.195312 C 4.652344 -6.195312 4.84375 -5.957031 4.910156 -5.882812 C 5.089844 -5.652344 5.1875 -5.253906 5.1875 -4.757812 C 5.1875 -4.234375 5.089844 -3.835938 4.921875 -3.625 C 4.757812 -3.417969 4.433594 -3.320312 3.949219 -3.320312 Z M 2.09375 -3.320312" transform="translate(175.894 92.286)"/></g></g></g><g><g><g><path d="M 6.613281 -4.757812 C 6.613281 -6.339844 5.890625 -7.613281 3.949219 -7.613281 L 0.667969 -7.613281 L 0.667969 0 L 2.09375 0 L 2.09375 -1.894531 L 3.949219 -1.894531 C 4.121094 -1.894531 4.28125 -1.902344 4.433594 -1.921875 L 5.121094 0 L 6.613281 0 L 5.75 -2.4375 C 6.375 -2.960938 6.613281 -3.808594 6.613281 -4.757812 Z M 2.09375 -3.320312 L 2.09375 -6.195312 L 3.949219 -6.195312 C 4.652344 -6.195312 4.84375 -5.957031 4.910156 -5.882812 C 5.089844 -5.652344 5.1875 -5.253906 5.1875 -4.757812 C 5.1875 -4.234375 5.089844 -3.835938 4.921875 -3.625 C 4.757812 -3.417969 4.433594 -3.320312 3.949219 -3.320312 Z M 2.09375 -3.320312" transform="translate(183.175 92.286)"/></g></g></g><g><g><g><path d="M 5.160156 0 L 6.644531 0 L 4.40625 -7.59375 L 4.40625 -7.613281 L 2.914062 -7.613281 L 0.667969 0 L 2.160156 0 L 2.722656 -1.894531 L 4.597656 -1.894531 Z M 3.140625 -3.3125 L 3.664062 -5.082031 L 4.179688 -3.3125 Z M 3.140625 -3.3125" transform="translate(190.455 92.286)"/></g></g></g><g><g><g><path d="M 4.902344 -7.625 L 3.503906 -4.3125 L 2.09375 -7.625 L 0.667969 -7.625 L 2.789062 -2.636719 L 2.789062 0 L 4.207031 0 L 4.207031 -2.636719 L 6.320312 -7.625 Z M 4.902344 -7.625" transform="translate(197.765 92.286)"/></g></g></g><g fill="#FFF" fill-opacity=".4"><g><g><path d="M 3.527344 1.480469 L 3.6875 1.542969 C 5.214844 2.132812 6.472656 1.480469 6.917969 0.519531 C 7.394531 -0.480469 7.0625 -1.9375 5.277344 -2.914062 L 5.261719 -2.917969 C 4.609375 -3.265625 4.03125 -3.878906 4.261719 -4.363281 C 4.425781 -4.707031 5.085938 -4.828125 6.035156 -4.40625 L 6.0625 -4.394531 C 6.59375 -4.1875 7.132812 -3.679688 7.367188 -3.3125 L 8.542969 -4.078125 C 8.179688 -4.640625 7.441406 -5.359375 6.589844 -5.691406 C 4.746094 -6.523438 3.460938 -5.921875 3 -4.980469 C 2.734375 -4.429688 2.753906 -3.777344 3.050781 -3.171875 C 3.339844 -2.578125 3.882812 -2.058594 4.613281 -1.679688 C 5.59375 -1.132812 5.839844 -0.484375 5.652344 -0.078125 C 5.476562 0.292969 4.917969 0.511719 4.183594 0.226562 L 4.140625 0.207031 C 4.128906 0.203125 3.144531 -0.121094 2.738281 -0.839844 C 2.632812 -1.015625 2.566406 -1.203125 2.515625 -1.417969 L 1.148438 -1.105469 C 1.21875 -0.769531 1.347656 -0.445312 1.515625 -0.140625 C 2.066406 0.828125 3.101562 1.316406 3.527344 1.480469 Z M 3.527344 1.480469" transform="translate(113.882 211.759)"/></g></g></g><g fill="#FFF" fill-opacity=".4"><g><g><path d="M 8.71875 -4.765625 L 3.394531 -6.847656 L 2.875 -5.527344 L 4.878906 -4.746094 L 2.625 1.027344 L 3.945312 1.542969 L 6.199219 -4.226562 L 8.203125 -3.445312 Z M 8.71875 -4.765625" transform="translate(120.681 214.417)"/></g></g></g><g fill="#FFF" fill-opacity=".4"><g><g><path d="M 7.894531 -2.023438 C 8.46875 -3.496094 8.257812 -4.945312 6.453125 -5.652344 L 3.394531 -6.847656 L 0.621094 0.242188 L 1.949219 0.761719 L 2.640625 -1 L 4.367188 -0.324219 C 4.527344 -0.261719 4.683594 -0.214844 4.832031 -0.175781 L 4.769531 1.863281 L 6.160156 2.410156 L 6.242188 -0.175781 C 7.015625 -0.433594 7.546875 -1.136719 7.894531 -2.023438 Z M 3.160156 -2.332031 L 4.207031 -5.007812 L 5.933594 -4.332031 C 6.589844 -4.074219 6.679688 -3.785156 6.714844 -3.6875 C 6.800781 -3.410156 6.742188 -3.003906 6.5625 -2.542969 C 6.375 -2.054688 6.140625 -1.71875 5.902344 -1.585938 C 5.675781 -1.449219 5.339844 -1.476562 4.886719 -1.65625 Z M 3.160156 -2.332031" transform="translate(127.249 216.986)"/></g></g></g><g fill="#FFF" fill-opacity=".4"><g><g><path d="M 3.394531 -6.847656 L 4.722656 -6.328125 L 1.960938 0.734375 L 0.628906 0.214844 Z M 3.394531 -6.847656" transform="translate(134.03 219.637)"/></g></g></g><g fill="#FFF" fill-opacity=".4"><g><g><path d="M 7.605469 -5.203125 L 5.730469 -0.414062 L 4.847656 -6.28125 L 3.394531 -6.847656 L 0.621094 0.242188 L 1.949219 0.761719 L 3.6875 -3.679688 L 4.503906 1.761719 L 6.160156 2.410156 L 8.933594 -4.683594 Z M 7.605469 -5.203125" transform="translate(136.6 220.642)"/></g></g></g><g fill="#FFF" fill-opacity=".4"><g><g><path d="M 9.445312 -1.078125 L 6.140625 -2.371094 L 5.609375 -1.015625 L 7.363281 -0.328125 C 6.746094 0.441406 5.734375 0.78125 4.742188 0.394531 C 3.492188 -0.0976562 3.003906 -1.460938 3.492188 -2.710938 C 3.980469 -3.960938 5.265625 -4.632812 6.515625 -4.144531 C 6.960938 -3.972656 7.308594 -3.691406 7.542969 -3.347656 L 8.921875 -3.949219 C 8.492188 -4.628906 7.851562 -5.1875 7.046875 -5.5 C 5.042969 -6.285156 2.785156 -5.296875 2.003906 -3.292969 C 1.21875 -1.289062 2.207031 0.964844 4.210938 1.75 C 6.214844 2.53125 8.46875 1.542969 9.253906 -0.457031 C 9.332031 -0.664062 9.394531 -0.875 9.445312 -1.078125 Z M 9.445312 -1.078125" transform="translate(143.381 223.294)"/></g></g></g><g><g><g><path d="M 3.527344 1.480469 L 3.6875 1.542969 C 5.214844 2.132812 6.472656 1.480469 6.917969 0.519531 C 7.394531 -0.480469 7.0625 -1.9375 5.277344 -2.914062 L 5.261719 -2.917969 C 4.609375 -3.265625 4.03125 -3.878906 4.261719 -4.363281 C 4.425781 -4.707031 5.085938 -4.828125 6.035156 -4.40625 L 6.0625 -4.394531 C 6.59375 -4.1875 7.132812 -3.679688 7.367188 -3.3125 L 8.542969 -4.078125 C 8.179688 -4.640625 7.441406 -5.359375 6.589844 -5.691406 C 4.746094 -6.523438 3.460938 -5.921875 3 -4.980469 C 2.734375 -4.429688 2.753906 -3.777344 3.050781 -3.171875 C 3.339844 -2.578125 3.882812 -2.058594 4.613281 -1.679688 C 5.59375 -1.132812 5.839844 -0.484375 5.652344 -0.078125 C 5.476562 0.292969 4.917969 0.511719 4.183594 0.226562 L 4.140625 0.207031 C 4.128906 0.203125 3.144531 -0.121094 2.738281 -0.839844 C 2.632812 -1.015625 2.566406 -1.203125 2.515625 -1.417969 L 1.148438 -1.105469 C 1.21875 -0.769531 1.347656 -0.445312 1.515625 -0.140625 C 2.066406 0.828125 3.101562 1.316406 3.527344 1.480469 Z M 3.527344 1.480469" transform="translate(114.477 211.763)"/></g></g></g><g><g><g><path d="M 8.71875 -4.765625 L 3.394531 -6.847656 L 2.875 -5.527344 L 4.878906 -4.746094 L 2.625 1.027344 L 3.945312 1.542969 L 6.199219 -4.226562 L 8.203125 -3.445312 Z M 8.71875 -4.765625" transform="translate(121.276 214.421)"/></g></g></g><g><g><g><path d="M 7.894531 -2.023438 C 8.46875 -3.496094 8.257812 -4.945312 6.453125 -5.652344 L 3.394531 -6.847656 L 0.621094 0.242188 L 1.949219 0.761719 L 2.640625 -1 L 4.367188 -0.324219 C 4.527344 -0.261719 4.683594 -0.214844 4.832031 -0.175781 L 4.769531 1.863281 L 6.160156 2.410156 L 6.242188 -0.175781 C 7.015625 -0.433594 7.546875 -1.136719 7.894531 -2.023438 Z M 3.160156 -2.332031 L 4.207031 -5.007812 L 5.933594 -4.332031 C 6.589844 -4.074219 6.679688 -3.785156 6.714844 -3.6875 C 6.800781 -3.410156 6.742188 -3.003906 6.5625 -2.542969 C 6.375 -2.054688 6.140625 -1.71875 5.902344 -1.585938 C 5.675781 -1.449219 5.339844 -1.476562 4.886719 -1.65625 Z M 3.160156 -2.332031" transform="translate(127.844 216.99)"/></g></g></g><g><g><g><path d="M 3.394531 -6.847656 L 4.722656 -6.328125 L 1.960938 0.734375 L 0.628906 0.214844 Z M 3.394531 -6.847656" transform="translate(134.625 219.64)"/></g></g></g><g><g><g><path d="M 7.605469 -5.203125 L 5.730469 -0.414062 L 4.847656 -6.28125 L 3.394531 -6.847656 L 0.621094 0.242188 L 1.949219 0.761719 L 3.6875 -3.679688 L 4.503906 1.761719 L 6.160156 2.410156 L 8.933594 -4.683594 Z M 7.605469 -5.203125" transform="translate(137.195 220.646)"/></g></g></g><g><g><g><path d="M 9.445312 -1.078125 L 6.140625 -2.371094 L 5.609375 -1.015625 L 7.363281 -0.328125 C 6.746094 0.441406 5.734375 0.78125 4.742188 0.394531 C 3.492188 -0.0976562 3.003906 -1.460938 3.492188 -2.710938 C 3.980469 -3.960938 5.265625 -4.632812 6.515625 -4.144531 C 6.960938 -3.972656 7.308594 -3.691406 7.542969 -3.347656 L 8.921875 -3.949219 C 8.492188 -4.628906 7.851562 -5.1875 7.046875 -5.5 C 5.042969 -6.285156 2.785156 -5.296875 2.003906 -3.292969 C 1.21875 -1.289062 2.207031 0.964844 4.210938 1.75 C 6.214844 2.53125 8.46875 1.542969 9.253906 -0.457031 C 9.332031 -0.664062 9.394531 -0.875 9.445312 -1.078125 Z M 9.445312 -1.078125" transform="translate(143.976 223.298)"/></g></g></g><g fill="#FFF" fill-opacity=".4"><g><g><path d="M -0.25 3.820312 L -0.253906 3.992188 C -0.3125 5.625 0.714844 6.601562 1.769531 6.710938 C 2.871094 6.828125 4.140625 6.042969 4.476562 4.035156 L 4.476562 4.019531 C 4.59375 3.289062 4.984375 2.542969 5.515625 2.601562 C 5.894531 2.644531 6.222656 3.230469 6.132812 4.265625 L 6.132812 4.292969 C 6.109375 4.863281 5.808594 5.539062 5.535156 5.878906 L 6.644531 6.742188 C 7.054688 6.21875 7.492188 5.28125 7.53125 4.367188 C 7.714844 2.355469 6.726562 1.335938 5.683594 1.207031 C 5.078125 1.136719 4.46875 1.371094 3.992188 1.847656 C 3.527344 2.3125 3.214844 2.996094 3.09375 3.808594 C 2.898438 4.917969 2.367188 5.363281 1.921875 5.316406 C 1.511719 5.269531 1.121094 4.816406 1.152344 4.027344 L 1.15625 3.980469 C 1.15625 3.96875 1.140625 2.933594 1.6875 2.316406 C 1.820312 2.160156 1.976562 2.03125 2.160156 1.914062 L 1.417969 0.722656 C 1.125 0.902344 0.859375 1.128906 0.628906 1.386719 C -0.109375 2.222656 -0.230469 3.363281 -0.25 3.820312 Z M -0.25 3.820312" transform="translate(247.585 172.818)"/></g></g></g><g fill="#FFF" fill-opacity=".4"><g><g><path d="M 7.535156 4.53125 C 7.621094 2.382812 5.949219 0.570312 3.800781 0.484375 C 1.652344 0.398438 -0.160156 2.070312 -0.246094 4.21875 C -0.332031 6.367188 1.339844 8.179688 3.488281 8.265625 C 5.636719 8.351562 7.449219 6.679688 7.535156 4.53125 Z M 6.078125 4.472656 C 6.023438 5.824219 4.894531 6.730469 3.550781 6.675781 C 2.210938 6.621094 1.15625 5.628906 1.210938 4.277344 C 1.261719 2.9375 2.394531 2.03125 3.734375 2.082031 C 5.078125 2.136719 6.132812 3.132812 6.078125 4.472656 Z M 6.078125 4.472656" transform="translate(247.292 180.112)"/></g></g></g><g fill="#FFF" fill-opacity=".4"><g><g><path d="M 4.488281 6.800781 C 6.070312 6.863281 7.371094 6.191406 7.449219 4.25 L 7.582031 0.96875 L -0.0273438 0.664062 L -0.0820312 2.09375 L 1.808594 2.167969 L 1.734375 4.023438 C 1.726562 4.195312 1.730469 4.355469 1.742188 4.507812 L -0.203125 5.117188 L -0.265625 6.609375 L 2.203125 5.839844 C 2.703125 6.488281 3.539062 6.761719 4.488281 6.800781 Z M 3.234375 2.226562 L 6.105469 2.339844 L 6.03125 4.195312 C 6.003906 4.898438 5.757812 5.078125 5.679688 5.140625 C 5.445312 5.3125 5.042969 5.394531 4.546875 5.375 C 4.023438 5.351562 3.628906 5.242188 3.425781 5.0625 C 3.222656 4.890625 3.140625 4.566406 3.160156 4.078125 Z M 3.234375 2.226562" transform="translate(246.954 188.557)"/></g></g></g><g fill="#FFF" fill-opacity=".4"><g><g><path d="M 7.351562 6.6875 L 7.582031 0.96875 L 6.164062 0.914062 L 6.078125 3.0625 L -0.113281 2.816406 L -0.167969 4.230469 L 6.019531 4.480469 L 5.933594 6.628906 Z M 7.351562 6.6875" transform="translate(246.662 195.831)"/></g></g></g><g fill="#FFF" fill-opacity=".4"><g><g><path d="M 7.582031 0.96875 L 7.523438 2.398438 L -0.0546875 2.09375 L 0 0.667969 Z M 7.582031 0.96875" transform="translate(246.38 202.878)"/></g></g></g><g fill="#FFF" fill-opacity=".4"><g><g><path d="M 7.398438 5.488281 L 2.265625 5.28125 L 7.519531 2.53125 L 7.582031 0.96875 L -0.0273438 0.664062 L -0.0820312 2.09375 L 4.679688 2.28125 L -0.195312 4.832031 L -0.265625 6.609375 L 7.34375 6.914062 Z M 7.398438 5.488281" transform="translate(246.27 205.636)"/></g></g></g><g fill="#FFF" fill-opacity=".4"><g><g><path d="M 4.105469 8.574219 L 4.246094 5.027344 L 2.792969 4.96875 L 2.714844 6.851562 C 1.785156 6.519531 1.132812 5.675781 1.175781 4.609375 C 1.230469 3.269531 2.363281 2.363281 3.703125 2.414062 C 5.042969 2.46875 6.101562 3.464844 6.046875 4.804688 C 6.027344 5.28125 5.875 5.703125 5.625 6.035156 L 6.648438 7.144531 C 7.148438 6.515625 7.464844 5.726562 7.5 4.863281 C 7.585938 2.714844 5.917969 0.902344 3.769531 0.816406 C 1.617188 0.730469 -0.191406 2.402344 -0.277344 4.550781 C -0.363281 6.699219 1.308594 8.511719 3.457031 8.597656 C 3.675781 8.605469 3.894531 8.59375 4.105469 8.574219 Z M 4.105469 8.574219" transform="translate(245.978 212.91)"/></g></g></g><g><g><g><path d="M -0.25 3.820312 L -0.253906 3.992188 C -0.3125 5.625 0.714844 6.601562 1.769531 6.710938 C 2.871094 6.828125 4.140625 6.042969 4.476562 4.035156 L 4.476562 4.019531 C 4.59375 3.289062 4.984375 2.542969 5.515625 2.601562 C 5.894531 2.644531 6.222656 3.230469 6.132812 4.265625 L 6.132812 4.292969 C 6.109375 4.863281 5.808594 5.539062 5.535156 5.878906 L 6.644531 6.742188 C 7.054688 6.21875 7.492188 5.28125 7.53125 4.367188 C 7.714844 2.355469 6.726562 1.335938 5.683594 1.207031 C 5.078125 1.136719 4.46875 1.371094 3.992188 1.847656 C 3.527344 2.3125 3.214844 2.996094 3.09375 3.808594 C 2.898438 4.917969 2.367188 5.363281 1.921875 5.316406 C 1.511719 5.269531 1.121094 4.816406 1.152344 4.027344 L 1.15625 3.980469 C 1.15625 3.96875 1.140625 2.933594 1.6875 2.316406 C 1.820312 2.160156 1.976562 2.03125 2.160156 1.914062 L 1.417969 0.722656 C 1.125 0.902344 0.859375 1.128906 0.628906 1.386719 C -0.109375 2.222656 -0.230469 3.363281 -0.25 3.820312 Z M -0.25 3.820312" transform="translate(247.775 173.381)"/></g></g></g><g><g><g><path d="M 7.535156 4.53125 C 7.621094 2.382812 5.949219 0.570312 3.800781 0.484375 C 1.652344 0.398438 -0.160156 2.070312 -0.246094 4.21875 C -0.332031 6.367188 1.339844 8.179688 3.488281 8.265625 C 5.636719 8.351562 7.449219 6.679688 7.535156 4.53125 Z M 6.078125 4.472656 C 6.023438 5.824219 4.894531 6.730469 3.550781 6.675781 C 2.210938 6.621094 1.15625 5.628906 1.210938 4.277344 C 1.261719 2.9375 2.394531 2.03125 3.734375 2.082031 C 5.078125 2.136719 6.132812 3.132812 6.078125 4.472656 Z M 6.078125 4.472656" transform="translate(247.483 180.675)"/></g></g></g><g><g><g><path d="M 4.488281 6.800781 C 6.070312 6.863281 7.371094 6.191406 7.449219 4.25 L 7.582031 0.96875 L -0.0273438 0.664062 L -0.0820312 2.09375 L 1.808594 2.167969 L 1.734375 4.023438 C 1.726562 4.195312 1.730469 4.355469 1.742188 4.507812 L -0.203125 5.117188 L -0.265625 6.609375 L 2.203125 5.839844 C 2.703125 6.488281 3.539062 6.761719 4.488281 6.800781 Z M 3.234375 2.226562 L 6.105469 2.339844 L 6.03125 4.195312 C 6.003906 4.898438 5.757812 5.078125 5.679688 5.140625 C 5.445312 5.3125 5.042969 5.394531 4.546875 5.375 C 4.023438 5.351562 3.628906 5.242188 3.425781 5.0625 C 3.222656 4.890625 3.140625 4.566406 3.160156 4.078125 Z M 3.234375 2.226562" transform="translate(247.145 189.12)"/></g></g></g><g><g><g><path d="M 7.351562 6.6875 L 7.582031 0.96875 L 6.164062 0.914062 L 6.078125 3.0625 L -0.113281 2.816406 L -0.167969 4.230469 L 6.019531 4.480469 L 5.933594 6.628906 Z M 7.351562 6.6875" transform="translate(246.853 196.395)"/></g></g></g><g><g><g><path d="M 7.582031 0.96875 L 7.523438 2.398438 L -0.0546875 2.09375 L 0 0.667969 Z M 7.582031 0.96875" transform="translate(246.57 203.442)"/></g></g></g><g><g><g><path d="M 7.398438 5.488281 L 2.265625 5.28125 L 7.519531 2.53125 L 7.582031 0.96875 L -0.0273438 0.664062 L -0.0820312 2.09375 L 4.679688 2.28125 L -0.195312 4.832031 L -0.265625 6.609375 L 7.34375 6.914062 Z M 7.398438 5.488281" transform="translate(246.46 206.2)"/></g></g></g><g><g><g><path d="M 4.105469 8.574219 L 4.246094 5.027344 L 2.792969 4.96875 L 2.714844 6.851562 C 1.785156 6.519531 1.132812 5.675781 1.175781 4.609375 C 1.230469 3.269531 2.363281 2.363281 3.703125 2.414062 C 5.042969 2.46875 6.101562 3.464844 6.046875 4.804688 C 6.027344 5.28125 5.875 5.703125 5.625 6.035156 L 6.648438 7.144531 C 7.148438 6.515625 7.464844 5.726562 7.5 4.863281 C 7.585938 2.714844 5.917969 0.902344 3.769531 0.816406 C 1.617188 0.730469 -0.191406 2.402344 -0.277344 4.550781 C -0.363281 6.699219 1.308594 8.511719 3.457031 8.597656 C 3.675781 8.605469 3.894531 8.59375 4.105469 8.574219 Z M 4.105469 8.574219" transform="translate(246.168 213.474)"/></g></g></g><g fill="#FFF" fill-opacity=".4"><g><g><path d="M -8.476562 -9.347656 L -10.914062 -12.035156 L -21 4.496094 L -21.035156 4.527344 L -18.578125 7.234375 L -1.09375 -1.207031 L -3.550781 -3.914062 L -7.902344 -1.820312 L -10.984375 -5.214844 Z M -11.160156 -0.25 L -15.226562 1.710938 L -12.867188 -2.128906 Z M -11.160156 -0.25" transform="translate(167.5 186.07)"/></g></g></g><g fill="#FFF" fill-opacity=".4"><g><g><path d="M -21.59375 -6.433594 L -9.617188 -10.25 L -19.398438 0.464844 L -18.238281 4.101562 L -0.496094 -1.550781 L -1.554688 -4.878906 L -12.667969 -1.335938 L -3.589844 -11.265625 L -4.914062 -15.414062 L -22.65625 -9.757812 Z M -21.59375 -6.433594" transform="translate(157.283 175.931)"/></g></g></g><g fill="#FFF" fill-opacity=".4"><g><g><path d="M -17.582031 -9.867188 L -18.300781 -3.8125 L 0.191406 -1.617188 L 0.910156 -7.675781 C 1.488281 -12.550781 -2.238281 -16.511719 -7.347656 -17.117188 C -12.453125 -17.722656 -17.019531 -14.605469 -17.582031 -9.867188 Z M -14.136719 -9.460938 C -13.8125 -12.210938 -11.015625 -14.058594 -7.753906 -13.671875 C -6.089844 -13.472656 -4.648438 -12.789062 -3.675781 -11.6875 C -3.035156 -10.980469 -2.332031 -9.792969 -2.535156 -8.082031 L -2.84375 -5.472656 L -14.449219 -6.847656 Z M -14.136719 -9.460938" transform="translate(152.222 162.529)"/></g></g></g><g fill="#FFF" fill-opacity=".4"><g><g><path d="M -2.609375 -25.167969 L -5.136719 -22.308594 L -0.714844 -13.148438 L -10.332031 -16.429688 L -12.875 -13.550781 L 1.078125 -1.222656 L 3.390625 -3.835938 L -4.320312 -10.648438 L 1.441406 -8.699219 L 3.96875 -11.558594 L 1.300781 -17.082031 L 9.046875 -10.238281 L 11.34375 -12.839844 Z M -2.609375 -25.167969" transform="translate(154.999 142.996)"/></g></g></g><g fill="#FFF" fill-opacity=".4"><g><g><path d="M 11.582031 -5 L 14.917969 -6.441406 L 2.53125 -21.324219 L 2.511719 -21.367188 L -0.84375 -19.917969 L 1.496094 -0.644531 L 4.851562 -2.09375 L 4.277344 -6.890625 L 8.484375 -8.710938 Z M 3.839844 -10.480469 L 3.300781 -14.964844 L 6.171875 -11.488281 Z M 3.839844 -10.480469" transform="translate(164.508 131.167)"/></g></g></g><g fill="#FFF" fill-opacity=".4"><g><g><path d="M 13.0625 -18.359375 L 12.808594 -5.792969 L 5.824219 -18.507812 L 2.007812 -18.585938 L 1.628906 0.0351562 L 5.121094 0.105469 L 5.359375 -11.554688 L 11.824219 0.242188 L 16.175781 0.328125 L 16.554688 -18.289062 Z M 13.0625 -18.359375" transform="translate(177.4 124.775)"/></g></g></g><g fill="#FFF" fill-opacity=".4"><g><g><path d="M 18.773438 -11.785156 L 12.234375 -5.90625 L 12.558594 -14.703125 L 9.398438 -16.183594 L 8.914062 -2.9375 L 6.171875 2.898438 L 9.3125 4.371094 L 12.054688 -1.464844 L 21.914062 -10.308594 Z M 18.773438 -11.785156" transform="translate(191.756 124.409)"/></g></g></g><g fill="#FFF" fill-opacity=".4"><g><g><path d="M 24.75 5.257812 L 22.808594 1.972656 L 12.730469 3.367188 L 18.8125 -4.777344 L 16.855469 -8.082031 L 0.828125 1.402344 L 2.609375 4.40625 L 11.460938 -0.832031 L 7.832031 4.046875 L 9.777344 7.332031 L 15.851562 6.496094 L 6.960938 11.757812 L 8.726562 14.742188 Z M 24.75 5.257812" transform="translate(208.914 132.87)"/></g></g></g><g fill="#FFF" fill-opacity=".4"><g><g><path d="M 19.453125 9.160156 C 19.128906 3.90625 14.617188 -0.0820312 9.367188 0.242188 C 4.117188 0.5625 0.125 5.078125 0.449219 10.328125 C 0.769531 15.578125 5.285156 19.566406 10.535156 19.246094 C 15.785156 18.921875 19.777344 14.410156 19.453125 9.160156 Z M 15.898438 9.378906 C 16.101562 12.675781 13.574219 15.164062 10.296875 15.367188 C 7.019531 15.566406 4.207031 13.40625 4.003906 10.109375 C 3.800781 6.832031 6.332031 4.34375 9.605469 4.144531 C 12.882812 3.941406 15.695312 6.101562 15.898438 9.378906 Z M 15.898438 9.378906" transform="translate(217.543 145.228)"/></g></g></g><g fill="#FFF" fill-opacity=".4"><g><g><path d="M 4.417969 19.433594 C 7.976562 20.9375 11.539062 20.523438 13.386719 16.152344 L 16.515625 8.753906 L -0.632812 1.5 L -1.996094 4.714844 L 2.269531 6.519531 L 0.503906 10.703125 C 0.339844 11.085938 0.207031 11.460938 0.105469 11.820312 L -4.878906 11.535156 L -6.300781 14.898438 L 0.0117188 15.269531 C 0.59375 17.183594 2.273438 18.527344 4.417969 19.433594 Z M 5.488281 7.882812 L 11.960938 10.621094 L 10.195312 14.800781 C 9.523438 16.386719 8.804688 16.589844 8.570312 16.667969 C 7.882812 16.855469 6.890625 16.6875 5.777344 16.21875 C 4.597656 15.71875 3.789062 15.125 3.480469 14.539062 C 3.164062 13.976562 3.257812 13.15625 3.71875 12.0625 Z M 5.488281 7.882812" transform="translate(219.129 162.045)"/></g></g></g><g fill="#FFF" fill-opacity=".4"><g><g><path d="M 2 19.515625 L 4.460938 21.960938 L 12.074219 14.300781 L -1.148438 1.15625 L -8.761719 8.816406 L -6.304688 11.261719 L -1.148438 6.078125 L 1.789062 9 L -1.28125 12.085938 L 1.179688 14.53125 L 4.25 11.441406 L 7.152344 14.332031 Z M 2 19.515625" transform="translate(213.717 175.54)"/></g></g></g><g><g><g><path d="M -8.476562 -9.347656 L -10.914062 -12.035156 L -21 4.496094 L -21.035156 4.527344 L -18.578125 7.234375 L -1.09375 -1.207031 L -3.550781 -3.914062 L -7.902344 -1.820312 L -10.984375 -5.214844 Z M -11.160156 -0.25 L -15.226562 1.710938 L -12.867188 -2.128906 Z M -11.160156 -0.25" transform="translate(168.86 185.549)"/></g></g></g><g><g><g><path d="M -21.59375 -6.433594 L -9.617188 -10.25 L -19.398438 0.464844 L -18.238281 4.101562 L -0.496094 -1.550781 L -1.554688 -4.878906 L -12.667969 -1.335938 L -3.589844 -11.265625 L -4.914062 -15.414062 L -22.65625 -9.757812 Z M -21.59375 -6.433594" transform="translate(158.642 175.41)"/></g></g></g><g><g><g><path d="M -17.582031 -9.867188 L -18.300781 -3.8125 L 0.191406 -1.617188 L 0.910156 -7.675781 C 1.488281 -12.550781 -2.238281 -16.511719 -7.347656 -17.117188 C -12.453125 -17.722656 -17.019531 -14.605469 -17.582031 -9.867188 Z M -14.136719 -9.460938 C -13.8125 -12.210938 -11.015625 -14.058594 -7.753906 -13.671875 C -6.089844 -13.472656 -4.648438 -12.789062 -3.675781 -11.6875 C -3.035156 -10.980469 -2.332031 -9.792969 -2.535156 -8.082031 L -2.84375 -5.472656 L -14.449219 -6.847656 Z M -14.136719 -9.460938" transform="translate(153.58 162.007)"/></g></g></g><g><g><g><path d="M -2.609375 -25.167969 L -5.136719 -22.308594 L -0.714844 -13.148438 L -10.332031 -16.429688 L -12.875 -13.550781 L 1.078125 -1.222656 L 3.390625 -3.835938 L -4.320312 -10.648438 L 1.441406 -8.699219 L 3.96875 -11.558594 L 1.300781 -17.082031 L 9.046875 -10.238281 L 11.34375 -12.839844 Z M -2.609375 -25.167969" transform="translate(156.357 142.475)"/></g></g></g><g><g><g><path d="M 11.582031 -5 L 14.917969 -6.441406 L 2.53125 -21.324219 L 2.511719 -21.367188 L -0.84375 -19.917969 L 1.496094 -0.644531 L 4.851562 -2.09375 L 4.277344 -6.890625 L 8.484375 -8.710938 Z M 3.839844 -10.480469 L 3.300781 -14.964844 L 6.171875 -11.488281 Z M 3.839844 -10.480469" transform="translate(165.866 130.645)"/></g></g></g><g><g><g><path d="M 13.0625 -18.359375 L 12.808594 -5.792969 L 5.824219 -18.507812 L 2.007812 -18.585938 L 1.628906 0.0351562 L 5.121094 0.105469 L 5.359375 -11.554688 L 11.824219 0.242188 L 16.175781 0.328125 L 16.554688 -18.289062 Z M 13.0625 -18.359375" transform="translate(178.758 124.254)"/></g></g></g><g><g><g><path d="M 18.773438 -11.785156 L 12.234375 -5.90625 L 12.558594 -14.703125 L 9.398438 -16.183594 L 8.914062 -2.9375 L 6.171875 2.898438 L 9.3125 4.371094 L 12.054688 -1.464844 L 21.914062 -10.308594 Z M 18.773438 -11.785156" transform="translate(193.115 123.887)"/></g></g></g><g><g><g><path d="M 24.75 5.257812 L 22.808594 1.972656 L 12.730469 3.367188 L 18.8125 -4.777344 L 16.855469 -8.082031 L 0.828125 1.402344 L 2.609375 4.40625 L 11.460938 -0.832031 L 7.832031 4.046875 L 9.777344 7.332031 L 15.851562 6.496094 L 6.960938 11.757812 L 8.726562 14.742188 Z M 24.75 5.257812" transform="translate(210.272 132.348)"/></g></g></g><g><g><g><path d="M 19.453125 9.160156 C 19.128906 3.90625 14.617188 -0.0820312 9.367188 0.242188 C 4.117188 0.5625 0.125 5.078125 0.449219 10.328125 C 0.769531 15.578125 5.285156 19.566406 10.535156 19.246094 C 15.785156 18.921875 19.777344 14.410156 19.453125 9.160156 Z M 15.898438 9.378906 C 16.101562 12.675781 13.574219 15.164062 10.296875 15.367188 C 7.019531 15.566406 4.207031 13.40625 4.003906 10.109375 C 3.800781 6.832031 6.332031 4.34375 9.605469 4.144531 C 12.882812 3.941406 15.695312 6.101562 15.898438 9.378906 Z M 15.898438 9.378906" transform="translate(218.901 144.706)"/></g></g></g><g><g><g><path d="M 4.417969 19.433594 C 7.976562 20.9375 11.539062 20.523438 13.386719 16.152344 L 16.515625 8.753906 L -0.632812 1.5 L -1.996094 4.714844 L 2.269531 6.519531 L 0.503906 10.703125 C 0.339844 11.085938 0.207031 11.460938 0.105469 11.820312 L -4.878906 11.535156 L -6.300781 14.898438 L 0.0117188 15.269531 C 0.59375 17.183594 2.273438 18.527344 4.417969 19.433594 Z M 5.488281 7.882812 L 11.960938 10.621094 L 10.195312 14.800781 C 9.523438 16.386719 8.804688 16.589844 8.570312 16.667969 C 7.882812 16.855469 6.890625 16.6875 5.777344 16.21875 C 4.597656 15.71875 3.789062 15.125 3.480469 14.539062 C 3.164062 13.976562 3.257812 13.15625 3.71875 12.0625 Z M 5.488281 7.882812" transform="translate(220.487 161.524)"/></g></g></g><g><g><g><path d="M 2 19.515625 L 4.460938 21.960938 L 12.074219 14.300781 L -1.148438 1.15625 L -8.761719 8.816406 L -6.304688 11.261719 L -1.148438 6.078125 L 1.789062 9 L -1.28125 12.085938 L 1.179688 14.53125 L 4.25 11.441406 L 7.152344 14.332031 Z M 2 19.515625" transform="translate(215.076 175.018)"/></g></g></g><g fill="#FFF" fill-opacity=".4"><g><g><path d="M -7.613281 -3.160156 L -7.613281 -0.667969 L 0 -0.667969 L 0 -3.160156 C 0 -5.167969 -1.703125 -6.59375 -3.808594 -6.59375 C -5.910156 -6.59375 -7.613281 -5.109375 -7.613281 -3.160156 Z M -6.195312 -3.160156 C -6.195312 -4.292969 -5.148438 -5.175781 -3.808594 -5.175781 C -3.121094 -5.175781 -2.503906 -4.96875 -2.054688 -4.566406 C -1.761719 -4.3125 -1.417969 -3.863281 -1.417969 -3.160156 L -1.417969 -2.085938 L -6.195312 -2.085938 Z M -6.195312 -3.160156" transform="translate(122.676 171.33)"/></g></g></g><g fill="#FFF" fill-opacity=".4"><g><g><path d="M -7.613281 -3.949219 L -7.613281 -0.667969 L 0 -0.667969 L 0 -2.09375 L -1.894531 -2.09375 L -1.894531 -3.949219 C -1.894531 -5.957031 -3.179688 -6.613281 -4.757812 -6.613281 C -6.339844 -6.613281 -7.613281 -5.890625 -7.613281 -3.949219 Z M -3.625 -4.921875 C -3.417969 -4.757812 -3.320312 -4.433594 -3.320312 -3.949219 L -3.320312 -2.09375 L -6.195312 -2.09375 L -6.195312 -3.949219 C -6.195312 -4.652344 -5.957031 -4.84375 -5.882812 -4.910156 C -5.652344 -5.089844 -5.253906 -5.1875 -4.757812 -5.1875 C -4.234375 -5.1875 -3.835938 -5.089844 -3.625 -4.921875 Z M -3.625 -4.921875" transform="translate(122.676 164.068)"/></g></g></g><g><g><g><path d="M -7.613281 -3.160156 L -7.613281 -0.667969 L 0 -0.667969 L 0 -3.160156 C 0 -5.167969 -1.703125 -6.59375 -3.808594 -6.59375 C -5.910156 -6.59375 -7.613281 -5.109375 -7.613281 -3.160156 Z M -6.195312 -3.160156 C -6.195312 -4.292969 -5.148438 -5.175781 -3.808594 -5.175781 C -3.121094 -5.175781 -2.503906 -4.96875 -2.054688 -4.566406 C -1.761719 -4.3125 -1.417969 -3.863281 -1.417969 -3.160156 L -1.417969 -2.085938 L -6.195312 -2.085938 Z M -6.195312 -3.160156" transform="translate(122.463 170.774)"/></g></g></g><g><g><g><path d="M -7.613281 -3.949219 L -7.613281 -0.667969 L 0 -0.667969 L 0 -2.09375 L -1.894531 -2.09375 L -1.894531 -3.949219 C -1.894531 -5.957031 -3.179688 -6.613281 -4.757812 -6.613281 C -6.339844 -6.613281 -7.613281 -5.890625 -7.613281 -3.949219 Z M -3.625 -4.921875 C -3.417969 -4.757812 -3.320312 -4.433594 -3.320312 -3.949219 L -3.320312 -2.09375 L -6.195312 -2.09375 L -6.195312 -3.949219 C -6.195312 -4.652344 -5.957031 -4.84375 -5.882812 -4.910156 C -5.652344 -5.089844 -5.253906 -5.1875 -4.757812 -5.1875 C -4.234375 -5.1875 -3.835938 -5.089844 -3.625 -4.921875 Z M -3.625 -4.921875" transform="translate(122.463 163.513)"/></g></g></g><g fill="#FFF" fill-opacity=".4"><g><g><path d="M 7.003906 -7.613281 L 5.445312 -7.613281 L 3.835938 -3.777344 L 2.238281 -7.613281 L 0.667969 -7.613281 L 0.667969 0 L 2.09375 0 L 2.09375 -4.207031 L 3.054688 -1.914062 L 4.617188 -1.914062 L 5.585938 -4.226562 L 5.585938 0 L 7.003906 0 Z M 7.003906 -7.613281" transform="translate(115.219 110.953)"/></g></g></g><g fill="#FFF" fill-opacity=".4"><g><g><path d="M 5.160156 0 L 6.644531 0 L 4.40625 -7.59375 L 4.40625 -7.613281 L 2.914062 -7.613281 L 0.667969 0 L 2.160156 0 L 2.722656 -1.894531 L 4.597656 -1.894531 Z M 3.140625 -3.3125 L 3.664062 -5.082031 L 4.179688 -3.3125 Z M 3.140625 -3.3125" transform="translate(122.89 110.953)"/></g></g></g><g fill="#FFF" fill-opacity=".4"><g><g><path d="M 6.386719 -7.613281 L 0.667969 -7.613281 L 0.667969 -6.195312 L 2.816406 -6.195312 L 2.816406 0 L 4.234375 0 L 4.234375 -6.195312 L 6.386719 -6.195312 Z M 6.386719 -7.613281" transform="translate(130.2 110.953)"/></g></g></g><g fill="#FFF" fill-opacity=".4"><g><g><path d="M 5.1875 -7.558594 L 5.1875 -4.082031 L 2.09375 -4.082031 L 2.09375 -7.558594 L 0.667969 -7.558594 L 0.667969 0.0664062 L 2.09375 0.0664062 L 2.09375 -2.664062 L 5.1875 -2.664062 L 5.1875 0.0664062 L 6.605469 0.0664062 L 6.605469 -7.558594 Z M 5.1875 -7.558594" transform="translate(137.251 110.953)"/></g></g></g><g><g><g><path d="M 7.003906 -7.613281 L 5.445312 -7.613281 L 3.835938 -3.777344 L 2.238281 -7.613281 L 0.667969 -7.613281 L 0.667969 0 L 2.09375 0 L 2.09375 -4.207031 L 3.054688 -1.914062 L 4.617188 -1.914062 L 5.585938 -4.226562 L 5.585938 0 L 7.003906 0 Z M 7.003906 -7.613281" transform="translate(115.774 110.74)"/></g></g></g><g><g><g><path d="M 5.160156 0 L 6.644531 0 L 4.40625 -7.59375 L 4.40625 -7.613281 L 2.914062 -7.613281 L 0.667969 0 L 2.160156 0 L 2.722656 -1.894531 L 4.597656 -1.894531 Z M 3.140625 -3.3125 L 3.664062 -5.082031 L 4.179688 -3.3125 Z M 3.140625 -3.3125" transform="translate(123.445 110.74)"/></g></g></g><g><g><g><path d="M 6.386719 -7.613281 L 0.667969 -7.613281 L 0.667969 -6.195312 L 2.816406 -6.195312 L 2.816406 0 L 4.234375 0 L 4.234375 -6.195312 L 6.386719 -6.195312 Z M 6.386719 -7.613281" transform="translate(130.754 110.74)"/></g></g></g><g><g><g><path d="M 5.1875 -7.558594 L 5.1875 -4.082031 L 2.09375 -4.082031 L 2.09375 -7.558594 L 0.667969 -7.558594 L 0.667969 0.0664062 L 2.09375 0.0664062 L 2.09375 -2.664062 L 5.1875 -2.664062 L 5.1875 0.0664062 L 6.605469 0.0664062 L 6.605469 -7.558594 Z M 5.1875 -7.558594" transform="translate(137.807 110.74)"/></g></g></g><g fill="#FFF" fill-opacity=".4"><g><g><path d="M 7.941406 -5.230469 L 4.40625 -4.890625 L 4.546875 -3.441406 L 6.421875 -3.621094 C 6.21875 -2.652344 5.46875 -1.894531 4.40625 -1.792969 C 3.070312 -1.664062 2.019531 -2.660156 1.890625 -3.996094 C 1.761719 -5.332031 2.605469 -6.511719 3.941406 -6.640625 C 4.414062 -6.6875 4.855469 -6.59375 5.21875 -6.390625 L 6.175781 -7.554688 C 5.488281 -7.964844 4.664062 -8.175781 3.800781 -8.089844 C 1.660156 -7.886719 0.09375 -5.984375 0.300781 -3.84375 C 0.503906 -1.703125 2.40625 -0.136719 4.546875 -0.34375 C 6.6875 -0.546875 8.253906 -2.449219 8.050781 -4.589844 C 8.027344 -4.808594 7.988281 -5.023438 7.941406 -5.230469 Z M 7.941406 -5.230469" transform="translate(177.782 221.726)"/></g></g></g><g fill="#FFF" fill-opacity=".4"><g><g><path d="M 6.128906 -5.371094 C 5.976562 -6.941406 5.136719 -8.144531 3.203125 -7.957031 L -0.0664062 -7.644531 L 0.664062 -0.0625 L 2.085938 -0.199219 L 1.902344 -2.085938 L 3.75 -2.261719 C 3.921875 -2.28125 4.082031 -2.304688 4.230469 -2.339844 L 5.097656 -0.492188 L 6.585938 -0.632812 L 5.488281 -2.976562 C 6.0625 -3.558594 6.21875 -4.421875 6.128906 -5.371094 Z M 1.765625 -3.507812 L 1.492188 -6.367188 L 3.339844 -6.546875 C 4.039062 -6.613281 4.25 -6.394531 4.324219 -6.324219 C 4.527344 -6.113281 4.660156 -5.726562 4.707031 -5.234375 C 4.757812 -4.710938 4.699219 -4.304688 4.550781 -4.082031 C 4.410156 -3.855469 4.097656 -3.730469 3.613281 -3.683594 Z M 1.765625 -3.507812" transform="translate(186.857 220.853)"/></g></g></g><g fill="#FFF" fill-opacity=".4"><g><g><path d="M 4.464844 -6.664062 L 4.328125 -8.074219 L -0.0664062 -7.652344 L 0.664062 -0.0625 L 5.058594 -0.488281 L 4.921875 -1.898438 L 1.949219 -1.613281 L 1.785156 -3.296875 L 3.558594 -3.46875 L 3.421875 -4.878906 L 1.648438 -4.710938 L 1.488281 -6.378906 Z M 4.464844 -6.664062" transform="translate(194.105 220.155)"/></g></g></g><g fill="#FFF" fill-opacity=".4"><g><g><path d="M 4.464844 -6.664062 L 4.328125 -8.074219 L -0.0664062 -7.652344 L 0.664062 -0.0625 L 5.058594 -0.488281 L 4.921875 -1.898438 L 1.949219 -1.613281 L 1.785156 -3.296875 L 3.558594 -3.46875 L 3.421875 -4.878906 L 1.648438 -4.710938 L 1.488281 -6.378906 Z M 4.464844 -6.664062" transform="translate(199.827 219.605)"/></g></g></g><g fill="#FFF" fill-opacity=".4"><g><g><path d="M 2.417969 -7.882812 L -0.0664062 -7.644531 L 0.664062 -0.0625 L 3.144531 -0.300781 C 5.144531 -0.496094 6.402344 -2.328125 6.199219 -4.421875 C 6 -6.515625 4.359375 -8.066406 2.417969 -7.882812 Z M 2.550781 -6.46875 C 3.679688 -6.578125 4.660156 -5.621094 4.789062 -4.285156 C 4.855469 -3.601562 4.707031 -2.96875 4.351562 -2.484375 C 4.121094 -2.164062 3.710938 -1.78125 3.007812 -1.714844 L 1.9375 -1.609375 L 1.480469 -6.367188 Z M 2.550781 -6.46875" transform="translate(205.549 219.054)"/></g></g></g><g fill="#FFF" fill-opacity=".4"><g><g><path d="M 4.148438 -8.058594 L 3.074219 -4.625 L 1.355469 -7.789062 L -0.0664062 -7.652344 L 2.523438 -2.890625 L 2.777344 -0.265625 L 4.1875 -0.402344 L 3.933594 -3.027344 L 5.558594 -8.195312 Z M 4.148438 -8.058594" transform="translate(212.777 218.359)"/></g></g></g><g><g><g><path d="M 7.941406 -5.230469 L 4.40625 -4.890625 L 4.546875 -3.441406 L 6.421875 -3.621094 C 6.21875 -2.652344 5.46875 -1.894531 4.40625 -1.792969 C 3.070312 -1.664062 2.019531 -2.660156 1.890625 -3.996094 C 1.761719 -5.332031 2.605469 -6.511719 3.941406 -6.640625 C 4.414062 -6.6875 4.855469 -6.59375 5.21875 -6.390625 L 6.175781 -7.554688 C 5.488281 -7.964844 4.664062 -8.175781 3.800781 -8.089844 C 1.660156 -7.886719 0.09375 -5.984375 0.300781 -3.84375 C 0.503906 -1.703125 2.40625 -0.136719 4.546875 -0.34375 C 6.6875 -0.546875 8.253906 -2.449219 8.050781 -4.589844 C 8.027344 -4.808594 7.988281 -5.023438 7.941406 -5.230469 Z M 7.941406 -5.230469" transform="translate(178.314 221.46)"/></g></g></g><g><g><g><path d="M 6.128906 -5.371094 C 5.976562 -6.941406 5.136719 -8.144531 3.203125 -7.957031 L -0.0664062 -7.644531 L 0.664062 -0.0625 L 2.085938 -0.199219 L 1.902344 -2.085938 L 3.75 -2.261719 C 3.921875 -2.28125 4.082031 -2.304688 4.230469 -2.339844 L 5.097656 -0.492188 L 6.585938 -0.632812 L 5.488281 -2.976562 C 6.0625 -3.558594 6.21875 -4.421875 6.128906 -5.371094 Z M 1.765625 -3.507812 L 1.492188 -6.367188 L 3.339844 -6.546875 C 4.039062 -6.613281 4.25 -6.394531 4.324219 -6.324219 C 4.527344 -6.113281 4.660156 -5.726562 4.707031 -5.234375 C 4.757812 -4.710938 4.699219 -4.304688 4.550781 -4.082031 C 4.410156 -3.855469 4.097656 -3.730469 3.613281 -3.683594 Z M 1.765625 -3.507812" transform="translate(187.39 220.587)"/></g></g></g><g><g><g><path d="M 4.464844 -6.664062 L 4.328125 -8.074219 L -0.0664062 -7.652344 L 0.664062 -0.0625 L 5.058594 -0.488281 L 4.921875 -1.898438 L 1.949219 -1.613281 L 1.785156 -3.296875 L 3.558594 -3.46875 L 3.421875 -4.878906 L 1.648438 -4.710938 L 1.488281 -6.378906 Z M 4.464844 -6.664062" transform="translate(194.637 219.89)"/></g></g></g><g><g><g><path d="M 4.464844 -6.664062 L 4.328125 -8.074219 L -0.0664062 -7.652344 L 0.664062 -0.0625 L 5.058594 -0.488281 L 4.921875 -1.898438 L 1.949219 -1.613281 L 1.785156 -3.296875 L 3.558594 -3.46875 L 3.421875 -4.878906 L 1.648438 -4.710938 L 1.488281 -6.378906 Z M 4.464844 -6.664062" transform="translate(200.36 219.34)"/></g></g></g><g><g><g><path d="M 2.417969 -7.882812 L -0.0664062 -7.644531 L 0.664062 -0.0625 L 3.144531 -0.300781 C 5.144531 -0.496094 6.402344 -2.328125 6.199219 -4.421875 C 6 -6.515625 4.359375 -8.066406 2.417969 -7.882812 Z M 2.550781 -6.46875 C 3.679688 -6.578125 4.660156 -5.621094 4.789062 -4.285156 C 4.855469 -3.601562 4.707031 -2.96875 4.351562 -2.484375 C 4.121094 -2.164062 3.710938 -1.78125 3.007812 -1.714844 L 1.9375 -1.609375 L 1.480469 -6.367188 Z M 2.550781 -6.46875" transform="translate(206.081 218.79)"/></g></g></g><g><g><g><path d="M 4.148438 -8.058594 L 3.074219 -4.625 L 1.355469 -7.789062 L -0.0664062 -7.652344 L 2.523438 -2.890625 L 2.777344 -0.265625 L 4.1875 -0.402344 L 3.933594 -3.027344 L 5.558594 -8.195312 Z M 4.148438 -8.058594" transform="translate(213.31 218.094)"/></g></g></g><g fill="#FFF" fill-opacity=".4"><g><g><path d="M 8.535156 0.546875 C 9.363281 -0.332031 9.503906 -1.53125 8.082031 -2.863281 L 5.691406 -5.101562 L 0.484375 0.457031 L 2.875 2.695312 C 4.339844 4.066406 5.707031 3.570312 6.523438 2.695312 C 6.910156 2.285156 7.148438 1.804688 7.152344 1.273438 C 7.683594 1.25 8.144531 0.964844 8.535156 0.546875 Z M 5.761719 -3.089844 L 7.472656 -1.492188 C 7.796875 -1.183594 7.753906 -0.691406 7.5 -0.421875 C 7.28125 -0.183594 6.792969 -0.0390625 6.429688 -0.378906 L 4.722656 -1.980469 Z M 4.109375 1.890625 L 2.503906 0.390625 L 3.753906 -0.945312 L 5.101562 0.316406 L 5.359375 0.558594 C 5.675781 0.859375 5.816406 1.378906 5.386719 1.835938 C 4.957031 2.296875 4.414062 2.179688 4.109375 1.890625 Z M 4.109375 1.890625" transform="translate(233.413 108.02)"/></g></g></g><g fill="#FFF" fill-opacity=".4"><g><g><path d="M 5.691406 -5.101562 L 6.734375 -4.125 L 1.546875 1.410156 L 0.503906 0.433594 Z M 5.691406 -5.101562" transform="translate(238.72 112.99)"/></g></g></g><g fill="#FFF" fill-opacity=".4"><g><g><path d="M 9.867188 -1.191406 L 5.691406 -5.101562 L 4.722656 -4.066406 L 6.292969 -2.597656 L 2.054688 1.925781 L 3.089844 2.894531 L 7.328125 -1.628906 L 8.894531 -0.15625 Z M 9.867188 -1.191406" transform="translate(240.734 114.877)"/></g></g></g><g><g><g><path d="M 8.535156 0.546875 C 9.363281 -0.332031 9.503906 -1.53125 8.082031 -2.863281 L 5.691406 -5.101562 L 0.484375 0.457031 L 2.875 2.695312 C 4.339844 4.066406 5.707031 3.570312 6.523438 2.695312 C 6.910156 2.285156 7.148438 1.804688 7.152344 1.273438 C 7.683594 1.25 8.144531 0.964844 8.535156 0.546875 Z M 5.761719 -3.089844 L 7.472656 -1.492188 C 7.796875 -1.183594 7.753906 -0.691406 7.5 -0.421875 C 7.28125 -0.183594 6.792969 -0.0390625 6.429688 -0.378906 L 4.722656 -1.980469 Z M 4.109375 1.890625 L 2.503906 0.390625 L 3.753906 -0.945312 L 5.101562 0.316406 L 5.359375 0.558594 C 5.675781 0.859375 5.816406 1.378906 5.386719 1.835938 C 4.957031 2.296875 4.414062 2.179688 4.109375 1.890625 Z M 4.109375 1.890625" transform="translate(233.964 108.243)"/></g></g></g><g><g><g><path d="M 5.691406 -5.101562 L 6.734375 -4.125 L 1.546875 1.410156 L 0.503906 0.433594 Z M 5.691406 -5.101562" transform="translate(239.27 113.214)"/></g></g></g><g><g><g><path d="M 9.867188 -1.191406 L 5.691406 -5.101562 L 4.722656 -4.066406 L 6.292969 -2.597656 L 2.054688 1.925781 L 3.089844 2.894531 L 7.328125 -1.628906 L 8.894531 -0.15625 Z M 9.867188 -1.191406" transform="translate(241.285 115.1)"/></g></g></g><g fill="#808080"><g><g><path d="M 8.980469 0 L 15.085938 0 L 15.085938 -22.246094 C 19.777344 -22.246094 23.054688 -19.332031 23.054688 -15.125 L 23.457031 -15.125 L 23.457031 -22.648438 L 0.605469 -22.648438 L 0.605469 -15.125 L 1.011719 -15.125 C 1.011719 -19.332031 4.289062 -22.246094 8.980469 -22.246094 Z M 8.980469 0" transform="translate(69.534 285.772)"/></g></g></g><g fill="#808080"><g><g><path d="M 13.0625 0.40625 C 19.695312 0.40625 25.074219 -4.8125 25.074219 -11.285156 C 25.074219 -17.714844 19.695312 -22.933594 13.0625 -22.933594 C 6.390625 -22.933594 1.011719 -17.714844 1.011719 -11.285156 C 1.011719 -4.8125 6.390625 0.40625 13.0625 0.40625 Z M 13.0625 -0.121094 C 8.980469 -0.121094 7.523438 -4.933594 7.523438 -11.285156 C 7.523438 -17.59375 8.980469 -22.40625 13.0625 -22.40625 C 16.867188 -22.40625 18.5625 -17.59375 18.5625 -11.285156 C 18.5625 -4.933594 17.148438 -0.121094 13.0625 -0.121094 Z M 13.0625 -0.121094" transform="translate(97.643 285.772)"/></g></g></g><g fill="#808080"><g><g><path d="M 2.023438 0 L 8.128906 0 L 8.128906 -10.070312 L 11.121094 -10.070312 C 17.390625 -10.070312 21.679688 -12.417969 21.679688 -16.378906 C 21.679688 -20.464844 16.90625 -22.648438 11.164062 -22.648438 L 2.023438 -22.648438 Z M 8.128906 -10.476562 L 8.128906 -22.246094 L 10.273438 -22.246094 C 13.429688 -22.246094 14.601562 -20.464844 14.601562 -16.542969 C 14.601562 -12.417969 13.429688 -10.515625 9.988281 -10.515625 Z M 8.128906 -10.476562" transform="translate(127.774 285.772)"/></g></g></g><g fill="#808080"><g><g><path d="M 2.023438 0 L 7.402344 0 L 7.402344 -22.648438 L 2.023438 -22.648438 Z M 2.023438 0" transform="translate(154.103 285.772)"/></g></g></g><g fill="#808080"><g><g><path d="M 13.0625 0.40625 L 13.105469 0.40625 C 15.855469 0.40625 19.414062 -0.648438 21.355469 -4.246094 L 20.871094 -4.246094 C 18.320312 -0.324219 15.246094 -0.121094 13.507812 -0.121094 C 9.222656 -0.121094 7.644531 -4.8125 7.644531 -11.285156 C 7.644531 -16.703125 8.816406 -22.40625 13.386719 -22.40625 C 15.410156 -22.40625 17.066406 -20.992188 16.582031 -18.320312 C 16.339844 -16.945312 15.046875 -16.785156 15.046875 -16.785156 C 15.046875 -15.003906 16.421875 -13.429688 18.5625 -13.429688 C 20.261719 -13.429688 21.558594 -14.558594 21.558594 -16.300781 C 21.558594 -19.777344 17.148438 -22.933594 13.183594 -22.933594 C 6.390625 -22.933594 1.011719 -17.675781 1.011719 -11.242188 C 1.011719 -4.8125 6.390625 0.40625 13.0625 0.40625 Z M 13.0625 0.40625" transform="translate(167.571 285.772)"/></g></g></g><g fill="#808080"><g><g><path d="M 11.566406 1.535156 L 18.363281 -13.46875 L 25.15625 1.535156 L 36.117188 -22.648438 L 35.671875 -22.648438 L 28.269531 -6.390625 L 20.910156 -22.648438 L 14.195312 -22.648438 L 18.121094 -13.992188 L 14.683594 -6.390625 L 7.320312 -22.648438 L 0.605469 -22.648438 Z M 11.566406 1.535156" transform="translate(206.439 285.772)"/></g></g></g><g fill="#808080"><g><g><path d="M 2.023438 0 L 7.402344 0 L 7.402344 -22.648438 L 2.023438 -22.648438 Z M 2.023438 0" transform="translate(247.206 285.772)"/></g></g></g><g fill="#808080"><g><g><path d="M 10.921875 0.40625 C 16.21875 0.40625 20.828125 -2.386719 20.183594 -7.441406 C 19.617188 -13.429688 6.550781 -13.871094 6.550781 -19.375 C 6.550781 -21.558594 8.414062 -22.40625 10.554688 -22.40625 C 12.941406 -22.40625 14.519531 -21.394531 14.519531 -19.777344 C 14.519531 -17.753906 13.144531 -17.59375 13.144531 -17.59375 C 13.144531 -16.179688 14.277344 -14.882812 16.015625 -14.882812 C 17.390625 -14.882812 18.441406 -15.773438 18.441406 -17.1875 C 18.441406 -20.828125 14.558594 -22.972656 10.476562 -22.972656 C 5.460938 -22.972656 1.214844 -20.707031 1.78125 -15.652344 C 2.507812 -9.058594 15.410156 -8.25 15.410156 -3.15625 C 15.410156 -0.6875 12.375 -0.121094 10.675781 -0.121094 C 8.453125 -0.121094 5.824219 -1.09375 5.824219 -3.4375 C 5.824219 -3.640625 5.824219 -3.84375 5.863281 -4.085938 C 6.066406 -5.339844 7.28125 -5.5 7.28125 -5.5 C 7.28125 -7.160156 5.984375 -8.613281 4.003906 -8.613281 C 2.425781 -8.613281 1.214844 -7.5625 1.214844 -5.945312 C 1.214844 -1.980469 5.945312 0.40625 10.921875 0.40625 Z M 10.921875 0.40625" transform="translate(260.675 285.772)"/></g></g></g><g fill="#808080"><g><g><path d="M 2.023438 0 L 20.101562 0 L 20.789062 -7.726562 L 20.382812 -7.726562 C 20.101562 -3.519531 15.652344 -0.40625 10.960938 -0.40625 L 8.128906 -0.40625 L 8.128906 -11.324219 L 8.695312 -11.324219 C 12.050781 -11.242188 14.238281 -9.464844 14.238281 -6.390625 L 14.722656 -6.390625 L 14.722656 -16.664062 L 14.238281 -16.664062 C 14.238281 -13.550781 12.050781 -11.769531 8.613281 -11.730469 L 8.128906 -11.730469 L 8.128906 -22.246094 L 10.960938 -22.246094 C 15.652344 -22.246094 18.929688 -19.332031 18.929688 -15.125 L 19.332031 -15.125 L 19.332031 -22.648438 L 2.023438 -22.648438 Z M 2.023438 0" transform="translate(286.195 285.772)"/></g></g></g><path transform="translate(60.147 252.889) scale(.89224)" fill="none" d="M 18.59022 35.000136 L 25.44182 35.000136 L 25.44182 10.067317 C 30.699821 10.067317 34.372979 13.328941 34.372979 18.044067 L 34.828293 18.044067 L 34.828293 9.612003 L 9.208125 9.612003 L 9.208125 18.044067 L 9.659061 18.044067 C 9.659061 13.328941 13.332219 10.067317 18.59022 10.067317 Z M 54.678232 35.45545 C 62.112108 35.45545 68.145019 29.610794 68.145019 22.352038 C 68.145019 15.145819 62.112108 9.301163 54.678232 9.301163 C 47.196197 9.301163 41.163287 15.145819 41.163287 22.352038 C 41.163287 29.610794 47.196197 35.45545 54.678232 35.45545 Z M 54.678232 34.868795 C 50.094446 34.868795 48.465823 29.466319 48.465823 22.352038 C 48.465823 15.277159 50.094446 9.887818 54.678232 9.887818 C 58.938044 9.887818 60.842483 15.277159 60.842483 22.352038 C 60.842483 29.466319 59.25764 34.868795 54.678232 34.868795 Z M 76.073611 35.000136 L 82.912077 35.000136 L 82.912077 23.713602 L 86.26564 23.713602 C 93.292361 23.713602 98.095048 21.086791 98.095048 16.638723 C 98.095048 12.059315 92.749486 9.612003 86.30942 9.612003 L 76.073611 9.612003 Z M 82.912077 23.258288 L 82.912077 10.067317 L 85.31561 10.067317 C 88.857427 10.067317 90.170833 12.059315 90.170833 16.463603 C 90.170833 21.086791 88.857427 23.214508 85.00477 23.214508 Z M 105.581461 35.000136 L 111.614371 35.000136 L 111.614371 9.612003 L 105.581461 9.612003 Z M 133.049153 35.45545 L 133.092933 35.45545 C 136.183814 35.45545 140.167812 34.269006 142.348065 30.241229 L 141.805191 30.241229 C 138.937588 34.63676 135.496465 34.868795 133.548247 34.868795 C 128.74556 34.868795 126.972462 29.610794 126.972462 22.352038 C 126.972462 16.275348 128.290246 9.887818 133.416906 9.887818 C 135.68472 9.887818 137.545378 11.472661 136.98937 14.471604 C 136.722311 16.008289 135.273186 16.187787 135.273186 16.187787 C 135.273186 18.179786 136.814249 19.948506 139.213404 19.948506 C 141.117842 19.948506 142.566966 18.674502 142.566966 16.730662 C 142.566966 12.834225 137.632939 9.301163 133.184871 9.301163 C 125.567118 9.301163 119.538586 15.189599 119.538586 22.395819 C 119.538586 29.610794 125.567118 35.45545 133.049153 35.45545 Z M 174.929284 36.725075 L 182.555793 19.904726 L 190.169169 36.725075 L 202.45389 9.612003 L 201.954796 9.612003 L 193.654072 27.837696 L 185.410262 9.612003 L 177.884447 9.612003 L 182.279978 19.318071 L 178.427321 27.837696 L 170.170377 9.612003 L 162.644562 9.612003 Z M 209.931547 35.000136 L 215.960079 35.000136 L 215.960079 9.612003 L 209.931547 9.612003 Z M 234.995707 35.45545 C 240.927923 35.45545 246.098363 32.320788 245.37599 26.655631 C 244.745555 19.948506 230.105459 19.449412 230.105459 13.285161 C 230.105459 10.842226 232.185018 9.887818 234.588551 9.887818 C 237.263521 9.887818 239.023484 11.017347 239.023484 12.834225 C 239.023484 15.102039 237.4868 15.277159 237.4868 15.277159 C 237.4868 16.870758 238.760803 18.324261 240.704644 18.324261 C 242.245706 18.324261 243.427772 17.326072 243.427772 15.732473 C 243.427772 11.660916 239.080399 9.248627 234.496613 9.248627 C 228.875236 9.248627 224.116329 11.792256 224.746764 17.457413 C 225.565454 24.838753 240.030429 25.749381 240.030429 31.471452 C 240.030429 34.225226 236.62433 34.868795 234.719892 34.868795 C 232.228799 34.868795 229.28677 33.769912 229.28677 31.147479 C 229.28677 30.915444 229.28677 30.696543 229.33055 30.41635 C 229.549451 29.011005 230.911015 28.835885 230.911015 28.835885 C 230.911015 26.975227 229.461891 25.350981 227.250991 25.350981 C 225.477893 25.350981 224.116329 26.524291 224.116329 28.33679 C 224.116329 32.776102 229.41811 35.45545 234.995707 35.45545 Z M 253.628556 35.000136 L 273.890029 35.000136 L 274.656182 26.344792 L 274.200868 26.344792 C 273.890029 31.059918 268.899087 34.544822 263.641086 34.544822 L 260.467022 34.544822 L 260.467022 22.308258 L 261.110591 22.308258 C 264.871309 22.395819 267.318622 24.396573 267.318622 27.837696 L 267.861497 27.837696 L 267.861497 16.319128 L 267.318622 16.319128 C 267.318622 19.817165 264.871309 21.809164 261.009897 21.852944 L 260.467022 21.852944 L 260.467022 10.067317 L 263.641086 10.067317 C 268.899087 10.067317 272.572245 13.328941 272.572245 18.044067 L 273.027559 18.044067 L 273.027559 9.612003 L 253.628556 9.612003 Z M 253.628556 35.000136" stroke="#000" stroke-width="2.465"/></svg>