<svg xmlns="http://www.w3.org/2000/svg" width="375" viewBox="0 0 375 375" height="375" version="1.0"><defs><clipPath id="a"><path d="M 135.722656 11.378906 L 146.695312 11.378906 L 146.695312 24.855469 L 135.722656 24.855469 Z M 135.722656 11.378906"/></clipPath><clipPath id="b"><path d="M 148 11.378906 L 152.945312 11.378906 L 152.945312 24.855469 L 148 24.855469 Z M 148 11.378906"/></clipPath><clipPath id="c"><path d="M 154 11.378906 L 165.449219 11.378906 L 165.449219 24.855469 L 154 24.855469 Z M 154 11.378906"/></clipPath><clipPath id="d"><path d="M 166.492188 11.378906 L 171.671875 11.378906 L 171.671875 24.855469 L 166.492188 24.855469 Z M 166.492188 11.378906"/></clipPath><clipPath id="e"><path d="M 166.492188 25.894531 L 171.671875 25.894531 L 171.671875 39 L 166.492188 39 Z M 166.492188 25.894531"/></clipPath><clipPath id="f"><path d="M 135.722656 40.484375 L 146.695312 40.484375 L 146.695312 53.578125 L 135.722656 53.578125 Z M 135.722656 40.484375"/></clipPath><clipPath id="g"><path d="M 148 40.484375 L 152.945312 40.484375 L 152.945312 53.578125 L 148 53.578125 Z M 148 40.484375"/></clipPath><clipPath id="h"><path d="M 154 40.484375 L 165.449219 40.484375 L 165.449219 53.578125 L 154 53.578125 Z M 154 40.484375"/></clipPath><clipPath id="i"><path d="M 166.492188 40.484375 L 171.671875 40.484375 L 171.671875 53.578125 L 166.492188 53.578125 Z M 166.492188 40.484375"/></clipPath><clipPath id="j"><path d="M 70.167969 11.378906 L 81 11.378906 L 81 24.855469 L 70.167969 24.855469 Z M 70.167969 11.378906"/></clipPath><clipPath id="k"><path d="M 82.089844 11.378906 L 88 11.378906 L 88 24.855469 L 82.089844 24.855469 Z M 82.089844 11.378906"/></clipPath><clipPath id="l"><path d="M 88.34375 11.378906 L 99.804688 11.378906 L 99.804688 24.855469 L 88.34375 24.855469 Z M 88.34375 11.378906"/></clipPath><clipPath id="m"><path d="M 101 11.378906 L 106.117188 11.378906 L 106.117188 24.855469 L 101 24.855469 Z M 101 11.378906"/></clipPath><clipPath id="n"><path d="M 101 25.894531 L 106.117188 25.894531 L 106.117188 39 L 101 39 Z M 101 25.894531"/></clipPath><clipPath id="o"><path d="M 70.167969 40.484375 L 81 40.484375 L 81 53.578125 L 70.167969 53.578125 Z M 70.167969 40.484375"/></clipPath><clipPath id="p"><path d="M 82.089844 40.484375 L 88 40.484375 L 88 53.578125 L 82.089844 53.578125 Z M 82.089844 40.484375"/></clipPath><clipPath id="q"><path d="M 88.34375 40.484375 L 99.804688 40.484375 L 99.804688 53.578125 L 88.34375 53.578125 Z M 88.34375 40.484375"/></clipPath><clipPath id="r"><path d="M 101 40.484375 L 106.117188 40.484375 L 106.117188 53.578125 L 101 53.578125 Z M 101 40.484375"/></clipPath><clipPath id="s"><path d="M 33.996094 4.015625 L 208.269531 4.015625 L 208.269531 61.242188 L 33.996094 61.242188 Z M 33.996094 4.015625"/></clipPath></defs><g clip-path="url(#a)"><path fill="#100F0D" d="M 137.949219 18.351562 C 137.949219 17.78125 138.007812 17.203125 138.125 16.640625 C 138.242188 16.097656 138.429688 15.605469 138.683594 15.183594 C 138.933594 14.769531 139.246094 14.445312 139.640625 14.191406 C 140.015625 13.949219 140.492188 13.828125 141.058594 13.828125 C 141.605469 13.828125 142.078125 13.949219 142.460938 14.183594 C 142.859375 14.425781 143.171875 14.738281 143.421875 15.136719 C 143.679688 15.558594 143.871094 16.046875 143.992188 16.59375 C 144.117188 17.160156 144.183594 17.75 144.183594 18.351562 C 144.183594 18.902344 144.117188 19.425781 143.992188 19.898438 C 143.871094 20.347656 143.675781 20.746094 143.414062 21.078125 C 143.160156 21.402344 142.839844 21.65625 142.433594 21.84375 C 141.652344 22.210938 140.335938 22.242188 139.5625 21.84375 C 139.1875 21.652344 138.886719 21.398438 138.652344 21.074219 C 138.410156 20.746094 138.234375 20.347656 138.121094 19.890625 C 138.003906 19.417969 137.949219 18.898438 137.949219 18.351562 Z M 136.917969 22.289062 C 137.332031 22.875 137.882812 23.363281 138.542969 23.738281 C 139.214844 24.117188 140.03125 24.3125 140.96875 24.3125 C 141.878906 24.3125 142.695312 24.128906 143.378906 23.773438 C 144.058594 23.414062 144.625 22.945312 145.070312 22.375 C 145.515625 21.8125 145.84375 21.167969 146.054688 20.460938 C 146.261719 19.765625 146.367188 19.054688 146.367188 18.351562 C 146.367188 17.917969 146.332031 17.445312 146.257812 16.949219 C 146.1875 16.457031 146.0625 15.960938 145.898438 15.46875 C 145.734375 14.980469 145.515625 14.503906 145.253906 14.054688 C 144.980469 13.589844 144.644531 13.179688 144.253906 12.824219 C 143.855469 12.460938 143.382812 12.171875 142.851562 11.957031 C 141.777344 11.523438 140.273438 11.523438 139.199219 11.96875 C 138.667969 12.1875 138.199219 12.488281 137.804688 12.859375 C 137.417969 13.226562 137.089844 13.648438 136.816406 14.121094 C 136.550781 14.582031 136.339844 15.0625 136.179688 15.550781 C 136.019531 16.035156 135.902344 16.53125 135.835938 17.015625 C 135.765625 17.492188 135.734375 17.941406 135.734375 18.351562 C 135.734375 19.007812 135.828125 19.6875 136.015625 20.371094 C 136.207031 21.070312 136.507812 21.710938 136.917969 22.289062"/></g><g clip-path="url(#b)"><path fill="#100F0D" d="M 149.433594 15.894531 Z M 148.90625 16.460938 C 149.167969 16.515625 149.4375 16.464844 149.761719 16.269531 C 149.9375 16.117188 150.097656 15.957031 150.242188 15.792969 C 150.359375 15.664062 150.480469 15.539062 150.613281 15.398438 L 150.660156 19.347656 L 150.601562 23.371094 C 150.601562 23.84375 150.859375 24.074219 151.007812 24.164062 C 151.203125 24.28125 151.433594 24.339844 151.683594 24.339844 C 151.933594 24.339844 152.171875 24.277344 152.398438 24.144531 C 152.695312 23.972656 152.859375 23.6875 152.859375 23.335938 L 152.734375 12.585938 C 152.699219 12.363281 152.609375 12.160156 152.460938 11.984375 C 152.335938 11.828125 152.175781 11.691406 151.984375 11.574219 C 151.757812 11.433594 151.503906 11.375 151.25 11.390625 C 150.914062 11.414062 150.644531 11.597656 150.507812 11.894531 C 150.503906 11.90625 150.5 11.917969 150.496094 11.925781 C 150.375 12.152344 150.246094 12.363281 150.125 12.5625 C 149.988281 12.785156 149.832031 13.007812 149.671875 13.230469 C 149.511719 13.449219 149.328125 13.671875 149.121094 13.898438 C 148.9375 14.101562 148.730469 14.308594 148.5 14.523438 C 148.472656 14.542969 148.441406 14.566406 148.417969 14.589844 C 148.144531 14.847656 148.003906 15.125 148.003906 15.414062 C 148.003906 15.691406 148.097656 15.9375 148.273438 16.125 C 148.4375 16.292969 148.648438 16.410156 148.90625 16.460938"/></g><g clip-path="url(#c)"><path fill="#100F0D" d="M 162.976562 18.351562 C 162.976562 18.902344 162.910156 19.425781 162.78125 19.898438 C 162.660156 20.347656 162.46875 20.746094 162.207031 21.078125 C 161.949219 21.402344 161.628906 21.65625 161.226562 21.84375 C 160.445312 22.210938 159.125 22.242188 158.355469 21.84375 C 157.976562 21.652344 157.679688 21.398438 157.441406 21.074219 C 157.199219 20.746094 157.023438 20.347656 156.914062 19.890625 C 156.796875 19.417969 156.738281 18.898438 156.738281 18.351562 C 156.738281 17.78125 156.796875 17.203125 156.917969 16.640625 C 157.035156 16.097656 157.214844 15.605469 157.472656 15.183594 C 157.726562 14.769531 158.039062 14.445312 158.433594 14.191406 C 158.808594 13.949219 159.285156 13.828125 159.851562 13.828125 C 160.398438 13.828125 160.871094 13.949219 161.25 14.183594 C 161.648438 14.425781 161.964844 14.738281 162.210938 15.136719 C 162.472656 15.558594 162.664062 16.046875 162.785156 16.59375 C 162.910156 17.160156 162.976562 17.75 162.976562 18.351562 Z M 164.691406 15.46875 C 164.527344 14.980469 164.308594 14.503906 164.046875 14.054688 C 163.773438 13.589844 163.4375 13.179688 163.046875 12.824219 C 162.644531 12.460938 162.175781 12.171875 161.644531 11.957031 C 160.570312 11.523438 159.058594 11.523438 157.992188 11.96875 C 157.460938 12.1875 156.988281 12.488281 156.597656 12.859375 C 156.210938 13.226562 155.878906 13.648438 155.609375 14.121094 C 155.34375 14.582031 155.128906 15.0625 154.96875 15.550781 C 154.8125 16.035156 154.695312 16.53125 154.628906 17.015625 C 154.558594 17.492188 154.523438 17.941406 154.523438 18.351562 C 154.523438 19.007812 154.621094 19.6875 154.808594 20.371094 C 154.992188 21.070312 155.300781 21.710938 155.710938 22.289062 C 156.125 22.875 156.671875 23.363281 157.335938 23.738281 C 158.007812 24.117188 158.820312 24.3125 159.761719 24.3125 C 160.671875 24.3125 161.480469 24.128906 162.171875 23.773438 C 162.851562 23.414062 163.417969 22.945312 163.863281 22.375 C 164.304688 21.8125 164.636719 21.167969 164.84375 20.460938 C 165.054688 19.765625 165.160156 19.054688 165.160156 18.351562 C 165.160156 17.917969 165.125 17.445312 165.050781 16.949219 C 164.976562 16.457031 164.855469 15.960938 164.691406 15.46875"/></g><g clip-path="url(#d)"><path fill="#100F0D" d="M 168.226562 15.894531 Z M 167.691406 16.460938 C 167.960938 16.515625 168.230469 16.464844 168.550781 16.269531 C 168.730469 16.117188 168.890625 15.957031 169.035156 15.792969 C 169.152344 15.664062 169.273438 15.539062 169.40625 15.398438 L 169.453125 19.347656 L 169.390625 23.371094 C 169.390625 23.84375 169.652344 24.074219 169.800781 24.164062 C 169.996094 24.28125 170.222656 24.339844 170.476562 24.339844 C 170.726562 24.339844 170.964844 24.277344 171.191406 24.144531 C 171.488281 23.972656 171.652344 23.6875 171.652344 23.335938 L 171.527344 12.585938 C 171.492188 12.363281 171.402344 12.160156 171.253906 11.984375 C 171.128906 11.828125 170.96875 11.691406 170.777344 11.574219 C 170.550781 11.433594 170.300781 11.375 170.042969 11.390625 C 169.707031 11.414062 169.433594 11.597656 169.300781 11.894531 C 169.296875 11.90625 169.292969 11.917969 169.289062 11.925781 C 169.167969 12.152344 169.039062 12.363281 168.917969 12.5625 C 168.777344 12.785156 168.625 13.007812 168.460938 13.230469 C 168.300781 13.449219 168.117188 13.671875 167.914062 13.898438 C 167.730469 14.101562 167.523438 14.308594 167.292969 14.523438 C 167.261719 14.542969 167.234375 14.566406 167.207031 14.589844 C 166.933594 14.847656 166.792969 15.125 166.792969 15.414062 C 166.792969 15.691406 166.890625 15.9375 167.066406 16.125 C 167.230469 16.292969 167.441406 16.410156 167.691406 16.460938"/></g><path fill="#100F0D" d="M 138.613281 30.492188 Z M 140.1875 38.761719 C 140.382812 38.878906 140.609375 38.941406 140.863281 38.941406 C 141.109375 38.941406 141.351562 38.871094 141.574219 38.742188 C 141.871094 38.566406 142.039062 38.28125 142.039062 37.9375 L 141.910156 27.183594 C 141.875 26.960938 141.785156 26.757812 141.640625 26.578125 C 141.511719 26.425781 141.355469 26.292969 141.164062 26.171875 C 140.933594 26.035156 140.6875 25.96875 140.425781 25.988281 C 140.09375 26.011719 139.820312 26.195312 139.683594 26.496094 C 139.679688 26.503906 139.675781 26.515625 139.671875 26.527344 C 139.550781 26.75 139.425781 26.960938 139.304688 27.164062 C 139.164062 27.386719 139.011719 27.605469 138.847656 27.828125 C 138.6875 28.050781 138.5 28.269531 138.296875 28.492188 C 138.113281 28.695312 137.90625 28.910156 137.679688 29.121094 C 137.648438 29.140625 137.617188 29.160156 137.59375 29.1875 C 137.320312 29.445312 137.183594 29.726562 137.183594 30.015625 C 137.183594 30.289062 137.277344 30.53125 137.449219 30.71875 C 137.613281 30.894531 137.824219 31.003906 138.082031 31.058594 C 138.347656 31.109375 138.613281 31.066406 138.941406 30.867188 C 139.117188 30.710938 139.273438 30.558594 139.421875 30.394531 C 139.539062 30.265625 139.65625 30.132812 139.792969 30 L 139.835938 33.941406 L 139.777344 37.96875 C 139.777344 38.441406 140.035156 38.667969 140.1875 38.761719"/><path fill="#100F0D" d="M 152.152344 32.949219 C 152.152344 33.5 152.085938 34.019531 151.960938 34.492188 C 151.839844 34.949219 151.644531 35.34375 151.382812 35.671875 C 151.132812 36 150.808594 36.25 150.402344 36.441406 C 149.625 36.808594 148.304688 36.835938 147.53125 36.441406 C 147.160156 36.246094 146.855469 35.996094 146.621094 35.671875 C 146.382812 35.34375 146.203125 34.949219 146.09375 34.492188 C 145.976562 34.015625 145.917969 33.496094 145.917969 32.949219 C 145.917969 32.375 145.976562 31.800781 146.097656 31.242188 C 146.210938 30.695312 146.398438 30.203125 146.652344 29.78125 C 146.902344 29.367188 147.214844 29.042969 147.609375 28.789062 C 147.988281 28.550781 148.460938 28.429688 149.027344 28.429688 C 149.578125 28.429688 150.046875 28.546875 150.429688 28.777344 C 150.828125 29.023438 151.144531 29.335938 151.390625 29.738281 C 151.648438 30.152344 151.839844 30.644531 151.960938 31.191406 C 152.085938 31.757812 152.152344 32.351562 152.152344 32.949219 Z M 153.871094 30.0625 C 153.703125 29.574219 153.484375 29.097656 153.222656 28.652344 C 152.949219 28.191406 152.617188 27.777344 152.222656 27.421875 C 151.824219 27.058594 151.351562 26.765625 150.820312 26.554688 C 149.746094 26.125 148.242188 26.121094 147.171875 26.5625 C 146.636719 26.785156 146.167969 27.085938 145.773438 27.460938 C 145.390625 27.820312 145.058594 28.246094 144.785156 28.71875 C 144.523438 29.175781 144.308594 29.65625 144.152344 30.144531 C 143.988281 30.632812 143.875 31.125 143.804688 31.609375 C 143.734375 32.089844 143.703125 32.539062 143.703125 32.949219 C 143.703125 33.609375 143.796875 34.289062 143.984375 34.96875 C 144.175781 35.664062 144.476562 36.3125 144.886719 36.886719 C 145.304688 37.476562 145.851562 37.964844 146.511719 38.339844 C 147.183594 38.71875 148 38.910156 148.9375 38.910156 C 149.851562 38.910156 150.664062 38.726562 151.347656 38.367188 C 152.027344 38.011719 152.597656 37.546875 153.039062 36.976562 C 153.484375 36.410156 153.8125 35.761719 154.023438 35.058594 C 154.234375 34.363281 154.34375 33.652344 154.34375 32.949219 C 154.34375 32.519531 154.300781 32.046875 154.230469 31.550781 C 154.15625 31.058594 154.039062 30.558594 153.871094 30.0625"/><path fill="#100F0D" d="M 162.976562 32.949219 C 162.976562 33.5 162.910156 34.019531 162.78125 34.492188 C 162.660156 34.949219 162.46875 35.34375 162.207031 35.671875 C 161.949219 36 161.628906 36.25 161.226562 36.441406 C 160.445312 36.808594 159.125 36.835938 158.355469 36.441406 C 157.976562 36.246094 157.679688 35.996094 157.441406 35.671875 C 157.199219 35.34375 157.023438 34.949219 156.914062 34.492188 C 156.796875 34.015625 156.738281 33.496094 156.738281 32.949219 C 156.738281 32.375 156.796875 31.800781 156.917969 31.242188 C 157.035156 30.695312 157.214844 30.203125 157.472656 29.78125 C 157.726562 29.367188 158.039062 29.042969 158.433594 28.789062 C 158.808594 28.550781 159.285156 28.429688 159.851562 28.429688 C 160.398438 28.429688 160.871094 28.546875 161.25 28.777344 C 161.648438 29.023438 161.964844 29.335938 162.210938 29.738281 C 162.472656 30.152344 162.664062 30.644531 162.785156 31.191406 C 162.910156 31.757812 162.976562 32.351562 162.976562 32.949219 Z M 164.691406 30.0625 C 164.527344 29.574219 164.308594 29.097656 164.046875 28.652344 C 163.773438 28.191406 163.4375 27.777344 163.046875 27.421875 C 162.644531 27.058594 162.175781 26.765625 161.644531 26.554688 C 160.570312 26.125 159.058594 26.121094 157.992188 26.5625 C 157.460938 26.785156 156.988281 27.085938 156.597656 27.460938 C 156.210938 27.820312 155.878906 28.246094 155.609375 28.71875 C 155.34375 29.175781 155.128906 29.65625 154.96875 30.144531 C 154.8125 30.632812 154.695312 31.125 154.628906 31.609375 C 154.558594 32.089844 154.523438 32.539062 154.523438 32.949219 C 154.523438 33.609375 154.621094 34.289062 154.808594 34.96875 C 154.992188 35.664062 155.300781 36.3125 155.710938 36.886719 C 156.125 37.476562 156.671875 37.964844 157.335938 38.339844 C 158.007812 38.71875 158.820312 38.910156 159.761719 38.910156 C 160.671875 38.910156 161.480469 38.726562 162.171875 38.367188 C 162.851562 38.011719 163.417969 37.546875 163.863281 36.976562 C 164.304688 36.410156 164.636719 35.761719 164.84375 35.058594 C 165.054688 34.363281 165.160156 33.652344 165.160156 32.949219 C 165.160156 32.519531 165.125 32.046875 165.050781 31.550781 C 164.976562 31.058594 164.855469 30.558594 164.691406 30.0625"/><g clip-path="url(#e)"><path fill="#100F0D" d="M 168.226562 30.492188 Z M 171.253906 26.578125 C 171.128906 26.425781 170.96875 26.292969 170.777344 26.171875 C 170.550781 26.035156 170.300781 25.96875 170.042969 25.988281 C 169.707031 26.011719 169.433594 26.195312 169.300781 26.496094 C 169.296875 26.503906 169.292969 26.515625 169.289062 26.527344 C 169.167969 26.75 169.039062 26.960938 168.917969 27.164062 C 168.777344 27.386719 168.625 27.605469 168.460938 27.828125 C 168.300781 28.050781 168.117188 28.269531 167.914062 28.492188 C 167.730469 28.695312 167.523438 28.910156 167.292969 29.121094 C 167.261719 29.140625 167.234375 29.160156 167.207031 29.1875 C 166.933594 29.445312 166.792969 29.726562 166.792969 30.015625 C 166.792969 30.289062 166.890625 30.53125 167.066406 30.71875 C 167.230469 30.894531 167.441406 31.003906 167.691406 31.058594 C 167.960938 31.109375 168.230469 31.066406 168.550781 30.867188 C 168.730469 30.710938 168.890625 30.558594 169.035156 30.394531 C 169.152344 30.265625 169.273438 30.132812 169.40625 30 L 169.453125 33.941406 L 169.390625 37.96875 C 169.390625 38.441406 169.652344 38.667969 169.800781 38.761719 C 169.996094 38.878906 170.222656 38.941406 170.476562 38.941406 C 170.726562 38.941406 170.964844 38.871094 171.191406 38.742188 C 171.488281 38.566406 171.652344 38.28125 171.652344 37.9375 L 171.527344 27.183594 C 171.492188 26.960938 171.402344 26.757812 171.253906 26.578125"/></g><g clip-path="url(#f)"><path fill="#100F0D" d="M 144.183594 47.585938 C 144.183594 48.140625 144.117188 48.65625 143.992188 49.132812 C 143.871094 49.585938 143.675781 49.984375 143.414062 50.308594 C 143.160156 50.640625 142.839844 50.886719 142.433594 51.078125 C 141.652344 51.445312 140.335938 51.472656 139.5625 51.078125 C 139.1875 50.882812 138.886719 50.632812 138.652344 50.308594 C 138.410156 49.980469 138.234375 49.585938 138.121094 49.128906 C 138.003906 48.652344 137.949219 48.136719 137.949219 47.585938 C 137.949219 47.011719 138.007812 46.4375 138.125 45.878906 C 138.242188 45.332031 138.429688 44.84375 138.683594 44.421875 C 138.933594 44.003906 139.246094 43.679688 139.640625 43.425781 C 140.015625 43.1875 140.492188 43.066406 141.058594 43.066406 C 141.605469 43.066406 142.078125 43.183594 142.460938 43.417969 C 142.859375 43.664062 143.171875 43.976562 143.421875 44.375 C 143.679688 44.792969 143.871094 45.28125 143.992188 45.832031 C 144.117188 46.398438 144.183594 46.988281 144.183594 47.585938 Z M 145.898438 44.707031 C 145.734375 44.210938 145.515625 43.742188 145.253906 43.289062 C 144.980469 42.828125 144.644531 42.414062 144.253906 42.058594 C 143.855469 41.695312 143.382812 41.402344 142.851562 41.191406 C 141.777344 40.761719 140.273438 40.757812 139.199219 41.199219 C 138.667969 41.421875 138.199219 41.722656 137.804688 42.097656 C 137.417969 42.457031 137.089844 42.886719 136.816406 43.359375 C 136.550781 43.816406 136.339844 44.296875 136.179688 44.78125 C 136.019531 45.269531 135.902344 45.761719 135.835938 46.246094 C 135.765625 46.726562 135.734375 47.175781 135.734375 47.585938 C 135.734375 48.246094 135.828125 48.925781 136.015625 49.609375 C 136.207031 50.300781 136.507812 50.949219 136.917969 51.527344 C 137.332031 52.113281 137.882812 52.601562 138.542969 52.976562 C 139.214844 53.355469 140.03125 53.546875 140.96875 53.546875 C 141.878906 53.546875 142.695312 53.367188 143.378906 53.003906 C 144.058594 52.652344 144.625 52.183594 145.070312 51.613281 C 145.515625 51.046875 145.84375 50.402344 146.054688 49.695312 C 146.261719 49 146.367188 48.292969 146.367188 47.585938 C 146.367188 47.15625 146.332031 46.683594 146.257812 46.1875 C 146.1875 45.695312 146.0625 45.195312 145.898438 44.707031"/></g><g clip-path="url(#g)"><path fill="#100F0D" d="M 149.433594 45.128906 Z M 152.460938 41.21875 C 152.335938 41.066406 152.175781 40.929688 151.984375 40.808594 C 151.757812 40.671875 151.503906 40.609375 151.25 40.625 C 150.914062 40.648438 150.644531 40.835938 150.507812 41.132812 C 150.503906 41.144531 150.5 41.152344 150.496094 41.164062 C 150.375 41.386719 150.246094 41.597656 150.125 41.800781 C 149.988281 42.023438 149.832031 42.242188 149.671875 42.464844 C 149.511719 42.6875 149.328125 42.910156 149.121094 43.128906 C 148.9375 43.335938 148.730469 43.546875 148.5 43.761719 C 148.472656 43.777344 148.441406 43.800781 148.417969 43.824219 C 148.144531 44.085938 148.003906 44.363281 148.003906 44.652344 C 148.003906 44.925781 148.097656 45.167969 148.273438 45.359375 C 148.4375 45.53125 148.648438 45.644531 148.90625 45.695312 C 149.167969 45.746094 149.4375 45.703125 149.761719 45.507812 C 149.9375 45.351562 150.097656 45.195312 150.242188 45.03125 C 150.359375 44.902344 150.480469 44.773438 150.613281 44.636719 L 150.660156 48.582031 L 150.601562 52.609375 C 150.601562 53.078125 150.859375 53.304688 151.007812 53.398438 C 151.203125 53.515625 151.433594 53.578125 151.683594 53.578125 C 151.933594 53.578125 152.171875 53.511719 152.398438 53.382812 C 152.695312 53.203125 152.859375 52.917969 152.859375 52.574219 L 152.734375 41.820312 C 152.699219 41.597656 152.609375 41.394531 152.460938 41.21875"/></g><g clip-path="url(#h)"><path fill="#100F0D" d="M 162.976562 47.585938 C 162.976562 48.140625 162.910156 48.65625 162.78125 49.132812 C 162.660156 49.585938 162.46875 49.984375 162.207031 50.308594 C 161.949219 50.640625 161.628906 50.886719 161.226562 51.078125 C 160.445312 51.445312 159.125 51.472656 158.355469 51.078125 C 157.976562 50.882812 157.679688 50.632812 157.441406 50.308594 C 157.199219 49.980469 157.023438 49.585938 156.914062 49.128906 C 156.796875 48.652344 156.738281 48.136719 156.738281 47.585938 C 156.738281 47.011719 156.796875 46.4375 156.917969 45.878906 C 157.035156 45.332031 157.214844 44.84375 157.472656 44.421875 C 157.726562 44.003906 158.039062 43.679688 158.433594 43.425781 C 158.808594 43.1875 159.285156 43.066406 159.851562 43.066406 C 160.398438 43.066406 160.871094 43.183594 161.25 43.417969 C 161.648438 43.664062 161.964844 43.976562 162.210938 44.375 C 162.472656 44.792969 162.664062 45.28125 162.785156 45.832031 C 162.910156 46.398438 162.976562 46.988281 162.976562 47.585938 Z M 164.691406 44.707031 C 164.527344 44.210938 164.308594 43.742188 164.046875 43.289062 C 163.773438 42.828125 163.4375 42.414062 163.046875 42.058594 C 162.644531 41.695312 162.175781 41.402344 161.644531 41.191406 C 160.570312 40.761719 159.058594 40.757812 157.992188 41.199219 C 157.460938 41.421875 156.988281 41.722656 156.597656 42.097656 C 156.210938 42.457031 155.878906 42.886719 155.609375 43.359375 C 155.34375 43.816406 155.128906 44.296875 154.96875 44.78125 C 154.8125 45.269531 154.695312 45.761719 154.628906 46.246094 C 154.558594 46.726562 154.523438 47.175781 154.523438 47.585938 C 154.523438 48.246094 154.621094 48.925781 154.808594 49.609375 C 154.992188 50.300781 155.300781 50.949219 155.710938 51.527344 C 156.125 52.113281 156.671875 52.601562 157.335938 52.976562 C 158.007812 53.355469 158.820312 53.546875 159.761719 53.546875 C 160.671875 53.546875 161.480469 53.367188 162.171875 53.003906 C 162.851562 52.652344 163.417969 52.183594 163.863281 51.613281 C 164.304688 51.046875 164.636719 50.402344 164.84375 49.695312 C 165.054688 49 165.160156 48.292969 165.160156 47.585938 C 165.160156 47.15625 165.125 46.683594 165.050781 46.1875 C 164.976562 45.695312 164.855469 45.195312 164.691406 44.707031"/></g><g clip-path="url(#i)"><path fill="#100F0D" d="M 168.226562 45.128906 Z M 171.253906 41.21875 C 171.128906 41.066406 170.96875 40.929688 170.777344 40.808594 C 170.550781 40.671875 170.300781 40.609375 170.042969 40.625 C 169.707031 40.648438 169.433594 40.835938 169.300781 41.132812 C 169.296875 41.144531 169.292969 41.152344 169.289062 41.164062 C 169.167969 41.386719 169.039062 41.597656 168.917969 41.800781 C 168.777344 42.023438 168.625 42.242188 168.460938 42.464844 C 168.300781 42.6875 168.117188 42.910156 167.914062 43.128906 C 167.730469 43.335938 167.523438 43.546875 167.292969 43.761719 C 167.261719 43.777344 167.234375 43.800781 167.207031 43.824219 C 166.933594 44.085938 166.792969 44.363281 166.792969 44.652344 C 166.792969 44.925781 166.890625 45.167969 167.066406 45.359375 C 167.230469 45.53125 167.441406 45.644531 167.691406 45.695312 C 167.960938 45.746094 168.230469 45.703125 168.550781 45.507812 C 168.730469 45.351562 168.890625 45.195312 169.035156 45.03125 C 169.152344 44.902344 169.273438 44.773438 169.40625 44.636719 L 169.453125 48.582031 L 169.390625 52.609375 C 169.390625 53.078125 169.652344 53.304688 169.800781 53.398438 C 169.996094 53.515625 170.222656 53.578125 170.476562 53.578125 C 170.726562 53.578125 170.964844 53.511719 171.191406 53.382812 C 171.488281 53.203125 171.652344 52.917969 171.652344 52.574219 L 171.527344 41.820312 C 171.492188 41.597656 171.402344 41.394531 171.253906 41.21875"/></g><g clip-path="url(#j)"><path fill="#100F0D" d="M 72.394531 18.351562 C 72.394531 17.78125 72.453125 17.203125 72.574219 16.640625 C 72.6875 16.097656 72.871094 15.605469 73.128906 15.183594 C 73.378906 14.769531 73.695312 14.445312 74.089844 14.191406 C 74.460938 13.949219 74.9375 13.828125 75.503906 13.828125 C 76.054688 13.828125 76.527344 13.949219 76.90625 14.183594 C 77.304688 14.425781 77.621094 14.738281 77.867188 15.136719 C 78.125 15.558594 78.316406 16.046875 78.441406 16.59375 C 78.566406 17.160156 78.628906 17.75 78.628906 18.351562 C 78.628906 18.902344 78.566406 19.425781 78.433594 19.898438 C 78.3125 20.347656 78.121094 20.746094 77.863281 21.078125 C 77.605469 21.402344 77.285156 21.65625 76.875 21.84375 C 76.097656 22.210938 74.78125 22.242188 74.011719 21.84375 C 73.632812 21.652344 73.335938 21.398438 73.09375 21.074219 C 72.855469 20.746094 72.679688 20.347656 72.570312 19.890625 C 72.453125 19.417969 72.394531 18.898438 72.394531 18.351562 Z M 71.367188 22.289062 C 71.78125 22.875 72.324219 23.363281 72.988281 23.738281 C 73.660156 24.117188 74.476562 24.3125 75.414062 24.3125 C 76.328125 24.3125 77.136719 24.128906 77.824219 23.773438 C 78.503906 23.414062 79.074219 22.945312 79.519531 22.375 C 79.957031 21.8125 80.289062 21.167969 80.5 20.460938 C 80.710938 19.765625 80.816406 19.054688 80.816406 18.351562 C 80.816406 17.917969 80.78125 17.445312 80.707031 16.949219 C 80.632812 16.457031 80.511719 15.960938 80.34375 15.46875 C 80.175781 14.980469 79.960938 14.503906 79.699219 14.054688 C 79.429688 13.589844 79.089844 13.179688 78.695312 12.824219 C 78.300781 12.460938 77.824219 12.171875 77.300781 11.957031 C 76.226562 11.523438 74.714844 11.523438 73.648438 11.96875 C 73.117188 12.1875 72.644531 12.488281 72.253906 12.859375 C 71.867188 13.226562 71.53125 13.648438 71.261719 14.121094 C 71 14.582031 70.785156 15.0625 70.625 15.550781 C 70.464844 16.035156 70.351562 16.53125 70.28125 17.015625 C 70.214844 17.492188 70.175781 17.941406 70.175781 18.351562 C 70.175781 19.007812 70.269531 19.6875 70.460938 20.371094 C 70.648438 21.070312 70.953125 21.710938 71.367188 22.289062"/></g><g clip-path="url(#k)"><path fill="#100F0D" d="M 83.882812 15.894531 Z M 83.347656 16.460938 C 83.617188 16.515625 83.886719 16.464844 84.207031 16.269531 C 84.386719 16.117188 84.546875 15.957031 84.691406 15.792969 C 84.804688 15.664062 84.925781 15.539062 85.0625 15.398438 L 85.105469 19.347656 L 85.046875 23.371094 C 85.046875 23.84375 85.304688 24.074219 85.457031 24.164062 C 85.652344 24.28125 85.875 24.339844 86.132812 24.339844 C 86.378906 24.339844 86.621094 24.277344 86.839844 24.144531 C 87.140625 23.972656 87.308594 23.6875 87.308594 23.335938 L 87.179688 12.585938 C 87.144531 12.363281 87.054688 12.160156 86.910156 11.984375 C 86.785156 11.828125 86.625 11.691406 86.433594 11.574219 C 86.203125 11.433594 85.953125 11.375 85.695312 11.390625 C 85.359375 11.414062 85.089844 11.597656 84.957031 11.894531 C 84.953125 11.90625 84.945312 11.917969 84.941406 11.925781 C 84.820312 12.152344 84.695312 12.363281 84.574219 12.5625 C 84.429688 12.785156 84.28125 13.007812 84.117188 13.230469 C 83.953125 13.449219 83.773438 13.671875 83.566406 13.898438 C 83.382812 14.101562 83.175781 14.308594 82.949219 14.523438 C 82.917969 14.542969 82.886719 14.566406 82.863281 14.589844 C 82.585938 14.847656 82.449219 15.125 82.449219 15.414062 C 82.449219 15.691406 82.542969 15.9375 82.722656 16.125 C 82.882812 16.292969 83.097656 16.410156 83.347656 16.460938"/></g><g clip-path="url(#l)"><path fill="#100F0D" d="M 97.421875 18.351562 C 97.421875 18.902344 97.359375 19.425781 97.226562 19.898438 C 97.105469 20.347656 96.910156 20.746094 96.652344 21.078125 C 96.398438 21.402344 96.078125 21.65625 95.667969 21.84375 C 94.890625 22.210938 93.574219 22.242188 92.804688 21.84375 C 92.425781 21.652344 92.128906 21.398438 91.886719 21.074219 C 91.648438 20.746094 91.46875 20.347656 91.359375 19.890625 C 91.246094 19.417969 91.1875 18.898438 91.1875 18.351562 C 91.1875 17.78125 91.246094 17.203125 91.363281 16.640625 C 91.476562 16.097656 91.664062 15.605469 91.921875 15.183594 C 92.167969 14.769531 92.484375 14.445312 92.882812 14.191406 C 93.253906 13.949219 93.730469 13.828125 94.296875 13.828125 C 94.84375 13.828125 95.316406 13.949219 95.699219 14.183594 C 96.097656 14.425781 96.410156 14.738281 96.660156 15.136719 C 96.914062 15.558594 97.109375 16.046875 97.230469 16.59375 C 97.359375 17.160156 97.421875 17.75 97.421875 18.351562 Z M 99.136719 15.46875 C 98.96875 14.980469 98.753906 14.503906 98.488281 14.054688 C 98.21875 13.589844 97.882812 13.179688 97.488281 12.824219 C 97.089844 12.460938 96.617188 12.171875 96.089844 11.957031 C 95.019531 11.523438 93.507812 11.523438 92.441406 11.96875 C 91.910156 12.1875 91.4375 12.488281 91.046875 12.859375 C 90.660156 13.226562 90.324219 13.648438 90.050781 14.121094 C 89.792969 14.582031 89.574219 15.0625 89.417969 15.550781 C 89.257812 16.035156 89.140625 16.53125 89.070312 17.015625 C 89.007812 17.492188 88.96875 17.941406 88.96875 18.351562 C 88.96875 19.007812 89.0625 19.6875 89.25 20.371094 C 89.441406 21.070312 89.746094 21.710938 90.15625 22.289062 C 90.574219 22.875 91.117188 23.363281 91.78125 23.738281 C 92.449219 24.117188 93.269531 24.3125 94.203125 24.3125 C 95.121094 24.3125 95.929688 24.128906 96.617188 23.773438 C 97.296875 23.414062 97.867188 22.945312 98.3125 22.375 C 98.75 21.8125 99.082031 21.167969 99.292969 20.460938 C 99.503906 19.765625 99.609375 19.054688 99.609375 18.351562 C 99.609375 17.917969 99.574219 17.445312 99.496094 16.949219 C 99.421875 16.457031 99.304688 15.960938 99.136719 15.46875"/></g><g clip-path="url(#m)"><path fill="#100F0D" d="M 102.675781 15.894531 Z M 102.140625 16.460938 C 102.40625 16.515625 102.679688 16.464844 103 16.269531 C 103.179688 16.117188 103.335938 15.957031 103.484375 15.792969 C 103.597656 15.664062 103.714844 15.539062 103.855469 15.398438 L 103.898438 19.347656 L 103.839844 23.371094 C 103.839844 23.84375 104.097656 24.074219 104.25 24.164062 C 104.441406 24.28125 104.667969 24.339844 104.925781 24.339844 C 105.171875 24.339844 105.410156 24.277344 105.632812 24.144531 C 105.933594 23.972656 106.097656 23.6875 106.097656 23.335938 L 105.972656 12.585938 C 105.9375 12.363281 105.84375 12.160156 105.699219 11.984375 C 105.578125 11.828125 105.417969 11.691406 105.226562 11.574219 C 104.996094 11.433594 104.746094 11.375 104.488281 11.390625 C 104.152344 11.414062 103.882812 11.597656 103.75 11.894531 C 103.742188 11.90625 103.738281 11.917969 103.734375 11.925781 C 103.609375 12.152344 103.488281 12.363281 103.363281 12.5625 C 103.222656 12.785156 103.070312 13.007812 102.90625 13.230469 C 102.746094 13.449219 102.5625 13.671875 102.359375 13.898438 C 102.171875 14.101562 101.96875 14.308594 101.742188 14.523438 C 101.710938 14.542969 101.679688 14.566406 101.652344 14.589844 C 101.378906 14.847656 101.242188 15.125 101.242188 15.414062 C 101.242188 15.691406 101.335938 15.9375 101.515625 16.125 C 101.675781 16.292969 101.882812 16.410156 102.140625 16.460938"/></g><path fill="#100F0D" d="M 73.058594 30.492188 Z M 74.632812 38.761719 C 74.828125 38.878906 75.054688 38.941406 75.308594 38.941406 C 75.558594 38.941406 75.796875 38.871094 76.019531 38.742188 C 76.320312 38.566406 76.484375 38.28125 76.484375 37.9375 L 76.355469 27.183594 C 76.324219 26.960938 76.234375 26.757812 76.085938 26.578125 C 75.960938 26.425781 75.800781 26.292969 75.609375 26.171875 C 75.378906 26.035156 75.132812 25.96875 74.875 25.988281 C 74.535156 26.011719 74.265625 26.195312 74.132812 26.496094 C 74.128906 26.503906 74.121094 26.515625 74.121094 26.527344 C 74 26.75 73.871094 26.960938 73.75 27.164062 C 73.609375 27.386719 73.457031 27.605469 73.292969 27.828125 C 73.132812 28.050781 72.949219 28.269531 72.746094 28.492188 C 72.558594 28.695312 72.355469 28.910156 72.125 29.121094 C 72.09375 29.140625 72.066406 29.160156 72.039062 29.1875 C 71.765625 29.445312 71.625 29.726562 71.625 30.015625 C 71.625 30.289062 71.71875 30.53125 71.898438 30.71875 C 72.0625 30.894531 72.273438 31.003906 72.523438 31.058594 C 72.792969 31.109375 73.0625 31.066406 73.382812 30.867188 C 73.5625 30.710938 73.722656 30.558594 73.867188 30.394531 C 73.984375 30.265625 74.105469 30.132812 74.238281 30 L 74.285156 33.941406 L 74.222656 37.96875 C 74.222656 38.441406 74.484375 38.667969 74.632812 38.761719"/><path fill="#100F0D" d="M 86.601562 32.949219 C 86.601562 33.5 86.535156 34.019531 86.40625 34.492188 C 86.28125 34.949219 86.089844 35.34375 85.832031 35.671875 C 85.574219 36 85.253906 36.25 84.851562 36.441406 C 84.070312 36.808594 82.75 36.835938 81.980469 36.441406 C 81.601562 36.246094 81.304688 35.996094 81.066406 35.671875 C 80.824219 35.34375 80.648438 34.949219 80.539062 34.492188 C 80.421875 34.015625 80.363281 33.496094 80.363281 32.949219 C 80.363281 32.375 80.421875 31.800781 80.542969 31.242188 C 80.65625 30.695312 80.839844 30.203125 81.097656 29.78125 C 81.351562 29.367188 81.664062 29.042969 82.058594 28.789062 C 82.433594 28.550781 82.910156 28.429688 83.472656 28.429688 C 84.023438 28.429688 84.496094 28.546875 84.875 28.777344 C 85.277344 29.023438 85.589844 29.335938 85.835938 29.738281 C 86.097656 30.152344 86.285156 30.644531 86.410156 31.191406 C 86.535156 31.757812 86.601562 32.351562 86.601562 32.949219 Z M 88.3125 30.0625 C 88.148438 29.574219 87.929688 29.097656 87.671875 28.652344 C 87.398438 28.191406 87.058594 27.777344 86.667969 27.421875 C 86.269531 27.058594 85.796875 26.765625 85.269531 26.554688 C 84.195312 26.125 82.683594 26.121094 81.617188 26.5625 C 81.085938 26.785156 80.617188 27.085938 80.222656 27.460938 C 79.835938 27.820312 79.5 28.246094 79.234375 28.71875 C 78.96875 29.175781 78.753906 29.65625 78.59375 30.144531 C 78.433594 30.632812 78.320312 31.125 78.253906 31.609375 C 78.183594 32.089844 78.144531 32.539062 78.144531 32.949219 C 78.144531 33.609375 78.246094 34.289062 78.429688 34.96875 C 78.617188 35.664062 78.925781 36.3125 79.335938 36.886719 C 79.75 37.476562 80.296875 37.964844 80.960938 38.339844 C 81.628906 38.71875 82.445312 38.910156 83.386719 38.910156 C 84.296875 38.910156 85.105469 38.726562 85.792969 38.367188 C 86.472656 38.011719 87.042969 37.546875 87.488281 36.976562 C 87.925781 36.410156 88.257812 35.761719 88.46875 35.058594 C 88.679688 34.363281 88.785156 33.652344 88.785156 32.949219 C 88.785156 32.519531 88.75 32.046875 88.675781 31.550781 C 88.601562 31.058594 88.480469 30.558594 88.3125 30.0625"/><path fill="#100F0D" d="M 97.421875 32.949219 C 97.421875 33.5 97.359375 34.019531 97.226562 34.492188 C 97.105469 34.949219 96.910156 35.34375 96.652344 35.671875 C 96.398438 36 96.078125 36.25 95.667969 36.441406 C 94.890625 36.808594 93.574219 36.835938 92.804688 36.441406 C 92.425781 36.246094 92.128906 35.996094 91.886719 35.671875 C 91.648438 35.34375 91.46875 34.949219 91.359375 34.492188 C 91.246094 34.015625 91.1875 33.496094 91.1875 32.949219 C 91.1875 32.375 91.246094 31.800781 91.363281 31.242188 C 91.476562 30.695312 91.664062 30.203125 91.921875 29.78125 C 92.167969 29.367188 92.484375 29.042969 92.882812 28.789062 C 93.253906 28.550781 93.730469 28.429688 94.296875 28.429688 C 94.84375 28.429688 95.316406 28.546875 95.699219 28.777344 C 96.097656 29.023438 96.410156 29.335938 96.660156 29.738281 C 96.914062 30.152344 97.109375 30.644531 97.230469 31.191406 C 97.359375 31.757812 97.421875 32.351562 97.421875 32.949219 Z M 99.136719 30.0625 C 98.96875 29.574219 98.753906 29.097656 98.488281 28.652344 C 98.21875 28.191406 97.882812 27.777344 97.488281 27.421875 C 97.089844 27.058594 96.617188 26.765625 96.089844 26.554688 C 95.019531 26.125 93.507812 26.121094 92.441406 26.5625 C 91.910156 26.785156 91.4375 27.085938 91.046875 27.460938 C 90.660156 27.820312 90.324219 28.246094 90.050781 28.71875 C 89.792969 29.175781 89.574219 29.65625 89.417969 30.144531 C 89.257812 30.632812 89.140625 31.125 89.070312 31.609375 C 89.007812 32.089844 88.96875 32.539062 88.96875 32.949219 C 88.96875 33.609375 89.0625 34.289062 89.25 34.96875 C 89.441406 35.664062 89.746094 36.3125 90.15625 36.886719 C 90.574219 37.476562 91.117188 37.964844 91.78125 38.339844 C 92.449219 38.71875 93.269531 38.910156 94.203125 38.910156 C 95.121094 38.910156 95.929688 38.726562 96.617188 38.367188 C 97.296875 38.011719 97.867188 37.546875 98.3125 36.976562 C 98.75 36.410156 99.082031 35.761719 99.292969 35.058594 C 99.503906 34.363281 99.609375 33.652344 99.609375 32.949219 C 99.609375 32.519531 99.574219 32.046875 99.496094 31.550781 C 99.421875 31.058594 99.304688 30.558594 99.136719 30.0625"/><g clip-path="url(#n)"><path fill="#100F0D" d="M 102.675781 30.492188 Z M 105.699219 26.578125 C 105.578125 26.425781 105.417969 26.292969 105.226562 26.171875 C 104.996094 26.035156 104.746094 25.96875 104.488281 25.988281 C 104.152344 26.011719 103.882812 26.195312 103.75 26.496094 C 103.742188 26.503906 103.738281 26.515625 103.734375 26.527344 C 103.609375 26.75 103.488281 26.960938 103.363281 27.164062 C 103.222656 27.386719 103.070312 27.605469 102.90625 27.828125 C 102.746094 28.050781 102.5625 28.269531 102.359375 28.492188 C 102.171875 28.695312 101.96875 28.910156 101.742188 29.121094 C 101.710938 29.140625 101.679688 29.160156 101.652344 29.1875 C 101.378906 29.445312 101.242188 29.726562 101.242188 30.015625 C 101.242188 30.289062 101.335938 30.53125 101.515625 30.71875 C 101.675781 30.894531 101.882812 31.003906 102.140625 31.058594 C 102.40625 31.109375 102.679688 31.066406 103 30.867188 C 103.179688 30.710938 103.335938 30.558594 103.484375 30.394531 C 103.597656 30.265625 103.714844 30.132812 103.855469 30 L 103.898438 33.941406 L 103.839844 37.96875 C 103.839844 38.441406 104.097656 38.667969 104.25 38.761719 C 104.441406 38.878906 104.667969 38.941406 104.925781 38.941406 C 105.171875 38.941406 105.410156 38.871094 105.632812 38.742188 C 105.933594 38.566406 106.097656 38.28125 106.097656 37.9375 L 105.972656 27.183594 C 105.9375 26.960938 105.84375 26.757812 105.699219 26.578125"/></g><g clip-path="url(#o)"><path fill="#100F0D" d="M 78.628906 47.585938 C 78.628906 48.140625 78.566406 48.65625 78.433594 49.132812 C 78.3125 49.585938 78.121094 49.984375 77.863281 50.308594 C 77.605469 50.640625 77.285156 50.886719 76.875 51.078125 C 76.097656 51.445312 74.78125 51.472656 74.011719 51.078125 C 73.632812 50.882812 73.335938 50.632812 73.09375 50.308594 C 72.855469 49.980469 72.679688 49.585938 72.570312 49.128906 C 72.453125 48.652344 72.394531 48.136719 72.394531 47.585938 C 72.394531 47.011719 72.453125 46.4375 72.574219 45.878906 C 72.6875 45.332031 72.871094 44.84375 73.128906 44.421875 C 73.378906 44.003906 73.695312 43.679688 74.089844 43.425781 C 74.460938 43.1875 74.9375 43.066406 75.503906 43.066406 C 76.054688 43.066406 76.527344 43.183594 76.90625 43.417969 C 77.304688 43.664062 77.621094 43.976562 77.867188 44.375 C 78.125 44.792969 78.316406 45.28125 78.441406 45.832031 C 78.566406 46.398438 78.628906 46.988281 78.628906 47.585938 Z M 80.34375 44.707031 C 80.175781 44.210938 79.960938 43.742188 79.699219 43.289062 C 79.429688 42.828125 79.089844 42.414062 78.695312 42.058594 C 78.300781 41.695312 77.824219 41.402344 77.300781 41.191406 C 76.226562 40.761719 74.714844 40.757812 73.648438 41.199219 C 73.117188 41.421875 72.644531 41.722656 72.253906 42.097656 C 71.867188 42.457031 71.53125 42.886719 71.261719 43.359375 C 71 43.816406 70.785156 44.296875 70.625 44.78125 C 70.464844 45.269531 70.351562 45.761719 70.28125 46.246094 C 70.214844 46.726562 70.175781 47.175781 70.175781 47.585938 C 70.175781 48.246094 70.269531 48.925781 70.460938 49.609375 C 70.648438 50.300781 70.953125 50.949219 71.367188 51.527344 C 71.78125 52.113281 72.324219 52.601562 72.988281 52.976562 C 73.660156 53.355469 74.476562 53.546875 75.414062 53.546875 C 76.328125 53.546875 77.136719 53.367188 77.824219 53.003906 C 78.503906 52.652344 79.074219 52.183594 79.519531 51.613281 C 79.957031 51.046875 80.289062 50.402344 80.5 49.695312 C 80.710938 49 80.816406 48.292969 80.816406 47.585938 C 80.816406 47.15625 80.78125 46.683594 80.707031 46.1875 C 80.632812 45.695312 80.511719 45.195312 80.34375 44.707031"/></g><g clip-path="url(#p)"><path fill="#100F0D" d="M 83.882812 45.128906 Z M 86.910156 41.21875 C 86.785156 41.066406 86.625 40.929688 86.433594 40.808594 C 86.203125 40.671875 85.953125 40.609375 85.695312 40.625 C 85.359375 40.648438 85.089844 40.835938 84.957031 41.132812 C 84.953125 41.144531 84.945312 41.152344 84.941406 41.164062 C 84.820312 41.386719 84.695312 41.597656 84.574219 41.800781 C 84.429688 42.023438 84.28125 42.242188 84.117188 42.464844 C 83.953125 42.6875 83.773438 42.910156 83.566406 43.128906 C 83.382812 43.335938 83.175781 43.546875 82.949219 43.761719 C 82.917969 43.777344 82.886719 43.800781 82.863281 43.824219 C 82.585938 44.085938 82.449219 44.363281 82.449219 44.652344 C 82.449219 44.925781 82.542969 45.167969 82.722656 45.359375 C 82.882812 45.53125 83.097656 45.644531 83.347656 45.695312 C 83.617188 45.746094 83.886719 45.703125 84.207031 45.507812 C 84.386719 45.351562 84.546875 45.195312 84.691406 45.03125 C 84.804688 44.902344 84.925781 44.773438 85.0625 44.636719 L 85.105469 48.582031 L 85.046875 52.609375 C 85.046875 53.078125 85.304688 53.304688 85.457031 53.398438 C 85.652344 53.515625 85.875 53.578125 86.132812 53.578125 C 86.378906 53.578125 86.621094 53.511719 86.839844 53.382812 C 87.140625 53.203125 87.308594 52.917969 87.308594 52.574219 L 87.179688 41.820312 C 87.144531 41.597656 87.054688 41.394531 86.910156 41.21875"/></g><g clip-path="url(#q)"><path fill="#100F0D" d="M 97.421875 47.585938 C 97.421875 48.140625 97.359375 48.65625 97.226562 49.132812 C 97.105469 49.585938 96.910156 49.984375 96.652344 50.308594 C 96.398438 50.640625 96.078125 50.886719 95.667969 51.078125 C 94.890625 51.445312 93.574219 51.472656 92.804688 51.078125 C 92.425781 50.882812 92.128906 50.632812 91.886719 50.308594 C 91.648438 49.980469 91.46875 49.585938 91.359375 49.128906 C 91.246094 48.652344 91.1875 48.136719 91.1875 47.585938 C 91.1875 47.011719 91.246094 46.4375 91.363281 45.878906 C 91.476562 45.332031 91.664062 44.84375 91.921875 44.421875 C 92.167969 44.003906 92.484375 43.679688 92.882812 43.425781 C 93.253906 43.1875 93.730469 43.066406 94.296875 43.066406 C 94.84375 43.066406 95.316406 43.183594 95.699219 43.417969 C 96.097656 43.664062 96.410156 43.976562 96.660156 44.375 C 96.914062 44.792969 97.109375 45.28125 97.230469 45.832031 C 97.359375 46.398438 97.421875 46.988281 97.421875 47.585938 Z M 99.136719 44.707031 C 98.96875 44.210938 98.753906 43.742188 98.488281 43.289062 C 98.21875 42.828125 97.882812 42.414062 97.488281 42.058594 C 97.089844 41.695312 96.617188 41.402344 96.089844 41.191406 C 95.019531 40.761719 93.507812 40.757812 92.441406 41.199219 C 91.910156 41.421875 91.4375 41.722656 91.046875 42.097656 C 90.660156 42.457031 90.324219 42.886719 90.050781 43.359375 C 89.792969 43.816406 89.574219 44.296875 89.417969 44.78125 C 89.257812 45.269531 89.140625 45.761719 89.070312 46.246094 C 89.007812 46.726562 88.96875 47.175781 88.96875 47.585938 C 88.96875 48.246094 89.0625 48.925781 89.25 49.609375 C 89.441406 50.300781 89.746094 50.949219 90.15625 51.527344 C 90.574219 52.113281 91.117188 52.601562 91.78125 52.976562 C 92.449219 53.355469 93.269531 53.546875 94.203125 53.546875 C 95.121094 53.546875 95.929688 53.367188 96.617188 53.003906 C 97.296875 52.652344 97.867188 52.183594 98.3125 51.613281 C 98.75 51.046875 99.082031 50.402344 99.292969 49.695312 C 99.503906 49 99.609375 48.292969 99.609375 47.585938 C 99.609375 47.15625 99.574219 46.683594 99.496094 46.1875 C 99.421875 45.695312 99.304688 45.195312 99.136719 44.707031"/></g><g clip-path="url(#r)"><path fill="#100F0D" d="M 102.675781 45.128906 Z M 105.699219 41.21875 C 105.578125 41.066406 105.417969 40.929688 105.226562 40.808594 C 104.996094 40.671875 104.746094 40.609375 104.488281 40.625 C 104.152344 40.648438 103.882812 40.835938 103.75 41.132812 C 103.742188 41.144531 103.738281 41.152344 103.734375 41.164062 C 103.609375 41.386719 103.488281 41.597656 103.363281 41.800781 C 103.222656 42.023438 103.070312 42.242188 102.90625 42.464844 C 102.746094 42.6875 102.5625 42.910156 102.359375 43.128906 C 102.171875 43.335938 101.96875 43.546875 101.742188 43.761719 C 101.710938 43.777344 101.679688 43.800781 101.652344 43.824219 C 101.378906 44.085938 101.242188 44.363281 101.242188 44.652344 C 101.242188 44.925781 101.335938 45.167969 101.515625 45.359375 C 101.675781 45.53125 101.882812 45.644531 102.140625 45.695312 C 102.40625 45.746094 102.679688 45.703125 103 45.507812 C 103.179688 45.351562 103.335938 45.195312 103.484375 45.03125 C 103.597656 44.902344 103.714844 44.773438 103.855469 44.636719 L 103.898438 48.582031 L 103.839844 52.609375 C 103.839844 53.078125 104.097656 53.304688 104.25 53.398438 C 104.441406 53.515625 104.667969 53.578125 104.925781 53.578125 C 105.171875 53.578125 105.410156 53.511719 105.632812 53.382812 C 105.933594 53.203125 106.097656 52.917969 106.097656 52.574219 L 105.972656 41.820312 C 105.9375 41.597656 105.84375 41.394531 105.699219 41.21875"/></g><g clip-path="url(#s)"><path fill="#AFB1EB" d="M 208.273438 19.402344 C 207.179688 18.308594 206.085938 17.214844 204.984375 16.117188 C 204.226562 15.359375 203.472656 14.601562 202.714844 13.84375 C 202.453125 13.582031 202.191406 13.328125 201.933594 13.0625 C 201.871094 13 201.667969 12.714844 201.574219 12.707031 C 201.472656 12.695312 201.011719 13.230469 200.929688 13.308594 C 200.617188 13.597656 200.292969 13.871094 199.960938 14.132812 C 199.292969 14.671875 198.585938 15.15625 197.851562 15.59375 C 196.429688 16.4375 194.898438 17.09375 193.308594 17.539062 C 190.214844 18.410156 186.910156 18.476562 183.777344 17.730469 C 180.535156 16.964844 177.453125 15.320312 175.066406 12.984375 C 172.332031 10.320312 169.308594 8.109375 165.773438 6.609375 C 158.867188 3.691406 150.90625 3.632812 143.960938 6.453125 C 140.429688 7.886719 137.234375 10.03125 134.542969 12.710938 C 131.570312 15.679688 127.664062 17.59375 123.492188 18.117188 C 119.601562 18.605469 115.53125 17.871094 112.09375 15.976562 C 110.480469 15.089844 109.007812 13.996094 107.707031 12.691406 C 106.324219 11.3125 104.808594 10.074219 103.179688 9.003906 C 96.878906 4.867188 89.023438 3.425781 81.65625 4.996094 C 77.957031 5.78125 74.425781 7.3125 71.324219 9.476562 C 69.75 10.578125 68.398438 11.882812 67.003906 13.183594 C 65.773438 14.324219 64.398438 15.300781 62.914062 16.078125 C 57.085938 19.140625 49.878906 18.917969 44.257812 15.496094 C 43.539062 15.0625 42.855469 14.578125 42.207031 14.050781 C 41.890625 13.800781 41.585938 13.535156 41.289062 13.261719 C 41.1875 13.167969 40.792969 12.695312 40.691406 12.710938 C 40.589844 12.730469 40.378906 13.027344 40.308594 13.09375 C 40.042969 13.363281 39.777344 13.632812 39.507812 13.898438 C 37.988281 15.414062 36.46875 16.933594 34.953125 18.453125 C 34.628906 18.769531 34.3125 19.085938 33.996094 19.402344 C 39.210938 24.613281 46.363281 27.628906 53.734375 27.722656 C 55.742188 27.75 57.757812 27.566406 59.730469 27.167969 C 58.355469 33.992188 59.578125 41.113281 63.050781 47.136719 C 66.25 52.683594 71.429688 57.027344 77.390625 59.320312 C 80.632812 60.574219 84.121094 61.222656 87.601562 61.222656 C 93.636719 61.207031 99.53125 59.269531 104.414062 55.722656 C 109.960938 51.691406 113.851562 45.625 115.355469 38.949219 C 116.226562 35.09375 116.253906 31.042969 115.472656 27.167969 C 119.191406 27.914062 123.078125 27.914062 126.800781 27.167969 C 125.425781 33.988281 126.636719 41.121094 130.117188 47.136719 C 133.324219 52.679688 138.488281 57.023438 144.453125 59.320312 C 147.699219 60.574219 151.1875 61.222656 154.667969 61.222656 C 160.71875 61.222656 166.65625 59.25 171.53125 55.679688 C 177.027344 51.65625 180.890625 45.652344 182.402344 39.035156 C 183.289062 35.152344 183.324219 31.074219 182.535156 27.167969 C 189.640625 28.59375 197.179688 27.230469 203.3125 23.367188 C 205.113281 22.238281 206.773438 20.902344 208.273438 19.402344 Z M 106.527344 33.359375 C 106.300781 41.636719 100.460938 49.015625 92.4375 51.101562 C 84.496094 53.164062 75.726562 49.800781 71.472656 42.714844 C 69.402344 39.265625 68.414062 35.339844 68.722656 31.316406 C 69.015625 27.566406 70.429688 23.929688 72.78125 20.988281 C 77.527344 15.042969 85.589844 12.464844 92.925781 14.601562 C 100.152344 16.710938 105.542969 23.125 106.40625 30.59375 C 106.515625 31.511719 106.558594 32.4375 106.527344 33.359375 Z M 173.597656 33.359375 C 173.460938 37.535156 171.96875 41.351562 169.453125 44.652344 C 167.042969 47.816406 163.335938 50.109375 159.507812 51.101562 C 151.628906 53.144531 142.808594 49.847656 138.582031 42.78125 C 136.476562 39.257812 135.460938 35.28125 135.804688 31.175781 C 136.121094 27.445312 137.550781 23.847656 139.902344 20.929688 C 144.597656 15.089844 152.488281 12.539062 159.714844 14.523438 C 167.078125 16.546875 172.601562 23.015625 173.480469 30.59375 C 173.582031 31.511719 173.625 32.4375 173.597656 33.359375 Z M 173.597656 33.359375"/></g><path d="M 21.882812 71.527344 L 7.183594 71.527344 L 7.183594 75.488281 L 12.335938 75.488281 L 12.335938 91.839844 L 16.769531 91.839844 L 16.769531 75.488281 L 21.882812 75.488281 Z M 21.882812 71.527344"/><path d="M 31.292969 78.027344 C 29.800781 78.027344 28.445312 78.703125 27.503906 79.820312 L 27.503906 68.648438 L 23.167969 68.648438 L 23.167969 91.839844 L 27.503906 91.839844 L 27.503906 84.1875 C 27.503906 83.003906 28.484375 81.851562 29.800781 81.851562 C 31.023438 81.851562 31.871094 82.800781 31.871094 83.984375 L 31.871094 91.839844 L 36.199219 91.839844 L 36.199219 83.273438 C 36.199219 80.292969 34.035156 78.027344 31.292969 78.027344 Z M 31.292969 78.027344"/><path d="M 53.128906 85.035156 C 53.128906 80.800781 50.21875 77.992188 45.851562 77.992188 C 41.484375 77.992188 38.402344 80.839844 38.402344 85.066406 C 38.402344 89.300781 41.449219 92.113281 45.984375 92.113281 C 49.746094 92.113281 52.25 90.117188 52.925781 87.167969 L 48.761719 87.167969 C 48.390625 88.25 47.410156 88.894531 45.917969 88.894531 C 43.953125 88.894531 42.941406 87.710938 42.769531 85.78125 L 53.128906 85.78125 Z M 45.917969 81.3125 C 47.371094 81.3125 48.21875 81.988281 48.660156 83.171875 L 43.039062 83.171875 C 43.480469 82.023438 44.394531 81.3125 45.917969 81.3125 Z M 45.917969 81.3125"/><path d="M 72.867188 92.113281 C 76.894531 92.113281 80.382812 89.84375 82.109375 86.527344 L 78.246094 84.527344 C 77.265625 86.457031 75.269531 87.742188 72.867188 87.742188 C 69.449219 87.742188 66.839844 85.105469 66.839844 81.683594 C 66.839844 78.261719 69.449219 75.621094 72.867188 75.621094 C 75.269531 75.621094 77.265625 76.910156 78.246094 78.839844 L 82.109375 76.84375 C 80.382812 73.523438 76.894531 71.253906 72.867188 71.253906 C 67.113281 71.253906 62.4375 75.925781 62.4375 81.683594 C 62.4375 87.441406 67.113281 92.113281 72.867188 92.113281 Z M 72.867188 92.113281"/><path d="M 91.046875 92.113281 C 95.585938 92.113281 98.5625 89.132812 98.5625 85.066406 C 98.5625 81.007812 95.585938 78.027344 91.046875 78.027344 C 86.507812 78.027344 83.496094 81.007812 83.496094 85.066406 C 83.496094 89.132812 86.507812 92.113281 91.046875 92.113281 Z M 91.046875 88.289062 C 89.183594 88.25 87.832031 86.898438 87.832031 85.066406 C 87.832031 83.242188 89.183594 81.886719 91.046875 81.851562 C 92.875 81.886719 94.261719 83.242188 94.261719 85.066406 C 94.261719 86.898438 92.875 88.25 91.046875 88.289062 Z M 91.046875 88.289062"/><path d="M 110.714844 68.648438 L 110.714844 79.484375 C 109.703125 78.566406 108.414062 78.027344 106.855469 78.027344 C 103.097656 78.027344 100.152344 81.140625 100.152344 85.066406 C 100.152344 88.996094 103.097656 92.113281 106.855469 92.113281 C 108.414062 92.113281 109.703125 91.570312 110.714844 90.65625 L 110.714844 91.875 L 115.015625 91.839844 L 115.015625 68.648438 Z M 107.703125 88.289062 C 105.90625 88.289062 104.488281 86.863281 104.488281 85.066406 C 104.488281 83.273438 105.90625 81.851562 107.703125 81.851562 C 109.460938 81.851562 110.917969 83.273438 110.917969 85.066406 C 110.917969 86.863281 109.460938 88.289062 107.703125 88.289062 Z M 107.703125 88.289062"/><path d="M 132.246094 85.035156 C 132.246094 80.800781 129.335938 77.992188 124.96875 77.992188 C 120.601562 77.992188 117.519531 80.839844 117.519531 85.066406 C 117.519531 89.300781 120.566406 92.113281 125.101562 92.113281 C 128.863281 92.113281 131.367188 90.117188 132.042969 87.167969 L 127.878906 87.167969 C 127.507812 88.25 126.527344 88.894531 125.039062 88.894531 C 123.070312 88.894531 122.058594 87.710938 121.886719 85.78125 L 132.246094 85.78125 Z M 125.039062 81.3125 C 126.492188 81.3125 127.335938 81.988281 127.777344 83.171875 L 122.15625 83.171875 C 122.597656 82.023438 123.511719 81.3125 125.039062 81.3125 Z M 125.039062 81.3125"/><path d="M 152.425781 71.527344 L 145.957031 85.578125 L 139.558594 71.527344 L 134.71875 71.527344 L 134.71875 91.839844 L 139.1875 91.839844 L 139.1875 79.71875 L 144.671875 91.839844 L 147.246094 91.839844 L 152.761719 79.753906 L 152.761719 91.839844 L 157.234375 91.839844 L 157.234375 71.527344 Z M 152.425781 71.527344"/><path d="M 175.785156 88.320312 C 175.207031 88.320312 174.601562 88.117188 174.601562 86.996094 L 174.601562 78.300781 L 170.300781 78.300781 L 170.300781 79.484375 C 169.285156 78.566406 168 78.027344 166.441406 78.027344 C 162.683594 78.027344 159.738281 81.140625 159.738281 85.066406 C 159.738281 88.996094 162.683594 92.113281 166.441406 92.113281 C 168.402344 92.113281 169.996094 91.230469 171.082031 89.808594 C 171.921875 91.199219 173.417969 92.113281 175.246094 92.113281 C 175.683594 92.113281 176.089844 91.976562 176.398438 91.839844 L 176.398438 88.320312 Z M 167.289062 88.289062 C 165.492188 88.289062 164.070312 86.863281 164.070312 85.066406 C 164.070312 83.273438 165.492188 81.851562 167.289062 81.851562 C 169.046875 81.851562 170.503906 83.273438 170.503906 85.066406 C 170.503906 86.863281 169.046875 88.289062 167.289062 88.289062 Z M 167.289062 88.289062"/><path d="M 186.550781 78.027344 C 184.992188 78.027344 183.636719 78.773438 182.691406 79.957031 L 182.691406 78.300781 L 178.355469 78.300781 L 178.355469 91.839844 L 182.691406 91.839844 L 182.691406 83.984375 C 182.691406 82.769531 183.707031 81.851562 184.957031 81.851562 C 186.210938 81.851562 187.089844 82.769531 187.089844 83.984375 L 187.089844 91.839844 L 191.390625 91.839844 L 191.390625 83.273438 C 191.390625 80.292969 189.222656 78.027344 186.550781 78.027344 Z M 186.550781 78.027344"/><path d="M 196.808594 76.027344 C 198.09375 76.027344 199.175781 74.945312 199.175781 73.660156 C 199.175781 72.339844 198.09375 71.289062 196.808594 71.289062 C 195.523438 71.289062 194.4375 72.339844 194.4375 73.660156 C 194.4375 74.945312 195.523438 76.027344 196.808594 76.027344 Z M 194.636719 91.839844 L 198.941406 91.839844 L 198.941406 78.300781 L 194.636719 78.300781 Z M 194.636719 91.839844"/><path d="M 217.597656 88.320312 C 217.019531 88.320312 216.414062 88.117188 216.414062 86.996094 L 216.414062 78.300781 L 212.109375 78.300781 L 212.109375 79.484375 C 211.097656 78.566406 209.808594 78.027344 208.25 78.027344 C 204.496094 78.027344 201.546875 81.140625 201.546875 85.066406 C 201.546875 88.996094 204.496094 92.113281 208.25 92.113281 C 210.214844 92.113281 211.804688 91.230469 212.890625 89.808594 C 213.734375 91.199219 215.226562 92.113281 217.054688 92.113281 C 217.496094 92.113281 217.902344 91.976562 218.207031 91.839844 L 218.207031 88.320312 Z M 209.097656 88.289062 C 207.304688 88.289062 205.882812 86.863281 205.882812 85.066406 C 205.882812 83.273438 207.304688 81.851562 209.097656 81.851562 C 210.855469 81.851562 212.3125 83.273438 212.3125 85.066406 C 212.3125 86.863281 210.855469 88.289062 209.097656 88.289062 Z M 209.097656 88.289062"/><path d="M 226.769531 92.113281 C 230.832031 92.113281 233.605469 89.742188 234.183594 86.355469 L 229.714844 86.355469 C 229.273438 87.507812 228.15625 88.25 226.769531 88.289062 C 224.90625 88.25 223.554688 86.898438 223.554688 85.066406 C 223.554688 83.242188 224.90625 81.886719 226.769531 81.851562 C 228.15625 81.886719 229.273438 82.628906 229.714844 83.78125 L 234.183594 83.78125 C 233.605469 80.394531 230.832031 78.027344 226.769531 78.027344 C 222.230469 78.027344 219.21875 81.007812 219.21875 85.066406 C 219.21875 89.132812 222.230469 92.113281 226.769531 92.113281 Z M 226.769531 92.113281"/><path d="M 39.511719 100.671875 L 38.757812 103.867188 L 37.902344 100.671875 L 36.777344 100.671875 L 35.921875 103.867188 L 35.175781 100.671875 L 33.867188 100.671875 L 35.128906 105.523438 L 36.578125 105.523438 L 37.34375 102.433594 L 38.101562 105.523438 L 39.550781 105.523438 L 40.820312 100.671875 Z M 39.511719 100.671875"/><path d="M 44.886719 100.671875 L 44.886719 102.554688 L 43.140625 102.554688 L 43.140625 100.671875 L 41.902344 100.671875 L 41.902344 105.523438 L 43.140625 105.523438 L 43.140625 103.632812 L 44.886719 103.632812 L 44.886719 105.523438 L 46.125 105.523438 L 46.125 100.671875 Z M 44.886719 100.671875"/><path d="M 47.839844 105.523438 L 49.078125 105.523438 L 49.078125 100.671875 L 47.839844 100.671875 Z M 47.839844 105.523438"/><path d="M 52.011719 104.449219 L 52.011719 100.671875 L 50.773438 100.671875 L 50.773438 105.523438 L 53.558594 105.523438 L 53.558594 104.449219 Z M 52.011719 104.449219"/><path d="M 57.824219 101.746094 L 57.824219 100.671875 L 54.816406 100.671875 L 54.816406 105.523438 L 57.824219 105.523438 L 57.824219 104.449219 L 56.054688 104.449219 L 56.054688 103.632812 L 57.554688 103.632812 L 57.554688 102.566406 L 56.054688 102.566406 L 56.054688 101.746094 Z M 57.824219 101.746094"/><path d="M 64.117188 107.441406 L 64.117188 106.589844 C 63.535156 106.613281 63.070312 105.925781 63.070312 103.671875 C 63.070312 101.402344 63.535156 100.695312 64.117188 100.722656 L 64.117188 99.871094 C 62.945312 99.847656 62.023438 100.792969 62.023438 103.671875 C 62.023438 106.535156 62.945312 107.464844 64.117188 107.441406 Z M 64.117188 107.441406"/><path d="M 68.832031 100.671875 L 65.226562 100.671875 L 65.226562 101.746094 L 66.414062 101.746094 L 66.414062 105.523438 L 67.644531 105.523438 L 67.644531 101.746094 L 68.832031 101.746094 Z M 68.832031 100.671875"/><path d="M 72.964844 100.671875 L 72.964844 102.554688 L 71.21875 102.554688 L 71.21875 100.671875 L 69.980469 100.671875 L 69.980469 105.523438 L 71.21875 105.523438 L 71.21875 103.632812 L 72.964844 103.632812 L 72.964844 105.523438 L 74.199219 105.523438 L 74.199219 100.671875 Z M 72.964844 100.671875"/><path d="M 78.925781 101.746094 L 78.925781 100.671875 L 75.917969 100.671875 L 75.917969 105.523438 L 78.925781 105.523438 L 78.925781 104.449219 L 77.152344 104.449219 L 77.152344 103.632812 L 78.652344 103.632812 L 78.652344 102.566406 L 77.152344 102.566406 L 77.152344 101.746094 Z M 78.925781 101.746094"/><path d="M 82.738281 105.589844 C 83.703125 105.589844 84.542969 105.039062 84.957031 104.230469 L 83.890625 103.6875 C 83.679688 104.105469 83.261719 104.375 82.738281 104.375 C 82.007812 104.375 81.457031 103.835938 81.457031 103.097656 C 81.457031 102.359375 82.007812 101.820312 82.738281 101.820312 C 83.261719 101.820312 83.679688 102.089844 83.890625 102.507812 L 84.957031 101.964844 C 84.542969 101.15625 83.703125 100.605469 82.738281 100.605469 C 81.359375 100.605469 80.253906 101.722656 80.253906 103.097656 C 80.253906 104.472656 81.359375 105.589844 82.738281 105.589844 Z M 82.738281 105.589844"/><path d="M 88.691406 105.589844 C 90.066406 105.589844 91.183594 104.472656 91.183594 103.097656 C 91.183594 101.722656 90.066406 100.605469 88.691406 100.605469 C 87.3125 100.605469 86.207031 101.722656 86.207031 103.097656 C 86.207031 104.472656 87.3125 105.589844 88.691406 105.589844 Z M 88.691406 104.375 C 87.960938 104.375 87.410156 103.835938 87.410156 103.097656 C 87.410156 102.359375 87.960938 101.820312 88.691406 101.820312 C 89.421875 101.820312 89.96875 102.359375 89.96875 103.097656 C 89.96875 103.835938 89.421875 104.375 88.691406 104.375 Z M 88.691406 104.375"/><path d="M 92.671875 105.523438 L 94.355469 105.523438 C 95.6875 105.523438 96.78125 104.441406 96.78125 103.097656 C 96.78125 101.753906 95.6875 100.671875 94.355469 100.671875 L 92.671875 100.671875 Z M 93.910156 104.449219 L 93.910156 101.746094 L 94.355469 101.746094 C 95.023438 101.746094 95.550781 102.335938 95.550781 103.097656 C 95.550781 103.859375 95.023438 104.449219 94.355469 104.449219 Z M 93.910156 104.449219"/><path d="M 101.324219 101.746094 L 101.324219 100.671875 L 98.316406 100.671875 L 98.316406 105.523438 L 101.324219 105.523438 L 101.324219 104.449219 L 99.554688 104.449219 L 99.554688 103.632812 L 101.050781 103.632812 L 101.050781 102.566406 L 99.554688 102.566406 L 99.554688 101.746094 Z M 101.324219 101.746094"/><path d="M 107.03125 100.671875 L 105.597656 103.761719 L 104.164062 100.671875 L 102.820312 100.671875 L 102.820312 105.523438 L 104.058594 105.523438 L 104.058594 102.910156 L 105.261719 105.523438 L 105.925781 105.523438 L 107.128906 102.925781 L 107.128906 105.523438 L 108.367188 105.523438 L 108.367188 100.671875 Z M 107.03125 100.671875"/><path d="M 113.007812 105.523438 L 114.335938 105.523438 L 112.582031 100.671875 L 111.195312 100.671875 L 109.441406 105.523438 L 110.777344 105.523438 L 111.046875 104.671875 L 112.742188 104.671875 Z M 111.359375 103.671875 L 111.894531 101.957031 L 112.433594 103.671875 Z M 111.359375 103.671875"/><path d="M 118.90625 100.671875 L 118.90625 103.640625 L 116.714844 100.671875 L 115.417969 100.671875 L 115.417969 105.523438 L 116.65625 105.523438 L 116.65625 102.546875 L 118.84375 105.523438 L 120.144531 105.523438 L 120.144531 100.671875 Z M 118.90625 100.671875"/><path d="M 121.847656 105.523438 L 123.085938 105.523438 L 123.085938 100.671875 L 121.847656 100.671875 Z M 121.847656 105.523438"/><path d="M 127.757812 105.523438 L 129.085938 105.523438 L 127.332031 100.671875 L 125.949219 100.671875 L 124.191406 105.523438 L 125.527344 105.523438 L 125.796875 104.671875 L 127.492188 104.671875 Z M 126.109375 103.671875 L 126.644531 101.957031 L 127.183594 103.671875 Z M 126.109375 103.671875"/><path d="M 132.488281 105.589844 C 133.453125 105.589844 134.292969 105.039062 134.707031 104.230469 L 133.640625 103.6875 C 133.429688 104.105469 133.011719 104.375 132.488281 104.375 C 131.757812 104.375 131.207031 103.835938 131.207031 103.097656 C 131.207031 102.359375 131.757812 101.820312 132.488281 101.820312 C 133.011719 101.820312 133.429688 102.089844 133.640625 102.507812 L 134.707031 101.964844 C 134.292969 101.15625 133.453125 100.605469 132.488281 100.605469 C 131.109375 100.605469 130.003906 101.722656 130.003906 103.097656 C 130.003906 104.472656 131.109375 105.589844 132.488281 105.589844 Z M 132.488281 105.589844"/><path d="M 136.070312 107.441406 C 137.25 107.464844 138.167969 106.535156 138.167969 103.671875 C 138.167969 100.792969 137.25 99.847656 136.070312 99.871094 L 136.070312 100.722656 C 136.652344 100.695312 137.125 101.402344 137.125 103.671875 C 137.125 105.925781 136.652344 106.613281 136.070312 106.589844 Z M 136.070312 107.441406"/><path d="M 143.777344 107.8125 L 144.3125 107.8125 L 144.3125 107.148438 C 143.820312 107.148438 143.777344 107.125 143.777344 106.882812 L 143.777344 105.105469 C 143.777344 104.554688 143.671875 104.203125 143.472656 103.941406 C 143.671875 103.679688 143.777344 103.332031 143.777344 102.785156 L 143.777344 101.050781 C 143.777344 100.632812 143.890625 100.710938 144.3125 100.710938 L 144.3125 100.058594 L 143.777344 100.058594 C 143.269531 100.058594 142.882812 100.550781 142.882812 101.15625 L 142.882812 102.6875 C 142.882812 103.425781 142.785156 103.453125 142.398438 103.605469 L 142.398438 104.277344 C 142.792969 104.433594 142.882812 104.472656 142.882812 105.203125 L 142.882812 106.71875 C 142.882812 107.335938 143.269531 107.8125 143.777344 107.8125 Z M 143.777344 107.8125"/><path d="M 150.898438 105.589844 C 151.863281 105.589844 152.703125 105.039062 153.117188 104.230469 L 152.050781 103.6875 C 151.839844 104.105469 151.417969 104.375 150.898438 104.375 C 150.164062 104.375 149.617188 103.835938 149.617188 103.097656 C 149.617188 102.359375 150.164062 101.820312 150.898438 101.820312 C 151.417969 101.820312 151.839844 102.089844 152.050781 102.507812 L 153.117188 101.964844 C 152.703125 101.15625 151.863281 100.605469 150.898438 100.605469 C 149.519531 100.605469 148.410156 101.722656 148.410156 103.097656 C 148.410156 104.472656 149.519531 105.589844 150.898438 105.589844 Z M 150.898438 105.589844"/><path d="M 156.847656 105.589844 C 158.226562 105.589844 159.339844 104.472656 159.339844 103.097656 C 159.339844 101.722656 158.226562 100.605469 156.847656 100.605469 C 155.46875 100.605469 154.363281 101.722656 154.363281 103.097656 C 154.363281 104.472656 155.46875 105.589844 156.847656 105.589844 Z M 156.847656 104.375 C 156.117188 104.375 155.566406 103.835938 155.566406 103.097656 C 155.566406 102.359375 156.117188 101.820312 156.847656 101.820312 C 157.578125 101.820312 158.128906 102.359375 158.128906 103.097656 C 158.128906 103.835938 157.578125 104.375 156.847656 104.375 Z M 156.847656 104.375"/><path d="M 160.828125 105.523438 L 162.515625 105.523438 C 163.84375 105.523438 164.941406 104.441406 164.941406 103.097656 C 164.941406 101.753906 163.84375 100.671875 162.515625 100.671875 L 160.828125 100.671875 Z M 162.066406 104.449219 L 162.066406 101.746094 L 162.515625 101.746094 C 163.183594 101.746094 163.710938 102.335938 163.710938 103.097656 C 163.710938 103.859375 163.183594 104.449219 162.515625 104.449219 Z M 162.066406 104.449219"/><path d="M 166.472656 105.523438 L 167.710938 105.523438 L 167.710938 100.671875 L 166.472656 100.671875 Z M 166.472656 105.523438"/><path d="M 172.898438 100.671875 L 172.898438 103.640625 L 170.703125 100.671875 L 169.410156 100.671875 L 169.410156 105.523438 L 170.644531 105.523438 L 170.644531 102.546875 L 172.832031 105.523438 L 174.132812 105.523438 L 174.132812 100.671875 Z M 172.898438 100.671875"/><path d="M 178.109375 102.828125 L 178.109375 103.777344 L 179.21875 103.777344 C 178.992188 104.140625 178.597656 104.375 178.117188 104.375 C 177.386719 104.375 176.835938 103.835938 176.835938 103.097656 C 176.835938 102.359375 177.386719 101.820312 178.117188 101.820312 C 178.636719 101.820312 179.058594 102.089844 179.269531 102.507812 L 180.335938 101.964844 C 179.921875 101.15625 179.082031 100.605469 178.117188 100.605469 C 176.738281 100.605469 175.628906 101.722656 175.628906 103.097656 C 175.628906 104.472656 176.738281 105.589844 178.117188 105.589844 C 179.492188 105.589844 180.609375 104.472656 180.609375 103.097656 L 180.609375 102.828125 Z M 178.109375 102.828125"/><path d="M 186.492188 105.523438 L 187.378906 105.523438 L 187.378906 103.964844 L 188.9375 103.964844 L 188.9375 103.074219 L 187.378906 103.074219 L 187.378906 101.515625 L 186.492188 101.515625 L 186.492188 103.074219 L 184.929688 103.074219 L 184.929688 103.964844 L 186.492188 103.964844 Z M 186.492188 105.523438"/><path d="M 192.394531 105.523438 L 193.28125 105.523438 L 193.28125 103.964844 L 194.839844 103.964844 L 194.839844 103.074219 L 193.28125 103.074219 L 193.28125 101.515625 L 192.394531 101.515625 L 192.394531 103.074219 L 190.832031 103.074219 L 190.832031 103.964844 L 192.394531 103.964844 Z M 192.394531 105.523438"/><path d="M 197.382812 103.5 C 197.734375 103.5 198.027344 103.210938 198.027344 102.855469 C 198.027344 102.515625 197.734375 102.222656 197.382812 102.222656 C 197.042969 102.222656 196.75 102.515625 196.75 102.855469 C 196.75 103.210938 197.042969 103.5 197.382812 103.5 Z M 197.042969 106.730469 L 198.214844 104.65625 L 197.085938 104.65625 L 196.339844 106.730469 Z M 197.042969 106.730469"/><path d="M 202.449219 107.8125 L 202.980469 107.8125 C 203.496094 107.8125 203.875 107.335938 203.875 106.71875 L 203.875 105.203125 C 203.875 104.472656 203.972656 104.433594 204.359375 104.277344 L 204.359375 103.605469 C 203.980469 103.453125 203.875 103.425781 203.875 102.6875 L 203.875 101.15625 C 203.875 100.550781 203.496094 100.058594 202.980469 100.058594 L 202.449219 100.058594 L 202.449219 100.710938 C 202.875 100.710938 202.980469 100.632812 202.980469 101.050781 L 202.980469 102.785156 C 202.980469 103.332031 203.089844 103.679688 203.292969 103.941406 C 203.089844 104.203125 202.980469 104.554688 202.980469 105.105469 L 202.980469 106.882812 C 202.980469 107.125 202.9375 107.148438 202.449219 107.148438 Z M 202.449219 107.8125"/></svg>