<svg xmlns="http://www.w3.org/2000/svg" width="375" viewBox="0 0 375 375" height="375" version="1.0"><defs><clipPath id="a"><path d="M 198.359375 132.554688 L 209.332031 132.554688 L 209.332031 146 L 198.359375 146 Z M 198.359375 132.554688"/></clipPath><clipPath id="b"><path d="M 210.375 132.554688 L 215.582031 132.554688 L 215.582031 146 L 210.375 146 Z M 210.375 132.554688"/></clipPath><clipPath id="c"><path d="M 217 132.554688 L 228 132.554688 L 228 146 L 217 146 Z M 217 132.554688"/></clipPath><clipPath id="d"><path d="M 229.128906 132.554688 L 234.308594 132.554688 L 234.308594 146 L 229.128906 146 Z M 229.128906 132.554688"/></clipPath><clipPath id="e"><path d="M 229.128906 147.074219 L 234.308594 147.074219 L 234.308594 160.621094 L 229.128906 160.621094 Z M 229.128906 147.074219"/></clipPath><clipPath id="f"><path d="M 198.359375 162 L 209.332031 162 L 209.332031 174.757812 L 198.359375 174.757812 Z M 198.359375 162"/></clipPath><clipPath id="g"><path d="M 210.375 161.664062 L 215.582031 161.664062 L 215.582031 174.757812 L 210.375 174.757812 Z M 210.375 161.664062"/></clipPath><clipPath id="h"><path d="M 217 162 L 228 162 L 228 174.757812 L 217 174.757812 Z M 217 162"/></clipPath><clipPath id="i"><path d="M 229.128906 161.664062 L 234.308594 161.664062 L 234.308594 174.757812 L 229.128906 174.757812 Z M 229.128906 161.664062"/></clipPath><clipPath id="j"><path d="M 132.804688 132.554688 L 143.683594 132.554688 L 143.683594 146 L 132.804688 146 Z M 132.804688 132.554688"/></clipPath><clipPath id="k"><path d="M 145 132.554688 L 150 132.554688 L 150 146 L 145 146 Z M 145 132.554688"/></clipPath><clipPath id="l"><path d="M 151 132.554688 L 162.441406 132.554688 L 162.441406 146 L 151 146 Z M 151 132.554688"/></clipPath><clipPath id="m"><path d="M 163.484375 132.554688 L 168.753906 132.554688 L 168.753906 146 L 163.484375 146 Z M 163.484375 132.554688"/></clipPath><clipPath id="n"><path d="M 163.484375 147.074219 L 168.753906 147.074219 L 168.753906 160.621094 L 163.484375 160.621094 Z M 163.484375 147.074219"/></clipPath><clipPath id="o"><path d="M 132.804688 162 L 143.683594 162 L 143.683594 174.757812 L 132.804688 174.757812 Z M 132.804688 162"/></clipPath><clipPath id="p"><path d="M 145 161.664062 L 150 161.664062 L 150 174.757812 L 145 174.757812 Z M 145 161.664062"/></clipPath><clipPath id="q"><path d="M 151 162 L 162.441406 162 L 162.441406 174.757812 L 151 174.757812 Z M 151 162"/></clipPath><clipPath id="r"><path d="M 163.484375 161.664062 L 168.753906 161.664062 L 168.753906 174.757812 L 163.484375 174.757812 Z M 163.484375 161.664062"/></clipPath><clipPath id="s"><path d="M 96.632812 125.191406 L 270.90625 125.191406 L 270.90625 182.421875 L 96.632812 182.421875 Z M 96.632812 125.191406"/></clipPath></defs><g clip-path="url(#a)"><path fill="#100F0D" d="M 200.585938 139.527344 C 200.585938 138.960938 200.644531 138.382812 200.761719 137.820312 C 200.878906 137.277344 201.066406 136.785156 201.320312 136.363281 C 201.570312 135.945312 201.882812 135.625 202.277344 135.367188 C 202.652344 135.128906 203.128906 135.007812 203.695312 135.007812 C 204.242188 135.007812 204.714844 135.128906 205.097656 135.359375 C 205.496094 135.605469 205.8125 135.917969 206.058594 136.316406 C 206.316406 136.738281 206.507812 137.226562 206.628906 137.773438 C 206.753906 138.339844 206.820312 138.929688 206.820312 139.527344 C 206.820312 140.082031 206.753906 140.601562 206.628906 141.074219 C 206.507812 141.527344 206.3125 141.925781 206.050781 142.257812 C 205.796875 142.582031 205.476562 142.835938 205.070312 143.019531 C 204.289062 143.390625 202.972656 143.421875 202.199219 143.019531 C 201.824219 142.828125 201.523438 142.578125 201.289062 142.253906 C 201.046875 141.925781 200.871094 141.527344 200.757812 141.070312 C 200.640625 140.59375 200.585938 140.078125 200.585938 139.527344 Z M 199.554688 143.46875 C 199.96875 144.054688 200.519531 144.542969 201.179688 144.917969 C 201.851562 145.296875 202.667969 145.492188 203.605469 145.492188 C 204.515625 145.492188 205.332031 145.308594 206.015625 144.949219 C 206.695312 144.59375 207.265625 144.125 207.707031 143.554688 C 208.152344 142.992188 208.480469 142.34375 208.691406 141.640625 C 208.898438 140.945312 209.007812 140.234375 209.007812 139.527344 C 209.007812 139.097656 208.96875 138.625 208.894531 138.128906 C 208.824219 137.636719 208.699219 137.140625 208.535156 136.648438 C 208.371094 136.160156 208.152344 135.683594 207.890625 135.234375 C 207.617188 134.769531 207.28125 134.359375 206.890625 134 C 206.492188 133.640625 206.019531 133.351562 205.488281 133.132812 C 204.414062 132.703125 202.910156 132.703125 201.839844 133.148438 C 201.304688 133.367188 200.835938 133.667969 200.441406 134.039062 C 200.054688 134.40625 199.726562 134.828125 199.453125 135.300781 C 199.1875 135.761719 198.976562 136.238281 198.816406 136.730469 C 198.65625 137.214844 198.542969 137.710938 198.472656 138.195312 C 198.402344 138.671875 198.371094 139.121094 198.371094 139.527344 C 198.371094 140.1875 198.464844 140.867188 198.652344 141.550781 C 198.84375 142.246094 199.144531 142.890625 199.554688 143.46875"/></g><g clip-path="url(#b)"><path fill="#100F0D" d="M 212.070312 137.074219 Z M 211.542969 137.640625 C 211.804688 137.691406 212.074219 137.644531 212.402344 137.449219 C 212.574219 137.292969 212.734375 137.136719 212.878906 136.972656 C 212.996094 136.84375 213.117188 136.714844 213.25 136.578125 L 213.296875 140.527344 L 213.238281 144.550781 C 213.238281 145.023438 213.496094 145.25 213.644531 145.339844 C 213.839844 145.460938 214.070312 145.519531 214.320312 145.519531 C 214.570312 145.519531 214.808594 145.457031 215.035156 145.324219 C 215.332031 145.148438 215.496094 144.863281 215.496094 144.515625 L 215.371094 133.765625 C 215.335938 133.542969 215.246094 133.339844 215.097656 133.164062 C 214.972656 133.007812 214.8125 132.871094 214.621094 132.75 C 214.394531 132.613281 214.144531 132.550781 213.886719 132.570312 C 213.550781 132.59375 213.28125 132.777344 213.144531 133.074219 C 213.140625 133.085938 213.136719 133.097656 213.132812 133.105469 C 213.011719 133.328125 212.886719 133.542969 212.761719 133.742188 C 212.625 133.964844 212.46875 134.1875 212.308594 134.410156 C 212.148438 134.628906 211.964844 134.851562 211.757812 135.074219 C 211.574219 135.28125 211.367188 135.488281 211.140625 135.703125 C 211.109375 135.722656 211.078125 135.742188 211.054688 135.769531 C 210.78125 136.027344 210.640625 136.304688 210.640625 136.59375 C 210.640625 136.871094 210.734375 137.117188 210.910156 137.300781 C 211.074219 137.472656 211.285156 137.585938 211.542969 137.640625"/></g><g clip-path="url(#c)"><path fill="#100F0D" d="M 225.613281 139.527344 C 225.613281 140.082031 225.546875 140.601562 225.417969 141.074219 C 225.296875 141.527344 225.105469 141.925781 224.84375 142.257812 C 224.585938 142.582031 224.265625 142.835938 223.863281 143.019531 C 223.082031 143.390625 221.761719 143.421875 220.992188 143.019531 C 220.613281 142.828125 220.316406 142.578125 220.078125 142.253906 C 219.835938 141.925781 219.660156 141.527344 219.550781 141.070312 C 219.433594 140.59375 219.378906 140.078125 219.378906 139.527344 C 219.378906 138.960938 219.433594 138.382812 219.554688 137.820312 C 219.671875 137.277344 219.851562 136.785156 220.109375 136.363281 C 220.363281 135.945312 220.675781 135.625 221.070312 135.367188 C 221.445312 135.128906 221.921875 135.007812 222.488281 135.007812 C 223.035156 135.007812 223.507812 135.128906 223.886719 135.359375 C 224.285156 135.605469 224.601562 135.917969 224.847656 136.316406 C 225.109375 136.738281 225.300781 137.226562 225.421875 137.773438 C 225.546875 138.339844 225.613281 138.929688 225.613281 139.527344 Z M 227.328125 136.648438 C 227.164062 136.160156 226.945312 135.683594 226.683594 135.234375 C 226.410156 134.769531 226.074219 134.359375 225.683594 134 C 225.28125 133.640625 224.8125 133.351562 224.28125 133.132812 C 223.207031 132.703125 221.695312 132.703125 220.628906 133.148438 C 220.097656 133.367188 219.625 133.667969 219.234375 134.039062 C 218.847656 134.40625 218.515625 134.828125 218.246094 135.300781 C 217.980469 135.761719 217.765625 136.238281 217.605469 136.730469 C 217.449219 137.214844 217.332031 137.710938 217.265625 138.195312 C 217.195312 138.671875 217.160156 139.121094 217.160156 139.527344 C 217.160156 140.1875 217.257812 140.867188 217.445312 141.550781 C 217.632812 142.246094 217.9375 142.890625 218.347656 143.46875 C 218.761719 144.054688 219.308594 144.542969 219.972656 144.917969 C 220.644531 145.296875 221.457031 145.492188 222.398438 145.492188 C 223.308594 145.492188 224.117188 145.308594 224.808594 144.949219 C 225.488281 144.59375 226.054688 144.125 226.5 143.554688 C 226.941406 142.992188 227.273438 142.34375 227.480469 141.640625 C 227.691406 140.945312 227.796875 140.234375 227.796875 139.527344 C 227.796875 139.097656 227.761719 138.625 227.6875 138.128906 C 227.617188 137.636719 227.492188 137.140625 227.328125 136.648438"/></g><g clip-path="url(#d)"><path fill="#100F0D" d="M 230.863281 137.074219 Z M 230.332031 137.640625 C 230.597656 137.691406 230.867188 137.644531 231.1875 137.449219 C 231.367188 137.292969 231.527344 137.136719 231.671875 136.972656 C 231.789062 136.84375 231.910156 136.714844 232.042969 136.578125 L 232.089844 140.527344 L 232.027344 144.550781 C 232.027344 145.023438 232.289062 145.25 232.4375 145.339844 C 232.632812 145.460938 232.859375 145.519531 233.113281 145.519531 C 233.363281 145.519531 233.601562 145.457031 233.828125 145.324219 C 234.125 145.148438 234.289062 144.863281 234.289062 144.515625 L 234.164062 133.765625 C 234.128906 133.542969 234.039062 133.339844 233.890625 133.164062 C 233.765625 133.007812 233.605469 132.871094 233.414062 132.75 C 233.1875 132.613281 232.9375 132.550781 232.679688 132.570312 C 232.34375 132.59375 232.074219 132.777344 231.9375 133.074219 C 231.933594 133.085938 231.929688 133.097656 231.925781 133.105469 C 231.804688 133.328125 231.675781 133.542969 231.554688 133.742188 C 231.414062 133.964844 231.261719 134.1875 231.097656 134.410156 C 230.9375 134.628906 230.753906 134.851562 230.550781 135.074219 C 230.367188 135.28125 230.160156 135.488281 229.929688 135.703125 C 229.898438 135.722656 229.871094 135.742188 229.847656 135.769531 C 229.570312 136.027344 229.429688 136.304688 229.429688 136.59375 C 229.429688 136.871094 229.527344 137.117188 229.703125 137.300781 C 229.867188 137.472656 230.078125 137.585938 230.332031 137.640625"/></g><path fill="#100F0D" d="M 201.25 151.671875 Z M 202.824219 159.941406 C 203.019531 160.058594 203.246094 160.121094 203.5 160.121094 C 203.746094 160.121094 203.988281 160.050781 204.210938 159.921875 C 204.507812 159.746094 204.675781 159.460938 204.675781 159.117188 L 204.550781 148.363281 C 204.511719 148.140625 204.421875 147.9375 204.277344 147.757812 C 204.148438 147.605469 203.992188 147.46875 203.800781 147.351562 C 203.570312 147.214844 203.324219 147.148438 203.0625 147.167969 C 202.730469 147.1875 202.457031 147.371094 202.324219 147.671875 C 202.316406 147.683594 202.3125 147.695312 202.308594 147.707031 C 202.1875 147.929688 202.0625 148.140625 201.941406 148.339844 C 201.800781 148.566406 201.648438 148.785156 201.484375 149.007812 C 201.324219 149.226562 201.136719 149.449219 200.933594 149.671875 C 200.75 149.875 200.542969 150.085938 200.316406 150.300781 C 200.289062 150.320312 200.253906 150.339844 200.230469 150.367188 C 199.957031 150.625 199.820312 150.90625 199.820312 151.195312 C 199.820312 151.46875 199.914062 151.710938 200.085938 151.898438 C 200.25 152.074219 200.460938 152.183594 200.71875 152.238281 C 200.984375 152.289062 201.25 152.246094 201.578125 152.046875 C 201.753906 151.890625 201.910156 151.734375 202.058594 151.574219 C 202.175781 151.441406 202.292969 151.3125 202.429688 151.179688 L 202.472656 155.121094 L 202.417969 159.148438 C 202.417969 159.621094 202.671875 159.847656 202.824219 159.941406"/><path fill="#100F0D" d="M 214.789062 154.128906 C 214.789062 154.679688 214.726562 155.199219 214.597656 155.671875 C 214.476562 156.128906 214.28125 156.523438 214.019531 156.851562 C 213.769531 157.179688 213.445312 157.429688 213.039062 157.621094 C 212.261719 157.988281 210.941406 158.015625 210.171875 157.621094 C 209.796875 157.425781 209.496094 157.171875 209.257812 156.851562 C 209.019531 156.523438 208.839844 156.128906 208.730469 155.671875 C 208.613281 155.195312 208.554688 154.675781 208.554688 154.128906 C 208.554688 153.554688 208.613281 152.980469 208.734375 152.417969 C 208.847656 151.875 209.035156 151.382812 209.289062 150.957031 C 209.539062 150.546875 209.851562 150.222656 210.246094 149.96875 C 210.625 149.730469 211.097656 149.605469 211.664062 149.605469 C 212.214844 149.605469 212.683594 149.726562 213.066406 149.957031 C 213.46875 150.203125 213.78125 150.515625 214.027344 150.917969 C 214.285156 151.332031 214.476562 151.824219 214.597656 152.371094 C 214.726562 152.9375 214.789062 153.53125 214.789062 154.128906 Z M 216.507812 151.242188 C 216.339844 150.753906 216.121094 150.277344 215.859375 149.832031 C 215.585938 149.371094 215.253906 148.957031 214.859375 148.601562 C 214.460938 148.238281 213.988281 147.945312 213.457031 147.734375 C 212.382812 147.304688 210.878906 147.300781 209.808594 147.742188 C 209.273438 147.960938 208.804688 148.265625 208.410156 148.636719 C 208.027344 149 207.695312 149.425781 207.421875 149.894531 C 207.160156 150.355469 206.945312 150.835938 206.789062 151.324219 C 206.625 151.8125 206.511719 152.304688 206.441406 152.789062 C 206.371094 153.269531 206.339844 153.71875 206.339844 154.128906 C 206.339844 154.789062 206.433594 155.46875 206.621094 156.148438 C 206.8125 156.84375 207.113281 157.492188 207.523438 158.066406 C 207.945312 158.65625 208.488281 159.144531 209.148438 159.519531 C 209.820312 159.898438 210.636719 160.089844 211.574219 160.089844 C 212.488281 160.089844 213.300781 159.90625 213.984375 159.546875 C 214.664062 159.191406 215.234375 158.722656 215.675781 158.15625 C 216.121094 157.589844 216.449219 156.941406 216.664062 156.238281 C 216.871094 155.542969 216.980469 154.832031 216.980469 154.128906 C 216.980469 153.699219 216.9375 153.226562 216.867188 152.730469 C 216.792969 152.238281 216.675781 151.734375 216.507812 151.242188"/><path fill="#100F0D" d="M 225.613281 154.128906 C 225.613281 154.679688 225.546875 155.199219 225.417969 155.671875 C 225.296875 156.128906 225.105469 156.523438 224.84375 156.851562 C 224.585938 157.179688 224.265625 157.429688 223.863281 157.621094 C 223.082031 157.988281 221.761719 158.015625 220.992188 157.621094 C 220.613281 157.425781 220.316406 157.171875 220.078125 156.851562 C 219.835938 156.523438 219.660156 156.128906 219.550781 155.671875 C 219.433594 155.195312 219.378906 154.675781 219.378906 154.128906 C 219.378906 153.554688 219.433594 152.980469 219.554688 152.417969 C 219.671875 151.875 219.851562 151.382812 220.109375 150.957031 C 220.363281 150.546875 220.675781 150.222656 221.070312 149.96875 C 221.445312 149.730469 221.921875 149.605469 222.488281 149.605469 C 223.035156 149.605469 223.507812 149.726562 223.886719 149.957031 C 224.285156 150.203125 224.601562 150.515625 224.847656 150.917969 C 225.109375 151.332031 225.300781 151.824219 225.421875 152.371094 C 225.546875 152.9375 225.613281 153.53125 225.613281 154.128906 Z M 227.328125 151.242188 C 227.164062 150.753906 226.945312 150.277344 226.683594 149.832031 C 226.410156 149.371094 226.074219 148.957031 225.683594 148.601562 C 225.28125 148.238281 224.8125 147.945312 224.28125 147.734375 C 223.207031 147.304688 221.695312 147.300781 220.628906 147.742188 C 220.097656 147.960938 219.625 148.265625 219.234375 148.636719 C 218.847656 149 218.515625 149.425781 218.246094 149.894531 C 217.980469 150.355469 217.765625 150.835938 217.605469 151.324219 C 217.449219 151.8125 217.332031 152.304688 217.265625 152.789062 C 217.195312 153.269531 217.160156 153.71875 217.160156 154.128906 C 217.160156 154.789062 217.257812 155.46875 217.445312 156.148438 C 217.632812 156.84375 217.9375 157.492188 218.347656 158.066406 C 218.761719 158.65625 219.308594 159.144531 219.972656 159.519531 C 220.644531 159.898438 221.457031 160.089844 222.398438 160.089844 C 223.308594 160.089844 224.117188 159.90625 224.808594 159.546875 C 225.488281 159.191406 226.054688 158.722656 226.5 158.15625 C 226.941406 157.589844 227.273438 156.941406 227.480469 156.238281 C 227.691406 155.542969 227.796875 154.832031 227.796875 154.128906 C 227.796875 153.699219 227.761719 153.226562 227.6875 152.730469 C 227.617188 152.238281 227.492188 151.734375 227.328125 151.242188"/><g clip-path="url(#e)"><path fill="#100F0D" d="M 230.863281 151.671875 Z M 233.890625 147.757812 C 233.765625 147.605469 233.605469 147.46875 233.414062 147.351562 C 233.1875 147.214844 232.9375 147.148438 232.679688 147.167969 C 232.34375 147.1875 232.074219 147.371094 231.9375 147.671875 C 231.933594 147.683594 231.929688 147.695312 231.925781 147.707031 C 231.804688 147.929688 231.675781 148.140625 231.554688 148.339844 C 231.414062 148.566406 231.261719 148.785156 231.097656 149.007812 C 230.9375 149.226562 230.753906 149.449219 230.550781 149.671875 C 230.367188 149.875 230.160156 150.085938 229.929688 150.300781 C 229.898438 150.320312 229.871094 150.339844 229.847656 150.367188 C 229.570312 150.625 229.429688 150.90625 229.429688 151.195312 C 229.429688 151.46875 229.527344 151.710938 229.703125 151.898438 C 229.867188 152.074219 230.078125 152.183594 230.332031 152.238281 C 230.597656 152.289062 230.867188 152.246094 231.1875 152.046875 C 231.367188 151.890625 231.527344 151.734375 231.671875 151.574219 C 231.789062 151.441406 231.910156 151.3125 232.042969 151.179688 L 232.089844 155.121094 L 232.027344 159.148438 C 232.027344 159.621094 232.289062 159.847656 232.4375 159.941406 C 232.632812 160.058594 232.859375 160.121094 233.113281 160.121094 C 233.363281 160.121094 233.601562 160.050781 233.828125 159.921875 C 234.125 159.746094 234.289062 159.460938 234.289062 159.117188 L 234.164062 148.363281 C 234.128906 148.140625 234.039062 147.9375 233.890625 147.757812"/></g><g clip-path="url(#f)"><path fill="#100F0D" d="M 206.820312 168.765625 C 206.820312 169.320312 206.753906 169.835938 206.628906 170.3125 C 206.507812 170.765625 206.3125 171.164062 206.050781 171.488281 C 205.796875 171.820312 205.476562 172.066406 205.070312 172.257812 C 204.289062 172.625 202.972656 172.652344 202.199219 172.257812 C 201.824219 172.0625 201.523438 171.8125 201.289062 171.488281 C 201.046875 171.160156 200.871094 170.765625 200.757812 170.308594 C 200.640625 169.832031 200.585938 169.316406 200.585938 168.765625 C 200.585938 168.191406 200.644531 167.617188 200.761719 167.054688 C 200.878906 166.511719 201.066406 166.023438 201.320312 165.597656 C 201.570312 165.183594 201.882812 164.859375 202.277344 164.605469 C 202.652344 164.367188 203.128906 164.242188 203.695312 164.242188 C 204.242188 164.242188 204.714844 164.363281 205.097656 164.597656 C 205.496094 164.84375 205.8125 165.15625 206.058594 165.554688 C 206.316406 165.972656 206.507812 166.460938 206.628906 167.011719 C 206.753906 167.578125 206.820312 168.167969 206.820312 168.765625 Z M 208.535156 165.882812 C 208.371094 165.390625 208.152344 164.917969 207.890625 164.46875 C 207.617188 164.007812 207.28125 163.59375 206.890625 163.238281 C 206.492188 162.875 206.019531 162.582031 205.488281 162.371094 C 204.414062 161.941406 202.910156 161.9375 201.839844 162.378906 C 201.304688 162.597656 200.835938 162.902344 200.441406 163.273438 C 200.054688 163.636719 199.726562 164.066406 199.453125 164.535156 C 199.1875 164.996094 198.976562 165.476562 198.816406 165.960938 C 198.65625 166.449219 198.542969 166.941406 198.472656 167.425781 C 198.402344 167.90625 198.371094 168.355469 198.371094 168.765625 C 198.371094 169.425781 198.464844 170.105469 198.652344 170.789062 C 198.84375 171.480469 199.144531 172.128906 199.554688 172.707031 C 199.96875 173.292969 200.519531 173.78125 201.179688 174.15625 C 201.851562 174.535156 202.667969 174.726562 203.605469 174.726562 C 204.515625 174.726562 205.332031 174.546875 206.015625 174.183594 C 206.695312 173.828125 207.265625 173.363281 207.707031 172.792969 C 208.152344 172.226562 208.480469 171.582031 208.691406 170.875 C 208.898438 170.179688 209.007812 169.46875 209.007812 168.765625 C 209.007812 168.335938 208.96875 167.863281 208.894531 167.367188 C 208.824219 166.875 208.699219 166.371094 208.535156 165.882812"/></g><g clip-path="url(#g)"><path fill="#100F0D" d="M 212.070312 166.308594 Z M 215.097656 162.394531 C 214.972656 162.246094 214.8125 162.105469 214.621094 161.988281 C 214.394531 161.851562 214.144531 161.789062 213.886719 161.804688 C 213.550781 161.824219 213.28125 162.011719 213.144531 162.308594 C 213.140625 162.324219 213.136719 162.332031 213.132812 162.34375 C 213.011719 162.566406 212.886719 162.777344 212.761719 162.976562 C 212.625 163.203125 212.46875 163.421875 212.308594 163.644531 C 212.148438 163.867188 211.964844 164.089844 211.757812 164.308594 C 211.574219 164.515625 211.367188 164.722656 211.140625 164.941406 C 211.109375 164.957031 211.078125 164.980469 211.054688 165.003906 C 210.78125 165.265625 210.640625 165.542969 210.640625 165.832031 C 210.640625 166.105469 210.734375 166.347656 210.910156 166.539062 C 211.074219 166.710938 211.285156 166.824219 211.542969 166.875 C 211.804688 166.925781 212.074219 166.882812 212.402344 166.6875 C 212.574219 166.53125 212.734375 166.371094 212.878906 166.210938 C 212.996094 166.078125 213.117188 165.953125 213.25 165.816406 L 213.296875 169.757812 L 213.238281 173.789062 C 213.238281 174.257812 213.496094 174.484375 213.644531 174.578125 C 213.839844 174.695312 214.070312 174.757812 214.320312 174.757812 C 214.570312 174.757812 214.808594 174.691406 215.035156 174.5625 C 215.332031 174.382812 215.496094 174.097656 215.496094 173.753906 L 215.371094 163 C 215.335938 162.777344 215.246094 162.574219 215.097656 162.394531"/></g><g clip-path="url(#h)"><path fill="#100F0D" d="M 225.613281 168.765625 C 225.613281 169.320312 225.546875 169.835938 225.417969 170.3125 C 225.296875 170.765625 225.105469 171.164062 224.84375 171.488281 C 224.585938 171.820312 224.265625 172.066406 223.863281 172.257812 C 223.082031 172.625 221.761719 172.652344 220.992188 172.257812 C 220.613281 172.0625 220.316406 171.8125 220.078125 171.488281 C 219.835938 171.160156 219.660156 170.765625 219.550781 170.308594 C 219.433594 169.832031 219.378906 169.316406 219.378906 168.765625 C 219.378906 168.191406 219.433594 167.617188 219.554688 167.054688 C 219.671875 166.511719 219.851562 166.023438 220.109375 165.597656 C 220.363281 165.183594 220.675781 164.859375 221.070312 164.605469 C 221.445312 164.367188 221.921875 164.242188 222.488281 164.242188 C 223.035156 164.242188 223.507812 164.363281 223.886719 164.597656 C 224.285156 164.84375 224.601562 165.15625 224.847656 165.554688 C 225.109375 165.972656 225.300781 166.460938 225.421875 167.011719 C 225.546875 167.578125 225.613281 168.167969 225.613281 168.765625 Z M 227.328125 165.882812 C 227.164062 165.390625 226.945312 164.917969 226.683594 164.46875 C 226.410156 164.007812 226.074219 163.59375 225.683594 163.238281 C 225.28125 162.875 224.8125 162.582031 224.28125 162.371094 C 223.207031 161.941406 221.695312 161.9375 220.628906 162.378906 C 220.097656 162.597656 219.625 162.902344 219.234375 163.273438 C 218.847656 163.636719 218.515625 164.066406 218.246094 164.535156 C 217.980469 164.996094 217.765625 165.476562 217.605469 165.960938 C 217.449219 166.449219 217.332031 166.941406 217.265625 167.425781 C 217.195312 167.90625 217.160156 168.355469 217.160156 168.765625 C 217.160156 169.425781 217.257812 170.105469 217.445312 170.789062 C 217.632812 171.480469 217.9375 172.128906 218.347656 172.707031 C 218.761719 173.292969 219.308594 173.78125 219.972656 174.15625 C 220.644531 174.535156 221.457031 174.726562 222.398438 174.726562 C 223.308594 174.726562 224.117188 174.546875 224.808594 174.183594 C 225.488281 173.828125 226.054688 173.363281 226.5 172.792969 C 226.941406 172.226562 227.273438 171.582031 227.480469 170.875 C 227.691406 170.179688 227.796875 169.46875 227.796875 168.765625 C 227.796875 168.335938 227.761719 167.863281 227.6875 167.367188 C 227.617188 166.875 227.492188 166.371094 227.328125 165.882812"/></g><g clip-path="url(#i)"><path fill="#100F0D" d="M 230.863281 166.308594 Z M 233.890625 162.394531 C 233.765625 162.246094 233.605469 162.105469 233.414062 161.988281 C 233.1875 161.851562 232.9375 161.789062 232.679688 161.804688 C 232.34375 161.824219 232.074219 162.011719 231.9375 162.308594 C 231.933594 162.324219 231.929688 162.332031 231.925781 162.34375 C 231.804688 162.566406 231.675781 162.777344 231.554688 162.976562 C 231.414062 163.203125 231.261719 163.421875 231.097656 163.644531 C 230.9375 163.867188 230.753906 164.089844 230.550781 164.308594 C 230.367188 164.515625 230.160156 164.722656 229.929688 164.941406 C 229.898438 164.957031 229.871094 164.980469 229.847656 165.003906 C 229.570312 165.265625 229.429688 165.542969 229.429688 165.832031 C 229.429688 166.105469 229.527344 166.347656 229.703125 166.539062 C 229.867188 166.710938 230.078125 166.824219 230.332031 166.875 C 230.597656 166.925781 230.867188 166.882812 231.1875 166.6875 C 231.367188 166.53125 231.527344 166.371094 231.671875 166.210938 C 231.789062 166.078125 231.910156 165.953125 232.042969 165.816406 L 232.089844 169.757812 L 232.027344 173.789062 C 232.027344 174.257812 232.289062 174.484375 232.4375 174.578125 C 232.632812 174.695312 232.859375 174.757812 233.113281 174.757812 C 233.363281 174.757812 233.601562 174.691406 233.828125 174.5625 C 234.125 174.382812 234.289062 174.097656 234.289062 173.753906 L 234.164062 163 C 234.128906 162.777344 234.039062 162.574219 233.890625 162.394531"/></g><g clip-path="url(#j)"><path fill="#100F0D" d="M 135.03125 139.527344 C 135.03125 138.960938 135.089844 138.382812 135.210938 137.820312 C 135.324219 137.277344 135.507812 136.785156 135.765625 136.363281 C 136.015625 135.945312 136.332031 135.625 136.726562 135.367188 C 137.101562 135.128906 137.574219 135.007812 138.140625 135.007812 C 138.691406 135.007812 139.164062 135.128906 139.542969 135.359375 C 139.941406 135.605469 140.257812 135.917969 140.503906 136.316406 C 140.761719 136.738281 140.953125 137.226562 141.078125 137.773438 C 141.203125 138.339844 141.269531 138.929688 141.269531 139.527344 C 141.269531 140.082031 141.203125 140.601562 141.074219 141.074219 C 140.949219 141.527344 140.757812 141.925781 140.5 142.257812 C 140.242188 142.582031 139.921875 142.835938 139.511719 143.019531 C 138.734375 143.390625 137.417969 143.421875 136.648438 143.019531 C 136.269531 142.828125 135.972656 142.578125 135.730469 142.253906 C 135.492188 141.925781 135.316406 141.527344 135.207031 141.070312 C 135.089844 140.59375 135.03125 140.078125 135.03125 139.527344 Z M 134.003906 143.46875 C 134.417969 144.054688 134.960938 144.542969 135.625 144.917969 C 136.296875 145.296875 137.113281 145.492188 138.050781 145.492188 C 138.964844 145.492188 139.773438 145.308594 140.460938 144.949219 C 141.140625 144.59375 141.710938 144.125 142.15625 143.554688 C 142.59375 142.992188 142.925781 142.34375 143.136719 141.640625 C 143.347656 140.945312 143.453125 140.234375 143.453125 139.527344 C 143.453125 139.097656 143.417969 138.625 143.34375 138.128906 C 143.269531 137.636719 143.148438 137.140625 142.980469 136.648438 C 142.816406 136.160156 142.597656 135.683594 142.335938 135.234375 C 142.066406 134.769531 141.726562 134.359375 141.332031 134 C 140.9375 133.640625 140.460938 133.351562 139.9375 133.132812 C 138.863281 132.703125 137.351562 132.703125 136.285156 133.148438 C 135.753906 133.367188 135.28125 133.667969 134.890625 134.039062 C 134.503906 134.40625 134.167969 134.828125 133.902344 135.300781 C 133.636719 135.761719 133.421875 136.238281 133.261719 136.730469 C 133.101562 137.214844 132.988281 137.710938 132.917969 138.195312 C 132.851562 138.671875 132.8125 139.121094 132.8125 139.527344 C 132.8125 140.1875 132.90625 140.867188 133.097656 141.550781 C 133.285156 142.246094 133.589844 142.890625 134.003906 143.46875"/></g><g clip-path="url(#k)"><path fill="#100F0D" d="M 146.519531 137.074219 Z M 145.984375 137.640625 C 146.253906 137.691406 146.523438 137.644531 146.84375 137.449219 C 147.023438 137.292969 147.183594 137.136719 147.328125 136.972656 C 147.441406 136.84375 147.566406 136.714844 147.699219 136.578125 L 147.742188 140.527344 L 147.683594 144.550781 C 147.683594 145.023438 147.941406 145.25 148.09375 145.339844 C 148.289062 145.460938 148.511719 145.519531 148.769531 145.519531 C 149.019531 145.519531 149.257812 145.457031 149.476562 145.324219 C 149.777344 145.148438 149.945312 144.863281 149.945312 144.515625 L 149.816406 133.765625 C 149.78125 133.542969 149.691406 133.339844 149.546875 133.164062 C 149.421875 133.007812 149.261719 132.871094 149.070312 132.75 C 148.839844 132.613281 148.589844 132.550781 148.332031 132.570312 C 147.996094 132.59375 147.726562 132.777344 147.59375 133.074219 C 147.589844 133.085938 147.582031 133.097656 147.578125 133.105469 C 147.457031 133.328125 147.332031 133.542969 147.210938 133.742188 C 147.066406 133.964844 146.917969 134.1875 146.753906 134.410156 C 146.589844 134.628906 146.410156 134.851562 146.203125 135.074219 C 146.019531 135.28125 145.8125 135.488281 145.585938 135.703125 C 145.554688 135.722656 145.523438 135.742188 145.5 135.769531 C 145.222656 136.027344 145.085938 136.304688 145.085938 136.59375 C 145.085938 136.871094 145.179688 137.117188 145.359375 137.300781 C 145.519531 137.472656 145.734375 137.585938 145.984375 137.640625"/></g><g clip-path="url(#l)"><path fill="#100F0D" d="M 160.058594 139.527344 C 160.058594 140.082031 159.996094 140.601562 159.863281 141.074219 C 159.742188 141.527344 159.546875 141.925781 159.292969 142.257812 C 159.035156 142.582031 158.714844 142.835938 158.304688 143.019531 C 157.527344 143.390625 156.210938 143.421875 155.441406 143.019531 C 155.0625 142.828125 154.765625 142.578125 154.523438 142.253906 C 154.285156 141.925781 154.105469 141.527344 153.996094 141.070312 C 153.882812 140.59375 153.824219 140.078125 153.824219 139.527344 C 153.824219 138.960938 153.882812 138.382812 154 137.820312 C 154.113281 137.277344 154.300781 136.785156 154.558594 136.363281 C 154.804688 135.945312 155.125 135.625 155.519531 135.367188 C 155.890625 135.128906 156.367188 135.007812 156.933594 135.007812 C 157.480469 135.007812 157.953125 135.128906 158.335938 135.359375 C 158.734375 135.605469 159.046875 135.917969 159.296875 136.316406 C 159.550781 136.738281 159.746094 137.226562 159.867188 137.773438 C 159.996094 138.339844 160.058594 138.929688 160.058594 139.527344 Z M 161.773438 136.648438 C 161.605469 136.160156 161.390625 135.683594 161.125 135.234375 C 160.855469 134.769531 160.519531 134.359375 160.125 134 C 159.726562 133.640625 159.253906 133.351562 158.726562 133.132812 C 157.65625 132.703125 156.144531 132.703125 155.078125 133.148438 C 154.546875 133.367188 154.074219 133.667969 153.683594 134.039062 C 153.296875 134.40625 152.960938 134.828125 152.6875 135.300781 C 152.429688 135.761719 152.210938 136.238281 152.054688 136.730469 C 151.894531 137.214844 151.777344 137.710938 151.707031 138.195312 C 151.644531 138.671875 151.605469 139.121094 151.605469 139.527344 C 151.605469 140.1875 151.699219 140.867188 151.886719 141.550781 C 152.078125 142.246094 152.382812 142.890625 152.792969 143.46875 C 153.210938 144.054688 153.753906 144.542969 154.417969 144.917969 C 155.085938 145.296875 155.90625 145.492188 156.839844 145.492188 C 157.757812 145.492188 158.566406 145.308594 159.253906 144.949219 C 159.933594 144.59375 160.503906 144.125 160.949219 143.554688 C 161.386719 142.992188 161.71875 142.34375 161.929688 141.640625 C 162.140625 140.945312 162.246094 140.234375 162.246094 139.527344 C 162.246094 139.097656 162.210938 138.625 162.132812 138.128906 C 162.058594 137.636719 161.941406 137.140625 161.773438 136.648438"/></g><g clip-path="url(#m)"><path fill="#100F0D" d="M 165.3125 137.074219 Z M 164.777344 137.640625 C 165.042969 137.691406 165.316406 137.644531 165.636719 137.449219 C 165.816406 137.292969 165.972656 137.136719 166.121094 136.972656 C 166.234375 136.84375 166.351562 136.714844 166.492188 136.578125 L 166.535156 140.527344 L 166.476562 144.550781 C 166.476562 145.023438 166.734375 145.25 166.886719 145.339844 C 167.078125 145.460938 167.304688 145.519531 167.5625 145.519531 C 167.808594 145.519531 168.046875 145.457031 168.269531 145.324219 C 168.570312 145.148438 168.734375 144.863281 168.734375 144.515625 L 168.609375 133.765625 C 168.574219 133.542969 168.480469 133.339844 168.335938 133.164062 C 168.214844 133.007812 168.054688 132.871094 167.863281 132.75 C 167.632812 132.613281 167.382812 132.550781 167.125 132.570312 C 166.789062 132.59375 166.519531 132.777344 166.386719 133.074219 C 166.378906 133.085938 166.375 133.097656 166.371094 133.105469 C 166.246094 133.328125 166.125 133.542969 166 133.742188 C 165.859375 133.964844 165.707031 134.1875 165.542969 134.410156 C 165.382812 134.628906 165.203125 134.851562 164.996094 135.074219 C 164.808594 135.28125 164.605469 135.488281 164.378906 135.703125 C 164.347656 135.722656 164.316406 135.742188 164.289062 135.769531 C 164.015625 136.027344 163.878906 136.304688 163.878906 136.59375 C 163.878906 136.871094 163.972656 137.117188 164.152344 137.300781 C 164.3125 137.472656 164.519531 137.585938 164.777344 137.640625"/></g><path fill="#100F0D" d="M 135.695312 151.671875 Z M 137.269531 159.941406 C 137.464844 160.058594 137.691406 160.121094 137.945312 160.121094 C 138.195312 160.121094 138.433594 160.050781 138.65625 159.921875 C 138.957031 159.746094 139.121094 159.460938 139.121094 159.117188 L 138.992188 148.363281 C 138.960938 148.140625 138.871094 147.9375 138.722656 147.757812 C 138.597656 147.605469 138.4375 147.46875 138.246094 147.351562 C 138.015625 147.214844 137.769531 147.148438 137.511719 147.167969 C 137.171875 147.1875 136.90625 147.371094 136.769531 147.671875 C 136.765625 147.683594 136.757812 147.695312 136.757812 147.707031 C 136.636719 147.929688 136.507812 148.140625 136.386719 148.339844 C 136.246094 148.566406 136.09375 148.785156 135.929688 149.007812 C 135.769531 149.226562 135.585938 149.449219 135.382812 149.671875 C 135.195312 149.875 134.992188 150.085938 134.761719 150.300781 C 134.730469 150.320312 134.703125 150.339844 134.679688 150.367188 C 134.402344 150.625 134.261719 150.90625 134.261719 151.195312 C 134.261719 151.46875 134.355469 151.710938 134.535156 151.898438 C 134.699219 152.074219 134.910156 152.183594 135.164062 152.238281 C 135.429688 152.289062 135.699219 152.246094 136.019531 152.046875 C 136.199219 151.890625 136.359375 151.734375 136.503906 151.574219 C 136.621094 151.441406 136.742188 151.3125 136.875 151.179688 L 136.921875 155.121094 L 136.859375 159.148438 C 136.859375 159.621094 137.121094 159.847656 137.269531 159.941406"/><path fill="#100F0D" d="M 149.238281 154.128906 C 149.238281 154.679688 149.171875 155.199219 149.042969 155.671875 C 148.921875 156.128906 148.730469 156.523438 148.46875 156.851562 C 148.210938 157.179688 147.890625 157.429688 147.488281 157.621094 C 146.707031 157.988281 145.386719 158.015625 144.617188 157.621094 C 144.238281 157.425781 143.941406 157.171875 143.703125 156.851562 C 143.460938 156.523438 143.285156 156.128906 143.175781 155.671875 C 143.058594 155.195312 143 154.675781 143 154.128906 C 143 153.554688 143.058594 152.980469 143.179688 152.417969 C 143.292969 151.875 143.476562 151.382812 143.734375 150.957031 C 143.988281 150.546875 144.300781 150.222656 144.695312 149.96875 C 145.070312 149.730469 145.546875 149.605469 146.113281 149.605469 C 146.660156 149.605469 147.132812 149.726562 147.511719 149.957031 C 147.914062 150.203125 148.226562 150.515625 148.472656 150.917969 C 148.734375 151.332031 148.925781 151.824219 149.046875 152.371094 C 149.171875 152.9375 149.238281 153.53125 149.238281 154.128906 Z M 150.949219 151.242188 C 150.785156 150.753906 150.570312 150.277344 150.308594 149.832031 C 150.035156 149.371094 149.699219 148.957031 149.304688 148.601562 C 148.90625 148.238281 148.4375 147.945312 147.90625 147.734375 C 146.832031 147.304688 145.320312 147.300781 144.253906 147.742188 C 143.722656 147.960938 143.253906 148.265625 142.859375 148.636719 C 142.472656 149 142.140625 149.425781 141.871094 149.894531 C 141.605469 150.355469 141.390625 150.835938 141.230469 151.324219 C 141.074219 151.8125 140.957031 152.304688 140.890625 152.789062 C 140.820312 153.269531 140.785156 153.71875 140.785156 154.128906 C 140.785156 154.789062 140.882812 155.46875 141.066406 156.148438 C 141.253906 156.84375 141.5625 157.492188 141.972656 158.066406 C 142.386719 158.65625 142.933594 159.144531 143.597656 159.519531 C 144.265625 159.898438 145.082031 160.089844 146.023438 160.089844 C 146.933594 160.089844 147.742188 159.90625 148.429688 159.546875 C 149.109375 159.191406 149.679688 158.722656 150.125 158.15625 C 150.5625 157.589844 150.894531 156.941406 151.105469 156.238281 C 151.316406 155.542969 151.421875 154.832031 151.421875 154.128906 C 151.421875 153.699219 151.386719 153.226562 151.3125 152.730469 C 151.238281 152.238281 151.117188 151.734375 150.949219 151.242188"/><path fill="#100F0D" d="M 160.058594 154.128906 C 160.058594 154.679688 159.996094 155.199219 159.863281 155.671875 C 159.742188 156.128906 159.546875 156.523438 159.292969 156.851562 C 159.035156 157.179688 158.714844 157.429688 158.304688 157.621094 C 157.527344 157.988281 156.210938 158.015625 155.441406 157.621094 C 155.0625 157.425781 154.765625 157.171875 154.523438 156.851562 C 154.285156 156.523438 154.105469 156.128906 153.996094 155.671875 C 153.882812 155.195312 153.824219 154.675781 153.824219 154.128906 C 153.824219 153.554688 153.882812 152.980469 154 152.417969 C 154.113281 151.875 154.300781 151.382812 154.558594 150.957031 C 154.804688 150.546875 155.125 150.222656 155.519531 149.96875 C 155.890625 149.730469 156.367188 149.605469 156.933594 149.605469 C 157.480469 149.605469 157.953125 149.726562 158.335938 149.957031 C 158.734375 150.203125 159.046875 150.515625 159.296875 150.917969 C 159.550781 151.332031 159.746094 151.824219 159.867188 152.371094 C 159.996094 152.9375 160.058594 153.53125 160.058594 154.128906 Z M 161.773438 151.242188 C 161.605469 150.753906 161.390625 150.277344 161.125 149.832031 C 160.855469 149.371094 160.519531 148.957031 160.125 148.601562 C 159.726562 148.238281 159.253906 147.945312 158.726562 147.734375 C 157.65625 147.304688 156.144531 147.300781 155.078125 147.742188 C 154.546875 147.960938 154.074219 148.265625 153.683594 148.636719 C 153.296875 149 152.960938 149.425781 152.6875 149.894531 C 152.429688 150.355469 152.210938 150.835938 152.054688 151.324219 C 151.894531 151.8125 151.777344 152.304688 151.707031 152.789062 C 151.644531 153.269531 151.605469 153.71875 151.605469 154.128906 C 151.605469 154.789062 151.699219 155.46875 151.886719 156.148438 C 152.078125 156.84375 152.382812 157.492188 152.792969 158.066406 C 153.210938 158.65625 153.753906 159.144531 154.417969 159.519531 C 155.085938 159.898438 155.90625 160.089844 156.839844 160.089844 C 157.757812 160.089844 158.566406 159.90625 159.253906 159.546875 C 159.933594 159.191406 160.503906 158.722656 160.949219 158.15625 C 161.386719 157.589844 161.71875 156.941406 161.929688 156.238281 C 162.140625 155.542969 162.246094 154.832031 162.246094 154.128906 C 162.246094 153.699219 162.210938 153.226562 162.132812 152.730469 C 162.058594 152.238281 161.941406 151.734375 161.773438 151.242188"/><g clip-path="url(#n)"><path fill="#100F0D" d="M 165.3125 151.671875 Z M 168.335938 147.757812 C 168.214844 147.605469 168.054688 147.46875 167.863281 147.351562 C 167.632812 147.214844 167.382812 147.148438 167.125 147.167969 C 166.789062 147.1875 166.519531 147.371094 166.386719 147.671875 C 166.378906 147.683594 166.375 147.695312 166.371094 147.707031 C 166.246094 147.929688 166.125 148.140625 166 148.339844 C 165.859375 148.566406 165.707031 148.785156 165.542969 149.007812 C 165.382812 149.226562 165.203125 149.449219 164.996094 149.671875 C 164.808594 149.875 164.605469 150.085938 164.378906 150.300781 C 164.347656 150.320312 164.316406 150.339844 164.289062 150.367188 C 164.015625 150.625 163.878906 150.90625 163.878906 151.195312 C 163.878906 151.46875 163.972656 151.710938 164.152344 151.898438 C 164.3125 152.074219 164.519531 152.183594 164.777344 152.238281 C 165.042969 152.289062 165.316406 152.246094 165.636719 152.046875 C 165.816406 151.890625 165.972656 151.734375 166.121094 151.574219 C 166.234375 151.441406 166.351562 151.3125 166.492188 151.179688 L 166.535156 155.121094 L 166.476562 159.148438 C 166.476562 159.621094 166.734375 159.847656 166.886719 159.941406 C 167.078125 160.058594 167.304688 160.121094 167.5625 160.121094 C 167.808594 160.121094 168.046875 160.050781 168.269531 159.921875 C 168.570312 159.746094 168.734375 159.460938 168.734375 159.117188 L 168.609375 148.363281 C 168.574219 148.140625 168.480469 147.9375 168.335938 147.757812"/></g><g clip-path="url(#o)"><path fill="#100F0D" d="M 141.269531 168.765625 C 141.269531 169.320312 141.203125 169.835938 141.074219 170.3125 C 140.949219 170.765625 140.757812 171.164062 140.5 171.488281 C 140.242188 171.820312 139.921875 172.066406 139.511719 172.257812 C 138.734375 172.625 137.417969 172.652344 136.648438 172.257812 C 136.269531 172.0625 135.972656 171.8125 135.730469 171.488281 C 135.492188 171.160156 135.316406 170.765625 135.207031 170.308594 C 135.089844 169.832031 135.03125 169.316406 135.03125 168.765625 C 135.03125 168.191406 135.089844 167.617188 135.210938 167.054688 C 135.324219 166.511719 135.507812 166.023438 135.765625 165.597656 C 136.015625 165.183594 136.332031 164.859375 136.726562 164.605469 C 137.101562 164.367188 137.574219 164.242188 138.140625 164.242188 C 138.691406 164.242188 139.164062 164.363281 139.542969 164.597656 C 139.941406 164.84375 140.257812 165.15625 140.503906 165.554688 C 140.761719 165.972656 140.953125 166.460938 141.078125 167.011719 C 141.203125 167.578125 141.269531 168.167969 141.269531 168.765625 Z M 142.980469 165.882812 C 142.816406 165.390625 142.597656 164.917969 142.335938 164.46875 C 142.066406 164.007812 141.726562 163.59375 141.332031 163.238281 C 140.9375 162.875 140.460938 162.582031 139.9375 162.371094 C 138.863281 161.941406 137.351562 161.9375 136.285156 162.378906 C 135.753906 162.597656 135.28125 162.902344 134.890625 163.273438 C 134.503906 163.636719 134.167969 164.066406 133.902344 164.535156 C 133.636719 164.996094 133.421875 165.476562 133.261719 165.960938 C 133.101562 166.449219 132.988281 166.941406 132.917969 167.425781 C 132.851562 167.90625 132.8125 168.355469 132.8125 168.765625 C 132.8125 169.425781 132.90625 170.105469 133.097656 170.789062 C 133.285156 171.480469 133.589844 172.128906 134.003906 172.707031 C 134.417969 173.292969 134.960938 173.78125 135.625 174.15625 C 136.296875 174.535156 137.113281 174.726562 138.050781 174.726562 C 138.964844 174.726562 139.773438 174.546875 140.460938 174.183594 C 141.140625 173.828125 141.710938 173.363281 142.15625 172.792969 C 142.59375 172.226562 142.925781 171.582031 143.136719 170.875 C 143.347656 170.179688 143.453125 169.46875 143.453125 168.765625 C 143.453125 168.335938 143.417969 167.863281 143.34375 167.367188 C 143.269531 166.875 143.148438 166.371094 142.980469 165.882812"/></g><g clip-path="url(#p)"><path fill="#100F0D" d="M 146.519531 166.308594 Z M 149.546875 162.394531 C 149.421875 162.246094 149.261719 162.105469 149.070312 161.988281 C 148.839844 161.851562 148.589844 161.789062 148.332031 161.804688 C 147.996094 161.824219 147.726562 162.011719 147.59375 162.308594 C 147.589844 162.324219 147.582031 162.332031 147.578125 162.34375 C 147.457031 162.566406 147.332031 162.777344 147.210938 162.976562 C 147.066406 163.203125 146.917969 163.421875 146.753906 163.644531 C 146.589844 163.867188 146.410156 164.089844 146.203125 164.308594 C 146.019531 164.515625 145.8125 164.722656 145.585938 164.941406 C 145.554688 164.957031 145.523438 164.980469 145.5 165.003906 C 145.222656 165.265625 145.085938 165.542969 145.085938 165.832031 C 145.085938 166.105469 145.179688 166.347656 145.359375 166.539062 C 145.519531 166.710938 145.734375 166.824219 145.984375 166.875 C 146.253906 166.925781 146.523438 166.882812 146.84375 166.6875 C 147.023438 166.53125 147.183594 166.371094 147.328125 166.210938 C 147.441406 166.078125 147.566406 165.953125 147.699219 165.816406 L 147.742188 169.757812 L 147.683594 173.789062 C 147.683594 174.257812 147.941406 174.484375 148.09375 174.578125 C 148.289062 174.695312 148.511719 174.757812 148.769531 174.757812 C 149.019531 174.757812 149.257812 174.691406 149.476562 174.5625 C 149.777344 174.382812 149.945312 174.097656 149.945312 173.753906 L 149.816406 163 C 149.78125 162.777344 149.691406 162.574219 149.546875 162.394531"/></g><g clip-path="url(#q)"><path fill="#100F0D" d="M 160.058594 168.765625 C 160.058594 169.320312 159.996094 169.835938 159.863281 170.3125 C 159.742188 170.765625 159.546875 171.164062 159.292969 171.488281 C 159.035156 171.820312 158.714844 172.066406 158.304688 172.257812 C 157.527344 172.625 156.210938 172.652344 155.441406 172.257812 C 155.0625 172.0625 154.765625 171.8125 154.523438 171.488281 C 154.285156 171.160156 154.105469 170.765625 153.996094 170.308594 C 153.882812 169.832031 153.824219 169.316406 153.824219 168.765625 C 153.824219 168.191406 153.882812 167.617188 154 167.054688 C 154.113281 166.511719 154.300781 166.023438 154.558594 165.597656 C 154.804688 165.183594 155.125 164.859375 155.519531 164.605469 C 155.890625 164.367188 156.367188 164.242188 156.933594 164.242188 C 157.480469 164.242188 157.953125 164.363281 158.335938 164.597656 C 158.734375 164.84375 159.046875 165.15625 159.296875 165.554688 C 159.550781 165.972656 159.746094 166.460938 159.867188 167.011719 C 159.996094 167.578125 160.058594 168.167969 160.058594 168.765625 Z M 161.773438 165.882812 C 161.605469 165.390625 161.390625 164.917969 161.125 164.46875 C 160.855469 164.007812 160.519531 163.59375 160.125 163.238281 C 159.726562 162.875 159.253906 162.582031 158.726562 162.371094 C 157.65625 161.941406 156.144531 161.9375 155.078125 162.378906 C 154.546875 162.597656 154.074219 162.902344 153.683594 163.273438 C 153.296875 163.636719 152.960938 164.066406 152.6875 164.535156 C 152.429688 164.996094 152.210938 165.476562 152.054688 165.960938 C 151.894531 166.449219 151.777344 166.941406 151.707031 167.425781 C 151.644531 167.90625 151.605469 168.355469 151.605469 168.765625 C 151.605469 169.425781 151.699219 170.105469 151.886719 170.789062 C 152.078125 171.480469 152.382812 172.128906 152.792969 172.707031 C 153.210938 173.292969 153.753906 173.78125 154.417969 174.15625 C 155.085938 174.535156 155.90625 174.726562 156.839844 174.726562 C 157.757812 174.726562 158.566406 174.546875 159.253906 174.183594 C 159.933594 173.828125 160.503906 173.363281 160.949219 172.792969 C 161.386719 172.226562 161.71875 171.582031 161.929688 170.875 C 162.140625 170.179688 162.246094 169.46875 162.246094 168.765625 C 162.246094 168.335938 162.210938 167.863281 162.132812 167.367188 C 162.058594 166.875 161.941406 166.371094 161.773438 165.882812"/></g><g clip-path="url(#r)"><path fill="#100F0D" d="M 165.3125 166.308594 Z M 168.335938 162.394531 C 168.214844 162.246094 168.054688 162.105469 167.863281 161.988281 C 167.632812 161.851562 167.382812 161.789062 167.125 161.804688 C 166.789062 161.824219 166.519531 162.011719 166.386719 162.308594 C 166.378906 162.324219 166.375 162.332031 166.371094 162.34375 C 166.246094 162.566406 166.125 162.777344 166 162.976562 C 165.859375 163.203125 165.707031 163.421875 165.542969 163.644531 C 165.382812 163.867188 165.203125 164.089844 164.996094 164.308594 C 164.808594 164.515625 164.605469 164.722656 164.378906 164.941406 C 164.347656 164.957031 164.316406 164.980469 164.289062 165.003906 C 164.015625 165.265625 163.878906 165.542969 163.878906 165.832031 C 163.878906 166.105469 163.972656 166.347656 164.152344 166.539062 C 164.3125 166.710938 164.519531 166.824219 164.777344 166.875 C 165.042969 166.925781 165.316406 166.882812 165.636719 166.6875 C 165.816406 166.53125 165.972656 166.371094 166.121094 166.210938 C 166.234375 166.078125 166.351562 165.953125 166.492188 165.816406 L 166.535156 169.757812 L 166.476562 173.789062 C 166.476562 174.257812 166.734375 174.484375 166.886719 174.578125 C 167.078125 174.695312 167.304688 174.757812 167.5625 174.757812 C 167.808594 174.757812 168.046875 174.691406 168.269531 174.5625 C 168.570312 174.382812 168.734375 174.097656 168.734375 173.753906 L 168.609375 163 C 168.574219 162.777344 168.480469 162.574219 168.335938 162.394531"/></g><g clip-path="url(#s)"><path fill="#AFB1EB" d="M 270.910156 140.582031 C 269.816406 139.488281 268.722656 138.394531 267.621094 137.292969 C 266.867188 136.539062 266.109375 135.78125 265.351562 135.023438 C 265.089844 134.761719 264.832031 134.507812 264.570312 134.242188 C 264.507812 134.179688 264.304688 133.894531 264.210938 133.886719 C 264.109375 133.875 263.648438 134.410156 263.570312 134.484375 C 263.253906 134.773438 262.929688 135.050781 262.601562 135.3125 C 261.929688 135.847656 261.222656 136.332031 260.488281 136.773438 C 259.066406 137.617188 257.535156 138.269531 255.945312 138.71875 C 252.851562 139.589844 249.546875 139.65625 246.417969 138.910156 C 243.171875 138.144531 240.089844 136.5 237.703125 134.164062 C 234.96875 131.5 231.945312 129.289062 228.410156 127.789062 C 221.503906 124.871094 213.542969 124.8125 206.597656 127.632812 C 203.066406 129.0625 199.871094 131.210938 197.179688 133.890625 C 194.207031 136.859375 190.304688 138.773438 186.128906 139.296875 C 182.238281 139.785156 178.167969 139.046875 174.730469 137.15625 C 173.117188 136.269531 171.644531 135.171875 170.34375 133.871094 C 168.960938 132.492188 167.445312 131.253906 165.816406 130.183594 C 159.515625 126.046875 151.660156 124.601562 144.292969 126.175781 C 140.59375 126.960938 137.0625 128.492188 133.960938 130.65625 C 132.386719 131.757812 131.035156 133.0625 129.640625 134.363281 C 128.410156 135.503906 127.035156 136.480469 125.550781 137.257812 C 119.722656 140.320312 112.515625 140.097656 106.894531 136.675781 C 106.175781 136.238281 105.492188 135.753906 104.84375 135.230469 C 104.527344 134.976562 104.222656 134.714844 103.925781 134.441406 C 103.824219 134.347656 103.429688 133.875 103.328125 133.890625 C 103.226562 133.90625 103.015625 134.203125 102.945312 134.273438 C 102.679688 134.542969 102.414062 134.8125 102.144531 135.074219 C 100.625 136.59375 99.109375 138.113281 97.589844 139.628906 C 97.269531 139.949219 96.949219 140.265625 96.632812 140.582031 C 101.847656 145.792969 109 148.808594 116.371094 148.902344 C 118.378906 148.925781 120.394531 148.742188 122.371094 148.34375 C 120.992188 155.171875 122.214844 162.292969 125.6875 168.3125 C 128.886719 173.863281 134.066406 178.203125 140.027344 180.5 C 143.269531 181.753906 146.757812 182.402344 150.238281 182.402344 C 156.273438 182.386719 162.167969 180.449219 167.050781 176.902344 C 172.597656 172.867188 176.488281 166.804688 177.996094 160.128906 C 178.863281 156.273438 178.890625 152.21875 178.109375 148.34375 C 181.828125 149.09375 185.714844 149.09375 189.4375 148.34375 C 188.0625 155.167969 189.273438 162.296875 192.753906 168.3125 C 195.960938 173.859375 201.125 178.199219 207.089844 180.5 C 210.335938 181.753906 213.824219 182.402344 217.304688 182.402344 C 223.355469 182.402344 229.292969 180.425781 234.167969 176.859375 C 239.664062 172.835938 243.527344 166.832031 245.039062 160.214844 C 245.925781 156.332031 245.960938 152.253906 245.171875 148.34375 C 252.277344 149.773438 259.816406 148.410156 265.949219 144.546875 C 267.75 143.417969 269.410156 142.082031 270.910156 140.582031 Z M 169.164062 154.539062 C 168.9375 162.816406 163.097656 170.195312 155.074219 172.277344 C 147.132812 174.34375 138.363281 170.980469 134.109375 163.894531 C 132.039062 160.445312 131.050781 156.519531 131.359375 152.496094 C 131.652344 148.742188 133.066406 145.109375 135.417969 142.167969 C 140.164062 136.222656 148.226562 133.644531 155.5625 135.78125 C 162.789062 137.886719 168.179688 144.304688 169.042969 151.773438 C 169.152344 152.691406 169.195312 153.617188 169.164062 154.539062 Z M 236.234375 154.539062 C 236.097656 158.710938 234.605469 162.53125 232.089844 165.832031 C 229.679688 168.992188 225.972656 171.289062 222.144531 172.277344 C 214.265625 174.320312 205.445312 171.023438 201.21875 163.957031 C 199.113281 160.4375 198.097656 156.460938 198.445312 152.355469 C 198.757812 148.625 200.191406 145.027344 202.539062 142.109375 C 207.234375 136.269531 215.125 133.714844 222.351562 135.703125 C 229.714844 137.726562 235.238281 144.195312 236.117188 151.773438 C 236.21875 152.691406 236.261719 153.617188 236.234375 154.539062 Z M 236.234375 154.539062"/></g><path d="M 84.519531 192.707031 L 69.820312 192.707031 L 69.820312 196.664062 L 74.972656 196.664062 L 74.972656 213.019531 L 79.40625 213.019531 L 79.40625 196.664062 L 84.519531 196.664062 Z M 84.519531 192.707031"/><path d="M 93.929688 199.207031 C 92.4375 199.207031 91.082031 199.882812 90.140625 201 L 90.140625 189.828125 L 85.804688 189.828125 L 85.804688 213.019531 L 90.140625 213.019531 L 90.140625 205.367188 C 90.140625 204.183594 91.121094 203.03125 92.4375 203.03125 C 93.660156 203.03125 94.507812 203.980469 94.507812 205.164062 L 94.507812 213.019531 L 98.835938 213.019531 L 98.835938 204.453125 C 98.835938 201.472656 96.671875 199.207031 93.929688 199.207031 Z M 93.929688 199.207031"/><path d="M 115.765625 206.214844 C 115.765625 201.980469 112.855469 199.171875 108.488281 199.171875 C 104.121094 199.171875 101.039062 202.019531 101.039062 206.246094 C 101.039062 210.480469 104.085938 213.292969 108.621094 213.292969 C 112.382812 213.292969 114.886719 211.292969 115.5625 208.347656 L 111.398438 208.347656 C 111.027344 209.429688 110.046875 210.074219 108.554688 210.074219 C 106.589844 210.074219 105.578125 208.890625 105.40625 206.960938 L 115.765625 206.960938 Z M 108.554688 202.492188 C 110.007812 202.492188 110.855469 203.167969 111.296875 204.351562 L 105.675781 204.351562 C 106.117188 203.203125 107.03125 202.492188 108.554688 202.492188 Z M 108.554688 202.492188"/><path d="M 135.503906 213.292969 C 139.535156 213.292969 143.023438 211.023438 144.746094 207.703125 L 140.882812 205.707031 C 139.902344 207.636719 137.90625 208.921875 135.503906 208.921875 C 132.085938 208.921875 129.476562 206.285156 129.476562 202.859375 C 129.476562 199.441406 132.085938 196.800781 135.503906 196.800781 C 137.90625 196.800781 139.902344 198.089844 140.882812 200.019531 L 144.746094 198.019531 C 143.023438 194.703125 139.535156 192.433594 135.503906 192.433594 C 129.75 192.433594 125.074219 197.105469 125.074219 202.859375 C 125.074219 208.621094 129.75 213.292969 135.503906 213.292969 Z M 135.503906 213.292969"/><path d="M 153.683594 213.292969 C 158.222656 213.292969 161.203125 210.3125 161.203125 206.246094 C 161.203125 202.183594 158.222656 199.207031 153.683594 199.207031 C 149.144531 199.207031 146.132812 202.183594 146.132812 206.246094 C 146.132812 210.3125 149.144531 213.292969 153.683594 213.292969 Z M 153.683594 209.46875 C 151.820312 209.429688 150.46875 208.078125 150.46875 206.246094 C 150.46875 204.417969 151.820312 203.0625 153.683594 203.03125 C 155.511719 203.0625 156.898438 204.417969 156.898438 206.246094 C 156.898438 208.078125 155.511719 209.429688 153.683594 209.46875 Z M 153.683594 209.46875"/><path d="M 173.351562 189.828125 L 173.351562 200.664062 C 172.339844 199.746094 171.050781 199.207031 169.492188 199.207031 C 165.734375 199.207031 162.789062 202.320312 162.789062 206.246094 C 162.789062 210.175781 165.734375 213.292969 169.492188 213.292969 C 171.050781 213.292969 172.339844 212.746094 173.351562 211.835938 L 173.351562 213.054688 L 177.652344 213.019531 L 177.652344 189.828125 Z M 170.339844 209.46875 C 168.542969 209.46875 167.125 208.042969 167.125 206.246094 C 167.125 204.453125 168.542969 203.03125 170.339844 203.03125 C 172.097656 203.03125 173.554688 204.453125 173.554688 206.246094 C 173.554688 208.042969 172.097656 209.46875 170.339844 209.46875 Z M 170.339844 209.46875"/><path d="M 194.882812 206.214844 C 194.882812 201.980469 191.972656 199.171875 187.605469 199.171875 C 183.238281 199.171875 180.15625 202.019531 180.15625 206.246094 C 180.15625 210.480469 183.203125 213.292969 187.738281 213.292969 C 191.5 213.292969 194.003906 211.292969 194.679688 208.347656 L 190.515625 208.347656 C 190.144531 209.429688 189.164062 210.074219 187.675781 210.074219 C 185.707031 210.074219 184.695312 208.890625 184.523438 206.960938 L 194.882812 206.960938 Z M 187.675781 202.492188 C 189.128906 202.492188 189.972656 203.167969 190.414062 204.351562 L 184.792969 204.351562 C 185.234375 203.203125 186.148438 202.492188 187.675781 202.492188 Z M 187.675781 202.492188"/><path d="M 215.0625 192.707031 L 208.59375 206.757812 L 202.195312 192.707031 L 197.355469 192.707031 L 197.355469 213.019531 L 201.824219 213.019531 L 201.824219 200.898438 L 207.308594 213.019531 L 209.882812 213.019531 L 215.398438 200.929688 L 215.398438 213.019531 L 219.871094 213.019531 L 219.871094 192.707031 Z M 215.0625 192.707031"/><path d="M 238.421875 209.5 C 237.84375 209.5 237.238281 209.296875 237.238281 208.175781 L 237.238281 199.476562 L 232.9375 199.476562 L 232.9375 200.664062 C 231.921875 199.746094 230.636719 199.207031 229.078125 199.207031 C 225.320312 199.207031 222.375 202.320312 222.375 206.246094 C 222.375 210.175781 225.320312 213.292969 229.078125 213.292969 C 231.039062 213.292969 232.632812 212.410156 233.71875 210.988281 C 234.558594 212.378906 236.054688 213.292969 237.882812 213.292969 C 238.320312 213.292969 238.730469 213.15625 239.035156 213.019531 L 239.035156 209.5 Z M 229.925781 209.46875 C 228.128906 209.46875 226.707031 208.042969 226.707031 206.246094 C 226.707031 204.453125 228.128906 203.03125 229.925781 203.03125 C 231.683594 203.03125 233.140625 204.453125 233.140625 206.246094 C 233.140625 208.042969 231.683594 209.46875 229.925781 209.46875 Z M 229.925781 209.46875"/><path d="M 249.1875 199.207031 C 247.628906 199.207031 246.273438 199.949219 245.328125 201.136719 L 245.328125 199.476562 L 240.992188 199.476562 L 240.992188 213.019531 L 245.328125 213.019531 L 245.328125 205.164062 C 245.328125 203.949219 246.34375 203.03125 247.597656 203.03125 C 248.847656 203.03125 249.730469 203.949219 249.730469 205.164062 L 249.730469 213.019531 L 254.027344 213.019531 L 254.027344 204.453125 C 254.027344 201.472656 251.863281 199.207031 249.1875 199.207031 Z M 249.1875 199.207031"/><path d="M 259.445312 197.207031 C 260.730469 197.207031 261.8125 196.125 261.8125 194.839844 C 261.8125 193.519531 260.730469 192.46875 259.445312 192.46875 C 258.160156 192.46875 257.074219 193.519531 257.074219 194.839844 C 257.074219 196.125 258.160156 197.207031 259.445312 197.207031 Z M 257.277344 213.019531 L 261.578125 213.019531 L 261.578125 199.476562 L 257.277344 199.476562 Z M 257.277344 213.019531"/><path d="M 280.234375 209.5 C 279.65625 209.5 279.050781 209.296875 279.050781 208.175781 L 279.050781 199.476562 L 274.746094 199.476562 L 274.746094 200.664062 C 273.734375 199.746094 272.445312 199.207031 270.886719 199.207031 C 267.132812 199.207031 264.183594 202.320312 264.183594 206.246094 C 264.183594 210.175781 267.132812 213.292969 270.886719 213.292969 C 272.851562 213.292969 274.441406 212.410156 275.527344 210.988281 C 276.371094 212.378906 277.863281 213.292969 279.691406 213.292969 C 280.132812 213.292969 280.539062 213.15625 280.84375 213.019531 L 280.84375 209.5 Z M 271.734375 209.46875 C 269.941406 209.46875 268.519531 208.042969 268.519531 206.246094 C 268.519531 204.453125 269.941406 203.03125 271.734375 203.03125 C 273.492188 203.03125 274.949219 204.453125 274.949219 206.246094 C 274.949219 208.042969 273.492188 209.46875 271.734375 209.46875 Z M 271.734375 209.46875"/><path d="M 289.40625 213.292969 C 293.46875 213.292969 296.242188 210.921875 296.820312 207.535156 L 292.351562 207.535156 C 291.910156 208.683594 290.792969 209.429688 289.40625 209.46875 C 287.542969 209.429688 286.191406 208.078125 286.191406 206.246094 C 286.191406 204.417969 287.542969 203.0625 289.40625 203.03125 C 290.792969 203.0625 291.910156 203.808594 292.351562 204.960938 L 296.820312 204.960938 C 296.242188 201.574219 293.46875 199.207031 289.40625 199.207031 C 284.867188 199.207031 281.855469 202.183594 281.855469 206.246094 C 281.855469 210.3125 284.867188 213.292969 289.40625 213.292969 Z M 289.40625 213.292969"/><path d="M 102.148438 221.851562 L 101.394531 225.046875 L 100.539062 221.851562 L 99.414062 221.851562 L 98.558594 225.046875 L 97.8125 221.851562 L 96.503906 221.851562 L 97.765625 226.703125 L 99.214844 226.703125 L 99.980469 223.613281 L 100.738281 226.703125 L 102.1875 226.703125 L 103.457031 221.851562 Z M 102.148438 221.851562"/><path d="M 107.523438 221.851562 L 107.523438 223.734375 L 105.777344 223.734375 L 105.777344 221.851562 L 104.539062 221.851562 L 104.539062 226.703125 L 105.777344 226.703125 L 105.777344 224.808594 L 107.523438 224.808594 L 107.523438 226.703125 L 108.761719 226.703125 L 108.761719 221.851562 Z M 107.523438 221.851562"/><path d="M 110.476562 226.703125 L 111.714844 226.703125 L 111.714844 221.851562 L 110.476562 221.851562 Z M 110.476562 226.703125"/><path d="M 114.648438 225.628906 L 114.648438 221.851562 L 113.410156 221.851562 L 113.410156 226.703125 L 116.195312 226.703125 L 116.195312 225.628906 Z M 114.648438 225.628906"/><path d="M 120.464844 222.925781 L 120.464844 221.851562 L 117.457031 221.851562 L 117.457031 226.703125 L 120.464844 226.703125 L 120.464844 225.628906 L 118.691406 225.628906 L 118.691406 224.808594 L 120.191406 224.808594 L 120.191406 223.742188 L 118.691406 223.742188 L 118.691406 222.925781 Z M 120.464844 222.925781"/><path d="M 126.757812 228.621094 L 126.757812 227.769531 C 126.175781 227.792969 125.707031 227.105469 125.707031 224.851562 C 125.707031 222.578125 126.175781 221.875 126.757812 221.898438 L 126.757812 221.050781 C 125.582031 221.023438 124.660156 221.972656 124.660156 224.851562 C 124.660156 227.710938 125.582031 228.644531 126.757812 228.621094 Z M 126.757812 228.621094"/><path d="M 131.46875 221.851562 L 127.863281 221.851562 L 127.863281 222.925781 L 129.050781 222.925781 L 129.050781 226.703125 L 130.28125 226.703125 L 130.28125 222.925781 L 131.46875 222.925781 Z M 131.46875 221.851562"/><path d="M 135.601562 221.851562 L 135.601562 223.734375 L 133.855469 223.734375 L 133.855469 221.851562 L 132.617188 221.851562 L 132.617188 226.703125 L 133.855469 226.703125 L 133.855469 224.808594 L 135.601562 224.808594 L 135.601562 226.703125 L 136.839844 226.703125 L 136.839844 221.851562 Z M 135.601562 221.851562"/><path d="M 141.5625 222.925781 L 141.5625 221.851562 L 138.554688 221.851562 L 138.554688 226.703125 L 141.5625 226.703125 L 141.5625 225.628906 L 139.789062 225.628906 L 139.789062 224.808594 L 141.289062 224.808594 L 141.289062 223.742188 L 139.789062 223.742188 L 139.789062 222.925781 Z M 141.5625 222.925781"/><path d="M 145.378906 226.769531 C 146.339844 226.769531 147.179688 226.21875 147.59375 225.410156 L 146.527344 224.867188 C 146.316406 225.285156 145.898438 225.554688 145.378906 225.554688 C 144.644531 225.554688 144.09375 225.011719 144.09375 224.277344 C 144.09375 223.539062 144.644531 223 145.378906 223 C 145.898438 223 146.316406 223.265625 146.527344 223.6875 L 147.59375 223.144531 C 147.179688 222.335938 146.339844 221.785156 145.378906 221.785156 C 143.996094 221.785156 142.890625 222.902344 142.890625 224.277344 C 142.890625 225.652344 143.996094 226.769531 145.378906 226.769531 Z M 145.378906 226.769531"/><path d="M 151.328125 226.769531 C 152.703125 226.769531 153.820312 225.652344 153.820312 224.277344 C 153.820312 222.902344 152.703125 221.785156 151.328125 221.785156 C 149.949219 221.785156 148.84375 222.902344 148.84375 224.277344 C 148.84375 225.652344 149.949219 226.769531 151.328125 226.769531 Z M 151.328125 225.554688 C 150.597656 225.554688 150.046875 225.011719 150.046875 224.277344 C 150.046875 223.539062 150.597656 223 151.328125 223 C 152.058594 223 152.605469 223.539062 152.605469 224.277344 C 152.605469 225.011719 152.058594 225.554688 151.328125 225.554688 Z M 151.328125 225.554688"/><path d="M 155.308594 226.703125 L 156.992188 226.703125 C 158.324219 226.703125 159.417969 225.621094 159.417969 224.277344 C 159.417969 222.933594 158.324219 221.851562 156.992188 221.851562 L 155.308594 221.851562 Z M 156.546875 225.628906 L 156.546875 222.925781 L 156.992188 222.925781 C 157.660156 222.925781 158.191406 223.515625 158.191406 224.277344 C 158.191406 225.039062 157.660156 225.628906 156.992188 225.628906 Z M 156.546875 225.628906"/><path d="M 163.960938 222.925781 L 163.960938 221.851562 L 160.953125 221.851562 L 160.953125 226.703125 L 163.960938 226.703125 L 163.960938 225.628906 L 162.191406 225.628906 L 162.191406 224.808594 L 163.6875 224.808594 L 163.6875 223.742188 L 162.191406 223.742188 L 162.191406 222.925781 Z M 163.960938 222.925781"/><path d="M 169.667969 221.851562 L 168.234375 224.941406 L 166.800781 221.851562 L 165.457031 221.851562 L 165.457031 226.703125 L 166.695312 226.703125 L 166.695312 224.089844 L 167.898438 226.703125 L 168.5625 226.703125 L 169.765625 224.105469 L 169.765625 226.703125 L 171.003906 226.703125 L 171.003906 221.851562 Z M 169.667969 221.851562"/><path d="M 175.644531 226.703125 L 176.972656 226.703125 L 175.21875 221.851562 L 173.832031 221.851562 L 172.078125 226.703125 L 173.414062 226.703125 L 173.683594 225.851562 L 175.378906 225.851562 Z M 173.996094 224.851562 L 174.53125 223.136719 L 175.070312 224.851562 Z M 173.996094 224.851562"/><path d="M 181.546875 221.851562 L 181.546875 224.816406 L 179.351562 221.851562 L 178.058594 221.851562 L 178.058594 226.703125 L 179.292969 226.703125 L 179.292969 223.726562 L 181.480469 226.703125 L 182.78125 226.703125 L 182.78125 221.851562 Z M 181.546875 221.851562"/><path d="M 184.484375 226.703125 L 185.722656 226.703125 L 185.722656 221.851562 L 184.484375 221.851562 Z M 184.484375 226.703125"/><path d="M 190.394531 226.703125 L 191.722656 226.703125 L 189.96875 221.851562 L 188.585938 221.851562 L 186.828125 226.703125 L 188.164062 226.703125 L 188.433594 225.851562 L 190.132812 225.851562 Z M 188.746094 224.851562 L 189.28125 223.136719 L 189.820312 224.851562 Z M 188.746094 224.851562"/><path d="M 195.125 226.769531 C 196.089844 226.769531 196.929688 226.21875 197.34375 225.410156 L 196.277344 224.867188 C 196.066406 225.285156 195.648438 225.554688 195.125 225.554688 C 194.394531 225.554688 193.84375 225.011719 193.84375 224.277344 C 193.84375 223.539062 194.394531 223 195.125 223 C 195.648438 223 196.066406 223.265625 196.277344 223.6875 L 197.34375 223.144531 C 196.929688 222.335938 196.089844 221.785156 195.125 221.785156 C 193.746094 221.785156 192.640625 222.902344 192.640625 224.277344 C 192.640625 225.652344 193.746094 226.769531 195.125 226.769531 Z M 195.125 226.769531"/><path d="M 198.707031 228.621094 C 199.886719 228.644531 200.804688 227.710938 200.804688 224.851562 C 200.804688 221.972656 199.886719 221.023438 198.707031 221.050781 L 198.707031 221.898438 C 199.289062 221.875 199.761719 222.578125 199.761719 224.851562 C 199.761719 227.105469 199.289062 227.792969 198.707031 227.769531 Z M 198.707031 228.621094"/><path d="M 206.414062 228.992188 L 206.949219 228.992188 L 206.949219 228.328125 C 206.457031 228.328125 206.414062 228.300781 206.414062 228.0625 L 206.414062 226.285156 C 206.414062 225.734375 206.308594 225.382812 206.109375 225.121094 C 206.308594 224.859375 206.414062 224.511719 206.414062 223.964844 L 206.414062 222.230469 C 206.414062 221.808594 206.527344 221.890625 206.949219 221.890625 L 206.949219 221.238281 L 206.414062 221.238281 C 205.90625 221.238281 205.519531 221.730469 205.519531 222.335938 L 205.519531 223.867188 C 205.519531 224.605469 205.421875 224.632812 205.035156 224.785156 L 205.035156 225.457031 C 205.429688 225.613281 205.519531 225.652344 205.519531 226.382812 L 205.519531 227.898438 C 205.519531 228.515625 205.90625 228.992188 206.414062 228.992188 Z M 206.414062 228.992188"/><path d="M 213.535156 226.769531 C 214.5 226.769531 215.339844 226.21875 215.753906 225.410156 L 214.6875 224.867188 C 214.476562 225.285156 214.054688 225.554688 213.535156 225.554688 C 212.800781 225.554688 212.253906 225.011719 212.253906 224.277344 C 212.253906 223.539062 212.800781 223 213.535156 223 C 214.054688 223 214.476562 223.265625 214.6875 223.6875 L 215.753906 223.144531 C 215.339844 222.335938 214.5 221.785156 213.535156 221.785156 C 212.15625 221.785156 211.046875 222.902344 211.046875 224.277344 C 211.046875 225.652344 212.15625 226.769531 213.535156 226.769531 Z M 213.535156 226.769531"/><path d="M 219.484375 226.769531 C 220.863281 226.769531 221.976562 225.652344 221.976562 224.277344 C 221.976562 222.902344 220.863281 221.785156 219.484375 221.785156 C 218.105469 221.785156 217 222.902344 217 224.277344 C 217 225.652344 218.105469 226.769531 219.484375 226.769531 Z M 219.484375 225.554688 C 218.753906 225.554688 218.203125 225.011719 218.203125 224.277344 C 218.203125 223.539062 218.753906 223 219.484375 223 C 220.214844 223 220.765625 223.539062 220.765625 224.277344 C 220.765625 225.011719 220.214844 225.554688 219.484375 225.554688 Z M 219.484375 225.554688"/><path d="M 223.464844 226.703125 L 225.152344 226.703125 C 226.480469 226.703125 227.578125 225.621094 227.578125 224.277344 C 227.578125 222.933594 226.480469 221.851562 225.152344 221.851562 L 223.464844 221.851562 Z M 224.703125 225.628906 L 224.703125 222.925781 L 225.152344 222.925781 C 225.820312 222.925781 226.347656 223.515625 226.347656 224.277344 C 226.347656 225.039062 225.820312 225.628906 225.152344 225.628906 Z M 224.703125 225.628906"/><path d="M 229.109375 226.703125 L 230.347656 226.703125 L 230.347656 221.851562 L 229.109375 221.851562 Z M 229.109375 226.703125"/><path d="M 235.535156 221.851562 L 235.535156 224.816406 L 233.339844 221.851562 L 232.046875 221.851562 L 232.046875 226.703125 L 233.28125 226.703125 L 233.28125 223.726562 L 235.46875 226.703125 L 236.769531 226.703125 L 236.769531 221.851562 Z M 235.535156 221.851562"/><path d="M 240.746094 224.007812 L 240.746094 224.957031 L 241.859375 224.957031 C 241.628906 225.320312 241.234375 225.554688 240.753906 225.554688 C 240.023438 225.554688 239.472656 225.011719 239.472656 224.277344 C 239.472656 223.539062 240.023438 223 240.753906 223 C 241.277344 223 241.695312 223.265625 241.90625 223.6875 L 242.972656 223.144531 C 242.558594 222.335938 241.71875 221.785156 240.753906 221.785156 C 239.375 221.785156 238.265625 222.902344 238.265625 224.277344 C 238.265625 225.652344 239.375 226.769531 240.753906 226.769531 C 242.128906 226.769531 243.246094 225.652344 243.246094 224.277344 L 243.246094 224.007812 Z M 240.746094 224.007812"/><path d="M 249.128906 226.703125 L 250.015625 226.703125 L 250.015625 225.144531 L 251.574219 225.144531 L 251.574219 224.253906 L 250.015625 224.253906 L 250.015625 222.695312 L 249.128906 222.695312 L 249.128906 224.253906 L 247.566406 224.253906 L 247.566406 225.144531 L 249.128906 225.144531 Z M 249.128906 226.703125"/><path d="M 255.03125 226.703125 L 255.917969 226.703125 L 255.917969 225.144531 L 257.476562 225.144531 L 257.476562 224.253906 L 255.917969 224.253906 L 255.917969 222.695312 L 255.03125 222.695312 L 255.03125 224.253906 L 253.46875 224.253906 L 253.46875 225.144531 L 255.03125 225.144531 Z M 255.03125 226.703125"/><path d="M 260.019531 224.679688 C 260.371094 224.679688 260.664062 224.390625 260.664062 224.03125 C 260.664062 223.695312 260.371094 223.402344 260.019531 223.402344 C 259.679688 223.402344 259.386719 223.695312 259.386719 224.03125 C 259.386719 224.390625 259.679688 224.679688 260.019531 224.679688 Z M 259.679688 227.90625 L 260.851562 225.835938 L 259.722656 225.835938 L 258.976562 227.90625 Z M 259.679688 227.90625"/><path d="M 265.085938 228.992188 L 265.617188 228.992188 C 266.132812 228.992188 266.511719 228.515625 266.511719 227.898438 L 266.511719 226.382812 C 266.511719 225.652344 266.609375 225.613281 266.996094 225.457031 L 266.996094 224.785156 C 266.617188 224.632812 266.511719 224.605469 266.511719 223.867188 L 266.511719 222.335938 C 266.511719 221.730469 266.132812 221.238281 265.617188 221.238281 L 265.085938 221.238281 L 265.085938 221.890625 C 265.511719 221.890625 265.617188 221.808594 265.617188 222.230469 L 265.617188 223.964844 C 265.617188 224.511719 265.726562 224.859375 265.929688 225.121094 C 265.726562 225.382812 265.617188 225.734375 265.617188 226.285156 L 265.617188 228.0625 C 265.617188 228.300781 265.574219 228.328125 265.085938 228.328125 Z M 265.085938 228.992188"/></svg>