<svg xmlns="http://www.w3.org/2000/svg" width="375" viewBox="0 0 375 375" height="375" version="1.0"><defs><clipPath id="a"><path d="M 201.46875 147.066406 L 212 147.066406 L 212 160 L 201.46875 160 Z M 201.46875 147.066406"/></clipPath><clipPath id="b"><path d="M 213 147.066406 L 218 147.066406 L 218 160 L 213 160 Z M 213 147.066406"/></clipPath><clipPath id="c"><path d="M 219 147.066406 L 230 147.066406 L 230 160 L 219 160 Z M 219 147.066406"/></clipPath><clipPath id="d"><path d="M 231 147.066406 L 235.96875 147.066406 L 235.96875 160 L 231 160 Z M 231 147.066406"/></clipPath><clipPath id="e"><path d="M 231 161 L 235.96875 161 L 235.96875 174 L 231 174 Z M 231 161"/></clipPath><clipPath id="f"><path d="M 201.46875 175 L 212 175 L 212 187.566406 L 201.46875 187.566406 Z M 201.46875 175"/></clipPath><clipPath id="g"><path d="M 213 175 L 218 175 L 218 187.566406 L 213 187.566406 Z M 213 175"/></clipPath><clipPath id="h"><path d="M 219 175 L 230 175 L 230 187.566406 L 219 187.566406 Z M 219 175"/></clipPath><clipPath id="i"><path d="M 231 175 L 235.96875 175 L 235.96875 187.566406 L 231 187.566406 Z M 231 175"/></clipPath><clipPath id="j"><path d="M 138.558594 147.066406 L 149 147.066406 L 149 160 L 138.558594 160 Z M 138.558594 147.066406"/></clipPath><clipPath id="k"><path d="M 150 147.066406 L 156 147.066406 L 156 160 L 150 160 Z M 150 147.066406"/></clipPath><clipPath id="l"><path d="M 156 147.066406 L 167 147.066406 L 167 160 L 156 160 Z M 156 147.066406"/></clipPath><clipPath id="m"><path d="M 168 147.066406 L 173.058594 147.066406 L 173.058594 160 L 168 160 Z M 168 147.066406"/></clipPath><clipPath id="n"><path d="M 168 161 L 173.058594 161 L 173.058594 174 L 168 174 Z M 168 161"/></clipPath><clipPath id="o"><path d="M 138.558594 175 L 149 175 L 149 187.566406 L 138.558594 187.566406 Z M 138.558594 175"/></clipPath><clipPath id="p"><path d="M 150 175 L 156 175 L 156 187.566406 L 150 187.566406 Z M 150 175"/></clipPath><clipPath id="q"><path d="M 156 175 L 167 175 L 167 187.566406 L 156 187.566406 Z M 156 175"/></clipPath><clipPath id="r"><path d="M 168 175 L 173.058594 175 L 173.058594 187.566406 L 168 187.566406 Z M 168 175"/></clipPath><clipPath id="s"><path d="M 103.84375 140 L 271.09375 140 L 271.09375 194.921875 L 103.84375 194.921875 Z M 103.84375 140"/></clipPath></defs><g clip-path="url(#a)"><path fill="#100F0D" d="M 203.605469 153.757812 C 203.605469 153.210938 203.664062 152.65625 203.777344 152.117188 C 203.886719 151.597656 204.066406 151.125 204.3125 150.71875 C 204.550781 150.320312 204.851562 150.011719 205.230469 149.765625 C 205.589844 149.535156 206.046875 149.417969 206.589844 149.417969 C 207.117188 149.417969 207.570312 149.535156 207.9375 149.757812 C 208.320312 149.992188 208.621094 150.292969 208.859375 150.675781 C 209.105469 151.078125 209.289062 151.546875 209.40625 152.074219 C 209.527344 152.617188 209.589844 153.183594 209.589844 153.757812 C 209.589844 154.289062 209.527344 154.789062 209.40625 155.242188 C 209.289062 155.675781 209.101562 156.058594 208.851562 156.375 C 208.609375 156.6875 208.300781 156.929688 207.910156 157.109375 C 207.160156 157.464844 205.898438 157.492188 205.15625 157.109375 C 204.796875 156.925781 204.507812 156.683594 204.28125 156.371094 C 204.050781 156.058594 203.878906 155.675781 203.773438 155.238281 C 203.660156 154.78125 203.605469 154.285156 203.605469 153.757812 Z M 202.617188 157.539062 C 203.015625 158.101562 203.542969 158.570312 204.175781 158.929688 C 204.820312 159.292969 205.605469 159.480469 206.503906 159.480469 C 207.378906 159.480469 208.160156 159.304688 208.816406 158.960938 C 209.46875 158.617188 210.015625 158.167969 210.441406 157.621094 C 210.867188 157.082031 211.183594 156.460938 211.386719 155.785156 C 211.585938 155.117188 211.6875 154.433594 211.6875 153.757812 C 211.6875 153.34375 211.652344 152.890625 211.582031 152.414062 C 211.511719 151.941406 211.394531 151.464844 211.234375 150.992188 C 211.078125 150.523438 210.867188 150.066406 210.617188 149.636719 C 210.355469 149.191406 210.03125 148.796875 209.65625 148.453125 C 209.273438 148.105469 208.820312 147.828125 208.3125 147.621094 C 207.28125 147.207031 205.835938 147.207031 204.808594 147.632812 C 204.296875 147.84375 203.847656 148.132812 203.46875 148.488281 C 203.097656 148.839844 202.78125 149.246094 202.519531 149.699219 C 202.265625 150.140625 202.0625 150.601562 201.910156 151.070312 C 201.753906 151.535156 201.644531 152.011719 201.578125 152.476562 C 201.511719 152.933594 201.480469 153.367188 201.480469 153.757812 C 201.480469 154.390625 201.570312 155.042969 201.75 155.699219 C 201.933594 156.367188 202.222656 156.984375 202.617188 157.539062"/></g><g clip-path="url(#b)"><path fill="#100F0D" d="M 214.628906 151.402344 Z M 214.121094 151.945312 C 214.375 151.996094 214.632812 151.949219 214.945312 151.761719 C 215.113281 151.613281 215.265625 151.460938 215.40625 151.304688 C 215.515625 151.179688 215.632812 151.058594 215.761719 150.925781 L 215.804688 154.714844 L 215.75 158.578125 C 215.75 159.03125 215.996094 159.25 216.140625 159.335938 C 216.328125 159.449219 216.546875 159.507812 216.789062 159.507812 C 217.027344 159.507812 217.257812 159.445312 217.472656 159.320312 C 217.757812 159.152344 217.917969 158.878906 217.917969 158.542969 L 217.796875 148.226562 C 217.761719 148.011719 217.675781 147.816406 217.535156 147.648438 C 217.414062 147.5 217.261719 147.367188 217.078125 147.253906 C 216.859375 147.121094 216.617188 147.0625 216.371094 147.078125 C 216.050781 147.101562 215.789062 147.277344 215.660156 147.5625 C 215.65625 147.574219 215.652344 147.585938 215.648438 147.59375 C 215.53125 147.808594 215.410156 148.011719 215.292969 148.203125 C 215.160156 148.417969 215.011719 148.632812 214.855469 148.84375 C 214.703125 149.054688 214.527344 149.269531 214.328125 149.484375 C 214.152344 149.679688 213.953125 149.878906 213.734375 150.085938 C 213.707031 150.105469 213.675781 150.125 213.652344 150.148438 C 213.390625 150.398438 213.257812 150.664062 213.257812 150.941406 C 213.257812 151.207031 213.347656 151.441406 213.515625 151.621094 C 213.671875 151.785156 213.875 151.894531 214.121094 151.945312"/></g><g clip-path="url(#c)"><path fill="#100F0D" d="M 227.625 153.757812 C 227.625 154.289062 227.5625 154.789062 227.4375 155.242188 C 227.320312 155.675781 227.136719 156.058594 226.886719 156.375 C 226.640625 156.6875 226.332031 156.929688 225.945312 157.109375 C 225.195312 157.464844 223.929688 157.492188 223.191406 157.109375 C 222.828125 156.925781 222.542969 156.683594 222.3125 156.371094 C 222.082031 156.058594 221.914062 155.675781 221.808594 155.238281 C 221.695312 154.78125 221.640625 154.285156 221.640625 153.757812 C 221.640625 153.210938 221.695312 152.65625 221.8125 152.117188 C 221.921875 151.597656 222.097656 151.125 222.34375 150.71875 C 222.585938 150.320312 222.886719 150.011719 223.265625 149.765625 C 223.625 149.535156 224.082031 149.417969 224.625 149.417969 C 225.152344 149.417969 225.605469 149.535156 225.96875 149.757812 C 226.351562 149.992188 226.65625 150.292969 226.890625 150.675781 C 227.140625 151.078125 227.324219 151.546875 227.441406 152.074219 C 227.5625 152.617188 227.625 153.183594 227.625 153.757812 Z M 229.269531 150.992188 C 229.113281 150.523438 228.902344 150.066406 228.652344 149.636719 C 228.390625 149.191406 228.066406 148.796875 227.691406 148.453125 C 227.308594 148.105469 226.855469 147.828125 226.347656 147.621094 C 225.316406 147.207031 223.867188 147.207031 222.84375 147.632812 C 222.332031 147.84375 221.878906 148.132812 221.503906 148.488281 C 221.132812 148.839844 220.8125 149.246094 220.554688 149.699219 C 220.300781 150.140625 220.09375 150.601562 219.941406 151.070312 C 219.789062 151.535156 219.679688 152.011719 219.613281 152.476562 C 219.546875 152.933594 219.511719 153.367188 219.511719 153.757812 C 219.511719 154.390625 219.605469 155.042969 219.785156 155.699219 C 219.964844 156.367188 220.257812 156.984375 220.652344 157.539062 C 221.050781 158.101562 221.574219 158.570312 222.210938 158.929688 C 222.855469 159.292969 223.636719 159.480469 224.539062 159.480469 C 225.414062 159.480469 226.191406 159.304688 226.851562 158.960938 C 227.503906 158.617188 228.050781 158.167969 228.476562 157.621094 C 228.898438 157.082031 229.21875 156.460938 229.417969 155.785156 C 229.621094 155.117188 229.722656 154.433594 229.722656 153.757812 C 229.722656 153.34375 229.6875 152.890625 229.617188 152.414062 C 229.546875 151.941406 229.429688 151.464844 229.269531 150.992188"/></g><g clip-path="url(#d)"><path fill="#100F0D" d="M 232.664062 151.402344 Z M 232.152344 151.945312 C 232.410156 151.996094 232.667969 151.949219 232.976562 151.761719 C 233.148438 151.613281 233.300781 151.460938 233.441406 151.304688 C 233.550781 151.179688 233.667969 151.058594 233.796875 150.925781 L 233.839844 154.714844 L 233.78125 158.578125 C 233.78125 159.03125 234.03125 159.25 234.175781 159.335938 C 234.363281 159.449219 234.578125 159.507812 234.824219 159.507812 C 235.0625 159.507812 235.292969 159.445312 235.507812 159.320312 C 235.792969 159.152344 235.953125 158.878906 235.953125 158.542969 L 235.832031 148.226562 C 235.796875 148.011719 235.710938 147.816406 235.570312 147.648438 C 235.449219 147.5 235.296875 147.367188 235.113281 147.253906 C 234.894531 147.121094 234.65625 147.0625 234.40625 147.078125 C 234.085938 147.101562 233.824219 147.277344 233.695312 147.5625 C 233.691406 147.574219 233.6875 147.585938 233.683594 147.59375 C 233.566406 147.808594 233.445312 148.011719 233.328125 148.203125 C 233.191406 148.417969 233.046875 148.632812 232.890625 148.84375 C 232.734375 149.054688 232.558594 149.269531 232.363281 149.484375 C 232.1875 149.679688 231.988281 149.878906 231.769531 150.085938 C 231.738281 150.105469 231.710938 150.125 231.6875 150.148438 C 231.421875 150.398438 231.289062 150.664062 231.289062 150.941406 C 231.289062 151.207031 231.382812 151.441406 231.550781 151.621094 C 231.707031 151.785156 231.910156 151.894531 232.152344 151.945312"/></g><path fill="#100F0D" d="M 204.246094 165.410156 Z M 205.753906 173.347656 C 205.941406 173.460938 206.160156 173.519531 206.402344 173.519531 C 206.640625 173.519531 206.871094 173.453125 207.085938 173.328125 C 207.371094 173.160156 207.53125 172.886719 207.53125 172.554688 L 207.410156 162.234375 C 207.375 162.023438 207.289062 161.828125 207.148438 161.65625 C 207.027344 161.507812 206.875 161.378906 206.691406 161.265625 C 206.472656 161.132812 206.234375 161.070312 205.984375 161.089844 C 205.664062 161.109375 205.402344 161.285156 205.273438 161.574219 C 205.269531 161.582031 205.265625 161.59375 205.261719 161.605469 C 205.144531 161.820312 205.023438 162.023438 204.90625 162.214844 C 204.773438 162.429688 204.625 162.640625 204.46875 162.855469 C 204.316406 163.066406 204.136719 163.277344 203.941406 163.492188 C 203.765625 163.6875 203.566406 163.890625 203.347656 164.09375 C 203.320312 164.113281 203.289062 164.132812 203.265625 164.160156 C 203.003906 164.40625 202.871094 164.675781 202.871094 164.953125 C 202.871094 165.214844 202.960938 165.449219 203.128906 165.628906 C 203.285156 165.796875 203.488281 165.902344 203.734375 165.953125 C 203.988281 166.003906 204.246094 165.960938 204.558594 165.769531 C 204.726562 165.621094 204.878906 165.472656 205.019531 165.316406 C 205.132812 165.191406 205.246094 165.066406 205.375 164.9375 L 205.417969 168.722656 L 205.363281 172.585938 C 205.363281 173.039062 205.609375 173.257812 205.753906 173.347656"/><path fill="#100F0D" d="M 217.238281 167.769531 C 217.238281 168.296875 217.175781 168.796875 217.054688 169.25 C 216.9375 169.6875 216.75 170.066406 216.5 170.382812 C 216.257812 170.695312 215.949219 170.9375 215.558594 171.121094 C 214.8125 171.472656 213.546875 171.5 212.804688 171.121094 C 212.445312 170.933594 212.15625 170.691406 211.929688 170.382812 C 211.699219 170.066406 211.527344 169.6875 211.421875 169.25 C 211.3125 168.792969 211.253906 168.292969 211.253906 167.769531 C 211.253906 167.21875 211.3125 166.667969 211.425781 166.128906 C 211.535156 165.605469 211.714844 165.132812 211.960938 164.726562 C 212.199219 164.332031 212.5 164.019531 212.878906 163.777344 C 213.242188 163.546875 213.695312 163.429688 214.238281 163.429688 C 214.765625 163.429688 215.21875 163.542969 215.585938 163.765625 C 215.96875 164 216.269531 164.300781 216.507812 164.6875 C 216.753906 165.085938 216.9375 165.558594 217.054688 166.082031 C 217.175781 166.625 217.238281 167.195312 217.238281 167.769531 Z M 218.886719 165 C 218.726562 164.53125 218.515625 164.074219 218.265625 163.644531 C 218.003906 163.203125 217.683594 162.804688 217.304688 162.464844 C 216.921875 162.117188 216.46875 161.835938 215.960938 161.632812 C 214.929688 161.21875 213.484375 161.214844 212.457031 161.640625 C 211.945312 161.851562 211.496094 162.140625 211.117188 162.5 C 210.75 162.847656 210.429688 163.253906 210.167969 163.707031 C 209.917969 164.148438 209.710938 164.609375 209.558594 165.078125 C 209.402344 165.546875 209.292969 166.019531 209.226562 166.484375 C 209.160156 166.945312 209.128906 167.375 209.128906 167.769531 C 209.128906 168.402344 209.21875 169.054688 209.398438 169.707031 C 209.582031 170.375 209.871094 170.996094 210.265625 171.546875 C 210.667969 172.113281 211.191406 172.582031 211.824219 172.941406 C 212.46875 173.304688 213.253906 173.488281 214.152344 173.488281 C 215.03125 173.488281 215.808594 173.3125 216.464844 172.96875 C 217.117188 172.628906 217.664062 172.179688 218.089844 171.632812 C 218.515625 171.089844 218.832031 170.46875 219.035156 169.792969 C 219.234375 169.125 219.339844 168.445312 219.339844 167.769531 C 219.339844 167.355469 219.300781 166.902344 219.230469 166.425781 C 219.160156 165.953125 219.046875 165.472656 218.886719 165"/><path fill="#100F0D" d="M 227.625 167.769531 C 227.625 168.296875 227.5625 168.796875 227.4375 169.25 C 227.320312 169.6875 227.136719 170.066406 226.886719 170.382812 C 226.640625 170.695312 226.332031 170.9375 225.945312 171.121094 C 225.195312 171.472656 223.929688 171.5 223.191406 171.121094 C 222.828125 170.933594 222.542969 170.691406 222.3125 170.382812 C 222.082031 170.066406 221.914062 169.6875 221.808594 169.25 C 221.695312 168.792969 221.640625 168.292969 221.640625 167.769531 C 221.640625 167.21875 221.695312 166.667969 221.8125 166.128906 C 221.921875 165.605469 222.097656 165.132812 222.34375 164.726562 C 222.585938 164.332031 222.886719 164.019531 223.265625 163.777344 C 223.625 163.546875 224.082031 163.429688 224.625 163.429688 C 225.152344 163.429688 225.605469 163.542969 225.96875 163.765625 C 226.351562 164 226.65625 164.300781 226.890625 164.6875 C 227.140625 165.085938 227.324219 165.558594 227.441406 166.082031 C 227.5625 166.625 227.625 167.195312 227.625 167.769531 Z M 229.269531 165 C 229.113281 164.53125 228.902344 164.074219 228.652344 163.644531 C 228.390625 163.203125 228.066406 162.804688 227.691406 162.464844 C 227.308594 162.117188 226.855469 161.835938 226.347656 161.632812 C 225.316406 161.21875 223.867188 161.214844 222.84375 161.640625 C 222.332031 161.851562 221.878906 162.140625 221.503906 162.5 C 221.132812 162.847656 220.8125 163.253906 220.554688 163.707031 C 220.300781 164.148438 220.09375 164.609375 219.941406 165.078125 C 219.789062 165.546875 219.679688 166.019531 219.613281 166.484375 C 219.546875 166.945312 219.511719 167.375 219.511719 167.769531 C 219.511719 168.402344 219.605469 169.054688 219.785156 169.707031 C 219.964844 170.375 220.257812 170.996094 220.652344 171.546875 C 221.050781 172.113281 221.574219 172.582031 222.210938 172.941406 C 222.855469 173.304688 223.636719 173.488281 224.539062 173.488281 C 225.414062 173.488281 226.191406 173.3125 226.851562 172.96875 C 227.503906 172.628906 228.050781 172.179688 228.476562 171.632812 C 228.898438 171.089844 229.21875 170.46875 229.417969 169.792969 C 229.621094 169.125 229.722656 168.445312 229.722656 167.769531 C 229.722656 167.355469 229.6875 166.902344 229.617188 166.425781 C 229.546875 165.953125 229.429688 165.472656 229.269531 165"/><g clip-path="url(#e)"><path fill="#100F0D" d="M 232.664062 165.410156 Z M 235.570312 161.65625 C 235.449219 161.507812 235.296875 161.378906 235.113281 161.265625 C 234.894531 161.132812 234.65625 161.070312 234.40625 161.089844 C 234.085938 161.109375 233.824219 161.285156 233.695312 161.574219 C 233.691406 161.582031 233.6875 161.59375 233.683594 161.605469 C 233.566406 161.820312 233.445312 162.023438 233.328125 162.214844 C 233.191406 162.429688 233.046875 162.640625 232.890625 162.855469 C 232.734375 163.066406 232.558594 163.277344 232.363281 163.492188 C 232.1875 163.6875 231.988281 163.890625 231.769531 164.09375 C 231.738281 164.113281 231.710938 164.132812 231.6875 164.160156 C 231.421875 164.40625 231.289062 164.675781 231.289062 164.953125 C 231.289062 165.214844 231.382812 165.449219 231.550781 165.628906 C 231.707031 165.796875 231.910156 165.902344 232.152344 165.953125 C 232.410156 166.003906 232.667969 165.960938 232.976562 165.769531 C 233.148438 165.621094 233.300781 165.472656 233.441406 165.316406 C 233.550781 165.191406 233.667969 165.066406 233.796875 164.9375 L 233.839844 168.722656 L 233.78125 172.585938 C 233.78125 173.039062 234.03125 173.257812 234.175781 173.347656 C 234.363281 173.460938 234.578125 173.519531 234.824219 173.519531 C 235.0625 173.519531 235.292969 173.453125 235.507812 173.328125 C 235.792969 173.160156 235.953125 172.886719 235.953125 172.554688 L 235.832031 162.234375 C 235.796875 162.023438 235.710938 161.828125 235.570312 161.65625"/></g><g clip-path="url(#f)"><path fill="#100F0D" d="M 209.589844 181.816406 C 209.589844 182.347656 209.527344 182.84375 209.40625 183.300781 C 209.289062 183.734375 209.101562 184.117188 208.851562 184.429688 C 208.609375 184.746094 208.300781 184.984375 207.910156 185.167969 C 207.160156 185.519531 205.898438 185.546875 205.15625 185.167969 C 204.796875 184.980469 204.507812 184.738281 204.28125 184.429688 C 204.050781 184.113281 203.878906 183.734375 203.773438 183.296875 C 203.660156 182.839844 203.605469 182.34375 203.605469 181.816406 C 203.605469 181.265625 203.664062 180.714844 203.777344 180.175781 C 203.886719 179.652344 204.066406 179.183594 204.3125 178.777344 C 204.550781 178.378906 204.851562 178.066406 205.230469 177.824219 C 205.589844 177.59375 206.046875 177.476562 206.589844 177.476562 C 207.117188 177.476562 207.570312 177.589844 207.9375 177.816406 C 208.320312 178.050781 208.621094 178.351562 208.859375 178.734375 C 209.105469 179.136719 209.289062 179.605469 209.40625 180.132812 C 209.527344 180.675781 209.589844 181.242188 209.589844 181.816406 Z M 211.234375 179.050781 C 211.078125 178.578125 210.867188 178.125 210.617188 177.691406 C 210.355469 177.25 210.03125 176.851562 209.65625 176.511719 C 209.273438 176.164062 208.820312 175.882812 208.3125 175.679688 C 207.28125 175.265625 205.835938 175.261719 204.808594 175.6875 C 204.296875 175.898438 203.847656 176.1875 203.46875 176.546875 C 203.097656 176.894531 202.78125 177.304688 202.519531 177.757812 C 202.265625 178.199219 202.0625 178.660156 201.910156 179.125 C 201.753906 179.59375 201.644531 180.066406 201.578125 180.53125 C 201.511719 180.992188 201.480469 181.421875 201.480469 181.816406 C 201.480469 182.449219 201.570312 183.101562 201.75 183.757812 C 201.933594 184.421875 202.222656 185.042969 202.617188 185.597656 C 203.015625 186.160156 203.542969 186.628906 204.175781 186.988281 C 204.820312 187.351562 205.605469 187.535156 206.503906 187.535156 C 207.378906 187.535156 208.160156 187.363281 208.816406 187.015625 C 209.46875 186.675781 210.015625 186.226562 210.441406 185.679688 C 210.867188 185.136719 211.183594 184.519531 211.386719 183.839844 C 211.585938 183.171875 211.6875 182.492188 211.6875 181.816406 C 211.6875 181.402344 211.652344 180.949219 211.582031 180.472656 C 211.511719 180 211.394531 179.519531 211.234375 179.050781"/></g><g clip-path="url(#g)"><path fill="#100F0D" d="M 214.628906 179.457031 Z M 217.535156 175.703125 C 217.414062 175.558594 217.261719 175.425781 217.078125 175.3125 C 216.859375 175.179688 216.617188 175.121094 216.371094 175.136719 C 216.050781 175.15625 215.789062 175.335938 215.660156 175.621094 C 215.65625 175.632812 215.652344 175.640625 215.648438 175.652344 C 215.53125 175.867188 215.410156 176.070312 215.292969 176.261719 C 215.160156 176.476562 215.011719 176.6875 214.855469 176.902344 C 214.703125 177.113281 214.527344 177.328125 214.328125 177.539062 C 214.152344 177.738281 213.953125 177.9375 213.734375 178.144531 C 213.707031 178.160156 213.675781 178.183594 213.652344 178.207031 C 213.390625 178.457031 213.257812 178.722656 213.257812 179 C 213.257812 179.261719 213.347656 179.496094 213.515625 179.679688 C 213.671875 179.84375 213.875 179.953125 214.121094 180 C 214.375 180.050781 214.632812 180.007812 214.945312 179.820312 C 215.113281 179.671875 215.265625 179.519531 215.40625 179.363281 C 215.515625 179.238281 215.632812 179.117188 215.761719 178.984375 L 215.804688 182.769531 L 215.75 186.636719 C 215.75 187.085938 215.996094 187.304688 216.140625 187.394531 C 216.328125 187.507812 216.546875 187.566406 216.789062 187.566406 C 217.027344 187.566406 217.257812 187.503906 217.472656 187.378906 C 217.757812 187.207031 217.917969 186.933594 217.917969 186.601562 L 217.796875 176.28125 C 217.761719 176.070312 217.675781 175.875 217.535156 175.703125"/></g><g clip-path="url(#h)"><path fill="#100F0D" d="M 227.625 181.816406 C 227.625 182.347656 227.5625 182.84375 227.4375 183.300781 C 227.320312 183.734375 227.136719 184.117188 226.886719 184.429688 C 226.640625 184.746094 226.332031 184.984375 225.945312 185.167969 C 225.195312 185.519531 223.929688 185.546875 223.191406 185.167969 C 222.828125 184.980469 222.542969 184.738281 222.3125 184.429688 C 222.082031 184.113281 221.914062 183.734375 221.808594 183.296875 C 221.695312 182.839844 221.640625 182.34375 221.640625 181.816406 C 221.640625 181.265625 221.695312 180.714844 221.8125 180.175781 C 221.921875 179.652344 222.097656 179.183594 222.34375 178.777344 C 222.585938 178.378906 222.886719 178.066406 223.265625 177.824219 C 223.625 177.59375 224.082031 177.476562 224.625 177.476562 C 225.152344 177.476562 225.605469 177.589844 225.96875 177.816406 C 226.351562 178.050781 226.65625 178.351562 226.890625 178.734375 C 227.140625 179.136719 227.324219 179.605469 227.441406 180.132812 C 227.5625 180.675781 227.625 181.242188 227.625 181.816406 Z M 229.269531 179.050781 C 229.113281 178.578125 228.902344 178.125 228.652344 177.691406 C 228.390625 177.25 228.066406 176.851562 227.691406 176.511719 C 227.308594 176.164062 226.855469 175.882812 226.347656 175.679688 C 225.316406 175.265625 223.867188 175.261719 222.84375 175.6875 C 222.332031 175.898438 221.878906 176.1875 221.503906 176.546875 C 221.132812 176.894531 220.8125 177.304688 220.554688 177.757812 C 220.300781 178.199219 220.09375 178.660156 219.941406 179.125 C 219.789062 179.59375 219.679688 180.066406 219.613281 180.53125 C 219.546875 180.992188 219.511719 181.421875 219.511719 181.816406 C 219.511719 182.449219 219.605469 183.101562 219.785156 183.757812 C 219.964844 184.421875 220.257812 185.042969 220.652344 185.597656 C 221.050781 186.160156 221.574219 186.628906 222.210938 186.988281 C 222.855469 187.351562 223.636719 187.535156 224.539062 187.535156 C 225.414062 187.535156 226.191406 187.363281 226.851562 187.015625 C 227.503906 186.675781 228.050781 186.226562 228.476562 185.679688 C 228.898438 185.136719 229.21875 184.519531 229.417969 183.839844 C 229.621094 183.171875 229.722656 182.492188 229.722656 181.816406 C 229.722656 181.402344 229.6875 180.949219 229.617188 180.472656 C 229.546875 180 229.429688 179.519531 229.269531 179.050781"/></g><g clip-path="url(#i)"><path fill="#100F0D" d="M 232.664062 179.457031 Z M 235.570312 175.703125 C 235.449219 175.558594 235.296875 175.425781 235.113281 175.3125 C 234.894531 175.179688 234.65625 175.121094 234.40625 175.136719 C 234.085938 175.15625 233.824219 175.335938 233.695312 175.621094 C 233.691406 175.632812 233.6875 175.640625 233.683594 175.652344 C 233.566406 175.867188 233.445312 176.070312 233.328125 176.261719 C 233.191406 176.476562 233.046875 176.6875 232.890625 176.902344 C 232.734375 177.113281 232.558594 177.328125 232.363281 177.539062 C 232.1875 177.738281 231.988281 177.9375 231.769531 178.144531 C 231.738281 178.160156 231.710938 178.183594 231.6875 178.207031 C 231.421875 178.457031 231.289062 178.722656 231.289062 179 C 231.289062 179.261719 231.382812 179.496094 231.550781 179.679688 C 231.707031 179.84375 231.910156 179.953125 232.152344 180 C 232.410156 180.050781 232.667969 180.007812 232.976562 179.820312 C 233.148438 179.671875 233.300781 179.519531 233.441406 179.363281 C 233.550781 179.238281 233.667969 179.117188 233.796875 178.984375 L 233.839844 182.769531 L 233.78125 186.636719 C 233.78125 187.085938 234.03125 187.304688 234.175781 187.394531 C 234.363281 187.507812 234.578125 187.566406 234.824219 187.566406 C 235.0625 187.566406 235.292969 187.503906 235.507812 187.378906 C 235.792969 187.207031 235.953125 186.933594 235.953125 186.601562 L 235.832031 176.28125 C 235.796875 176.070312 235.710938 175.875 235.570312 175.703125"/></g><g clip-path="url(#j)"><path fill="#100F0D" d="M 140.695312 153.757812 C 140.695312 153.210938 140.75 152.65625 140.867188 152.117188 C 140.976562 151.597656 141.152344 151.125 141.398438 150.71875 C 141.640625 150.320312 141.941406 150.011719 142.320312 149.765625 C 142.679688 149.535156 143.136719 149.417969 143.679688 149.417969 C 144.207031 149.417969 144.660156 149.535156 145.023438 149.757812 C 145.40625 149.992188 145.710938 150.292969 145.945312 150.675781 C 146.195312 151.078125 146.378906 151.546875 146.496094 152.074219 C 146.617188 152.617188 146.679688 153.183594 146.679688 153.757812 C 146.679688 154.289062 146.617188 154.789062 146.492188 155.242188 C 146.375 155.675781 146.191406 156.058594 145.941406 156.375 C 145.695312 156.6875 145.386719 156.929688 144.996094 157.109375 C 144.25 157.464844 142.984375 157.492188 142.246094 157.109375 C 141.882812 156.925781 141.597656 156.683594 141.367188 156.371094 C 141.136719 156.058594 140.96875 155.675781 140.863281 155.238281 C 140.75 154.78125 140.695312 154.285156 140.695312 153.757812 Z M 139.707031 157.539062 C 140.105469 158.101562 140.628906 158.570312 141.265625 158.929688 C 141.910156 159.292969 142.691406 159.480469 143.59375 159.480469 C 144.46875 159.480469 145.246094 159.304688 145.90625 158.960938 C 146.558594 158.617188 147.105469 158.167969 147.53125 157.621094 C 147.953125 157.082031 148.269531 156.460938 148.472656 155.785156 C 148.675781 155.117188 148.777344 154.433594 148.777344 153.757812 C 148.777344 153.34375 148.742188 152.890625 148.671875 152.414062 C 148.601562 151.941406 148.484375 151.464844 148.324219 150.992188 C 148.164062 150.523438 147.957031 150.066406 147.703125 149.636719 C 147.445312 149.191406 147.121094 148.796875 146.742188 148.453125 C 146.363281 148.105469 145.90625 147.828125 145.402344 147.621094 C 144.371094 147.207031 142.921875 147.207031 141.898438 147.632812 C 141.386719 147.84375 140.933594 148.132812 140.558594 148.488281 C 140.1875 148.839844 139.867188 149.246094 139.609375 149.699219 C 139.355469 150.140625 139.148438 150.601562 138.996094 151.070312 C 138.84375 151.535156 138.734375 152.011719 138.667969 152.476562 C 138.601562 152.933594 138.566406 153.367188 138.566406 153.757812 C 138.566406 154.390625 138.65625 155.042969 138.839844 155.699219 C 139.019531 156.367188 139.3125 156.984375 139.707031 157.539062"/></g><g clip-path="url(#k)"><path fill="#100F0D" d="M 151.71875 151.402344 Z M 151.207031 151.945312 C 151.464844 151.996094 151.722656 151.949219 152.03125 151.761719 C 152.203125 151.613281 152.355469 151.460938 152.496094 151.304688 C 152.605469 151.179688 152.722656 151.058594 152.851562 150.925781 L 152.894531 154.714844 L 152.835938 158.578125 C 152.835938 159.03125 153.085938 159.25 153.230469 159.335938 C 153.417969 159.449219 153.632812 159.507812 153.878906 159.507812 C 154.117188 159.507812 154.347656 159.445312 154.558594 159.320312 C 154.847656 159.152344 155.007812 158.878906 155.007812 158.542969 L 154.882812 148.226562 C 154.851562 148.011719 154.765625 147.816406 154.625 147.648438 C 154.503906 147.5 154.351562 147.367188 154.167969 147.253906 C 153.945312 147.121094 153.707031 147.0625 153.460938 147.078125 C 153.136719 147.101562 152.878906 147.277344 152.75 147.5625 C 152.746094 147.574219 152.738281 147.585938 152.734375 147.59375 C 152.621094 147.808594 152.5 148.011719 152.382812 148.203125 C 152.246094 148.417969 152.101562 148.632812 151.945312 148.84375 C 151.789062 149.054688 151.613281 149.269531 151.417969 149.484375 C 151.238281 149.679688 151.042969 149.878906 150.824219 150.085938 C 150.792969 150.105469 150.765625 150.125 150.742188 150.148438 C 150.476562 150.398438 150.34375 150.664062 150.34375 150.941406 C 150.34375 151.207031 150.433594 151.441406 150.605469 151.621094 C 150.761719 151.785156 150.964844 151.894531 151.207031 151.945312"/></g><g clip-path="url(#l)"><path fill="#100F0D" d="M 164.714844 153.757812 C 164.714844 154.289062 164.652344 154.789062 164.527344 155.242188 C 164.410156 155.675781 164.222656 156.058594 163.976562 156.375 C 163.730469 156.6875 163.421875 156.929688 163.03125 157.109375 C 162.285156 157.464844 161.019531 157.492188 160.28125 157.109375 C 159.917969 156.925781 159.632812 156.683594 159.402344 156.371094 C 159.171875 156.058594 159 155.675781 158.894531 155.238281 C 158.785156 154.78125 158.730469 154.285156 158.730469 153.757812 C 158.730469 153.210938 158.785156 152.65625 158.898438 152.117188 C 159.007812 151.597656 159.1875 151.125 159.433594 150.71875 C 159.671875 150.320312 159.976562 150.011719 160.355469 149.765625 C 160.714844 149.535156 161.171875 149.417969 161.714844 149.417969 C 162.238281 149.417969 162.691406 149.535156 163.058594 149.757812 C 163.441406 149.992188 163.742188 150.292969 163.980469 150.675781 C 164.226562 151.078125 164.414062 151.546875 164.53125 152.074219 C 164.652344 152.617188 164.714844 153.183594 164.714844 153.757812 Z M 166.359375 150.992188 C 166.199219 150.523438 165.992188 150.066406 165.738281 149.636719 C 165.476562 149.191406 165.15625 148.796875 164.777344 148.453125 C 164.394531 148.105469 163.941406 147.828125 163.433594 147.621094 C 162.40625 147.207031 160.957031 147.207031 159.933594 147.632812 C 159.421875 147.84375 158.96875 148.132812 158.59375 148.488281 C 158.222656 148.839844 157.902344 149.246094 157.640625 149.699219 C 157.390625 150.140625 157.183594 150.601562 157.03125 151.070312 C 156.878906 151.535156 156.765625 152.011719 156.699219 152.476562 C 156.636719 152.933594 156.601562 153.367188 156.601562 153.757812 C 156.601562 154.390625 156.691406 155.042969 156.871094 155.699219 C 157.054688 156.367188 157.347656 156.984375 157.742188 157.539062 C 158.140625 158.101562 158.664062 158.570312 159.300781 158.929688 C 159.941406 159.292969 160.726562 159.480469 161.625 159.480469 C 162.503906 159.480469 163.28125 159.304688 163.941406 158.960938 C 164.59375 158.617188 165.140625 158.167969 165.566406 157.621094 C 165.988281 157.082031 166.304688 156.460938 166.507812 155.785156 C 166.710938 155.117188 166.8125 154.433594 166.8125 153.757812 C 166.8125 153.34375 166.777344 152.890625 166.703125 152.414062 C 166.632812 151.941406 166.519531 151.464844 166.359375 150.992188"/></g><g clip-path="url(#m)"><path fill="#100F0D" d="M 169.753906 151.402344 Z M 169.242188 151.945312 C 169.496094 151.996094 169.757812 151.949219 170.066406 151.761719 C 170.238281 151.613281 170.390625 151.460938 170.53125 151.304688 C 170.640625 151.179688 170.753906 151.058594 170.886719 150.925781 L 170.929688 154.714844 L 170.871094 158.578125 C 170.871094 159.03125 171.121094 159.25 171.265625 159.335938 C 171.449219 159.449219 171.667969 159.507812 171.914062 159.507812 C 172.152344 159.507812 172.378906 159.445312 172.59375 159.320312 C 172.882812 159.152344 173.039062 158.878906 173.039062 158.542969 L 172.917969 148.226562 C 172.886719 148.011719 172.796875 147.816406 172.65625 147.648438 C 172.539062 147.5 172.386719 147.367188 172.203125 147.253906 C 171.980469 147.121094 171.742188 147.0625 171.496094 147.078125 C 171.171875 147.101562 170.914062 147.277344 170.785156 147.5625 C 170.777344 147.574219 170.773438 147.585938 170.769531 147.59375 C 170.652344 147.808594 170.535156 148.011719 170.414062 148.203125 C 170.28125 148.417969 170.132812 148.632812 169.976562 148.84375 C 169.824219 149.054688 169.648438 149.269531 169.453125 149.484375 C 169.273438 149.679688 169.078125 149.878906 168.859375 150.085938 C 168.828125 150.105469 168.800781 150.125 168.773438 150.148438 C 168.511719 150.398438 168.378906 150.664062 168.378906 150.941406 C 168.378906 151.207031 168.46875 151.441406 168.640625 151.621094 C 168.796875 151.785156 168.996094 151.894531 169.242188 151.945312"/></g><path fill="#100F0D" d="M 141.332031 165.410156 Z M 142.84375 173.347656 C 143.03125 173.460938 143.246094 173.519531 143.492188 173.519531 C 143.730469 173.519531 143.960938 173.453125 144.171875 173.328125 C 144.460938 173.160156 144.621094 172.886719 144.621094 172.554688 L 144.496094 162.234375 C 144.464844 162.023438 144.378906 161.828125 144.238281 161.65625 C 144.117188 161.507812 143.964844 161.378906 143.78125 161.265625 C 143.558594 161.132812 143.324219 161.070312 143.074219 161.089844 C 142.75 161.109375 142.492188 161.285156 142.363281 161.574219 C 142.359375 161.582031 142.351562 161.59375 142.351562 161.605469 C 142.234375 161.820312 142.113281 162.023438 141.996094 162.214844 C 141.859375 162.429688 141.714844 162.640625 141.558594 162.855469 C 141.402344 163.066406 141.226562 163.277344 141.03125 163.492188 C 140.851562 163.6875 140.65625 163.890625 140.4375 164.09375 C 140.40625 164.113281 140.378906 164.132812 140.355469 164.160156 C 140.089844 164.40625 139.957031 164.675781 139.957031 164.953125 C 139.957031 165.214844 140.046875 165.449219 140.21875 165.628906 C 140.375 165.796875 140.578125 165.902344 140.820312 165.953125 C 141.078125 166.003906 141.335938 165.960938 141.644531 165.769531 C 141.816406 165.621094 141.96875 165.472656 142.109375 165.316406 C 142.21875 165.191406 142.335938 165.066406 142.464844 164.9375 L 142.507812 168.722656 L 142.449219 172.585938 C 142.449219 173.039062 142.699219 173.257812 142.84375 173.347656"/><path fill="#100F0D" d="M 154.328125 167.769531 C 154.328125 168.296875 154.265625 168.796875 154.140625 169.25 C 154.023438 169.6875 153.839844 170.066406 153.589844 170.382812 C 153.34375 170.695312 153.035156 170.9375 152.648438 171.121094 C 151.898438 171.472656 150.632812 171.5 149.894531 171.121094 C 149.53125 170.933594 149.246094 170.691406 149.015625 170.382812 C 148.785156 170.066406 148.617188 169.6875 148.511719 169.25 C 148.398438 168.792969 148.34375 168.292969 148.34375 167.769531 C 148.34375 167.21875 148.398438 166.667969 148.515625 166.128906 C 148.625 165.605469 148.800781 165.132812 149.046875 164.726562 C 149.289062 164.332031 149.589844 164.019531 149.96875 163.777344 C 150.328125 163.546875 150.785156 163.429688 151.328125 163.429688 C 151.855469 163.429688 152.308594 163.542969 152.671875 163.765625 C 153.058594 164 153.359375 164.300781 153.59375 164.6875 C 153.84375 165.085938 154.027344 165.558594 154.144531 166.082031 C 154.265625 166.625 154.328125 167.195312 154.328125 167.769531 Z M 155.972656 165 C 155.8125 164.53125 155.605469 164.074219 155.355469 163.644531 C 155.09375 163.203125 154.769531 162.804688 154.394531 162.464844 C 154.011719 162.117188 153.558594 161.835938 153.050781 161.632812 C 152.019531 161.21875 150.570312 161.214844 149.546875 161.640625 C 149.035156 161.851562 148.585938 162.140625 148.207031 162.5 C 147.835938 162.847656 147.515625 163.253906 147.257812 163.707031 C 147.003906 164.148438 146.796875 164.609375 146.644531 165.078125 C 146.492188 165.546875 146.382812 166.019531 146.316406 166.484375 C 146.25 166.945312 146.214844 167.375 146.214844 167.769531 C 146.214844 168.402344 146.308594 169.054688 146.488281 169.707031 C 146.667969 170.375 146.960938 170.996094 147.355469 171.546875 C 147.753906 172.113281 148.277344 172.582031 148.914062 172.941406 C 149.558594 173.304688 150.339844 173.488281 151.242188 173.488281 C 152.117188 173.488281 152.894531 173.3125 153.554688 172.96875 C 154.207031 172.628906 154.753906 172.179688 155.179688 171.632812 C 155.601562 171.089844 155.917969 170.46875 156.121094 169.792969 C 156.324219 169.125 156.425781 168.445312 156.425781 167.769531 C 156.425781 167.355469 156.390625 166.902344 156.320312 166.425781 C 156.25 165.953125 156.132812 165.472656 155.972656 165"/><path fill="#100F0D" d="M 164.714844 167.769531 C 164.714844 168.296875 164.652344 168.796875 164.527344 169.25 C 164.410156 169.6875 164.222656 170.066406 163.976562 170.382812 C 163.730469 170.695312 163.421875 170.9375 163.03125 171.121094 C 162.285156 171.472656 161.019531 171.5 160.28125 171.121094 C 159.917969 170.933594 159.632812 170.691406 159.402344 170.382812 C 159.171875 170.066406 159 169.6875 158.894531 169.25 C 158.785156 168.792969 158.730469 168.292969 158.730469 167.769531 C 158.730469 167.21875 158.785156 166.667969 158.898438 166.128906 C 159.007812 165.605469 159.1875 165.132812 159.433594 164.726562 C 159.671875 164.332031 159.976562 164.019531 160.355469 163.777344 C 160.714844 163.546875 161.171875 163.429688 161.714844 163.429688 C 162.238281 163.429688 162.691406 163.542969 163.058594 163.765625 C 163.441406 164 163.742188 164.300781 163.980469 164.6875 C 164.226562 165.085938 164.414062 165.558594 164.53125 166.082031 C 164.652344 166.625 164.714844 167.195312 164.714844 167.769531 Z M 166.359375 165 C 166.199219 164.53125 165.992188 164.074219 165.738281 163.644531 C 165.476562 163.203125 165.15625 162.804688 164.777344 162.464844 C 164.394531 162.117188 163.941406 161.835938 163.433594 161.632812 C 162.40625 161.21875 160.957031 161.214844 159.933594 161.640625 C 159.421875 161.851562 158.96875 162.140625 158.59375 162.5 C 158.222656 162.847656 157.902344 163.253906 157.640625 163.707031 C 157.390625 164.148438 157.183594 164.609375 157.03125 165.078125 C 156.878906 165.546875 156.765625 166.019531 156.699219 166.484375 C 156.636719 166.945312 156.601562 167.375 156.601562 167.769531 C 156.601562 168.402344 156.691406 169.054688 156.871094 169.707031 C 157.054688 170.375 157.347656 170.996094 157.742188 171.546875 C 158.140625 172.113281 158.664062 172.582031 159.300781 172.941406 C 159.941406 173.304688 160.726562 173.488281 161.625 173.488281 C 162.503906 173.488281 163.28125 173.3125 163.941406 172.96875 C 164.59375 172.628906 165.140625 172.179688 165.566406 171.632812 C 165.988281 171.089844 166.304688 170.46875 166.507812 169.792969 C 166.710938 169.125 166.8125 168.445312 166.8125 167.769531 C 166.8125 167.355469 166.777344 166.902344 166.703125 166.425781 C 166.632812 165.953125 166.519531 165.472656 166.359375 165"/><g clip-path="url(#n)"><path fill="#100F0D" d="M 169.753906 165.410156 Z M 172.65625 161.65625 C 172.539062 161.507812 172.386719 161.378906 172.203125 161.265625 C 171.980469 161.132812 171.742188 161.070312 171.496094 161.089844 C 171.171875 161.109375 170.914062 161.285156 170.785156 161.574219 C 170.777344 161.582031 170.773438 161.59375 170.769531 161.605469 C 170.652344 161.820312 170.535156 162.023438 170.414062 162.214844 C 170.28125 162.429688 170.132812 162.640625 169.976562 162.855469 C 169.824219 163.066406 169.648438 163.277344 169.453125 163.492188 C 169.273438 163.6875 169.078125 163.890625 168.859375 164.09375 C 168.828125 164.113281 168.800781 164.132812 168.773438 164.160156 C 168.511719 164.40625 168.378906 164.675781 168.378906 164.953125 C 168.378906 165.214844 168.46875 165.449219 168.640625 165.628906 C 168.796875 165.796875 168.996094 165.902344 169.242188 165.953125 C 169.496094 166.003906 169.757812 165.960938 170.066406 165.769531 C 170.238281 165.621094 170.390625 165.472656 170.53125 165.316406 C 170.640625 165.191406 170.753906 165.066406 170.886719 164.9375 L 170.929688 168.722656 L 170.871094 172.585938 C 170.871094 173.039062 171.121094 173.257812 171.265625 173.347656 C 171.449219 173.460938 171.667969 173.519531 171.914062 173.519531 C 172.152344 173.519531 172.378906 173.453125 172.59375 173.328125 C 172.882812 173.160156 173.039062 172.886719 173.039062 172.554688 L 172.917969 162.234375 C 172.886719 162.023438 172.796875 161.828125 172.65625 161.65625"/></g><g clip-path="url(#o)"><path fill="#100F0D" d="M 146.679688 181.816406 C 146.679688 182.347656 146.617188 182.84375 146.492188 183.300781 C 146.375 183.734375 146.191406 184.117188 145.941406 184.429688 C 145.695312 184.746094 145.386719 184.984375 144.996094 185.167969 C 144.25 185.519531 142.984375 185.546875 142.246094 185.167969 C 141.882812 184.980469 141.597656 184.738281 141.367188 184.429688 C 141.136719 184.113281 140.96875 183.734375 140.863281 183.296875 C 140.75 182.839844 140.695312 182.34375 140.695312 181.816406 C 140.695312 181.265625 140.75 180.714844 140.867188 180.175781 C 140.976562 179.652344 141.152344 179.183594 141.398438 178.777344 C 141.640625 178.378906 141.941406 178.066406 142.320312 177.824219 C 142.679688 177.59375 143.136719 177.476562 143.679688 177.476562 C 144.207031 177.476562 144.660156 177.589844 145.023438 177.816406 C 145.40625 178.050781 145.710938 178.351562 145.945312 178.734375 C 146.195312 179.136719 146.378906 179.605469 146.496094 180.132812 C 146.617188 180.675781 146.679688 181.242188 146.679688 181.816406 Z M 148.324219 179.050781 C 148.164062 178.578125 147.957031 178.125 147.703125 177.691406 C 147.445312 177.25 147.121094 176.851562 146.742188 176.511719 C 146.363281 176.164062 145.90625 175.882812 145.402344 175.679688 C 144.371094 175.265625 142.921875 175.261719 141.898438 175.6875 C 141.386719 175.898438 140.933594 176.1875 140.558594 176.546875 C 140.1875 176.894531 139.867188 177.304688 139.609375 177.757812 C 139.355469 178.199219 139.148438 178.660156 138.996094 179.125 C 138.84375 179.59375 138.734375 180.066406 138.667969 180.53125 C 138.601562 180.992188 138.566406 181.421875 138.566406 181.816406 C 138.566406 182.449219 138.65625 183.101562 138.839844 183.757812 C 139.019531 184.421875 139.3125 185.042969 139.707031 185.597656 C 140.105469 186.160156 140.628906 186.628906 141.265625 186.988281 C 141.910156 187.351562 142.691406 187.535156 143.59375 187.535156 C 144.46875 187.535156 145.246094 187.363281 145.90625 187.015625 C 146.558594 186.675781 147.105469 186.226562 147.53125 185.679688 C 147.953125 185.136719 148.269531 184.519531 148.472656 183.839844 C 148.675781 183.171875 148.777344 182.492188 148.777344 181.816406 C 148.777344 181.402344 148.742188 180.949219 148.671875 180.472656 C 148.601562 180 148.484375 179.519531 148.324219 179.050781"/></g><g clip-path="url(#p)"><path fill="#100F0D" d="M 151.71875 179.457031 Z M 154.625 175.703125 C 154.503906 175.558594 154.351562 175.425781 154.167969 175.3125 C 153.945312 175.179688 153.707031 175.121094 153.460938 175.136719 C 153.136719 175.15625 152.878906 175.335938 152.75 175.621094 C 152.746094 175.632812 152.738281 175.640625 152.734375 175.652344 C 152.621094 175.867188 152.5 176.070312 152.382812 176.261719 C 152.246094 176.476562 152.101562 176.6875 151.945312 176.902344 C 151.789062 177.113281 151.613281 177.328125 151.417969 177.539062 C 151.238281 177.738281 151.042969 177.9375 150.824219 178.144531 C 150.792969 178.160156 150.765625 178.183594 150.742188 178.207031 C 150.476562 178.457031 150.34375 178.722656 150.34375 179 C 150.34375 179.261719 150.433594 179.496094 150.605469 179.679688 C 150.761719 179.84375 150.964844 179.953125 151.207031 180 C 151.464844 180.050781 151.722656 180.007812 152.03125 179.820312 C 152.203125 179.671875 152.355469 179.519531 152.496094 179.363281 C 152.605469 179.238281 152.722656 179.117188 152.851562 178.984375 L 152.894531 182.769531 L 152.835938 186.636719 C 152.835938 187.085938 153.085938 187.304688 153.230469 187.394531 C 153.417969 187.507812 153.632812 187.566406 153.878906 187.566406 C 154.117188 187.566406 154.347656 187.503906 154.558594 187.378906 C 154.847656 187.207031 155.007812 186.933594 155.007812 186.601562 L 154.882812 176.28125 C 154.851562 176.070312 154.765625 175.875 154.625 175.703125"/></g><g clip-path="url(#q)"><path fill="#100F0D" d="M 164.714844 181.816406 C 164.714844 182.347656 164.652344 182.84375 164.527344 183.300781 C 164.410156 183.734375 164.222656 184.117188 163.976562 184.429688 C 163.730469 184.746094 163.421875 184.984375 163.03125 185.167969 C 162.285156 185.519531 161.019531 185.546875 160.28125 185.167969 C 159.917969 184.980469 159.632812 184.738281 159.402344 184.429688 C 159.171875 184.113281 159 183.734375 158.894531 183.296875 C 158.785156 182.839844 158.730469 182.34375 158.730469 181.816406 C 158.730469 181.265625 158.785156 180.714844 158.898438 180.175781 C 159.007812 179.652344 159.1875 179.183594 159.433594 178.777344 C 159.671875 178.378906 159.976562 178.066406 160.355469 177.824219 C 160.714844 177.59375 161.171875 177.476562 161.714844 177.476562 C 162.238281 177.476562 162.691406 177.589844 163.058594 177.816406 C 163.441406 178.050781 163.742188 178.351562 163.980469 178.734375 C 164.226562 179.136719 164.414062 179.605469 164.53125 180.132812 C 164.652344 180.675781 164.714844 181.242188 164.714844 181.816406 Z M 166.359375 179.050781 C 166.199219 178.578125 165.992188 178.125 165.738281 177.691406 C 165.476562 177.25 165.15625 176.851562 164.777344 176.511719 C 164.394531 176.164062 163.941406 175.882812 163.433594 175.679688 C 162.40625 175.265625 160.957031 175.261719 159.933594 175.6875 C 159.421875 175.898438 158.96875 176.1875 158.59375 176.546875 C 158.222656 176.894531 157.902344 177.304688 157.640625 177.757812 C 157.390625 178.199219 157.183594 178.660156 157.03125 179.125 C 156.878906 179.59375 156.765625 180.066406 156.699219 180.53125 C 156.636719 180.992188 156.601562 181.421875 156.601562 181.816406 C 156.601562 182.449219 156.691406 183.101562 156.871094 183.757812 C 157.054688 184.421875 157.347656 185.042969 157.742188 185.597656 C 158.140625 186.160156 158.664062 186.628906 159.300781 186.988281 C 159.941406 187.351562 160.726562 187.535156 161.625 187.535156 C 162.503906 187.535156 163.28125 187.363281 163.941406 187.015625 C 164.59375 186.675781 165.140625 186.226562 165.566406 185.679688 C 165.988281 185.136719 166.304688 184.519531 166.507812 183.839844 C 166.710938 183.171875 166.8125 182.492188 166.8125 181.816406 C 166.8125 181.402344 166.777344 180.949219 166.703125 180.472656 C 166.632812 180 166.519531 179.519531 166.359375 179.050781"/></g><g clip-path="url(#r)"><path fill="#100F0D" d="M 169.753906 179.457031 Z M 172.65625 175.703125 C 172.539062 175.558594 172.386719 175.425781 172.203125 175.3125 C 171.980469 175.179688 171.742188 175.121094 171.496094 175.136719 C 171.171875 175.15625 170.914062 175.335938 170.785156 175.621094 C 170.777344 175.632812 170.773438 175.640625 170.769531 175.652344 C 170.652344 175.867188 170.535156 176.070312 170.414062 176.261719 C 170.28125 176.476562 170.132812 176.6875 169.976562 176.902344 C 169.824219 177.113281 169.648438 177.328125 169.453125 177.539062 C 169.273438 177.738281 169.078125 177.9375 168.859375 178.144531 C 168.828125 178.160156 168.800781 178.183594 168.773438 178.207031 C 168.511719 178.457031 168.378906 178.722656 168.378906 179 C 168.378906 179.261719 168.46875 179.496094 168.640625 179.679688 C 168.796875 179.84375 168.996094 179.953125 169.242188 180 C 169.496094 180.050781 169.757812 180.007812 170.066406 179.820312 C 170.238281 179.671875 170.390625 179.519531 170.53125 179.363281 C 170.640625 179.238281 170.753906 179.117188 170.886719 178.984375 L 170.929688 182.769531 L 170.871094 186.636719 C 170.871094 187.085938 171.121094 187.304688 171.265625 187.394531 C 171.449219 187.507812 171.667969 187.566406 171.914062 187.566406 C 172.152344 187.566406 172.378906 187.503906 172.59375 187.378906 C 172.882812 187.207031 173.039062 186.933594 173.039062 186.601562 L 172.917969 176.28125 C 172.886719 176.070312 172.796875 175.875 172.65625 175.703125"/></g><g clip-path="url(#s)"><path fill="#AFB1EB" d="M 271.097656 154.769531 C 270.046875 153.71875 268.996094 152.667969 267.941406 151.613281 C 267.214844 150.886719 266.488281 150.160156 265.761719 149.433594 C 265.511719 149.183594 265.261719 148.9375 265.011719 148.683594 C 264.953125 148.625 264.757812 148.351562 264.667969 148.34375 C 264.570312 148.332031 264.128906 148.84375 264.050781 148.917969 C 263.75 149.195312 263.4375 149.460938 263.121094 149.710938 C 262.476562 150.226562 261.800781 150.691406 261.09375 151.113281 C 259.730469 151.921875 258.261719 152.550781 256.734375 152.980469 C 253.765625 153.816406 250.59375 153.878906 247.589844 153.164062 C 244.476562 152.429688 241.519531 150.851562 239.226562 148.609375 C 236.605469 146.050781 233.703125 143.929688 230.308594 142.492188 C 223.683594 139.691406 216.042969 139.632812 209.375 142.339844 C 205.988281 143.714844 202.921875 145.773438 200.339844 148.347656 C 197.484375 151.195312 193.738281 153.03125 189.734375 153.535156 C 186 154.003906 182.09375 153.296875 178.792969 151.480469 C 177.246094 150.628906 175.832031 149.578125 174.582031 148.328125 C 173.257812 147.003906 171.800781 145.816406 170.238281 144.789062 C 164.191406 140.820312 156.652344 139.433594 149.582031 140.941406 C 146.03125 141.695312 142.644531 143.164062 139.667969 145.242188 C 138.15625 146.300781 136.859375 147.550781 135.519531 148.800781 C 134.339844 149.894531 133.019531 150.832031 131.597656 151.578125 C 126.003906 154.515625 119.085938 154.304688 113.691406 151.019531 C 113.003906 150.601562 112.347656 150.136719 111.722656 149.632812 C 111.421875 149.390625 111.128906 149.136719 110.84375 148.875 C 110.746094 148.785156 110.367188 148.332031 110.269531 148.347656 C 110.171875 148.363281 109.96875 148.648438 109.902344 148.714844 C 109.648438 148.972656 109.390625 149.230469 109.132812 149.484375 C 107.675781 150.941406 106.21875 152.398438 104.761719 153.855469 C 104.453125 154.160156 104.148438 154.464844 103.84375 154.769531 C 108.847656 159.769531 115.710938 162.664062 122.785156 162.753906 C 124.714844 162.777344 126.648438 162.601562 128.542969 162.21875 C 127.222656 168.769531 128.394531 175.605469 131.726562 181.382812 C 134.796875 186.707031 139.769531 190.875 145.488281 193.078125 C 148.601562 194.28125 151.949219 194.902344 155.289062 194.902344 C 161.082031 194.886719 166.738281 193.027344 171.421875 189.625 C 176.746094 185.753906 180.480469 179.933594 181.925781 173.527344 C 182.761719 169.828125 182.785156 165.9375 182.035156 162.21875 C 185.605469 162.9375 189.335938 162.9375 192.90625 162.21875 C 191.589844 168.765625 192.75 175.609375 196.089844 181.382812 C 199.167969 186.703125 204.125 190.871094 209.847656 193.078125 C 212.964844 194.28125 216.3125 194.902344 219.652344 194.902344 C 225.457031 194.902344 231.15625 193.007812 235.835938 189.582031 C 241.109375 185.722656 244.816406 179.960938 246.269531 173.609375 C 247.121094 169.882812 247.152344 165.96875 246.394531 162.21875 C 253.214844 163.589844 260.449219 162.28125 266.335938 158.574219 C 268.0625 157.488281 269.65625 156.207031 271.097656 154.769531 Z M 173.453125 168.164062 C 173.234375 176.105469 167.628906 183.1875 159.929688 185.1875 C 152.308594 187.167969 143.890625 183.941406 139.808594 177.140625 C 137.824219 173.832031 136.875 170.0625 137.171875 166.203125 C 137.453125 162.601562 138.808594 159.113281 141.066406 156.289062 C 145.621094 150.585938 153.359375 148.109375 160.398438 150.160156 C 167.332031 152.183594 172.507812 158.339844 173.335938 165.507812 C 173.441406 166.390625 173.480469 167.277344 173.453125 168.164062 Z M 237.820312 168.164062 C 237.6875 172.167969 236.253906 175.832031 233.839844 179 C 231.527344 182.035156 227.96875 184.238281 224.296875 185.1875 C 216.734375 187.148438 208.269531 183.984375 204.214844 177.203125 C 202.195312 173.824219 201.21875 170.007812 201.550781 166.066406 C 201.851562 162.488281 203.226562 159.035156 205.480469 156.234375 C 209.988281 150.628906 217.558594 148.179688 224.496094 150.085938 C 231.5625 152.027344 236.863281 158.234375 237.707031 165.507812 C 237.804688 166.390625 237.84375 167.277344 237.820312 168.164062 Z M 237.820312 168.164062"/></g><g><g><g><path d="M 13.941406 -19.496094 L -0.164062 -19.496094 L -0.164062 -15.695312 L 4.777344 -15.695312 L 4.777344 0 L 9.035156 0 L 9.035156 -15.695312 L 13.941406 -15.695312 Z M 13.941406 -19.496094" transform="translate(78.278 224.287)"/></g></g></g><g><g><g><path d="M 9.714844 -13.257812 C 8.285156 -13.257812 6.984375 -12.609375 6.078125 -11.535156 L 6.078125 -22.257812 L 1.917969 -22.257812 L 1.917969 0 L 6.078125 0 L 6.078125 -7.34375 C 6.078125 -8.480469 7.019531 -9.585938 8.285156 -9.585938 C 9.457031 -9.585938 10.269531 -8.675781 10.269531 -7.539062 L 10.269531 0 L 14.425781 0 L 14.425781 -8.222656 C 14.425781 -11.082031 12.347656 -13.257812 9.714844 -13.257812 Z M 9.714844 -13.257812" transform="translate(91.534 224.287)"/></g></g></g><g><g><g><path d="M 15.140625 -6.53125 C 15.140625 -10.59375 12.347656 -13.289062 8.15625 -13.289062 C 3.964844 -13.289062 1.007812 -10.558594 1.007812 -6.5 C 1.007812 -2.4375 3.933594 0.261719 8.285156 0.261719 C 11.894531 0.261719 14.296875 -1.65625 14.945312 -4.484375 L 10.949219 -4.484375 C 10.59375 -3.445312 9.652344 -2.828125 8.222656 -2.828125 C 6.335938 -2.828125 5.363281 -3.964844 5.199219 -5.816406 L 15.140625 -5.816406 Z M 8.222656 -10.105469 C 9.617188 -10.105469 10.429688 -9.457031 10.851562 -8.320312 L 5.457031 -8.320312 C 5.882812 -9.421875 6.757812 -10.105469 8.222656 -10.105469 Z M 8.222656 -10.105469" transform="translate(107.064 224.287)"/></g></g></g><g><g><g><path d="M 11.210938 0.261719 C 15.078125 0.261719 18.425781 -1.917969 20.082031 -5.101562 L 16.375 -7.019531 C 15.433594 -5.167969 13.515625 -3.933594 11.210938 -3.933594 C 7.929688 -3.933594 5.425781 -6.464844 5.425781 -9.75 C 5.425781 -13.03125 7.929688 -15.566406 11.210938 -15.566406 C 13.515625 -15.566406 15.433594 -14.328125 16.375 -12.476562 L 20.082031 -14.394531 C 18.425781 -17.578125 15.078125 -19.757812 11.210938 -19.757812 C 5.6875 -19.757812 1.203125 -15.273438 1.203125 -9.75 C 1.203125 -4.222656 5.6875 0.261719 11.210938 0.261719 Z M 11.210938 0.261719" transform="translate(129.937 224.287)"/></g></g></g><g><g><g><path d="M 8.253906 0.261719 C 12.609375 0.261719 15.46875 -2.597656 15.46875 -6.5 C 15.46875 -10.398438 12.609375 -13.257812 8.253906 -13.257812 C 3.898438 -13.257812 1.007812 -10.398438 1.007812 -6.5 C 1.007812 -2.597656 3.898438 0.261719 8.253906 0.261719 Z M 8.253906 -3.410156 C 6.464844 -3.445312 5.167969 -4.742188 5.167969 -6.5 C 5.167969 -8.253906 6.464844 -9.554688 8.253906 -9.585938 C 10.007812 -9.554688 11.339844 -8.253906 11.339844 -6.5 C 11.339844 -4.742188 10.007812 -3.445312 8.253906 -3.410156 Z M 8.253906 -3.410156" transform="translate(150.341 224.287)"/></g></g></g><g><g><g><path d="M 11.144531 -22.257812 L 11.144531 -11.859375 C 10.171875 -12.738281 8.9375 -13.257812 7.441406 -13.257812 C 3.835938 -13.257812 1.007812 -10.269531 1.007812 -6.5 C 1.007812 -2.730469 3.835938 0.261719 7.441406 0.261719 C 8.9375 0.261719 10.171875 -0.261719 11.144531 -1.136719 L 11.144531 0.03125 L 15.273438 0 L 15.273438 -22.257812 Z M 8.253906 -3.410156 C 6.53125 -3.410156 5.167969 -4.777344 5.167969 -6.5 C 5.167969 -8.222656 6.53125 -9.585938 8.253906 -9.585938 C 9.941406 -9.585938 11.339844 -8.222656 11.339844 -6.5 C 11.339844 -4.777344 9.941406 -3.410156 8.253906 -3.410156 Z M 8.253906 -3.410156" transform="translate(166.326 224.287)"/></g></g></g><g><g><g><path d="M 15.140625 -6.53125 C 15.140625 -10.59375 12.347656 -13.289062 8.15625 -13.289062 C 3.964844 -13.289062 1.007812 -10.558594 1.007812 -6.5 C 1.007812 -2.4375 3.933594 0.261719 8.285156 0.261719 C 11.894531 0.261719 14.296875 -1.65625 14.945312 -4.484375 L 10.949219 -4.484375 C 10.59375 -3.445312 9.652344 -2.828125 8.222656 -2.828125 C 6.335938 -2.828125 5.363281 -3.964844 5.199219 -5.816406 L 15.140625 -5.816406 Z M 8.222656 -10.105469 C 9.617188 -10.105469 10.429688 -9.457031 10.851562 -8.320312 L 5.457031 -8.320312 C 5.882812 -9.421875 6.757812 -10.105469 8.222656 -10.105469 Z M 8.222656 -10.105469" transform="translate(182.993 224.287)"/></g></g></g><g><g><g><path d="M 18.910156 -19.496094 L 12.703125 -6.011719 L 6.5625 -19.496094 L 1.917969 -19.496094 L 1.917969 0 L 6.207031 0 L 6.207031 -11.632812 L 11.46875 0 L 13.941406 0 L 19.234375 -11.601562 L 19.234375 0 L 23.527344 0 L 23.527344 -19.496094 Z M 18.910156 -19.496094" transform="translate(198.589 224.287)"/></g></g></g><g><g><g><path d="M 16.410156 -3.378906 C 15.855469 -3.378906 15.273438 -3.574219 15.273438 -4.648438 L 15.273438 -12.996094 L 11.144531 -12.996094 L 11.144531 -11.859375 C 10.171875 -12.738281 8.9375 -13.257812 7.441406 -13.257812 C 3.835938 -13.257812 1.007812 -10.269531 1.007812 -6.5 C 1.007812 -2.730469 3.835938 0.261719 7.441406 0.261719 C 9.324219 0.261719 10.851562 -0.585938 11.894531 -1.949219 C 12.703125 -0.617188 14.136719 0.261719 15.890625 0.261719 C 16.3125 0.261719 16.703125 0.128906 16.996094 0 L 16.996094 -3.378906 Z M 8.253906 -3.410156 C 6.53125 -3.410156 5.167969 -4.777344 5.167969 -6.5 C 5.167969 -8.222656 6.53125 -9.585938 8.253906 -9.585938 C 9.941406 -9.585938 11.339844 -8.222656 11.339844 -6.5 C 11.339844 -4.777344 9.941406 -3.410156 8.253906 -3.410156 Z M 8.253906 -3.410156" transform="translate(223.509 224.287)"/></g></g></g><g><g><g><path d="M 9.78125 -13.257812 C 8.285156 -13.257812 6.984375 -12.542969 6.078125 -11.40625 L 6.078125 -12.996094 L 1.917969 -12.996094 L 1.917969 0 L 6.078125 0 L 6.078125 -7.539062 C 6.078125 -8.707031 7.050781 -9.585938 8.253906 -9.585938 C 9.457031 -9.585938 10.300781 -8.707031 10.300781 -7.539062 L 10.300781 0 L 14.425781 0 L 14.425781 -8.222656 C 14.425781 -11.082031 12.347656 -13.257812 9.78125 -13.257812 Z M 9.78125 -13.257812" transform="translate(240.468 224.287)"/></g></g></g><g><g><g><path d="M 4.0625 -15.175781 C 5.296875 -15.175781 6.335938 -16.214844 6.335938 -17.449219 C 6.335938 -18.714844 5.296875 -19.722656 4.0625 -19.722656 C 2.828125 -19.722656 1.789062 -18.714844 1.789062 -17.449219 C 1.789062 -16.214844 2.828125 -15.175781 4.0625 -15.175781 Z M 1.980469 0 L 6.109375 0 L 6.109375 -12.996094 L 1.980469 -12.996094 Z M 1.980469 0" transform="translate(256.031 224.287)"/></g></g></g><g><g><g><path d="M 16.410156 -3.378906 C 15.855469 -3.378906 15.273438 -3.574219 15.273438 -4.648438 L 15.273438 -12.996094 L 11.144531 -12.996094 L 11.144531 -11.859375 C 10.171875 -12.738281 8.9375 -13.257812 7.441406 -13.257812 C 3.835938 -13.257812 1.007812 -10.269531 1.007812 -6.5 C 1.007812 -2.730469 3.835938 0.261719 7.441406 0.261719 C 9.324219 0.261719 10.851562 -0.585938 11.894531 -1.949219 C 12.703125 -0.617188 14.136719 0.261719 15.890625 0.261719 C 16.3125 0.261719 16.703125 0.128906 16.996094 0 L 16.996094 -3.378906 Z M 8.253906 -3.410156 C 6.53125 -3.410156 5.167969 -4.777344 5.167969 -6.5 C 5.167969 -8.222656 6.53125 -9.585938 8.253906 -9.585938 C 9.941406 -9.585938 11.339844 -8.222656 11.339844 -6.5 C 11.339844 -4.777344 9.941406 -3.410156 8.253906 -3.410156 Z M 8.253906 -3.410156" transform="translate(263.634 224.287)"/></g></g></g><g><g><g><path d="M 8.253906 0.261719 C 12.152344 0.261719 14.816406 -2.015625 15.371094 -5.265625 L 11.082031 -5.265625 C 10.65625 -4.160156 9.585938 -3.445312 8.253906 -3.410156 C 6.464844 -3.445312 5.167969 -4.742188 5.167969 -6.5 C 5.167969 -8.253906 6.464844 -9.554688 8.253906 -9.585938 C 9.585938 -9.554688 10.65625 -8.839844 11.082031 -7.734375 L 15.371094 -7.734375 C 14.816406 -10.984375 12.152344 -13.257812 8.253906 -13.257812 C 3.898438 -13.257812 1.007812 -10.398438 1.007812 -6.5 C 1.007812 -2.597656 3.898438 0.261719 8.253906 0.261719 Z M 8.253906 0.261719" transform="translate(280.593 224.287)"/></g></g></g><g><g><g><path d="M 5.292969 -4.65625 L 4.570312 -1.589844 L 3.75 -4.65625 L 2.667969 -4.65625 L 1.847656 -1.589844 L 1.132812 -4.65625 L -0.125 -4.65625 L 1.085938 0 L 2.476562 0 L 3.210938 -2.964844 L 3.941406 0 L 5.332031 0 L 6.550781 -4.65625 Z M 5.292969 -4.65625" transform="translate(103.844 237.418)"/></g></g></g><g><g><g><path d="M 3.289062 -4.65625 L 3.289062 -2.847656 L 1.613281 -2.847656 L 1.613281 -4.65625 L 0.425781 -4.65625 L 0.425781 0 L 1.613281 0 L 1.613281 -1.816406 L 3.289062 -1.816406 L 3.289062 0 L 4.476562 0 L 4.476562 -4.65625 Z M 3.289062 -4.65625" transform="translate(111.007 237.418)"/></g></g></g><g><g><g><path d="M 0.464844 0 L 1.652344 0 L 1.652344 -4.65625 L 0.464844 -4.65625 Z M 0.464844 0" transform="translate(116.665 237.418)"/></g></g></g><g><g><g><path d="M 1.613281 -1.03125 L 1.613281 -4.65625 L 0.425781 -4.65625 L 0.425781 0 L 3.097656 0 L 3.097656 -1.03125 Z M 1.613281 -1.03125" transform="translate(119.52 237.418)"/></g></g></g><g><g><g><path d="M 3.351562 -3.625 L 3.351562 -4.65625 L 0.464844 -4.65625 L 0.464844 0 L 3.351562 0 L 3.351562 -1.03125 L 1.652344 -1.03125 L 1.652344 -1.816406 L 3.089844 -1.816406 L 3.089844 -2.839844 L 1.652344 -2.839844 L 1.652344 -3.625 Z M 3.351562 -3.625" transform="translate(123.362 237.418)"/></g></g></g><g><g><g><path d="M 2.421875 1.839844 L 2.421875 1.023438 C 1.863281 1.046875 1.414062 0.386719 1.414062 -1.777344 C 1.414062 -3.957031 1.863281 -4.632812 2.421875 -4.609375 L 2.421875 -5.425781 C 1.296875 -5.449219 0.410156 -4.539062 0.410156 -1.777344 C 0.410156 0.96875 1.296875 1.863281 2.421875 1.839844 Z M 2.421875 1.839844" transform="translate(130.331 237.418)"/></g></g></g><g><g><g><path d="M 3.390625 -4.65625 L -0.0703125 -4.65625 L -0.0703125 -3.625 L 1.070312 -3.625 L 1.070312 0 L 2.25 0 L 2.25 -3.625 L 3.390625 -3.625 Z M 3.390625 -4.65625" transform="translate(133.885 237.418)"/></g></g></g><g><g><g><path d="M 3.289062 -4.65625 L 3.289062 -2.847656 L 1.613281 -2.847656 L 1.613281 -4.65625 L 0.425781 -4.65625 L 0.425781 0 L 1.613281 0 L 1.613281 -1.816406 L 3.289062 -1.816406 L 3.289062 0 L 4.476562 0 L 4.476562 -4.65625 Z M 3.289062 -4.65625" transform="translate(137.952 237.418)"/></g></g></g><g><g><g><path d="M 3.351562 -3.625 L 3.351562 -4.65625 L 0.464844 -4.65625 L 0.464844 0 L 3.351562 0 L 3.351562 -1.03125 L 1.652344 -1.03125 L 1.652344 -1.816406 L 3.089844 -1.816406 L 3.089844 -2.839844 L 1.652344 -2.839844 L 1.652344 -3.625 Z M 3.351562 -3.625" transform="translate(143.61 237.418)"/></g></g></g><g><g><g><path d="M 2.652344 0.0625 C 3.578125 0.0625 4.382812 -0.464844 4.78125 -1.242188 L 3.757812 -1.761719 C 3.554688 -1.359375 3.152344 -1.101562 2.652344 -1.101562 C 1.949219 -1.101562 1.421875 -1.621094 1.421875 -2.328125 C 1.421875 -3.035156 1.949219 -3.554688 2.652344 -3.554688 C 3.152344 -3.554688 3.554688 -3.296875 3.757812 -2.894531 L 4.78125 -3.414062 C 4.382812 -4.191406 3.578125 -4.71875 2.652344 -4.71875 C 1.328125 -4.71875 0.265625 -3.648438 0.265625 -2.328125 C 0.265625 -1.007812 1.328125 0.0625 2.652344 0.0625 Z M 2.652344 0.0625" transform="translate(147.971 237.418)"/></g></g></g><g><g><g><path d="M 2.652344 0.0625 C 3.972656 0.0625 5.042969 -1.007812 5.042969 -2.328125 C 5.042969 -3.648438 3.972656 -4.71875 2.652344 -4.71875 C 1.328125 -4.71875 0.265625 -3.648438 0.265625 -2.328125 C 0.265625 -1.007812 1.328125 0.0625 2.652344 0.0625 Z M 2.652344 -1.101562 C 1.949219 -1.101562 1.421875 -1.621094 1.421875 -2.328125 C 1.421875 -3.035156 1.949219 -3.554688 2.652344 -3.554688 C 3.351562 -3.554688 3.878906 -3.035156 3.878906 -2.328125 C 3.878906 -1.621094 3.351562 -1.101562 2.652344 -1.101562 Z M 2.652344 -1.101562" transform="translate(153.683 237.418)"/></g></g></g><g><g><g><path d="M 0.425781 0 L 2.042969 0 C 3.320312 0 4.371094 -1.039062 4.371094 -2.328125 C 4.371094 -3.617188 3.320312 -4.65625 2.042969 -4.65625 L 0.425781 -4.65625 Z M 1.613281 -1.03125 L 1.613281 -3.625 L 2.042969 -3.625 C 2.683594 -3.625 3.191406 -3.058594 3.191406 -2.328125 C 3.191406 -1.597656 2.683594 -1.03125 2.042969 -1.03125 Z M 1.613281 -1.03125" transform="translate(159.728 237.418)"/></g></g></g><g><g><g><path d="M 3.351562 -3.625 L 3.351562 -4.65625 L 0.464844 -4.65625 L 0.464844 0 L 3.351562 0 L 3.351562 -1.03125 L 1.652344 -1.03125 L 1.652344 -1.816406 L 3.089844 -1.816406 L 3.089844 -2.839844 L 1.652344 -2.839844 L 1.652344 -3.625 Z M 3.351562 -3.625" transform="translate(165.107 237.418)"/></g></g></g><g><g><g><path d="M 4.46875 -4.65625 L 3.089844 -1.691406 L 1.714844 -4.65625 L 0.425781 -4.65625 L 0.425781 0 L 1.613281 0 L 1.613281 -2.507812 L 2.769531 0 L 3.40625 0 L 4.5625 -2.492188 L 4.5625 0 L 5.75 0 L 5.75 -4.65625 Z M 4.46875 -4.65625" transform="translate(169.468 237.418)"/></g></g></g><g><g><g><path d="M 3.28125 0 L 4.554688 0 L 2.871094 -4.65625 L 1.542969 -4.65625 L -0.140625 0 L 1.140625 0 L 1.398438 -0.816406 L 3.027344 -0.816406 Z M 1.699219 -1.777344 L 2.210938 -3.421875 L 2.730469 -1.777344 Z M 1.699219 -1.777344" transform="translate(176.39 237.418)"/></g></g></g><g><g><g><path d="M 3.773438 -4.65625 L 3.773438 -1.808594 L 1.667969 -4.65625 L 0.425781 -4.65625 L 0.425781 0 L 1.613281 0 L 1.613281 -2.855469 L 3.710938 0 L 4.960938 0 L 4.960938 -4.65625 Z M 3.773438 -4.65625" transform="translate(181.56 237.418)"/></g></g></g><g><g><g><path d="M 0.464844 0 L 1.652344 0 L 1.652344 -4.65625 L 0.464844 -4.65625 Z M 0.464844 0" transform="translate(187.69 237.418)"/></g></g></g><g><g><g><path d="M 3.28125 0 L 4.554688 0 L 2.871094 -4.65625 L 1.542969 -4.65625 L -0.140625 0 L 1.140625 0 L 1.398438 -0.816406 L 3.027344 -0.816406 Z M 1.699219 -1.777344 L 2.210938 -3.421875 L 2.730469 -1.777344 Z M 1.699219 -1.777344" transform="translate(190.546 237.418)"/></g></g></g><g><g><g><path d="M 2.652344 0.0625 C 3.578125 0.0625 4.382812 -0.464844 4.78125 -1.242188 L 3.757812 -1.761719 C 3.554688 -1.359375 3.152344 -1.101562 2.652344 -1.101562 C 1.949219 -1.101562 1.421875 -1.621094 1.421875 -2.328125 C 1.421875 -3.035156 1.949219 -3.554688 2.652344 -3.554688 C 3.152344 -3.554688 3.554688 -3.296875 3.757812 -2.894531 L 4.78125 -3.414062 C 4.382812 -4.191406 3.578125 -4.71875 2.652344 -4.71875 C 1.328125 -4.71875 0.265625 -3.648438 0.265625 -2.328125 C 0.265625 -1.007812 1.328125 0.0625 2.652344 0.0625 Z M 2.652344 0.0625" transform="translate(195.715 237.418)"/></g></g></g><g><g><g><path d="M 0.378906 1.839844 C 1.511719 1.863281 2.390625 0.96875 2.390625 -1.777344 C 2.390625 -4.539062 1.511719 -5.449219 0.378906 -5.425781 L 0.378906 -4.609375 C 0.9375 -4.632812 1.390625 -3.957031 1.390625 -1.777344 C 1.390625 0.386719 0.9375 1.046875 0.378906 1.023438 Z M 0.378906 1.839844" transform="translate(201.426 237.418)"/></g></g></g><g><g><g><path d="M 1.613281 2.195312 L 2.125 2.195312 L 2.125 1.558594 C 1.652344 1.558594 1.613281 1.535156 1.613281 1.304688 L 1.613281 -0.402344 C 1.613281 -0.929688 1.511719 -1.265625 1.320312 -1.519531 C 1.511719 -1.769531 1.613281 -2.101562 1.613281 -2.628906 L 1.613281 -4.292969 C 1.613281 -4.695312 1.722656 -4.617188 2.125 -4.617188 L 2.125 -5.246094 L 1.613281 -5.246094 C 1.125 -5.246094 0.753906 -4.773438 0.753906 -4.191406 L 0.753906 -2.722656 C 0.753906 -2.011719 0.660156 -1.988281 0.289062 -1.839844 L 0.289062 -1.195312 C 0.667969 -1.046875 0.753906 -1.007812 0.753906 -0.308594 L 0.753906 1.148438 C 0.753906 1.738281 1.125 2.195312 1.613281 2.195312 Z M 1.613281 2.195312" transform="translate(207.588 237.418)"/></g></g></g><g><g><g><path d="M 2.652344 0.0625 C 3.578125 0.0625 4.382812 -0.464844 4.78125 -1.242188 L 3.757812 -1.761719 C 3.554688 -1.359375 3.152344 -1.101562 2.652344 -1.101562 C 1.949219 -1.101562 1.421875 -1.621094 1.421875 -2.328125 C 1.421875 -3.035156 1.949219 -3.554688 2.652344 -3.554688 C 3.152344 -3.554688 3.554688 -3.296875 3.757812 -2.894531 L 4.78125 -3.414062 C 4.382812 -4.191406 3.578125 -4.71875 2.652344 -4.71875 C 1.328125 -4.71875 0.265625 -3.648438 0.265625 -2.328125 C 0.265625 -1.007812 1.328125 0.0625 2.652344 0.0625 Z M 2.652344 0.0625" transform="translate(213.382 237.418)"/></g></g></g><g><g><g><path d="M 2.652344 0.0625 C 3.972656 0.0625 5.042969 -1.007812 5.042969 -2.328125 C 5.042969 -3.648438 3.972656 -4.71875 2.652344 -4.71875 C 1.328125 -4.71875 0.265625 -3.648438 0.265625 -2.328125 C 0.265625 -1.007812 1.328125 0.0625 2.652344 0.0625 Z M 2.652344 -1.101562 C 1.949219 -1.101562 1.421875 -1.621094 1.421875 -2.328125 C 1.421875 -3.035156 1.949219 -3.554688 2.652344 -3.554688 C 3.351562 -3.554688 3.878906 -3.035156 3.878906 -2.328125 C 3.878906 -1.621094 3.351562 -1.101562 2.652344 -1.101562 Z M 2.652344 -1.101562" transform="translate(219.093 237.418)"/></g></g></g><g><g><g><path d="M 0.425781 0 L 2.042969 0 C 3.320312 0 4.371094 -1.039062 4.371094 -2.328125 C 4.371094 -3.617188 3.320312 -4.65625 2.042969 -4.65625 L 0.425781 -4.65625 Z M 1.613281 -1.03125 L 1.613281 -3.625 L 2.042969 -3.625 C 2.683594 -3.625 3.191406 -3.058594 3.191406 -2.328125 C 3.191406 -1.597656 2.683594 -1.03125 2.042969 -1.03125 Z M 1.613281 -1.03125" transform="translate(225.139 237.418)"/></g></g></g><g><g><g><path d="M 0.464844 0 L 1.652344 0 L 1.652344 -4.65625 L 0.464844 -4.65625 Z M 0.464844 0" transform="translate(230.517 237.418)"/></g></g></g><g><g><g><path d="M 3.773438 -4.65625 L 3.773438 -1.808594 L 1.667969 -4.65625 L 0.425781 -4.65625 L 0.425781 0 L 1.613281 0 L 1.613281 -2.855469 L 3.710938 0 L 4.960938 0 L 4.960938 -4.65625 Z M 3.773438 -4.65625" transform="translate(233.373 237.418)"/></g></g></g><g><g><g><path d="M 2.644531 -2.585938 L 2.644531 -1.675781 L 3.710938 -1.675781 C 3.492188 -1.328125 3.113281 -1.101562 2.652344 -1.101562 C 1.949219 -1.101562 1.421875 -1.621094 1.421875 -2.328125 C 1.421875 -3.035156 1.949219 -3.554688 2.652344 -3.554688 C 3.152344 -3.554688 3.554688 -3.296875 3.757812 -2.894531 L 4.78125 -3.414062 C 4.382812 -4.191406 3.578125 -4.71875 2.652344 -4.71875 C 1.328125 -4.71875 0.265625 -3.648438 0.265625 -2.328125 C 0.265625 -1.007812 1.328125 0.0625 2.652344 0.0625 C 3.972656 0.0625 5.042969 -1.007812 5.042969 -2.328125 L 5.042969 -2.585938 Z M 2.644531 -2.585938" transform="translate(239.504 237.418)"/></g></g></g><g><g><g><path d="M 2.035156 0 L 2.886719 0 L 2.886719 -1.496094 L 4.382812 -1.496094 L 4.382812 -2.351562 L 2.886719 -2.351562 L 2.886719 -3.847656 L 2.035156 -3.847656 L 2.035156 -2.351562 L 0.535156 -2.351562 L 0.535156 -1.496094 L 2.035156 -1.496094 Z M 2.035156 0" transform="translate(248.157 237.418)"/></g></g></g><g><g><g><path d="M 2.035156 0 L 2.886719 0 L 2.886719 -1.496094 L 4.382812 -1.496094 L 4.382812 -2.351562 L 2.886719 -2.351562 L 2.886719 -3.847656 L 2.035156 -3.847656 L 2.035156 -2.351562 L 0.535156 -2.351562 L 0.535156 -1.496094 L 2.035156 -1.496094 Z M 2.035156 0" transform="translate(253.822 237.418)"/></g></g></g><g><g><g><path d="M 1.15625 -1.941406 C 1.496094 -1.941406 1.777344 -2.21875 1.777344 -2.5625 C 1.777344 -2.886719 1.496094 -3.167969 1.15625 -3.167969 C 0.832031 -3.167969 0.550781 -2.886719 0.550781 -2.5625 C 0.550781 -2.21875 0.832031 -1.941406 1.15625 -1.941406 Z M 0.832031 1.15625 L 1.957031 -0.832031 L 0.871094 -0.832031 L 0.15625 1.15625 Z M 0.832031 1.15625" transform="translate(259.488 237.418)"/></g></g></g><g><g><g><path d="M 0.316406 2.195312 L 0.824219 2.195312 C 1.320312 2.195312 1.683594 1.738281 1.683594 1.148438 L 1.683594 -0.308594 C 1.683594 -1.007812 1.777344 -1.046875 2.148438 -1.195312 L 2.148438 -1.839844 C 1.785156 -1.988281 1.683594 -2.011719 1.683594 -2.722656 L 1.683594 -4.191406 C 1.683594 -4.773438 1.320312 -5.246094 0.824219 -5.246094 L 0.316406 -5.246094 L 0.316406 -4.617188 C 0.722656 -4.617188 0.824219 -4.695312 0.824219 -4.292969 L 0.824219 -2.628906 C 0.824219 -2.101562 0.929688 -1.769531 1.125 -1.519531 C 0.929688 -1.265625 0.824219 -0.929688 0.824219 -0.402344 L 0.824219 1.304688 C 0.824219 1.535156 0.785156 1.558594 0.316406 1.558594 Z M 0.316406 2.195312" transform="translate(265.192 237.418)"/></g></g></g></svg>