<svg xmlns="http://www.w3.org/2000/svg" width="150" viewBox="0 0 150 75" height="75" version="1.0"><defs><clipPath id="a"><path d="M 84.320312 11 L 91.269531 11 L 91.269531 19.449219 L 84.320312 19.449219 Z M 84.320312 11"/></clipPath><clipPath id="b"><path d="M 92 10.914062 L 95.230469 10.914062 L 95.230469 19.449219 L 92 19.449219 Z M 92 10.914062"/></clipPath><clipPath id="c"><path d="M 96 11 L 103 11 L 103 19.449219 L 96 19.449219 Z M 96 11"/></clipPath><clipPath id="d"><path d="M 104 10.914062 L 107.089844 10.914062 L 107.089844 19.449219 L 104 19.449219 Z M 104 10.914062"/></clipPath><clipPath id="e"><path d="M 104 20.109375 L 107.089844 20.109375 L 107.089844 28.691406 L 104 28.691406 Z M 104 20.109375"/></clipPath><clipPath id="f"><path d="M 84.320312 29.351562 L 91.269531 29.351562 L 91.269531 37.644531 L 84.320312 37.644531 Z M 84.320312 29.351562"/></clipPath><clipPath id="g"><path d="M 92 29.351562 L 95.230469 29.351562 L 95.230469 37.644531 L 92 37.644531 Z M 92 29.351562"/></clipPath><clipPath id="h"><path d="M 96 29.351562 L 103 29.351562 L 103 37.644531 L 96 37.644531 Z M 96 29.351562"/></clipPath><clipPath id="i"><path d="M 104 29.351562 L 107.089844 29.351562 L 107.089844 37.644531 L 104 37.644531 Z M 104 29.351562"/></clipPath><clipPath id="j"><path d="M 42.800781 11 L 49.691406 11 L 49.691406 19.449219 L 42.800781 19.449219 Z M 42.800781 11"/></clipPath><clipPath id="k"><path d="M 50.351562 10.914062 L 54 10.914062 L 54 19.449219 L 50.351562 19.449219 Z M 50.351562 10.914062"/></clipPath><clipPath id="l"><path d="M 54.3125 11 L 61.570312 11 L 61.570312 19.449219 L 54.3125 19.449219 Z M 54.3125 11"/></clipPath><clipPath id="m"><path d="M 62.230469 10.914062 L 65.570312 10.914062 L 65.570312 19.449219 L 62.230469 19.449219 Z M 62.230469 10.914062"/></clipPath><clipPath id="n"><path d="M 62.230469 20.109375 L 65.570312 20.109375 L 65.570312 28.691406 L 62.230469 28.691406 Z M 62.230469 20.109375"/></clipPath><clipPath id="o"><path d="M 42.800781 29.351562 L 49.691406 29.351562 L 49.691406 37.644531 L 42.800781 37.644531 Z M 42.800781 29.351562"/></clipPath><clipPath id="p"><path d="M 50.351562 29.351562 L 54 29.351562 L 54 37.644531 L 50.351562 37.644531 Z M 50.351562 29.351562"/></clipPath><clipPath id="q"><path d="M 54.3125 29.351562 L 61.570312 29.351562 L 61.570312 37.644531 L 54.3125 37.644531 Z M 54.3125 29.351562"/></clipPath><clipPath id="r"><path d="M 62.230469 29.351562 L 65.570312 29.351562 L 65.570312 37.644531 L 62.230469 37.644531 Z M 62.230469 29.351562"/></clipPath><clipPath id="s"><path d="M 19.886719 6.25 L 130.273438 6.25 L 130.273438 42.5 L 19.886719 42.5 Z M 19.886719 6.25"/></clipPath></defs><g clip-path="url(#a)"><path fill="#100F0D" d="M 85.730469 15.332031 C 85.730469 14.96875 85.769531 14.605469 85.84375 14.25 C 85.917969 13.90625 86.035156 13.59375 86.195312 13.324219 C 86.355469 13.0625 86.554688 12.859375 86.804688 12.695312 C 87.039062 12.542969 87.34375 12.46875 87.699219 12.46875 C 88.046875 12.46875 88.347656 12.542969 88.589844 12.691406 C 88.84375 12.847656 89.039062 13.042969 89.199219 13.296875 C 89.359375 13.5625 89.480469 13.871094 89.558594 14.21875 C 89.640625 14.578125 89.679688 14.953125 89.679688 15.332031 C 89.679688 15.683594 89.640625 16.011719 89.558594 16.3125 C 89.480469 16.597656 89.359375 16.851562 89.191406 17.058594 C 89.03125 17.265625 88.828125 17.425781 88.570312 17.542969 C 88.078125 17.777344 87.242188 17.796875 86.753906 17.542969 C 86.515625 17.421875 86.324219 17.261719 86.175781 17.054688 C 86.023438 16.851562 85.910156 16.597656 85.839844 16.308594 C 85.765625 16.007812 85.730469 15.679688 85.730469 15.332031 Z M 85.078125 17.828125 C 85.339844 18.199219 85.6875 18.507812 86.105469 18.746094 C 86.53125 18.984375 87.050781 19.109375 87.644531 19.109375 C 88.222656 19.109375 88.738281 18.992188 89.167969 18.765625 C 89.601562 18.539062 89.960938 18.242188 90.242188 17.882812 C 90.523438 17.523438 90.730469 17.113281 90.867188 16.667969 C 90.996094 16.226562 91.066406 15.777344 91.066406 15.332031 C 91.066406 15.058594 91.042969 14.757812 90.996094 14.445312 C 90.949219 14.132812 90.871094 13.816406 90.765625 13.503906 C 90.664062 13.195312 90.523438 12.894531 90.359375 12.609375 C 90.1875 12.316406 89.972656 12.058594 89.722656 11.828125 C 89.472656 11.601562 89.171875 11.417969 88.835938 11.28125 C 88.15625 11.007812 87.203125 11.007812 86.523438 11.289062 C 86.1875 11.429688 85.890625 11.617188 85.640625 11.851562 C 85.394531 12.085938 85.1875 12.351562 85.015625 12.652344 C 84.847656 12.945312 84.710938 13.246094 84.613281 13.558594 C 84.507812 13.863281 84.4375 14.179688 84.390625 14.484375 C 84.347656 14.789062 84.328125 15.074219 84.328125 15.332031 C 84.328125 15.75 84.386719 16.179688 84.507812 16.613281 C 84.628906 17.054688 84.816406 17.460938 85.078125 17.828125"/></g><g clip-path="url(#b)"><path fill="#100F0D" d="M 93.007812 13.777344 Z M 92.671875 14.136719 C 92.839844 14.167969 93.007812 14.136719 93.214844 14.015625 C 93.324219 13.914062 93.425781 13.816406 93.519531 13.710938 C 93.589844 13.628906 93.667969 13.550781 93.753906 13.460938 L 93.78125 15.960938 L 93.746094 18.511719 C 93.746094 18.8125 93.910156 18.957031 94.003906 19.011719 C 94.128906 19.085938 94.273438 19.125 94.433594 19.125 C 94.589844 19.125 94.742188 19.085938 94.882812 19.003906 C 95.070312 18.890625 95.175781 18.710938 95.175781 18.488281 L 95.097656 11.679688 C 95.074219 11.539062 95.015625 11.410156 94.925781 11.300781 C 94.84375 11.199219 94.742188 11.113281 94.621094 11.039062 C 94.476562 10.949219 94.316406 10.914062 94.15625 10.921875 C 93.945312 10.9375 93.773438 11.054688 93.6875 11.242188 C 93.683594 11.25 93.679688 11.257812 93.679688 11.261719 C 93.601562 11.40625 93.523438 11.539062 93.445312 11.664062 C 93.355469 11.808594 93.257812 11.949219 93.15625 12.085938 C 93.054688 12.226562 92.9375 12.367188 92.808594 12.511719 C 92.691406 12.640625 92.558594 12.769531 92.414062 12.90625 C 92.398438 12.921875 92.378906 12.933594 92.363281 12.949219 C 92.1875 13.113281 92.101562 13.289062 92.101562 13.472656 C 92.101562 13.648438 92.160156 13.800781 92.269531 13.921875 C 92.375 14.027344 92.507812 14.101562 92.671875 14.136719"/></g><g clip-path="url(#c)"><path fill="#100F0D" d="M 101.582031 15.332031 C 101.582031 15.683594 101.542969 16.011719 101.460938 16.3125 C 101.382812 16.597656 101.261719 16.851562 101.097656 17.058594 C 100.933594 17.265625 100.730469 17.425781 100.476562 17.542969 C 99.980469 17.777344 99.144531 17.796875 98.65625 17.542969 C 98.417969 17.421875 98.230469 17.261719 98.078125 17.054688 C 97.925781 16.851562 97.8125 16.597656 97.746094 16.308594 C 97.667969 16.007812 97.632812 15.679688 97.632812 15.332031 C 97.632812 14.96875 97.667969 14.605469 97.746094 14.25 C 97.820312 13.90625 97.933594 13.59375 98.097656 13.324219 C 98.257812 13.0625 98.457031 12.859375 98.707031 12.695312 C 98.945312 12.542969 99.246094 12.46875 99.601562 12.46875 C 99.953125 12.46875 100.25 12.542969 100.492188 12.691406 C 100.742188 12.847656 100.945312 13.042969 101.097656 13.296875 C 101.265625 13.5625 101.386719 13.871094 101.460938 14.21875 C 101.542969 14.578125 101.582031 14.953125 101.582031 15.332031 Z M 102.667969 13.503906 C 102.566406 13.195312 102.425781 12.894531 102.261719 12.609375 C 102.089844 12.316406 101.875 12.058594 101.628906 11.828125 C 101.375 11.601562 101.074219 11.417969 100.742188 11.28125 C 100.058594 11.007812 99.101562 11.007812 98.429688 11.289062 C 98.089844 11.429688 97.792969 11.617188 97.542969 11.851562 C 97.296875 12.085938 97.085938 12.351562 96.917969 12.652344 C 96.75 12.945312 96.613281 13.246094 96.511719 13.558594 C 96.410156 13.863281 96.339844 14.179688 96.296875 14.484375 C 96.25 14.789062 96.230469 15.074219 96.230469 15.332031 C 96.230469 15.75 96.289062 16.179688 96.410156 16.613281 C 96.527344 17.054688 96.722656 17.460938 96.980469 17.828125 C 97.246094 18.199219 97.589844 18.507812 98.011719 18.746094 C 98.4375 18.984375 98.953125 19.109375 99.546875 19.109375 C 100.125 19.109375 100.636719 18.992188 101.074219 18.765625 C 101.503906 18.539062 101.863281 18.242188 102.144531 17.882812 C 102.425781 17.523438 102.636719 17.113281 102.765625 16.667969 C 102.902344 16.226562 102.96875 15.777344 102.96875 15.332031 C 102.96875 15.058594 102.945312 14.757812 102.898438 14.445312 C 102.851562 14.132812 102.773438 13.816406 102.667969 13.503906"/></g><g clip-path="url(#d)"><path fill="#100F0D" d="M 104.910156 13.777344 Z M 104.570312 14.136719 C 104.742188 14.167969 104.910156 14.136719 105.117188 14.015625 C 105.230469 13.914062 105.328125 13.816406 105.421875 13.710938 C 105.496094 13.628906 105.570312 13.550781 105.65625 13.460938 L 105.683594 15.960938 L 105.648438 18.511719 C 105.648438 18.8125 105.8125 18.957031 105.90625 19.011719 C 106.03125 19.085938 106.171875 19.125 106.335938 19.125 C 106.492188 19.125 106.644531 19.085938 106.785156 19.003906 C 106.972656 18.890625 107.078125 18.710938 107.078125 18.488281 L 107 11.679688 C 106.976562 11.539062 106.921875 11.410156 106.828125 11.300781 C 106.746094 11.199219 106.648438 11.113281 106.527344 11.039062 C 106.382812 10.949219 106.222656 10.914062 106.058594 10.921875 C 105.847656 10.9375 105.675781 11.054688 105.589844 11.242188 C 105.585938 11.25 105.585938 11.257812 105.582031 11.261719 C 105.503906 11.40625 105.425781 11.539062 105.347656 11.664062 C 105.257812 11.808594 105.160156 11.949219 105.058594 12.085938 C 104.957031 12.226562 104.839844 12.367188 104.710938 12.511719 C 104.59375 12.640625 104.464844 12.769531 104.320312 12.90625 C 104.296875 12.921875 104.28125 12.933594 104.265625 12.949219 C 104.089844 13.113281 104 13.289062 104 13.472656 C 104 13.648438 104.0625 13.800781 104.175781 13.921875 C 104.277344 14.027344 104.410156 14.101562 104.570312 14.136719"/></g><path fill="#100F0D" d="M 86.152344 23.023438 Z M 87.148438 28.261719 C 87.273438 28.335938 87.417969 28.375 87.578125 28.375 C 87.734375 28.375 87.886719 28.328125 88.027344 28.246094 C 88.214844 28.136719 88.320312 27.957031 88.320312 27.738281 L 88.242188 20.925781 C 88.21875 20.785156 88.160156 20.65625 88.070312 20.542969 C 87.988281 20.445312 87.886719 20.359375 87.765625 20.285156 C 87.621094 20.199219 87.464844 20.15625 87.300781 20.171875 C 87.089844 20.183594 86.917969 20.300781 86.832031 20.488281 C 86.828125 20.496094 86.828125 20.503906 86.824219 20.511719 C 86.746094 20.652344 86.667969 20.785156 86.589844 20.914062 C 86.5 21.054688 86.402344 21.195312 86.300781 21.335938 C 86.199219 21.476562 86.082031 21.613281 85.953125 21.753906 C 85.835938 21.882812 85.703125 22.019531 85.558594 22.152344 C 85.542969 22.164062 85.523438 22.179688 85.507812 22.195312 C 85.332031 22.359375 85.246094 22.535156 85.246094 22.71875 C 85.246094 22.894531 85.304688 23.046875 85.417969 23.167969 C 85.519531 23.277344 85.652344 23.347656 85.816406 23.378906 C 85.984375 23.414062 86.152344 23.386719 86.359375 23.257812 C 86.46875 23.160156 86.570312 23.0625 86.664062 22.960938 C 86.738281 22.878906 86.8125 22.792969 86.898438 22.710938 L 86.925781 25.207031 L 86.890625 27.757812 C 86.890625 28.058594 87.054688 28.199219 87.148438 28.261719"/><path fill="#100F0D" d="M 94.726562 24.578125 C 94.726562 24.925781 94.6875 25.257812 94.605469 25.554688 C 94.53125 25.84375 94.40625 26.09375 94.242188 26.304688 C 94.082031 26.511719 93.878906 26.667969 93.621094 26.789062 C 93.128906 27.023438 92.292969 27.039062 91.800781 26.789062 C 91.566406 26.667969 91.375 26.507812 91.222656 26.304688 C 91.074219 26.09375 90.960938 25.84375 90.890625 25.554688 C 90.816406 25.253906 90.777344 24.925781 90.777344 24.578125 C 90.777344 24.214844 90.816406 23.851562 90.890625 23.496094 C 90.964844 23.152344 91.082031 22.839844 91.246094 22.570312 C 91.402344 22.308594 91.601562 22.105469 91.851562 21.945312 C 92.089844 21.792969 92.390625 21.714844 92.75 21.714844 C 93.097656 21.714844 93.394531 21.789062 93.636719 21.9375 C 93.890625 22.089844 94.089844 22.289062 94.246094 22.542969 C 94.410156 22.808594 94.53125 23.121094 94.605469 23.464844 C 94.6875 23.824219 94.726562 24.199219 94.726562 24.578125 Z M 95.816406 22.75 C 95.710938 22.441406 95.570312 22.140625 95.40625 21.855469 C 95.234375 21.566406 95.023438 21.300781 94.773438 21.078125 C 94.519531 20.847656 94.21875 20.664062 93.886719 20.527344 C 93.203125 20.253906 92.25 20.253906 91.574219 20.535156 C 91.234375 20.671875 90.9375 20.863281 90.6875 21.101562 C 90.445312 21.332031 90.234375 21.597656 90.0625 21.898438 C 89.898438 22.1875 89.761719 22.492188 89.660156 22.800781 C 89.554688 23.113281 89.484375 23.425781 89.441406 23.730469 C 89.398438 24.035156 89.375 24.320312 89.375 24.578125 C 89.375 24.996094 89.433594 25.425781 89.554688 25.859375 C 89.675781 26.296875 89.867188 26.707031 90.125 27.070312 C 90.390625 27.445312 90.738281 27.753906 91.15625 27.992188 C 91.582031 28.230469 92.097656 28.351562 92.691406 28.351562 C 93.273438 28.351562 93.785156 28.238281 94.21875 28.011719 C 94.648438 27.785156 95.007812 27.488281 95.289062 27.128906 C 95.570312 26.769531 95.78125 26.359375 95.914062 25.914062 C 96.046875 25.472656 96.117188 25.023438 96.117188 24.578125 C 96.117188 24.304688 96.089844 24.007812 96.042969 23.691406 C 95.996094 23.378906 95.921875 23.0625 95.816406 22.75"/><path fill="#100F0D" d="M 101.582031 24.578125 C 101.582031 24.925781 101.542969 25.257812 101.460938 25.554688 C 101.382812 25.84375 101.261719 26.09375 101.097656 26.304688 C 100.933594 26.511719 100.730469 26.667969 100.476562 26.789062 C 99.980469 27.023438 99.144531 27.039062 98.65625 26.789062 C 98.417969 26.667969 98.230469 26.507812 98.078125 26.304688 C 97.925781 26.09375 97.8125 25.84375 97.746094 25.554688 C 97.667969 25.253906 97.632812 24.925781 97.632812 24.578125 C 97.632812 24.214844 97.667969 23.851562 97.746094 23.496094 C 97.820312 23.152344 97.933594 22.839844 98.097656 22.570312 C 98.257812 22.308594 98.457031 22.105469 98.707031 21.945312 C 98.945312 21.792969 99.246094 21.714844 99.601562 21.714844 C 99.953125 21.714844 100.25 21.789062 100.492188 21.9375 C 100.742188 22.089844 100.945312 22.289062 101.097656 22.542969 C 101.265625 22.808594 101.386719 23.121094 101.460938 23.464844 C 101.542969 23.824219 101.582031 24.199219 101.582031 24.578125 Z M 102.667969 22.75 C 102.566406 22.441406 102.425781 22.140625 102.261719 21.855469 C 102.089844 21.566406 101.875 21.300781 101.628906 21.078125 C 101.375 20.847656 101.074219 20.664062 100.742188 20.527344 C 100.058594 20.253906 99.101562 20.253906 98.429688 20.535156 C 98.089844 20.671875 97.792969 20.863281 97.542969 21.101562 C 97.296875 21.332031 97.085938 21.597656 96.917969 21.898438 C 96.75 22.1875 96.613281 22.492188 96.511719 22.800781 C 96.410156 23.113281 96.339844 23.425781 96.296875 23.730469 C 96.25 24.035156 96.230469 24.320312 96.230469 24.578125 C 96.230469 24.996094 96.289062 25.425781 96.410156 25.859375 C 96.527344 26.296875 96.722656 26.707031 96.980469 27.070312 C 97.246094 27.445312 97.589844 27.753906 98.011719 27.992188 C 98.4375 28.230469 98.953125 28.351562 99.546875 28.351562 C 100.125 28.351562 100.636719 28.238281 101.074219 28.011719 C 101.503906 27.785156 101.863281 27.488281 102.144531 27.128906 C 102.425781 26.769531 102.636719 26.359375 102.765625 25.914062 C 102.902344 25.472656 102.96875 25.023438 102.96875 24.578125 C 102.96875 24.304688 102.945312 24.007812 102.898438 23.691406 C 102.851562 23.378906 102.773438 23.0625 102.667969 22.75"/><g clip-path="url(#e)"><path fill="#100F0D" d="M 104.910156 23.023438 Z M 106.828125 20.542969 C 106.746094 20.445312 106.648438 20.359375 106.527344 20.285156 C 106.382812 20.199219 106.222656 20.15625 106.058594 20.171875 C 105.847656 20.183594 105.675781 20.300781 105.589844 20.488281 C 105.585938 20.496094 105.585938 20.503906 105.582031 20.511719 C 105.503906 20.652344 105.425781 20.785156 105.347656 20.914062 C 105.257812 21.054688 105.160156 21.195312 105.058594 21.335938 C 104.957031 21.476562 104.839844 21.613281 104.710938 21.753906 C 104.59375 21.882812 104.464844 22.019531 104.320312 22.152344 C 104.296875 22.164062 104.28125 22.179688 104.265625 22.195312 C 104.089844 22.359375 104 22.535156 104 22.71875 C 104 22.894531 104.0625 23.046875 104.175781 23.167969 C 104.277344 23.277344 104.410156 23.347656 104.570312 23.378906 C 104.742188 23.414062 104.910156 23.386719 105.117188 23.257812 C 105.230469 23.160156 105.328125 23.0625 105.421875 22.960938 C 105.496094 22.878906 105.570312 22.792969 105.65625 22.710938 L 105.683594 25.207031 L 105.648438 27.757812 C 105.648438 28.058594 105.8125 28.199219 105.90625 28.261719 C 106.03125 28.335938 106.171875 28.375 106.335938 28.375 C 106.492188 28.375 106.644531 28.328125 106.785156 28.246094 C 106.972656 28.136719 107.078125 27.957031 107.078125 27.738281 L 107 20.925781 C 106.976562 20.785156 106.921875 20.65625 106.828125 20.542969"/></g><g clip-path="url(#f)"><path fill="#100F0D" d="M 89.679688 33.851562 C 89.679688 34.199219 89.640625 34.527344 89.558594 34.828125 C 89.480469 35.117188 89.359375 35.367188 89.191406 35.574219 C 89.03125 35.785156 88.828125 35.941406 88.570312 36.0625 C 88.078125 36.292969 87.242188 36.3125 86.753906 36.0625 C 86.515625 35.9375 86.324219 35.777344 86.175781 35.574219 C 86.023438 35.367188 85.910156 35.117188 85.839844 34.828125 C 85.765625 34.523438 85.730469 34.199219 85.730469 33.851562 C 85.730469 33.484375 85.769531 33.121094 85.84375 32.765625 C 85.917969 32.421875 86.035156 32.113281 86.195312 31.84375 C 86.355469 31.582031 86.554688 31.375 86.804688 31.214844 C 87.039062 31.0625 87.34375 30.984375 87.699219 30.984375 C 88.046875 30.984375 88.347656 31.058594 88.589844 31.210938 C 88.84375 31.363281 89.039062 31.5625 89.199219 31.816406 C 89.359375 32.082031 89.480469 32.390625 89.558594 32.738281 C 89.640625 33.097656 89.679688 33.472656 89.679688 33.851562 Z M 90.765625 32.023438 C 90.664062 31.710938 90.523438 31.414062 90.359375 31.128906 C 90.1875 30.835938 89.972656 30.574219 89.722656 30.347656 C 89.472656 30.121094 89.171875 29.933594 88.835938 29.800781 C 88.15625 29.527344 87.203125 29.523438 86.523438 29.804688 C 86.1875 29.945312 85.890625 30.132812 85.640625 30.371094 C 85.394531 30.601562 85.1875 30.871094 85.015625 31.171875 C 84.847656 31.460938 84.710938 31.765625 84.613281 32.074219 C 84.507812 32.382812 84.4375 32.695312 84.390625 33 C 84.347656 33.304688 84.328125 33.589844 84.328125 33.851562 C 84.328125 34.265625 84.386719 34.699219 84.507812 35.132812 C 84.628906 35.570312 84.816406 35.980469 85.078125 36.34375 C 85.339844 36.714844 85.6875 37.027344 86.105469 37.261719 C 86.53125 37.503906 87.050781 37.625 87.644531 37.625 C 88.222656 37.625 88.738281 37.511719 89.167969 37.28125 C 89.601562 37.058594 89.960938 36.761719 90.242188 36.398438 C 90.523438 36.042969 90.730469 35.632812 90.867188 35.183594 C 90.996094 34.746094 91.066406 34.296875 91.066406 33.851562 C 91.066406 33.578125 91.042969 33.277344 90.996094 32.964844 C 90.949219 32.652344 90.871094 32.332031 90.765625 32.023438"/></g><g clip-path="url(#g)"><path fill="#100F0D" d="M 93.007812 32.292969 Z M 94.925781 29.816406 C 94.84375 29.71875 94.742188 29.632812 94.621094 29.558594 C 94.476562 29.46875 94.316406 29.429688 94.15625 29.441406 C 93.945312 29.453125 93.773438 29.574219 93.6875 29.761719 C 93.683594 29.769531 93.679688 29.773438 93.679688 29.78125 C 93.601562 29.921875 93.523438 30.058594 93.445312 30.183594 C 93.355469 30.324219 93.257812 30.464844 93.15625 30.605469 C 93.054688 30.746094 92.9375 30.886719 92.808594 31.027344 C 92.691406 31.160156 92.558594 31.289062 92.414062 31.425781 C 92.398438 31.4375 92.378906 31.453125 92.363281 31.46875 C 92.1875 31.632812 92.101562 31.808594 92.101562 31.992188 C 92.101562 32.164062 92.160156 32.320312 92.269531 32.441406 C 92.375 32.546875 92.507812 32.621094 92.671875 32.652344 C 92.839844 32.683594 93.007812 32.65625 93.214844 32.53125 C 93.324219 32.433594 93.425781 32.332031 93.519531 32.230469 C 93.589844 32.148438 93.667969 32.066406 93.753906 31.980469 L 93.78125 34.480469 L 93.746094 37.03125 C 93.746094 37.328125 93.910156 37.472656 94.003906 37.53125 C 94.128906 37.605469 94.273438 37.644531 94.433594 37.644531 C 94.589844 37.644531 94.742188 37.605469 94.882812 37.519531 C 95.070312 37.40625 95.175781 37.226562 95.175781 37.007812 L 95.097656 30.195312 C 95.074219 30.058594 95.015625 29.929688 94.925781 29.816406"/></g><g clip-path="url(#h)"><path fill="#100F0D" d="M 101.582031 33.851562 C 101.582031 34.199219 101.542969 34.527344 101.460938 34.828125 C 101.382812 35.117188 101.261719 35.367188 101.097656 35.574219 C 100.933594 35.785156 100.730469 35.941406 100.476562 36.0625 C 99.980469 36.292969 99.144531 36.3125 98.65625 36.0625 C 98.417969 35.9375 98.230469 35.777344 98.078125 35.574219 C 97.925781 35.367188 97.8125 35.117188 97.746094 34.828125 C 97.667969 34.523438 97.632812 34.199219 97.632812 33.851562 C 97.632812 33.484375 97.667969 33.121094 97.746094 32.765625 C 97.820312 32.421875 97.933594 32.113281 98.097656 31.84375 C 98.257812 31.582031 98.457031 31.375 98.707031 31.214844 C 98.945312 31.0625 99.246094 30.984375 99.601562 30.984375 C 99.953125 30.984375 100.25 31.058594 100.492188 31.210938 C 100.742188 31.363281 100.945312 31.5625 101.097656 31.816406 C 101.265625 32.082031 101.386719 32.390625 101.460938 32.738281 C 101.542969 33.097656 101.582031 33.472656 101.582031 33.851562 Z M 102.667969 32.023438 C 102.566406 31.710938 102.425781 31.414062 102.261719 31.128906 C 102.089844 30.835938 101.875 30.574219 101.628906 30.347656 C 101.375 30.121094 101.074219 29.933594 100.742188 29.800781 C 100.058594 29.527344 99.101562 29.523438 98.429688 29.804688 C 98.089844 29.945312 97.792969 30.132812 97.542969 30.371094 C 97.296875 30.601562 97.085938 30.871094 96.917969 31.171875 C 96.75 31.460938 96.613281 31.765625 96.511719 32.074219 C 96.410156 32.382812 96.339844 32.695312 96.296875 33 C 96.25 33.304688 96.230469 33.589844 96.230469 33.851562 C 96.230469 34.265625 96.289062 34.699219 96.410156 35.132812 C 96.527344 35.570312 96.722656 35.980469 96.980469 36.34375 C 97.246094 36.714844 97.589844 37.027344 98.011719 37.261719 C 98.4375 37.503906 98.953125 37.625 99.546875 37.625 C 100.125 37.625 100.636719 37.511719 101.074219 37.28125 C 101.503906 37.058594 101.863281 36.761719 102.144531 36.398438 C 102.425781 36.042969 102.636719 35.632812 102.765625 35.183594 C 102.902344 34.746094 102.96875 34.296875 102.96875 33.851562 C 102.96875 33.578125 102.945312 33.277344 102.898438 32.964844 C 102.851562 32.652344 102.773438 32.332031 102.667969 32.023438"/></g><g clip-path="url(#i)"><path fill="#100F0D" d="M 104.910156 32.292969 Z M 106.828125 29.816406 C 106.746094 29.71875 106.648438 29.632812 106.527344 29.558594 C 106.382812 29.46875 106.222656 29.429688 106.058594 29.441406 C 105.847656 29.453125 105.675781 29.574219 105.589844 29.761719 C 105.585938 29.769531 105.585938 29.773438 105.582031 29.78125 C 105.503906 29.921875 105.425781 30.058594 105.347656 30.183594 C 105.257812 30.324219 105.160156 30.464844 105.058594 30.605469 C 104.957031 30.746094 104.839844 30.886719 104.710938 31.027344 C 104.59375 31.160156 104.464844 31.289062 104.320312 31.425781 C 104.296875 31.4375 104.28125 31.453125 104.265625 31.46875 C 104.089844 31.632812 104 31.808594 104 31.992188 C 104 32.164062 104.0625 32.320312 104.175781 32.441406 C 104.277344 32.546875 104.410156 32.621094 104.570312 32.652344 C 104.742188 32.683594 104.910156 32.65625 105.117188 32.53125 C 105.230469 32.433594 105.328125 32.332031 105.421875 32.230469 C 105.496094 32.148438 105.570312 32.066406 105.65625 31.980469 L 105.683594 34.480469 L 105.648438 37.03125 C 105.648438 37.328125 105.8125 37.472656 105.90625 37.53125 C 106.03125 37.605469 106.171875 37.644531 106.335938 37.644531 C 106.492188 37.644531 106.644531 37.605469 106.785156 37.519531 C 106.972656 37.40625 107.078125 37.226562 107.078125 37.007812 L 107 30.195312 C 106.976562 30.058594 106.921875 29.929688 106.828125 29.816406"/></g><g clip-path="url(#j)"><path fill="#100F0D" d="M 44.210938 15.332031 C 44.210938 14.96875 44.246094 14.605469 44.324219 14.25 C 44.394531 13.90625 44.511719 13.59375 44.675781 13.324219 C 44.832031 13.0625 45.03125 12.859375 45.28125 12.695312 C 45.519531 12.542969 45.820312 12.46875 46.179688 12.46875 C 46.527344 12.46875 46.828125 12.542969 47.066406 12.691406 C 47.320312 12.847656 47.519531 13.042969 47.675781 13.296875 C 47.839844 13.5625 47.960938 13.871094 48.039062 14.21875 C 48.117188 14.578125 48.160156 14.953125 48.160156 15.332031 C 48.160156 15.683594 48.117188 16.011719 48.035156 16.3125 C 47.957031 16.597656 47.835938 16.851562 47.671875 17.058594 C 47.511719 17.265625 47.304688 17.425781 47.046875 17.542969 C 46.554688 17.777344 45.71875 17.796875 45.234375 17.542969 C 44.992188 17.421875 44.804688 17.261719 44.652344 17.054688 C 44.5 16.851562 44.390625 16.597656 44.320312 16.308594 C 44.246094 16.007812 44.210938 15.679688 44.210938 15.332031 Z M 43.558594 17.828125 C 43.820312 18.199219 44.167969 18.507812 44.585938 18.746094 C 45.011719 18.984375 45.527344 19.109375 46.121094 19.109375 C 46.699219 19.109375 47.214844 18.992188 47.648438 18.765625 C 48.078125 18.539062 48.441406 18.242188 48.722656 17.882812 C 49 17.523438 49.207031 17.113281 49.34375 16.667969 C 49.476562 16.226562 49.542969 15.777344 49.542969 15.332031 C 49.542969 15.058594 49.519531 14.757812 49.472656 14.445312 C 49.429688 14.132812 49.351562 13.816406 49.246094 13.503906 C 49.140625 13.195312 49.003906 12.894531 48.835938 12.609375 C 48.664062 12.316406 48.449219 12.058594 48.199219 11.828125 C 47.949219 11.601562 47.648438 11.417969 47.316406 11.28125 C 46.636719 11.007812 45.679688 11.007812 45.003906 11.289062 C 44.667969 11.429688 44.367188 11.617188 44.121094 11.851562 C 43.875 12.085938 43.664062 12.351562 43.492188 12.652344 C 43.324219 12.945312 43.1875 13.246094 43.089844 13.558594 C 42.988281 13.863281 42.914062 14.179688 42.871094 14.484375 C 42.828125 14.789062 42.804688 15.074219 42.804688 15.332031 C 42.804688 15.75 42.863281 16.179688 42.984375 16.613281 C 43.105469 17.054688 43.296875 17.460938 43.558594 17.828125"/></g><g clip-path="url(#k)"><path fill="#100F0D" d="M 51.484375 13.777344 Z M 51.148438 14.136719 C 51.316406 14.167969 51.488281 14.136719 51.691406 14.015625 C 51.804688 13.914062 51.90625 13.816406 52 13.710938 C 52.070312 13.628906 52.148438 13.550781 52.234375 13.460938 L 52.261719 15.960938 L 52.222656 18.511719 C 52.222656 18.8125 52.386719 18.957031 52.484375 19.011719 C 52.605469 19.085938 52.75 19.125 52.910156 19.125 C 53.066406 19.125 53.21875 19.085938 53.359375 19.003906 C 53.550781 18.890625 53.65625 18.710938 53.65625 18.488281 L 53.574219 11.679688 C 53.554688 11.539062 53.496094 11.410156 53.402344 11.300781 C 53.324219 11.199219 53.222656 11.113281 53.101562 11.039062 C 52.953125 10.949219 52.796875 10.914062 52.636719 10.921875 C 52.421875 10.9375 52.25 11.054688 52.164062 11.242188 C 52.164062 11.25 52.160156 11.257812 52.15625 11.261719 C 52.082031 11.40625 52 11.539062 51.921875 11.664062 C 51.832031 11.808594 51.738281 11.949219 51.636719 12.085938 C 51.53125 12.226562 51.414062 12.367188 51.285156 12.511719 C 51.167969 12.640625 51.039062 12.769531 50.894531 12.90625 C 50.875 12.921875 50.855469 12.933594 50.839844 12.949219 C 50.664062 13.113281 50.578125 13.289062 50.578125 13.472656 C 50.578125 13.648438 50.636719 13.800781 50.75 13.921875 C 50.855469 14.027344 50.988281 14.101562 51.148438 14.136719"/></g><g clip-path="url(#l)"><path fill="#100F0D" d="M 60.0625 15.332031 C 60.0625 15.683594 60.023438 16.011719 59.9375 16.3125 C 59.863281 16.597656 59.738281 16.851562 59.574219 17.058594 C 59.414062 17.265625 59.210938 17.425781 58.953125 17.542969 C 58.460938 17.777344 57.625 17.796875 57.136719 17.542969 C 56.898438 17.421875 56.707031 17.261719 56.554688 17.054688 C 56.40625 16.851562 56.289062 16.597656 56.222656 16.308594 C 56.148438 16.007812 56.113281 15.679688 56.113281 15.332031 C 56.113281 14.96875 56.148438 14.605469 56.222656 14.25 C 56.296875 13.90625 56.414062 13.59375 56.578125 13.324219 C 56.734375 13.0625 56.933594 12.859375 57.1875 12.695312 C 57.421875 12.542969 57.722656 12.46875 58.082031 12.46875 C 58.429688 12.46875 58.726562 12.542969 58.96875 12.691406 C 59.222656 12.847656 59.421875 13.042969 59.578125 13.296875 C 59.742188 13.5625 59.863281 13.871094 59.941406 14.21875 C 60.023438 14.578125 60.0625 14.953125 60.0625 15.332031 Z M 61.148438 13.503906 C 61.042969 13.195312 60.90625 12.894531 60.738281 12.609375 C 60.566406 12.316406 60.355469 12.058594 60.105469 11.828125 C 59.851562 11.601562 59.550781 11.417969 59.21875 11.28125 C 58.539062 11.007812 57.582031 11.007812 56.90625 11.289062 C 56.570312 11.429688 56.269531 11.617188 56.023438 11.851562 C 55.777344 12.085938 55.566406 12.351562 55.394531 12.652344 C 55.230469 12.945312 55.09375 13.246094 54.992188 13.558594 C 54.890625 13.863281 54.816406 14.179688 54.773438 14.484375 C 54.730469 14.789062 54.707031 15.074219 54.707031 15.332031 C 54.707031 15.75 54.765625 16.179688 54.886719 16.613281 C 55.007812 17.054688 55.199219 17.460938 55.460938 17.828125 C 55.722656 18.199219 56.070312 18.507812 56.488281 18.746094 C 56.914062 18.984375 57.429688 19.109375 58.023438 19.109375 C 58.605469 19.109375 59.117188 18.992188 59.550781 18.765625 C 59.984375 18.539062 60.34375 18.242188 60.625 17.882812 C 60.902344 17.523438 61.113281 17.113281 61.246094 16.667969 C 61.378906 16.226562 61.445312 15.777344 61.445312 15.332031 C 61.445312 15.058594 61.425781 14.757812 61.375 14.445312 C 61.328125 14.132812 61.253906 13.816406 61.148438 13.503906"/></g><g clip-path="url(#m)"><path fill="#100F0D" d="M 63.386719 13.777344 Z M 63.050781 14.136719 C 63.21875 14.167969 63.390625 14.136719 63.59375 14.015625 C 63.707031 13.914062 63.808594 13.816406 63.902344 13.710938 C 63.972656 13.628906 64.046875 13.550781 64.136719 13.460938 L 64.164062 15.960938 L 64.125 18.511719 C 64.125 18.8125 64.289062 18.957031 64.386719 19.011719 C 64.507812 19.085938 64.652344 19.125 64.8125 19.125 C 64.972656 19.125 65.121094 19.085938 65.261719 19.003906 C 65.453125 18.890625 65.558594 18.710938 65.558594 18.488281 L 65.476562 11.679688 C 65.457031 11.539062 65.398438 11.410156 65.304688 11.300781 C 65.226562 11.199219 65.125 11.113281 65.003906 11.039062 C 64.859375 10.949219 64.699219 10.914062 64.539062 10.921875 C 64.324219 10.9375 64.152344 11.054688 64.070312 11.242188 C 64.0625 11.25 64.0625 11.257812 64.058594 11.261719 C 63.980469 11.40625 63.902344 11.539062 63.824219 11.664062 C 63.738281 11.808594 63.636719 11.949219 63.535156 12.085938 C 63.433594 12.226562 63.320312 12.367188 63.191406 12.511719 C 63.070312 12.640625 62.941406 12.769531 62.796875 12.90625 C 62.777344 12.921875 62.757812 12.933594 62.742188 12.949219 C 62.570312 13.113281 62.480469 13.289062 62.480469 13.472656 C 62.480469 13.648438 62.539062 13.800781 62.652344 13.921875 C 62.757812 14.027344 62.886719 14.101562 63.050781 14.136719"/></g><path fill="#100F0D" d="M 44.628906 23.023438 Z M 45.628906 28.261719 C 45.75 28.335938 45.894531 28.375 46.054688 28.375 C 46.214844 28.375 46.363281 28.328125 46.503906 28.246094 C 46.695312 28.136719 46.800781 27.957031 46.800781 27.738281 L 46.71875 20.925781 C 46.699219 20.785156 46.640625 20.65625 46.546875 20.542969 C 46.46875 20.445312 46.367188 20.359375 46.246094 20.285156 C 46.101562 20.199219 45.945312 20.15625 45.78125 20.171875 C 45.566406 20.183594 45.394531 20.300781 45.3125 20.488281 C 45.308594 20.496094 45.304688 20.503906 45.304688 20.511719 C 45.226562 20.652344 45.144531 20.785156 45.070312 20.914062 C 44.976562 21.054688 44.882812 21.195312 44.78125 21.335938 C 44.675781 21.476562 44.558594 21.613281 44.429688 21.753906 C 44.3125 21.882812 44.183594 22.019531 44.039062 22.152344 C 44.019531 22.164062 44 22.179688 43.984375 22.195312 C 43.808594 22.359375 43.722656 22.535156 43.722656 22.71875 C 43.722656 22.894531 43.78125 23.046875 43.894531 23.167969 C 44 23.277344 44.132812 23.347656 44.292969 23.378906 C 44.460938 23.414062 44.632812 23.386719 44.835938 23.257812 C 44.949219 23.160156 45.050781 23.0625 45.144531 22.960938 C 45.214844 22.878906 45.292969 22.792969 45.378906 22.710938 L 45.40625 25.207031 L 45.367188 27.757812 C 45.367188 28.058594 45.53125 28.199219 45.628906 28.261719"/><path fill="#100F0D" d="M 53.207031 24.578125 C 53.207031 24.925781 53.167969 25.257812 53.082031 25.554688 C 53.007812 25.84375 52.886719 26.09375 52.71875 26.304688 C 52.558594 26.511719 52.355469 26.667969 52.097656 26.789062 C 51.605469 27.023438 50.769531 27.039062 50.28125 26.789062 C 50.042969 26.667969 49.851562 26.507812 49.703125 26.304688 C 49.550781 26.09375 49.4375 25.84375 49.367188 25.554688 C 49.292969 25.253906 49.257812 24.925781 49.257812 24.578125 C 49.257812 24.214844 49.292969 23.851562 49.371094 23.496094 C 49.445312 23.152344 49.558594 22.839844 49.722656 22.570312 C 49.882812 22.308594 50.082031 22.105469 50.332031 21.945312 C 50.566406 21.792969 50.871094 21.714844 51.226562 21.714844 C 51.574219 21.714844 51.875 21.789062 52.113281 21.9375 C 52.371094 22.089844 52.566406 22.289062 52.722656 22.542969 C 52.886719 22.808594 53.007812 23.121094 53.085938 23.464844 C 53.167969 23.824219 53.207031 24.199219 53.207031 24.578125 Z M 54.292969 22.75 C 54.1875 22.441406 54.050781 22.140625 53.886719 21.855469 C 53.710938 21.566406 53.5 21.300781 53.25 21.078125 C 53 20.847656 52.699219 20.664062 52.363281 20.527344 C 51.683594 20.253906 50.726562 20.253906 50.050781 20.535156 C 49.714844 20.671875 49.417969 20.863281 49.167969 21.101562 C 48.921875 21.332031 48.710938 21.597656 48.542969 21.898438 C 48.375 22.1875 48.238281 22.492188 48.136719 22.800781 C 48.035156 23.113281 47.964844 23.425781 47.917969 23.730469 C 47.875 24.035156 47.851562 24.320312 47.851562 24.578125 C 47.851562 24.996094 47.914062 25.425781 48.035156 25.859375 C 48.152344 26.296875 48.34375 26.707031 48.605469 27.070312 C 48.867188 27.445312 49.214844 27.753906 49.632812 27.992188 C 50.058594 28.230469 50.574219 28.351562 51.171875 28.351562 C 51.75 28.351562 52.261719 28.238281 52.695312 28.011719 C 53.128906 27.785156 53.488281 27.488281 53.769531 27.128906 C 54.046875 26.769531 54.257812 26.359375 54.390625 25.914062 C 54.523438 25.472656 54.59375 25.023438 54.59375 24.578125 C 54.59375 24.304688 54.570312 24.007812 54.523438 23.691406 C 54.476562 23.378906 54.398438 23.0625 54.292969 22.75"/><path fill="#100F0D" d="M 60.0625 24.578125 C 60.0625 24.925781 60.023438 25.257812 59.9375 25.554688 C 59.863281 25.84375 59.738281 26.09375 59.574219 26.304688 C 59.414062 26.511719 59.210938 26.667969 58.953125 26.789062 C 58.460938 27.023438 57.625 27.039062 57.136719 26.789062 C 56.898438 26.667969 56.707031 26.507812 56.554688 26.304688 C 56.40625 26.09375 56.289062 25.84375 56.222656 25.554688 C 56.148438 25.253906 56.113281 24.925781 56.113281 24.578125 C 56.113281 24.214844 56.148438 23.851562 56.222656 23.496094 C 56.296875 23.152344 56.414062 22.839844 56.578125 22.570312 C 56.734375 22.308594 56.933594 22.105469 57.1875 21.945312 C 57.421875 21.792969 57.722656 21.714844 58.082031 21.714844 C 58.429688 21.714844 58.726562 21.789062 58.96875 21.9375 C 59.222656 22.089844 59.421875 22.289062 59.578125 22.542969 C 59.742188 22.808594 59.863281 23.121094 59.941406 23.464844 C 60.023438 23.824219 60.0625 24.199219 60.0625 24.578125 Z M 61.148438 22.75 C 61.042969 22.441406 60.90625 22.140625 60.738281 21.855469 C 60.566406 21.566406 60.355469 21.300781 60.105469 21.078125 C 59.851562 20.847656 59.550781 20.664062 59.21875 20.527344 C 58.539062 20.253906 57.582031 20.253906 56.90625 20.535156 C 56.570312 20.671875 56.269531 20.863281 56.023438 21.101562 C 55.777344 21.332031 55.566406 21.597656 55.394531 21.898438 C 55.230469 22.1875 55.09375 22.492188 54.992188 22.800781 C 54.890625 23.113281 54.816406 23.425781 54.773438 23.730469 C 54.730469 24.035156 54.707031 24.320312 54.707031 24.578125 C 54.707031 24.996094 54.765625 25.425781 54.886719 25.859375 C 55.007812 26.296875 55.199219 26.707031 55.460938 27.070312 C 55.722656 27.445312 56.070312 27.753906 56.488281 27.992188 C 56.914062 28.230469 57.429688 28.351562 58.023438 28.351562 C 58.605469 28.351562 59.117188 28.238281 59.550781 28.011719 C 59.984375 27.785156 60.34375 27.488281 60.625 27.128906 C 60.902344 26.769531 61.113281 26.359375 61.246094 25.914062 C 61.378906 25.472656 61.445312 25.023438 61.445312 24.578125 C 61.445312 24.304688 61.425781 24.007812 61.375 23.691406 C 61.328125 23.378906 61.253906 23.0625 61.148438 22.75"/><g clip-path="url(#n)"><path fill="#100F0D" d="M 63.386719 23.023438 Z M 65.304688 20.542969 C 65.226562 20.445312 65.125 20.359375 65.003906 20.285156 C 64.859375 20.199219 64.699219 20.15625 64.539062 20.171875 C 64.324219 20.183594 64.152344 20.300781 64.070312 20.488281 C 64.0625 20.496094 64.0625 20.503906 64.058594 20.511719 C 63.980469 20.652344 63.902344 20.785156 63.824219 20.914062 C 63.738281 21.054688 63.636719 21.195312 63.535156 21.335938 C 63.433594 21.476562 63.320312 21.613281 63.191406 21.753906 C 63.070312 21.882812 62.941406 22.019531 62.796875 22.152344 C 62.777344 22.164062 62.757812 22.179688 62.742188 22.195312 C 62.570312 22.359375 62.480469 22.535156 62.480469 22.71875 C 62.480469 22.894531 62.539062 23.046875 62.652344 23.167969 C 62.757812 23.277344 62.886719 23.347656 63.050781 23.378906 C 63.21875 23.414062 63.390625 23.386719 63.59375 23.257812 C 63.707031 23.160156 63.808594 23.0625 63.902344 22.960938 C 63.972656 22.878906 64.046875 22.792969 64.136719 22.710938 L 64.164062 25.207031 L 64.125 27.757812 C 64.125 28.058594 64.289062 28.199219 64.386719 28.261719 C 64.507812 28.335938 64.652344 28.375 64.8125 28.375 C 64.972656 28.375 65.121094 28.328125 65.261719 28.246094 C 65.453125 28.136719 65.558594 27.957031 65.558594 27.738281 L 65.476562 20.925781 C 65.457031 20.785156 65.398438 20.65625 65.304688 20.542969"/></g><g clip-path="url(#o)"><path fill="#100F0D" d="M 48.160156 33.851562 C 48.160156 34.199219 48.117188 34.527344 48.035156 34.828125 C 47.957031 35.117188 47.835938 35.367188 47.671875 35.574219 C 47.511719 35.785156 47.304688 35.941406 47.046875 36.0625 C 46.554688 36.292969 45.71875 36.3125 45.234375 36.0625 C 44.992188 35.9375 44.804688 35.777344 44.652344 35.574219 C 44.5 35.367188 44.390625 35.117188 44.320312 34.828125 C 44.246094 34.523438 44.210938 34.199219 44.210938 33.851562 C 44.210938 33.484375 44.246094 33.121094 44.324219 32.765625 C 44.394531 32.421875 44.511719 32.113281 44.675781 31.84375 C 44.832031 31.582031 45.03125 31.375 45.28125 31.214844 C 45.519531 31.0625 45.820312 30.984375 46.179688 30.984375 C 46.527344 30.984375 46.828125 31.058594 47.066406 31.210938 C 47.320312 31.363281 47.519531 31.5625 47.675781 31.816406 C 47.839844 32.082031 47.960938 32.390625 48.039062 32.738281 C 48.117188 33.097656 48.160156 33.472656 48.160156 33.851562 Z M 49.246094 32.023438 C 49.140625 31.710938 49.003906 31.414062 48.835938 31.128906 C 48.664062 30.835938 48.449219 30.574219 48.199219 30.347656 C 47.949219 30.121094 47.648438 29.933594 47.316406 29.800781 C 46.636719 29.527344 45.679688 29.523438 45.003906 29.804688 C 44.667969 29.945312 44.367188 30.132812 44.121094 30.371094 C 43.875 30.601562 43.664062 30.871094 43.492188 31.171875 C 43.324219 31.460938 43.1875 31.765625 43.089844 32.074219 C 42.988281 32.382812 42.914062 32.695312 42.871094 33 C 42.828125 33.304688 42.804688 33.589844 42.804688 33.851562 C 42.804688 34.265625 42.863281 34.699219 42.984375 35.132812 C 43.105469 35.570312 43.296875 35.980469 43.558594 36.34375 C 43.820312 36.714844 44.167969 37.027344 44.585938 37.261719 C 45.011719 37.503906 45.527344 37.625 46.121094 37.625 C 46.699219 37.625 47.214844 37.511719 47.648438 37.28125 C 48.078125 37.058594 48.441406 36.761719 48.722656 36.398438 C 49 36.042969 49.207031 35.632812 49.34375 35.183594 C 49.476562 34.746094 49.542969 34.296875 49.542969 33.851562 C 49.542969 33.578125 49.519531 33.277344 49.472656 32.964844 C 49.429688 32.652344 49.351562 32.332031 49.246094 32.023438"/></g><g clip-path="url(#p)"><path fill="#100F0D" d="M 51.484375 32.292969 Z M 53.402344 29.816406 C 53.324219 29.71875 53.222656 29.632812 53.101562 29.558594 C 52.953125 29.46875 52.796875 29.429688 52.636719 29.441406 C 52.421875 29.453125 52.25 29.574219 52.164062 29.761719 C 52.164062 29.769531 52.160156 29.773438 52.15625 29.78125 C 52.082031 29.921875 52 30.058594 51.921875 30.183594 C 51.832031 30.324219 51.738281 30.464844 51.636719 30.605469 C 51.53125 30.746094 51.414062 30.886719 51.285156 31.027344 C 51.167969 31.160156 51.039062 31.289062 50.894531 31.425781 C 50.875 31.4375 50.855469 31.453125 50.839844 31.46875 C 50.664062 31.632812 50.578125 31.808594 50.578125 31.992188 C 50.578125 32.164062 50.636719 32.320312 50.75 32.441406 C 50.855469 32.546875 50.988281 32.621094 51.148438 32.652344 C 51.316406 32.683594 51.488281 32.65625 51.691406 32.53125 C 51.804688 32.433594 51.90625 32.332031 52 32.230469 C 52.070312 32.148438 52.148438 32.066406 52.234375 31.980469 L 52.261719 34.480469 L 52.222656 37.03125 C 52.222656 37.328125 52.386719 37.472656 52.484375 37.53125 C 52.605469 37.605469 52.75 37.644531 52.910156 37.644531 C 53.066406 37.644531 53.21875 37.605469 53.359375 37.519531 C 53.550781 37.40625 53.65625 37.226562 53.65625 37.007812 L 53.574219 30.195312 C 53.554688 30.058594 53.496094 29.929688 53.402344 29.816406"/></g><g clip-path="url(#q)"><path fill="#100F0D" d="M 60.0625 33.851562 C 60.0625 34.199219 60.023438 34.527344 59.9375 34.828125 C 59.863281 35.117188 59.738281 35.367188 59.574219 35.574219 C 59.414062 35.785156 59.210938 35.941406 58.953125 36.0625 C 58.460938 36.292969 57.625 36.3125 57.136719 36.0625 C 56.898438 35.9375 56.707031 35.777344 56.554688 35.574219 C 56.40625 35.367188 56.289062 35.117188 56.222656 34.828125 C 56.148438 34.523438 56.113281 34.199219 56.113281 33.851562 C 56.113281 33.484375 56.148438 33.121094 56.222656 32.765625 C 56.296875 32.421875 56.414062 32.113281 56.578125 31.84375 C 56.734375 31.582031 56.933594 31.375 57.1875 31.214844 C 57.421875 31.0625 57.722656 30.984375 58.082031 30.984375 C 58.429688 30.984375 58.726562 31.058594 58.96875 31.210938 C 59.222656 31.363281 59.421875 31.5625 59.578125 31.816406 C 59.742188 32.082031 59.863281 32.390625 59.941406 32.738281 C 60.023438 33.097656 60.0625 33.472656 60.0625 33.851562 Z M 61.148438 32.023438 C 61.042969 31.710938 60.90625 31.414062 60.738281 31.128906 C 60.566406 30.835938 60.355469 30.574219 60.105469 30.347656 C 59.851562 30.121094 59.550781 29.933594 59.21875 29.800781 C 58.539062 29.527344 57.582031 29.523438 56.90625 29.804688 C 56.570312 29.945312 56.269531 30.132812 56.023438 30.371094 C 55.777344 30.601562 55.566406 30.871094 55.394531 31.171875 C 55.230469 31.460938 55.09375 31.765625 54.992188 32.074219 C 54.890625 32.382812 54.816406 32.695312 54.773438 33 C 54.730469 33.304688 54.707031 33.589844 54.707031 33.851562 C 54.707031 34.265625 54.765625 34.699219 54.886719 35.132812 C 55.007812 35.570312 55.199219 35.980469 55.460938 36.34375 C 55.722656 36.714844 56.070312 37.027344 56.488281 37.261719 C 56.914062 37.503906 57.429688 37.625 58.023438 37.625 C 58.605469 37.625 59.117188 37.511719 59.550781 37.28125 C 59.984375 37.058594 60.34375 36.761719 60.625 36.398438 C 60.902344 36.042969 61.113281 35.632812 61.246094 35.183594 C 61.378906 34.746094 61.445312 34.296875 61.445312 33.851562 C 61.445312 33.578125 61.425781 33.277344 61.375 32.964844 C 61.328125 32.652344 61.253906 32.332031 61.148438 32.023438"/></g><g clip-path="url(#r)"><path fill="#100F0D" d="M 63.386719 32.292969 Z M 65.304688 29.816406 C 65.226562 29.71875 65.125 29.632812 65.003906 29.558594 C 64.859375 29.46875 64.699219 29.429688 64.539062 29.441406 C 64.324219 29.453125 64.152344 29.574219 64.070312 29.761719 C 64.0625 29.769531 64.0625 29.773438 64.058594 29.78125 C 63.980469 29.921875 63.902344 30.058594 63.824219 30.183594 C 63.738281 30.324219 63.636719 30.464844 63.535156 30.605469 C 63.433594 30.746094 63.320312 30.886719 63.191406 31.027344 C 63.070312 31.160156 62.941406 31.289062 62.796875 31.425781 C 62.777344 31.4375 62.757812 31.453125 62.742188 31.46875 C 62.570312 31.632812 62.480469 31.808594 62.480469 31.992188 C 62.480469 32.164062 62.539062 32.320312 62.652344 32.441406 C 62.757812 32.546875 62.886719 32.621094 63.050781 32.652344 C 63.21875 32.683594 63.390625 32.65625 63.59375 32.53125 C 63.707031 32.433594 63.808594 32.332031 63.902344 32.230469 C 63.972656 32.148438 64.046875 32.066406 64.136719 31.980469 L 64.164062 34.480469 L 64.125 37.03125 C 64.125 37.328125 64.289062 37.472656 64.386719 37.53125 C 64.507812 37.605469 64.652344 37.644531 64.8125 37.644531 C 64.972656 37.644531 65.121094 37.605469 65.261719 37.519531 C 65.453125 37.40625 65.558594 37.226562 65.558594 37.007812 L 65.476562 30.195312 C 65.457031 30.058594 65.398438 29.929688 65.304688 29.816406"/></g><g clip-path="url(#s)"><path fill="#AFB1EB" d="M 130.277344 16 C 129.582031 15.304688 128.886719 14.613281 128.191406 13.914062 C 127.710938 13.4375 127.234375 12.957031 126.753906 12.476562 C 126.589844 12.3125 126.421875 12.148438 126.257812 11.980469 C 126.21875 11.945312 126.089844 11.761719 126.03125 11.757812 C 125.96875 11.75 125.675781 12.085938 125.625 12.136719 C 125.425781 12.320312 125.21875 12.496094 125.011719 12.660156 C 124.585938 13 124.140625 13.308594 123.671875 13.585938 C 122.773438 14.121094 121.804688 14.535156 120.796875 14.816406 C 118.835938 15.371094 116.742188 15.410156 114.761719 14.9375 C 112.707031 14.453125 110.753906 13.414062 109.242188 11.933594 C 107.511719 10.246094 105.59375 8.84375 103.355469 7.894531 C 98.980469 6.046875 93.9375 6.007812 89.539062 7.796875 C 87.304688 8.703125 85.28125 10.0625 83.574219 11.761719 C 81.691406 13.640625 79.21875 14.851562 76.574219 15.183594 C 74.109375 15.492188 71.53125 15.027344 69.355469 13.828125 C 68.332031 13.265625 67.398438 12.574219 66.574219 11.746094 C 65.699219 10.875 64.738281 10.089844 63.707031 9.410156 C 59.71875 6.792969 54.742188 5.878906 50.074219 6.871094 C 47.730469 7.371094 45.496094 8.339844 43.53125 9.710938 C 42.535156 10.410156 41.679688 11.234375 40.792969 12.058594 C 40.015625 12.78125 39.144531 13.398438 38.207031 13.890625 C 34.511719 15.832031 29.949219 15.691406 26.386719 13.523438 C 25.933594 13.246094 25.5 12.941406 25.089844 12.609375 C 24.890625 12.449219 24.695312 12.28125 24.507812 12.109375 C 24.445312 12.050781 24.191406 11.75 24.128906 11.761719 C 24.0625 11.769531 23.929688 11.957031 23.886719 12.003906 C 23.71875 12.171875 23.546875 12.34375 23.378906 12.511719 C 22.417969 13.472656 21.457031 14.433594 20.492188 15.394531 C 20.289062 15.597656 20.089844 15.796875 19.886719 16 C 23.191406 19.300781 27.71875 21.210938 32.390625 21.269531 C 33.664062 21.285156 34.9375 21.167969 36.1875 20.914062 C 35.316406 25.238281 36.089844 29.75 38.289062 33.5625 C 40.316406 37.078125 43.597656 39.828125 47.375 41.28125 C 49.429688 42.078125 51.636719 42.488281 53.839844 42.488281 C 57.664062 42.476562 61.398438 41.25 64.488281 39.003906 C 68.003906 36.449219 70.46875 32.605469 71.421875 28.378906 C 71.972656 25.9375 71.988281 23.371094 71.496094 20.914062 C 73.851562 21.390625 76.3125 21.390625 78.667969 20.914062 C 77.800781 25.234375 78.566406 29.753906 80.769531 33.5625 C 82.800781 37.074219 86.074219 39.824219 89.851562 41.28125 C 91.90625 42.078125 94.117188 42.488281 96.320312 42.488281 C 100.152344 42.488281 103.914062 41.234375 107.003906 38.976562 C 110.484375 36.429688 112.929688 32.625 113.890625 28.433594 C 114.449219 25.972656 114.472656 23.390625 113.972656 20.914062 C 118.472656 21.820312 123.246094 20.957031 127.132812 18.511719 C 128.273438 17.792969 129.324219 16.949219 130.277344 16 Z M 65.828125 24.839844 C 65.6875 30.082031 61.984375 34.753906 56.90625 36.074219 C 51.875 37.382812 46.320312 35.253906 43.625 30.765625 C 42.316406 28.582031 41.6875 26.09375 41.882812 23.546875 C 42.070312 21.167969 42.964844 18.867188 44.453125 17 C 47.460938 13.238281 52.566406 11.601562 57.214844 12.957031 C 61.789062 14.292969 65.207031 18.355469 65.753906 23.085938 C 65.824219 23.667969 65.847656 24.253906 65.828125 24.839844 Z M 108.3125 24.839844 C 108.226562 27.480469 107.277344 29.898438 105.683594 31.992188 C 104.160156 33.996094 101.808594 35.449219 99.386719 36.074219 C 94.394531 37.367188 88.808594 35.28125 86.132812 30.804688 C 84.800781 28.574219 84.15625 26.054688 84.375 23.453125 C 84.574219 21.09375 85.480469 18.8125 86.96875 16.964844 C 89.941406 13.265625 94.941406 11.648438 99.519531 12.90625 C 104.183594 14.1875 107.679688 18.285156 108.238281 23.085938 C 108.300781 23.667969 108.328125 24.253906 108.3125 24.839844 Z M 108.3125 24.839844"/></g><path d="M 12.214844 49.011719 L 2.90625 49.011719 L 2.90625 51.523438 L 6.167969 51.523438 L 6.167969 61.878906 L 8.976562 61.878906 L 8.976562 51.523438 L 12.214844 51.523438 Z M 12.214844 49.011719"/><path d="M 18.175781 53.128906 C 17.230469 53.128906 16.375 53.558594 15.773438 54.265625 L 15.773438 47.191406 L 13.027344 47.191406 L 13.027344 61.878906 L 15.773438 61.878906 L 15.773438 57.035156 C 15.773438 56.285156 16.394531 55.554688 17.230469 55.554688 C 18.003906 55.554688 18.542969 56.15625 18.542969 56.90625 L 18.542969 61.878906 L 21.285156 61.878906 L 21.285156 56.453125 C 21.285156 54.566406 19.914062 53.128906 18.175781 53.128906 Z M 18.175781 53.128906"/><path d="M 32.007812 57.570312 C 32.007812 54.886719 30.164062 53.109375 27.394531 53.109375 C 24.628906 53.109375 22.679688 54.910156 22.679688 57.589844 C 22.679688 60.273438 24.609375 62.054688 27.480469 62.054688 C 29.863281 62.054688 31.449219 60.789062 31.878906 58.921875 L 29.238281 58.921875 C 29.003906 59.605469 28.382812 60.015625 27.441406 60.015625 C 26.195312 60.015625 25.554688 59.261719 25.445312 58.042969 L 32.007812 58.042969 Z M 27.441406 55.210938 C 28.359375 55.210938 28.898438 55.640625 29.175781 56.390625 L 25.613281 56.390625 C 25.894531 55.660156 26.472656 55.210938 27.441406 55.210938 Z M 27.441406 55.210938"/><path d="M 44.507812 62.054688 C 47.0625 62.054688 49.269531 60.613281 50.363281 58.511719 L 47.917969 57.246094 C 47.296875 58.46875 46.03125 59.285156 44.507812 59.285156 C 42.34375 59.285156 40.691406 57.613281 40.691406 55.445312 C 40.691406 53.28125 42.34375 51.605469 44.507812 51.605469 C 46.03125 51.605469 47.296875 52.425781 47.917969 53.644531 L 50.363281 52.378906 C 49.269531 50.277344 47.0625 48.839844 44.507812 48.839844 C 40.863281 48.839844 37.902344 51.800781 37.902344 55.445312 C 37.902344 59.09375 40.863281 62.054688 44.507812 62.054688 Z M 44.507812 62.054688"/><path d="M 56.023438 62.054688 C 58.898438 62.054688 60.785156 60.164062 60.785156 57.589844 C 60.785156 55.015625 58.898438 53.128906 56.023438 53.128906 C 53.148438 53.128906 51.242188 55.015625 51.242188 57.589844 C 51.242188 60.164062 53.148438 62.054688 56.023438 62.054688 Z M 56.023438 59.628906 C 54.84375 59.605469 53.988281 58.75 53.988281 57.589844 C 53.988281 56.433594 54.84375 55.574219 56.023438 55.554688 C 57.179688 55.574219 58.058594 56.433594 58.058594 57.589844 C 58.058594 58.75 57.179688 59.605469 56.023438 59.628906 Z M 56.023438 59.628906"/><path d="M 68.480469 47.191406 L 68.480469 54.054688 C 67.839844 53.472656 67.023438 53.128906 66.039062 53.128906 C 63.65625 53.128906 61.792969 55.101562 61.792969 57.589844 C 61.792969 60.078125 63.65625 62.054688 66.039062 62.054688 C 67.023438 62.054688 67.839844 61.707031 68.480469 61.128906 L 68.480469 61.902344 L 71.207031 61.878906 L 71.207031 47.191406 Z M 66.574219 59.628906 C 65.4375 59.628906 64.535156 58.726562 64.535156 57.589844 C 64.535156 56.453125 65.4375 55.554688 66.574219 55.554688 C 67.6875 55.554688 68.609375 56.453125 68.609375 57.589844 C 68.609375 58.726562 67.6875 59.628906 66.574219 59.628906 Z M 66.574219 59.628906"/><path d="M 82.121094 57.570312 C 82.121094 54.886719 80.277344 53.109375 77.507812 53.109375 C 74.742188 53.109375 72.792969 54.910156 72.792969 57.589844 C 72.792969 60.273438 74.722656 62.054688 77.59375 62.054688 C 79.976562 62.054688 81.5625 60.789062 81.992188 58.921875 L 79.351562 58.921875 C 79.117188 59.605469 78.496094 60.015625 77.554688 60.015625 C 76.308594 60.015625 75.667969 59.261719 75.558594 58.042969 L 82.121094 58.042969 Z M 77.554688 55.210938 C 78.472656 55.210938 79.011719 55.640625 79.289062 56.390625 L 75.726562 56.390625 C 76.007812 55.660156 76.585938 55.210938 77.554688 55.210938 Z M 77.554688 55.210938"/><path d="M 94.902344 49.011719 L 90.804688 57.914062 L 86.75 49.011719 L 83.6875 49.011719 L 83.6875 61.878906 L 86.515625 61.878906 L 86.515625 54.203125 L 89.988281 61.878906 L 91.621094 61.878906 L 95.113281 54.222656 L 95.113281 61.878906 L 97.949219 61.878906 L 97.949219 49.011719 Z M 94.902344 49.011719"/><path d="M 109.699219 59.648438 C 109.332031 59.648438 108.949219 59.519531 108.949219 58.8125 L 108.949219 53.304688 L 106.222656 53.304688 L 106.222656 54.054688 C 105.582031 53.472656 104.765625 53.128906 103.777344 53.128906 C 101.398438 53.128906 99.53125 55.101562 99.53125 57.589844 C 99.53125 60.078125 101.398438 62.054688 103.777344 62.054688 C 105.019531 62.054688 106.027344 61.492188 106.71875 60.59375 C 107.25 61.472656 108.195312 62.054688 109.355469 62.054688 C 109.632812 62.054688 109.890625 61.964844 110.085938 61.878906 L 110.085938 59.648438 Z M 104.316406 59.628906 C 103.175781 59.628906 102.277344 58.726562 102.277344 57.589844 C 102.277344 56.453125 103.175781 55.554688 104.316406 55.554688 C 105.429688 55.554688 106.351562 56.453125 106.351562 57.589844 C 106.351562 58.726562 105.429688 59.628906 104.316406 59.628906 Z M 104.316406 59.628906"/><path d="M 116.515625 53.128906 C 115.527344 53.128906 114.667969 53.601562 114.070312 54.351562 L 114.070312 53.304688 L 111.324219 53.304688 L 111.324219 61.878906 L 114.070312 61.878906 L 114.070312 56.90625 C 114.070312 56.132812 114.714844 55.554688 115.507812 55.554688 C 116.300781 55.554688 116.859375 56.132812 116.859375 56.90625 L 116.859375 61.878906 L 119.582031 61.878906 L 119.582031 56.453125 C 119.582031 54.566406 118.210938 53.128906 116.515625 53.128906 Z M 116.515625 53.128906"/><path d="M 123.011719 51.863281 C 123.828125 51.863281 124.511719 51.179688 124.511719 50.363281 C 124.511719 49.527344 123.828125 48.863281 123.011719 48.863281 C 122.199219 48.863281 121.511719 49.527344 121.511719 50.363281 C 121.511719 51.179688 122.199219 51.863281 123.011719 51.863281 Z M 121.636719 61.878906 L 124.363281 61.878906 L 124.363281 53.304688 L 121.636719 53.304688 Z M 121.636719 61.878906"/><path d="M 136.179688 59.648438 C 135.8125 59.648438 135.429688 59.519531 135.429688 58.8125 L 135.429688 53.304688 L 132.703125 53.304688 L 132.703125 54.054688 C 132.0625 53.472656 131.25 53.128906 130.261719 53.128906 C 127.882812 53.128906 126.015625 55.101562 126.015625 57.589844 C 126.015625 60.078125 127.882812 62.054688 130.261719 62.054688 C 131.503906 62.054688 132.511719 61.492188 133.199219 60.59375 C 133.734375 61.472656 134.679688 62.054688 135.835938 62.054688 C 136.117188 62.054688 136.375 61.964844 136.566406 61.878906 L 136.566406 59.648438 Z M 130.796875 59.628906 C 129.660156 59.628906 128.761719 58.726562 128.761719 57.589844 C 128.761719 56.453125 129.660156 55.554688 130.796875 55.554688 C 131.910156 55.554688 132.832031 56.453125 132.832031 57.589844 C 132.832031 58.726562 131.910156 59.628906 130.796875 59.628906 Z M 130.796875 59.628906"/><path d="M 141.988281 62.054688 C 144.5625 62.054688 146.320312 60.550781 146.6875 58.40625 L 143.855469 58.40625 C 143.574219 59.132812 142.867188 59.605469 141.988281 59.628906 C 140.808594 59.605469 139.953125 58.75 139.953125 57.589844 C 139.953125 56.433594 140.808594 55.574219 141.988281 55.554688 C 142.867188 55.574219 143.574219 56.046875 143.855469 56.777344 L 146.6875 56.777344 C 146.320312 54.628906 144.5625 53.128906 141.988281 53.128906 C 139.117188 53.128906 137.207031 55.015625 137.207031 57.589844 C 137.207031 60.164062 139.117188 62.054688 141.988281 62.054688 Z M 141.988281 62.054688"/><path d="M 23.382812 67.472656 L 22.90625 69.496094 L 22.363281 67.472656 L 21.648438 67.472656 L 21.109375 69.496094 L 20.636719 67.472656 L 19.804688 67.472656 L 20.605469 70.546875 L 21.523438 70.546875 L 22.007812 68.589844 L 22.488281 70.546875 L 23.40625 70.546875 L 24.210938 67.472656 Z M 23.382812 67.472656"/><path d="M 26.785156 67.472656 L 26.785156 68.667969 L 25.679688 68.667969 L 25.679688 67.472656 L 24.898438 67.472656 L 24.898438 70.546875 L 25.679688 70.546875 L 25.679688 69.347656 L 26.785156 69.347656 L 26.785156 70.546875 L 27.570312 70.546875 L 27.570312 67.472656 Z M 26.785156 67.472656"/><path d="M 28.65625 70.546875 L 29.441406 70.546875 L 29.441406 67.472656 L 28.65625 67.472656 Z M 28.65625 70.546875"/><path d="M 31.300781 69.867188 L 31.300781 67.472656 L 30.515625 67.472656 L 30.515625 70.546875 L 32.277344 70.546875 L 32.277344 69.867188 Z M 31.300781 69.867188"/><path d="M 34.980469 68.15625 L 34.980469 67.472656 L 33.078125 67.472656 L 33.078125 70.546875 L 34.980469 70.546875 L 34.980469 69.867188 L 33.859375 69.867188 L 33.859375 69.347656 L 34.808594 69.347656 L 34.808594 68.671875 L 33.859375 68.671875 L 33.859375 68.15625 Z M 34.980469 68.15625"/><path d="M 38.96875 71.761719 L 38.96875 71.222656 C 38.597656 71.238281 38.300781 70.800781 38.300781 69.375 C 38.300781 67.933594 38.597656 67.488281 38.96875 67.503906 L 38.96875 66.964844 C 38.226562 66.949219 37.640625 67.550781 37.640625 69.375 C 37.640625 71.1875 38.226562 71.777344 38.96875 71.761719 Z M 38.96875 71.761719"/><path d="M 41.953125 67.472656 L 39.667969 67.472656 L 39.667969 68.15625 L 40.421875 68.15625 L 40.421875 70.546875 L 41.199219 70.546875 L 41.199219 68.15625 L 41.953125 68.15625 Z M 41.953125 67.472656"/><path d="M 44.570312 67.472656 L 44.570312 68.667969 L 43.464844 68.667969 L 43.464844 67.472656 L 42.679688 67.472656 L 42.679688 70.546875 L 43.464844 70.546875 L 43.464844 69.347656 L 44.570312 69.347656 L 44.570312 70.546875 L 45.355469 70.546875 L 45.355469 67.472656 Z M 44.570312 67.472656"/><path d="M 48.34375 68.15625 L 48.34375 67.472656 L 46.441406 67.472656 L 46.441406 70.546875 L 48.34375 70.546875 L 48.34375 69.867188 L 47.222656 69.867188 L 47.222656 69.347656 L 48.171875 69.347656 L 48.171875 68.671875 L 47.222656 68.671875 L 47.222656 68.15625 Z M 48.34375 68.15625"/><path d="M 50.761719 70.589844 C 51.375 70.589844 51.90625 70.238281 52.167969 69.726562 L 51.492188 69.382812 C 51.359375 69.648438 51.09375 69.820312 50.761719 69.820312 C 50.296875 69.820312 49.949219 69.476562 49.949219 69.011719 C 49.949219 68.542969 50.296875 68.199219 50.761719 68.199219 C 51.09375 68.199219 51.359375 68.371094 51.492188 68.636719 L 52.167969 68.292969 C 51.90625 67.78125 51.375 67.433594 50.761719 67.433594 C 49.886719 67.433594 49.1875 68.140625 49.1875 69.011719 C 49.1875 69.882812 49.886719 70.589844 50.761719 70.589844 Z M 50.761719 70.589844"/><path d="M 54.53125 70.589844 C 55.402344 70.589844 56.109375 69.882812 56.109375 69.011719 C 56.109375 68.140625 55.402344 67.433594 54.53125 67.433594 C 53.660156 67.433594 52.957031 68.140625 52.957031 69.011719 C 52.957031 69.882812 53.660156 70.589844 54.53125 70.589844 Z M 54.53125 69.820312 C 54.066406 69.820312 53.71875 69.476562 53.71875 69.011719 C 53.71875 68.542969 54.066406 68.199219 54.53125 68.199219 C 54.992188 68.199219 55.34375 68.542969 55.34375 69.011719 C 55.34375 69.476562 54.992188 69.820312 54.53125 69.820312 Z M 54.53125 69.820312"/><path d="M 57.050781 70.546875 L 58.121094 70.546875 C 58.960938 70.546875 59.65625 69.859375 59.65625 69.011719 C 59.65625 68.160156 58.960938 67.472656 58.121094 67.472656 L 57.050781 67.472656 Z M 57.835938 69.867188 L 57.835938 68.15625 L 58.121094 68.15625 C 58.542969 68.15625 58.878906 68.527344 58.878906 69.011719 C 58.878906 69.492188 58.542969 69.867188 58.121094 69.867188 Z M 57.835938 69.867188"/><path d="M 62.535156 68.15625 L 62.535156 67.472656 L 60.628906 67.472656 L 60.628906 70.546875 L 62.535156 70.546875 L 62.535156 69.867188 L 61.414062 69.867188 L 61.414062 69.347656 L 62.359375 69.347656 L 62.359375 68.671875 L 61.414062 68.671875 L 61.414062 68.15625 Z M 62.535156 68.15625"/><path d="M 66.148438 67.472656 L 65.238281 69.429688 L 64.332031 67.472656 L 63.480469 67.472656 L 63.480469 70.546875 L 64.265625 70.546875 L 64.265625 68.890625 L 65.027344 70.546875 L 65.449219 70.546875 L 66.210938 68.902344 L 66.210938 70.546875 L 66.996094 70.546875 L 66.996094 67.472656 Z M 66.148438 67.472656"/><path d="M 69.933594 70.546875 L 70.773438 70.546875 L 69.664062 67.472656 L 68.785156 67.472656 L 67.675781 70.546875 L 68.519531 70.546875 L 68.691406 70.007812 L 69.765625 70.007812 Z M 68.890625 69.375 L 69.226562 68.289062 L 69.570312 69.375 Z M 68.890625 69.375"/><path d="M 73.671875 67.472656 L 73.671875 69.351562 L 72.28125 67.472656 L 71.460938 67.472656 L 71.460938 70.546875 L 72.246094 70.546875 L 72.246094 68.664062 L 73.628906 70.546875 L 74.453125 70.546875 L 74.453125 67.472656 Z M 73.671875 67.472656"/><path d="M 75.53125 70.546875 L 76.316406 70.546875 L 76.316406 67.472656 L 75.53125 67.472656 Z M 75.53125 70.546875"/><path d="M 79.277344 70.546875 L 80.117188 70.546875 L 79.007812 67.472656 L 78.128906 67.472656 L 77.019531 70.546875 L 77.863281 70.546875 L 78.035156 70.007812 L 79.109375 70.007812 Z M 78.234375 69.375 L 78.570312 68.289062 L 78.914062 69.375 Z M 78.234375 69.375"/><path d="M 82.273438 70.589844 C 82.882812 70.589844 83.414062 70.238281 83.679688 69.726562 L 83.003906 69.382812 C 82.867188 69.648438 82.601562 69.820312 82.273438 69.820312 C 81.808594 69.820312 81.460938 69.476562 81.460938 69.011719 C 81.460938 68.542969 81.808594 68.199219 82.273438 68.199219 C 82.601562 68.199219 82.867188 68.371094 83.003906 68.636719 L 83.679688 68.292969 C 83.414062 67.78125 82.882812 67.433594 82.273438 67.433594 C 81.398438 67.433594 80.699219 68.140625 80.699219 69.011719 C 80.699219 69.882812 81.398438 70.589844 82.273438 70.589844 Z M 82.273438 70.589844"/><path d="M 84.542969 71.761719 C 85.289062 71.777344 85.871094 71.1875 85.871094 69.375 C 85.871094 67.550781 85.289062 66.949219 84.542969 66.964844 L 84.542969 67.503906 C 84.910156 67.488281 85.210938 67.933594 85.210938 69.375 C 85.210938 70.800781 84.910156 71.238281 84.542969 71.222656 Z M 84.542969 71.761719"/><path d="M 89.425781 71.996094 L 89.761719 71.996094 L 89.761719 71.574219 C 89.449219 71.574219 89.425781 71.558594 89.425781 71.40625 L 89.425781 70.28125 C 89.425781 69.933594 89.355469 69.710938 89.230469 69.542969 C 89.355469 69.378906 89.425781 69.160156 89.425781 68.8125 L 89.425781 67.714844 C 89.425781 67.449219 89.496094 67.5 89.761719 67.5 L 89.761719 67.085938 L 89.425781 67.085938 C 89.101562 67.085938 88.855469 67.394531 88.855469 67.78125 L 88.855469 68.75 C 88.855469 69.21875 88.792969 69.234375 88.550781 69.332031 L 88.550781 69.757812 C 88.800781 69.855469 88.855469 69.882812 88.855469 70.34375 L 88.855469 71.304688 C 88.855469 71.695312 89.101562 71.996094 89.425781 71.996094 Z M 89.425781 71.996094"/><path d="M 93.933594 70.589844 C 94.542969 70.589844 95.074219 70.238281 95.339844 69.726562 L 94.664062 69.382812 C 94.527344 69.648438 94.261719 69.820312 93.933594 69.820312 C 93.46875 69.820312 93.121094 69.476562 93.121094 69.011719 C 93.121094 68.542969 93.46875 68.199219 93.933594 68.199219 C 94.261719 68.199219 94.527344 68.371094 94.664062 68.636719 L 95.339844 68.292969 C 95.074219 67.78125 94.542969 67.433594 93.933594 67.433594 C 93.058594 67.433594 92.359375 68.140625 92.359375 69.011719 C 92.359375 69.882812 93.058594 70.589844 93.933594 70.589844 Z M 93.933594 70.589844"/><path d="M 97.703125 70.589844 C 98.574219 70.589844 99.28125 69.882812 99.28125 69.011719 C 99.28125 68.140625 98.574219 67.433594 97.703125 67.433594 C 96.828125 67.433594 96.128906 68.140625 96.128906 69.011719 C 96.128906 69.882812 96.828125 70.589844 97.703125 70.589844 Z M 97.703125 69.820312 C 97.238281 69.820312 96.890625 69.476562 96.890625 69.011719 C 96.890625 68.542969 97.238281 68.199219 97.703125 68.199219 C 98.164062 68.199219 98.511719 68.542969 98.511719 69.011719 C 98.511719 69.476562 98.164062 69.820312 97.703125 69.820312 Z M 97.703125 69.820312"/><path d="M 100.222656 70.546875 L 101.292969 70.546875 C 102.132812 70.546875 102.828125 69.859375 102.828125 69.011719 C 102.828125 68.160156 102.132812 67.472656 101.292969 67.472656 L 100.222656 67.472656 Z M 101.007812 69.867188 L 101.007812 68.15625 L 101.292969 68.15625 C 101.714844 68.15625 102.050781 68.527344 102.050781 69.011719 C 102.050781 69.492188 101.714844 69.867188 101.292969 69.867188 Z M 101.007812 69.867188"/><path d="M 103.800781 70.546875 L 104.582031 70.546875 L 104.582031 67.472656 L 103.800781 67.472656 Z M 103.800781 70.546875"/><path d="M 107.867188 67.472656 L 107.867188 69.351562 L 106.476562 67.472656 L 105.65625 67.472656 L 105.65625 70.546875 L 106.441406 70.546875 L 106.441406 68.664062 L 107.828125 70.546875 L 108.652344 70.546875 L 108.652344 67.472656 Z M 107.867188 67.472656"/><path d="M 111.167969 68.839844 L 111.167969 69.441406 L 111.871094 69.441406 C 111.726562 69.671875 111.476562 69.820312 111.175781 69.820312 C 110.710938 69.820312 110.363281 69.476562 110.363281 69.011719 C 110.363281 68.542969 110.710938 68.199219 111.175781 68.199219 C 111.503906 68.199219 111.769531 68.371094 111.902344 68.636719 L 112.578125 68.292969 C 112.316406 67.78125 111.785156 67.433594 111.175781 67.433594 C 110.300781 67.433594 109.597656 68.140625 109.597656 69.011719 C 109.597656 69.882812 110.300781 70.589844 111.175781 70.589844 C 112.046875 70.589844 112.753906 69.882812 112.753906 69.011719 L 112.753906 68.839844 Z M 111.167969 68.839844"/><path d="M 116.476562 70.546875 L 117.039062 70.546875 L 117.039062 69.558594 L 118.027344 69.558594 L 118.027344 68.996094 L 117.039062 68.996094 L 117.039062 68.007812 L 116.476562 68.007812 L 116.476562 68.996094 L 115.488281 68.996094 L 115.488281 69.558594 L 116.476562 69.558594 Z M 116.476562 70.546875"/><path d="M 120.214844 70.546875 L 120.777344 70.546875 L 120.777344 69.558594 L 121.765625 69.558594 L 121.765625 68.996094 L 120.777344 68.996094 L 120.777344 68.007812 L 120.214844 68.007812 L 120.214844 68.996094 L 119.226562 68.996094 L 119.226562 69.558594 L 120.214844 69.558594 Z M 120.214844 70.546875"/><path d="M 123.375 69.265625 C 123.601562 69.265625 123.785156 69.082031 123.785156 68.855469 C 123.785156 68.640625 123.601562 68.457031 123.375 68.457031 C 123.164062 68.457031 122.976562 68.640625 122.976562 68.855469 C 122.976562 69.082031 123.164062 69.265625 123.375 69.265625 Z M 123.164062 71.308594 L 123.90625 69.996094 L 123.1875 69.996094 L 122.714844 71.308594 Z M 123.164062 71.308594"/><path d="M 126.585938 71.996094 L 126.921875 71.996094 C 127.25 71.996094 127.488281 71.695312 127.488281 71.304688 L 127.488281 70.34375 C 127.488281 69.882812 127.550781 69.855469 127.796875 69.757812 L 127.796875 69.332031 C 127.554688 69.234375 127.488281 69.21875 127.488281 68.75 L 127.488281 67.78125 C 127.488281 67.394531 127.25 67.085938 126.921875 67.085938 L 126.585938 67.085938 L 126.585938 67.5 C 126.855469 67.5 126.921875 67.449219 126.921875 67.714844 L 126.921875 68.8125 C 126.921875 69.160156 126.992188 69.378906 127.121094 69.542969 C 126.992188 69.710938 126.921875 69.933594 126.921875 70.28125 L 126.921875 71.40625 C 126.921875 71.558594 126.894531 71.574219 126.585938 71.574219 Z M 126.585938 71.996094"/></svg>